<svg width="57" height="60" viewBox="0 0 57 60" fill="none" xmlns="http://www.w3.org/2000/svg">
<path d="M56.8506 12.0252H45.3846V0H11.466V12.0236H0V48.1059H11.466V60H45.3846V48.1059H56.8506V12.0252ZM15.6144 4.14834H41.2362V12.0236H15.6144V4.14834ZM41.2362 55.8533H15.6127V36.2134H41.2346V55.8533H41.2362ZM52.7022 43.9592H45.3846V32.065H11.4644V43.9592H4.14669V16.1736H52.7006V43.9592H52.7022Z" fill="#dedede"/>
<path d="M43.2689 27.3874C45.1017 27.3874 46.5875 25.9015 46.5875 24.0687C46.5875 22.2358 45.1017 20.75 43.2689 20.75C41.436 20.75 39.9502 22.2358 39.9502 24.0687C39.9502 25.9015 41.436 27.3874 43.2689 27.3874Z" fill="#dedede"/>
<path d="M14.5656 24.1218C16.2747 24.1218 17.6653 25.5123 17.6653 27.2214H21.8136C21.8136 23.2241 18.563 19.9734 14.5656 19.9734C10.5699 19.9734 7.31763 23.2241 7.31763 27.2214H11.466C11.466 25.5123 12.8565 24.1218 14.5656 24.1218Z" fill="#dedede"/>
</svg>
