<svg width="61" height="60" viewBox="0 0 61 60" fill="none" xmlns="http://www.w3.org/2000/svg">
<path d="M60.5019 0H12.6427V26.2571L0 38.8998L2.70543 41.6052L16.609 27.7016C17.9786 26.3321 19.7995 25.5777 21.7368 25.5777C23.6741 25.5777 25.495 26.3321 26.8646 27.7016C29.6909 30.5295 29.6909 35.1293 26.8646 37.9556C25.3848 39.4353 23.3588 39.8562 21.3894 40.0918L18.7666 40.4055L24.0184 51.6725L18.3963 57.2946L21.1018 60L28.6167 52.4851L24.404 43.4461C26.1974 43.0038 28.0153 42.2158 29.5685 40.6626C31.1232 39.1079 32.1148 37.2028 32.5494 35.1997H60.5034V0H60.5019ZM54.5325 3.82556L36.5723 20.7927L18.6121 3.82556H54.5325ZM32.7085 31.3726C32.4009 29.039 31.3558 26.785 29.5669 24.9962C27.4751 22.9044 24.6932 21.7521 21.7353 21.7521C19.8653 21.7521 18.0673 22.2127 16.4682 23.0803V7.06197L36.5723 26.0566L56.6764 7.06197V31.3726H32.7085Z" fill="#785FFF"/>
</svg>
