<svg width="75" height="61" viewBox="0 0 75 61" fill="none" xmlns="http://www.w3.org/2000/svg">
<path d="M4.11484 16.9851C6.38741 16.9851 8.22968 15.3485 8.22968 13.3295C8.22968 11.3106 6.38741 9.67395 4.11484 9.67395C1.84228 9.67395 0 11.3106 0 13.3295C0 15.3485 1.84228 16.9851 4.11484 16.9851Z" fill="#785FFF"/>
<path d="M65.9321 26.5995C60.9758 26.5995 56.9453 30.1802 56.9453 34.5835H62.0889C62.0889 32.7008 63.813 31.1691 65.9321 31.1691C68.0513 31.1691 69.7754 32.7008 69.7754 34.5835H74.9189C74.9189 30.1802 70.8864 26.5995 65.9321 26.5995Z" fill="#785FFF"/>
<path d="M62.1957 53.4158C62.0928 53.4871 59.6363 55.1578 55.3671 55.1578C53.2294 55.1578 51.2708 54.4723 49.9623 53.8673L54.2129 45.0864L43.8414 40.738C52.0403 29.9081 57.0501 14.6037 57.0501 0.0395508H51.9065C51.9065 14.7115 46.5428 30.122 37.9099 40.2591L35.9985 42.5037L47.5222 47.3365L43.576 55.4904L45.1417 56.5743C45.3269 56.7023 49.7586 59.7273 55.365 59.7273C61.5476 59.7273 65.2674 57.0861 65.4238 56.9728L62.1751 53.4305L62.1957 53.4158Z" fill="#785FFF"/>
<path d="M42.0415 13.3295C42.0415 6.03461 35.361 0.0996094 27.1499 0.0996094H4.11499V4.66921H27.1478C32.5239 4.66921 36.8959 8.5552 36.8959 13.3295C36.8959 18.1038 32.5218 21.9898 27.1478 21.9898H15.618L17.4759 41.5057L6.36992 41.619L5.92346 43.381C5.86997 43.5931 4.63963 48.6105 6.90691 53.1362C9.41079 58.1299 13.4475 59.8298 13.9001 60.0071L15.9781 55.8268L16.0089 55.8396C15.8999 55.7939 13.3075 54.6698 11.6061 51.2791C10.7173 49.5061 10.6226 47.5284 10.707 46.1466L23.0659 46.0204L21.2142 26.5613H27.1478C35.359 26.5594 42.0415 20.6244 42.0415 13.3295Z" fill="#785FFF"/>
</svg>
