<svg width="53" height="60" viewBox="0 0 53 60" fill="none" xmlns="http://www.w3.org/2000/svg">
<path d="M46.6372 56.1396H7.73608V60H46.6372V56.1396Z" fill="#dedede"/>
<path d="M15.4737 44.2963V39.0941C16.5947 39.457 17.7621 39.6407 18.9294 39.6407C21.7922 39.6407 24.6535 38.5506 26.8322 36.3718C28.4011 34.803 29.1963 32.9686 29.641 31.1604L38.7621 35.4114L52.8816 21.2919L50.1516 18.5619L37.9422 30.7713L26.5728 25.4719L26.2563 28.1185C26.0185 30.1058 25.5938 32.1502 24.1007 33.6434C21.2487 36.4969 16.6055 36.4969 13.7535 33.6434C10.9015 30.7898 10.9015 26.1482 13.7535 23.2962L34.3212 2.73001L31.5912 0L15.4737 16.1191V10.4522H0V44.3102L7.83179 52.2377L15.4737 44.2963ZM3.86031 42.7259V14.3125H11.6134V19.9794L11.0266 20.5662C6.66907 24.9237 6.66907 32.0143 11.0266 36.3734C11.2165 36.5633 11.4126 36.7424 11.6134 36.9154V42.7413L7.79628 46.7097L3.86031 42.7259Z" fill="#dedede"/>
</svg>
