<svg id="Layer_1" data-name="Layer 1" xmlns="http://www.w3.org/2000/svg" viewBox="0 0 221.45 367.78"><title>figure_point_left_mobile_yellow</title><path d="M74.6,128s-13.08-12.48-27.79-29.8S18,60,18,60l9.47-13s-5.1-4.45-4.25-10.77,7.17-8.5,7.17-8.5-3.93-5.36-4.83-10.81c-.86-5.23,1.27-7.92,1.27-7.92S41.86,39.67,59,68.62,97.2,128.07,97.2,128.07" style="fill:none;stroke:#1d1d1b;stroke-width:1.6px"/><path d="M60.93,220.32l-33,113.33c31.2,9.09,60.53-6,70.46-40.06,10.28-35.31-6.26-64.18-37.46-73.27" style="fill:#fff"/><path d="M153.63,302.4c3.25-32.34-17.33-58.47-53.93-62.15L88.42,352.59c36.59,3.67,62-17.85,65.21-50.19" style="fill:#fff"/><path d="M119,93.59c16.9,7.77,34.9,1.44,43.74-17.77,8.52-18.54,1.51-36.11-15.39-43.88S112.51,30.28,104,48.82c-8.84,19.21-1.93,37,15,44.77" style="fill:#fff"/><polygon points="85.89 251.5 185.91 117.6 75.34 87.14 85.89 251.5" style="fill:#fff"/><polygon points="122.5 181.28 29.64 234.4 177.64 278.22 122.5 181.28" style="fill:#fff"/><path d="M91.11,323.51A90.2,90.2,0,0,1,87,352.29c10.92,3.26,23.71,3.2,23.71,3.2s-7.15,4.42-16.55,10.56C87,370.7,77.25,377.28,77.25,377.28l.51,4.59a66,66,0,0,0,21.9.09c7.27-1.23,17.36-5.86,17.36-5.86l12.42.88a66.37,66.37,0,0,0-3.4-16.51" style="fill:none;stroke:#1d1d1b;stroke-width:1.6px"/><path d="M38.68,301.59a90.48,90.48,0,0,1-16.76,23.77C30.17,333.22,41.6,339,41.6,339s-8.39.69-19.55,1.9c-8.48.91-20.18,2.35-20.18,2.35L.24,347.52a65.87,65.87,0,0,0,19.48,10c7,2.19,18.13,2.64,18.13,2.64l10.67,6.41A66.16,66.16,0,0,0,53,350.34" style="fill:none;stroke:#1d1d1b;stroke-width:1.6px"/><path d="M145.84,130.55S145,161.7,132.2,181.89c-8.77,13.84-21.08,22.77-27.95,27" style="fill:none;stroke:#1d1d1b;stroke-width:1.6px"/><path d="M95.16,197.5A107.62,107.62,0,0,0,104,219.75c3.49,6.62,11.16,15.94,11.16,15.94s17.75-13.44,30.31-32.78c15.85-24.39,13.65-57.44,13.65-57.44" style="fill:none;stroke:#1d1d1b;stroke-width:1.6px"/><path d="M119.54,71.32a9.09,9.09,0,0,0-1-3.81,8.82,8.82,0,0,0-2.75-2.79" style="fill:none;stroke:#1d1d1b;stroke-width:1.6px"/><path d="M151.12,18.63s-12.87,14.84-22.65,20.56-17.21,4.74-17.21,4.74a36.7,36.7,0,0,0,1.25,6,19,19,0,0,0,2.86,5.09,13.63,13.63,0,0,1-4,3.11,11.11,11.11,0,0,1-4.29,1.31s0,4.37,2.21,6.9c4.47,5.1,9,2,9,2" style="fill:none;stroke:#1d1d1b;stroke-width:1.69204914068246px"/><path d="M138.26,52.51a3.81,3.81,0,1,0,0-5,3.58,3.58,0,0,0,0,5" style="fill:#1d1d1b"/><path d="M218.55,64.83s-7.89-21.89-25.37-24.56c-16.87-2.58-30.48,14.32-30.48,14.32S170.13,78.1,187,80.68c17.48,2.68,31.55-15.85,31.55-15.85" style="fill:#fff"/></svg>