<svg id="Layer_1" data-name="Layer 1" xmlns="http://www.w3.org/2000/svg" viewBox="0 0 282.45 367.78"><title>figure_point_left_yellow</title><path d="M125.84,125.26s-17.78,3.31-40.42,5.1-47.89.94-47.89.94L32.5,116s-6.59,1.53-11.21-2.86-2.71-10.79-2.71-10.79S11.94,102.42,7,100c-4.74-2.36-5.68-5.66-5.68-5.66S35,100.11,68.5,103.17,139.09,107,139.09,107" style="fill:none;stroke:#1d1d1b;stroke-width:1.6px"/><path d="M151.89,222.4,162.18,340c32.38-2.83,54.26-27.49,51.16-62.86-3.2-36.63-29.07-57.55-61.45-54.72" style="fill:#fff"/><path d="M268,265.33c-8.69-31.32-37.34-48.23-72.78-38.4l30.17,108.79c35.44-9.83,51.29-39.07,42.61-70.39" style="fill:#fff"/><path d="M161.1,84.64c18.53-1.62,31-16,29.18-37.1-1.77-20.33-16.56-32.12-35.1-30.5s-31.05,15.8-29.27,36.13c1.84,21.06,16.65,33.09,35.19,31.47" style="fill:#fff"/><polygon points="186.46 242.42 231.18 81.38 117.08 93.04 186.46 242.42" style="fill:#fff"/><polygon points="195.14 163.7 127.82 246.85 281.65 234.09 195.14 163.7" style="fill:#fff"/><path d="M217.4,307.65A90.43,90.43,0,0,1,224,336c11.36-.91,23.26-5.61,23.26-5.61s-5.07,6.72-11.61,15.84c-5,6.92-11.68,16.6-11.68,16.6l2.13,4.09A66.11,66.11,0,0,0,246.54,359c6.33-3.78,14.06-11.75,14.06-11.75l11.89-3.68a66,66,0,0,0-9.15-14.15" style="fill:none;stroke:#1d1d1b;stroke-width:1.6px"/><path d="M160.59,306.21a90.41,90.41,0,0,1-7,28.22c10.53,4.34,23.26,5.55,23.26,5.55s-7.56,3.68-17.53,8.85c-7.57,3.93-17.95,9.5-17.95,9.5l0,4.61a65.55,65.55,0,0,0,21.77,2.27c7.36-.5,17.86-4.1,17.86-4.1l12.27,2.11a66,66,0,0,0-1.71-16.76" style="fill:none;stroke:#1d1d1b;stroke-width:1.6px"/><path d="M198.52,108s10.48,29.34,5.88,52.79c-3.16,16.08-11.4,28.86-16.27,35.31" style="fill:none;stroke:#1d1d1b;stroke-width:1.6px"/><path d="M175.53,188.72a107.83,107.83,0,0,0,16.29,17.54c5.66,4.91,16.18,10.82,16.18,10.82s11.68-19,16.38-41.53c5.94-28.48-8.08-58.49-8.08-58.49" style="fill:none;stroke:#1d1d1b;stroke-width:1.6px"/><path d="M154.15,64.18a9.12,9.12,0,0,0-3.09-2.46,8.92,8.92,0,0,0-3.87-.58" style="fill:none;stroke:#1d1d1b;stroke-width:1.6px"/><path d="M148.06,3.06s-1.48,19.59-5.92,30-11,14.07-11,14.07a37.19,37.19,0,0,0,4.6,4.11,19.07,19.07,0,0,0,5.34,2.38,13.64,13.64,0,0,1-1.34,4.86,11,11,0,0,1-2.66,3.61s2.6,3.52,5.89,4.22c6.64,1.43,8.4-3.71,8.4-3.71" style="fill:none;stroke:#1d1d1b;stroke-width:1.69204914068246px"/><path d="M158,37.91a3.57,3.57,0,0,0,3.6-3.52,3.36,3.36,0,1,0-6.64-.49,3.57,3.57,0,0,0,3,4" style="fill:#1d1d1b"/><path d="M233.35,10.32s-17.69-15.1-34.19-8.77c-15.94,6.12-19.38,27.54-19.38,27.54s18.09,16.74,34,10.63c16.5-6.34,19.54-29.4,19.54-29.4" style="fill:#fff"/></svg>