<svg xmlns="http://www.w3.org/2000/svg" width="120.641" height="103.158" viewBox="0 0 120.641 103.158">
  <g id="Box_2" data-name="Box 2" transform="translate(-120.056 -104.294)">
    <path id="Vereinigungsmenge_3" data-name="Vereinigungsmenge 3" d="M57.25,103.257l-.48.174v-.368c-6.806-2.749-49.394-20-49.293-21.249.11-1.357-1.941-13.075-3.445-30.395C2.828,37.558.969,21.919.274,16.227c-1.447-.724-2.2-1.237-2.036-1.446a8.392,8.392,0,0,1,1.778-.649L0,14.007l.211.066c9.366-2.852,48.764-12.8,48.764-12.8S97.085,11.6,111.284,15l3.169-1s-.06.625-.165,1.75a3.937,3.937,0,0,1,.894.3c.076.109-.276.339-.983.669-.548,5.968-1.856,20.765-2.612,34.088-.975,17.175-.447,31.309-1.229,32.392-.721,1-45.672,17.356-52.675,19.9v.331Z" transform="translate(122.597 103.02)" fill="#785fff"/>
    <path id="Vereinigungsmenge_4" data-name="Vereinigungsmenge 4" d="M-103.419-18592.9a46.168,46.168,0,0,0-7.349-2.035s-.056-.2-.838-10.551c-.747-9.9-1.251-28.9-1.294-30.555l-.1-.035s.034-.012.1-.031c0-.033,0-.049,0-.049l.078.023c1.766-.566,16.441-5.264,28.817-9.016,13.186-4,23.152-6.15,23.152-6.15l22.482,5.008s-17.085,4.957-31.526,9.246c-13.381,3.973-23.482,6.953-24.892,7.369l.683,40.768S-99.253-18591.395-103.419-18592.9Z" transform="translate(255.111 18760.305)" fill="#45b4b4"/>
    <path id="Pfad_5122" data-name="Pfad 5122" d="M47.528,22.227s12.1,4.938,30.246,10.676c8.364,2.645,28.927,7.186,28.927,7.186" transform="translate(73.832 95.189)" fill="none" stroke="#000001" stroke-linecap="square" stroke-width="2"/>
    <path id="Pfad_5123" data-name="Pfad 5123" d="M107.361,22.227s-14.945,5.166-33.088,10.9-26.085,6.958-26.085,6.958" transform="translate(132.064 95.189)" fill="none" stroke="#000001" stroke-linecap="square" stroke-width="2"/>
    <path id="Pfad_5120" data-name="Pfad 5120" d="M-.246,0V70.18" transform="translate(180.639 136.273)" fill="none" stroke="#000001" stroke-linecap="square" stroke-width="2"/>
  </g>
</svg>
