<?xml version="1.0" encoding="UTF-8" standalone="no"?>
<!DOCTYPE svg PUBLIC "-//W3C//DTD SVG 1.1//EN"
 "http://www.w3.org/Graphics/SVG/1.1/DTD/svg11.dtd">
<!-- Generated by graphviz version 2.50.0 (0)
 -->
<!-- Title: dependency&#45;cruiser output Pages: 1 -->
<svg width="1179pt" height="1393pt"
 viewBox="0.00 0.00 1178.50 1393.45" xmlns="http://www.w3.org/2000/svg" xmlns:xlink="http://www.w3.org/1999/xlink">
<g id="graph0" class="graph" transform="scale(1 1) rotate(0) translate(4 1389.45)">
<title>dependency&#45;cruiser output</title>
<polygon fill="white" stroke="transparent" points="-4,4 -4,-1389.45 1174.5,-1389.45 1174.5,4 -4,4"/>
<g id="clust1" class="cluster">
<title>cluster_Layout</title>
<path fill="#ffffff" stroke="black" stroke-width="2" d="M20,-1127.45C20,-1127.45 456.5,-1127.45 456.5,-1127.45 462.5,-1127.45 468.5,-1133.45 468.5,-1139.45 468.5,-1139.45 468.5,-1365.45 468.5,-1365.45 468.5,-1371.45 462.5,-1377.45 456.5,-1377.45 456.5,-1377.45 20,-1377.45 20,-1377.45 14,-1377.45 8,-1371.45 8,-1365.45 8,-1365.45 8,-1139.45 8,-1139.45 8,-1133.45 14,-1127.45 20,-1127.45"/>
<text text-anchor="middle" x="238.25" y="-1366.25" font-family="Helvetica,sans-Serif" font-weight="bold" font-size="9.00">Layout</text>
</g>
<g id="clust2" class="cluster">
<title>cluster_Layout/Footer</title>
<path fill="#ffffff" stroke="black" stroke-width="2" d="M127,-1135.45C127,-1135.45 324.5,-1135.45 324.5,-1135.45 330.5,-1135.45 336.5,-1141.45 336.5,-1147.45 336.5,-1147.45 336.5,-1175.45 336.5,-1175.45 336.5,-1181.45 330.5,-1187.45 324.5,-1187.45 324.5,-1187.45 127,-1187.45 127,-1187.45 121,-1187.45 115,-1181.45 115,-1175.45 115,-1175.45 115,-1147.45 115,-1147.45 115,-1141.45 121,-1135.45 127,-1135.45"/>
<text text-anchor="middle" x="225.75" y="-1176.25" font-family="Helvetica,sans-Serif" font-weight="bold" font-size="9.00">Footer</text>
</g>
<g id="clust3" class="cluster">
<title>cluster_Layout/Header</title>
<path fill="#ffffff" stroke="black" stroke-width="2" d="M94,-1195.45C94,-1195.45 448.5,-1195.45 448.5,-1195.45 454.5,-1195.45 460.5,-1201.45 460.5,-1207.45 460.5,-1207.45 460.5,-1339.45 460.5,-1339.45 460.5,-1345.45 454.5,-1351.45 448.5,-1351.45 448.5,-1351.45 94,-1351.45 94,-1351.45 88,-1351.45 82,-1345.45 82,-1339.45 82,-1339.45 82,-1207.45 82,-1207.45 82,-1201.45 88,-1195.45 94,-1195.45"/>
<text text-anchor="middle" x="271.25" y="-1340.25" font-family="Helvetica,sans-Serif" font-weight="bold" font-size="9.00">Header</text>
</g>
<g id="clust4" class="cluster">
<title>cluster_Layout/Header/Menu</title>
<path fill="#ffffff" stroke="black" stroke-width="2" d="M102,-1273.45C102,-1273.45 324.5,-1273.45 324.5,-1273.45 330.5,-1273.45 336.5,-1279.45 336.5,-1285.45 336.5,-1285.45 336.5,-1313.45 336.5,-1313.45 336.5,-1319.45 330.5,-1325.45 324.5,-1325.45 324.5,-1325.45 102,-1325.45 102,-1325.45 96,-1325.45 90,-1319.45 90,-1313.45 90,-1313.45 90,-1285.45 90,-1285.45 90,-1279.45 96,-1273.45 102,-1273.45"/>
<text text-anchor="middle" x="213.25" y="-1314.25" font-family="Helvetica,sans-Serif" font-weight="bold" font-size="9.00">Menu</text>
</g>
<g id="clust5" class="cluster">
<title>cluster_components</title>
<path fill="#ffffff" stroke="black" stroke-width="2" d="M233,-289.45C233,-289.45 915.5,-289.45 915.5,-289.45 921.5,-289.45 927.5,-295.45 927.5,-301.45 927.5,-301.45 927.5,-1085.45 927.5,-1085.45 927.5,-1091.45 921.5,-1097.45 915.5,-1097.45 915.5,-1097.45 233,-1097.45 233,-1097.45 227,-1097.45 221,-1091.45 221,-1085.45 221,-1085.45 221,-301.45 221,-301.45 221,-295.45 227,-289.45 233,-289.45"/>
<text text-anchor="middle" x="574.25" y="-1086.25" font-family="Helvetica,sans-Serif" font-weight="bold" font-size="9.00">components</text>
</g>
<g id="clust6" class="cluster">
<title>cluster_components/Blog</title>
<path fill="#ffffff" stroke="black" stroke-width="2" d="M241,-387.45C241,-387.45 320,-387.45 320,-387.45 326,-387.45 332,-393.45 332,-399.45 332,-399.45 332,-457.45 332,-457.45 332,-463.45 326,-469.45 320,-469.45 320,-469.45 241,-469.45 241,-469.45 235,-469.45 229,-463.45 229,-457.45 229,-457.45 229,-399.45 229,-399.45 229,-393.45 235,-387.45 241,-387.45"/>
<text text-anchor="middle" x="280.5" y="-458.25" font-family="Helvetica,sans-Serif" font-weight="bold" font-size="9.00">Blog</text>
</g>
<g id="clust7" class="cluster">
<title>cluster_components/Editor</title>
<path fill="#ffffff" stroke="black" stroke-width="2" d="M531.5,-417.45C531.5,-417.45 784.5,-417.45 784.5,-417.45 790.5,-417.45 796.5,-423.45 796.5,-429.45 796.5,-429.45 796.5,-457.45 796.5,-457.45 796.5,-463.45 790.5,-469.45 784.5,-469.45 784.5,-469.45 531.5,-469.45 531.5,-469.45 525.5,-469.45 519.5,-463.45 519.5,-457.45 519.5,-457.45 519.5,-429.45 519.5,-429.45 519.5,-423.45 525.5,-417.45 531.5,-417.45"/>
<text text-anchor="middle" x="658" y="-458.25" font-family="Helvetica,sans-Serif" font-weight="bold" font-size="9.00">Editor</text>
</g>
<g id="clust8" class="cluster">
<title>cluster_components/Section</title>
<path fill="#ffffff" stroke="black" stroke-width="2" d="M255.5,-477.45C255.5,-477.45 770.5,-477.45 770.5,-477.45 776.5,-477.45 782.5,-483.45 782.5,-489.45 782.5,-489.45 782.5,-605.45 782.5,-605.45 782.5,-611.45 776.5,-617.45 770.5,-617.45 770.5,-617.45 255.5,-617.45 255.5,-617.45 249.5,-617.45 243.5,-611.45 243.5,-605.45 243.5,-605.45 243.5,-489.45 243.5,-489.45 243.5,-483.45 249.5,-477.45 255.5,-477.45"/>
<text text-anchor="middle" x="513" y="-606.25" font-family="Helvetica,sans-Serif" font-weight="bold" font-size="9.00">Section</text>
</g>
<g id="clust9" class="cluster">
<title>cluster_components/SocialMedia</title>
<path fill="#ffffff" stroke="black" stroke-width="2" d="M247.5,-625.45C247.5,-625.45 644.5,-625.45 644.5,-625.45 650.5,-625.45 656.5,-631.45 656.5,-637.45 656.5,-637.45 656.5,-1059.45 656.5,-1059.45 656.5,-1065.45 650.5,-1071.45 644.5,-1071.45 644.5,-1071.45 247.5,-1071.45 247.5,-1071.45 241.5,-1071.45 235.5,-1065.45 235.5,-1059.45 235.5,-1059.45 235.5,-637.45 235.5,-637.45 235.5,-631.45 241.5,-625.45 247.5,-625.45"/>
<text text-anchor="middle" x="446" y="-1060.25" font-family="Helvetica,sans-Serif" font-weight="bold" font-size="9.00">SocialMedia</text>
</g>
<g id="clust10" class="cluster">
<title>cluster_components/SocialMedia/Button</title>
<path fill="#ffffff" stroke="black" stroke-width="2" d="M379.5,-693.45C379.5,-693.45 636.5,-693.45 636.5,-693.45 642.5,-693.45 648.5,-699.45 648.5,-705.45 648.5,-705.45 648.5,-1033.45 648.5,-1033.45 648.5,-1039.45 642.5,-1045.45 636.5,-1045.45 636.5,-1045.45 379.5,-1045.45 379.5,-1045.45 373.5,-1045.45 367.5,-1039.45 367.5,-1033.45 367.5,-1033.45 367.5,-705.45 367.5,-705.45 367.5,-699.45 373.5,-693.45 379.5,-693.45"/>
<text text-anchor="middle" x="508" y="-1034.25" font-family="Helvetica,sans-Serif" font-weight="bold" font-size="9.00">Button</text>
</g>
<g id="clust11" class="cluster">
<title>cluster_components/SocialMedia/Button/icons</title>
<path fill="#ffffff" stroke="black" stroke-width="2" d="M488.5,-701.45C488.5,-701.45 628.5,-701.45 628.5,-701.45 634.5,-701.45 640.5,-707.45 640.5,-713.45 640.5,-713.45 640.5,-981.45 640.5,-981.45 640.5,-987.45 634.5,-993.45 628.5,-993.45 628.5,-993.45 488.5,-993.45 488.5,-993.45 482.5,-993.45 476.5,-987.45 476.5,-981.45 476.5,-981.45 476.5,-713.45 476.5,-713.45 476.5,-707.45 482.5,-701.45 488.5,-701.45"/>
<text text-anchor="middle" x="558.5" y="-982.25" font-family="Helvetica,sans-Serif" font-weight="bold" font-size="9.00">icons</text>
</g>
<g id="clust12" class="cluster">
<title>cluster_components/SocialMedia/Follow</title>
<path fill="#ffffff" stroke="black" stroke-width="2" d="M255.5,-922.45C255.5,-922.45 305.5,-922.45 305.5,-922.45 311.5,-922.45 317.5,-928.45 317.5,-934.45 317.5,-934.45 317.5,-962.45 317.5,-962.45 317.5,-968.45 311.5,-974.45 305.5,-974.45 305.5,-974.45 255.5,-974.45 255.5,-974.45 249.5,-974.45 243.5,-968.45 243.5,-962.45 243.5,-962.45 243.5,-934.45 243.5,-934.45 243.5,-928.45 249.5,-922.45 255.5,-922.45"/>
<text text-anchor="middle" x="280.5" y="-963.25" font-family="Helvetica,sans-Serif" font-weight="bold" font-size="9.00">Follow</text>
</g>
<g id="clust13" class="cluster">
<title>cluster_components/SocialMedia/Share</title>
<path fill="#ffffff" stroke="black" stroke-width="2" d="M255.5,-633.45C255.5,-633.45 448.5,-633.45 448.5,-633.45 454.5,-633.45 460.5,-639.45 460.5,-645.45 460.5,-645.45 460.5,-673.45 460.5,-673.45 460.5,-679.45 454.5,-685.45 448.5,-685.45 448.5,-685.45 255.5,-685.45 255.5,-685.45 249.5,-685.45 243.5,-679.45 243.5,-673.45 243.5,-673.45 243.5,-645.45 243.5,-645.45 243.5,-639.45 249.5,-633.45 255.5,-633.45"/>
<text text-anchor="middle" x="352" y="-674.25" font-family="Helvetica,sans-Serif" font-weight="bold" font-size="9.00">Share</text>
</g>
<g id="clust14" class="cluster">
<title>cluster_components/Util</title>
<path fill="#ffffff" stroke="black" stroke-width="2" d="M816.5,-361.45C816.5,-361.45 907.5,-361.45 907.5,-361.45 913.5,-361.45 919.5,-367.45 919.5,-373.45 919.5,-373.45 919.5,-431.45 919.5,-431.45 919.5,-437.45 913.5,-443.45 907.5,-443.45 907.5,-443.45 816.5,-443.45 816.5,-443.45 810.5,-443.45 804.5,-437.45 804.5,-431.45 804.5,-431.45 804.5,-373.45 804.5,-373.45 804.5,-367.45 810.5,-361.45 816.5,-361.45"/>
<text text-anchor="middle" x="862" y="-432.25" font-family="Helvetica,sans-Serif" font-weight="bold" font-size="9.00">Util</text>
</g>
<g id="clust15" class="cluster">
<title>cluster_components/_dynamic</title>
<path fill="#ffffff" stroke="black" stroke-width="2" d="M250.5,-297.45C250.5,-297.45 310.5,-297.45 310.5,-297.45 316.5,-297.45 322.5,-303.45 322.5,-309.45 322.5,-309.45 322.5,-367.45 322.5,-367.45 322.5,-373.45 316.5,-379.45 310.5,-379.45 310.5,-379.45 250.5,-379.45 250.5,-379.45 244.5,-379.45 238.5,-373.45 238.5,-367.45 238.5,-367.45 238.5,-309.45 238.5,-309.45 238.5,-303.45 244.5,-297.45 250.5,-297.45"/>
<text text-anchor="middle" x="280.5" y="-368.25" font-family="Helvetica,sans-Serif" font-weight="bold" font-size="9.00">_dynamic</text>
</g>
<g id="clust16" class="cluster">
<title>cluster_directus</title>
<path fill="#ffffff" stroke="black" stroke-width="2" d="M947.5,-167.45C947.5,-167.45 1150.5,-167.45 1150.5,-167.45 1156.5,-167.45 1162.5,-173.45 1162.5,-179.45 1162.5,-179.45 1162.5,-511.45 1162.5,-511.45 1162.5,-517.45 1156.5,-523.45 1150.5,-523.45 1150.5,-523.45 947.5,-523.45 947.5,-523.45 941.5,-523.45 935.5,-517.45 935.5,-511.45 935.5,-511.45 935.5,-179.45 935.5,-179.45 935.5,-173.45 941.5,-167.45 947.5,-167.45"/>
<text text-anchor="middle" x="1049" y="-512.25" font-family="Helvetica,sans-Serif" font-weight="bold" font-size="9.00">directus</text>
</g>
<g id="clust17" class="cluster">
<title>cluster_directus/graphql</title>
<path fill="#ffffff" stroke="black" stroke-width="2" d="M966,-445.45C966,-445.45 1142.5,-445.45 1142.5,-445.45 1148.5,-445.45 1154.5,-451.45 1154.5,-457.45 1154.5,-457.45 1154.5,-485.45 1154.5,-485.45 1154.5,-491.45 1148.5,-497.45 1142.5,-497.45 1142.5,-497.45 966,-497.45 966,-497.45 960,-497.45 954,-491.45 954,-485.45 954,-485.45 954,-457.45 954,-457.45 954,-451.45 960,-445.45 966,-445.45"/>
<text text-anchor="middle" x="1054.25" y="-486.25" font-family="Helvetica,sans-Serif" font-weight="bold" font-size="9.00">graphql</text>
</g>
<g id="clust18" class="cluster">
<title>cluster_directus/restAPI</title>
<path fill="#ffffff" stroke="black" stroke-width="2" d="M955.5,-175.45C955.5,-175.45 1054.5,-175.45 1054.5,-175.45 1060.5,-175.45 1066.5,-181.45 1066.5,-187.45 1066.5,-187.45 1066.5,-275.45 1066.5,-275.45 1066.5,-281.45 1060.5,-287.45 1054.5,-287.45 1054.5,-287.45 955.5,-287.45 955.5,-287.45 949.5,-287.45 943.5,-281.45 943.5,-275.45 943.5,-275.45 943.5,-187.45 943.5,-187.45 943.5,-181.45 949.5,-175.45 955.5,-175.45"/>
<text text-anchor="middle" x="1005" y="-276.25" font-family="Helvetica,sans-Serif" font-weight="bold" font-size="9.00">restAPI</text>
</g>
<g id="clust19" class="cluster">
<title>cluster_directus/sdk</title>
<path fill="#ffffff" stroke="black" stroke-width="2" d="M959.5,-295.45C959.5,-295.45 1050.5,-295.45 1050.5,-295.45 1056.5,-295.45 1062.5,-301.45 1062.5,-307.45 1062.5,-307.45 1062.5,-425.45 1062.5,-425.45 1062.5,-431.45 1056.5,-437.45 1050.5,-437.45 1050.5,-437.45 959.5,-437.45 959.5,-437.45 953.5,-437.45 947.5,-431.45 947.5,-425.45 947.5,-425.45 947.5,-307.45 947.5,-307.45 947.5,-301.45 953.5,-295.45 959.5,-295.45"/>
<text text-anchor="middle" x="1005" y="-426.25" font-family="Helvetica,sans-Serif" font-weight="bold" font-size="9.00">sdk</text>
</g>
<g id="clust20" class="cluster">
<title>cluster_pages</title>
<path fill="#ffffff" stroke="black" stroke-width="2" d="M107.5,-119.45C107.5,-119.45 196.5,-119.45 196.5,-119.45 202.5,-119.45 208.5,-125.45 208.5,-131.45 208.5,-131.45 208.5,-403.45 208.5,-403.45 208.5,-409.45 202.5,-415.45 196.5,-415.45 196.5,-415.45 107.5,-415.45 107.5,-415.45 101.5,-415.45 95.5,-409.45 95.5,-403.45 95.5,-403.45 95.5,-131.45 95.5,-131.45 95.5,-125.45 101.5,-119.45 107.5,-119.45"/>
<text text-anchor="middle" x="152" y="-404.25" font-family="Helvetica,sans-Serif" font-weight="bold" font-size="9.00">pages</text>
</g>
<g id="clust21" class="cluster">
<title>cluster_pages/api</title>
<path fill="#ffffff" stroke="black" stroke-width="2" d="M115.5,-303.45C115.5,-303.45 188.5,-303.45 188.5,-303.45 194.5,-303.45 200.5,-309.45 200.5,-315.45 200.5,-315.45 200.5,-377.45 200.5,-377.45 200.5,-383.45 194.5,-389.45 188.5,-389.45 188.5,-389.45 115.5,-389.45 115.5,-389.45 109.5,-389.45 103.5,-383.45 103.5,-377.45 103.5,-377.45 103.5,-315.45 103.5,-315.45 103.5,-309.45 109.5,-303.45 115.5,-303.45"/>
<text text-anchor="middle" x="152" y="-378.25" font-family="Helvetica,sans-Serif" font-weight="bold" font-size="9.00">api</text>
</g>
<g id="clust22" class="cluster">
<title>cluster_pages/api/auth</title>
<path fill="#ffffff" stroke="black" stroke-width="2" d="M123.5,-311.45C123.5,-311.45 180.5,-311.45 180.5,-311.45 186.5,-311.45 192.5,-317.45 192.5,-323.45 192.5,-323.45 192.5,-351.45 192.5,-351.45 192.5,-357.45 186.5,-363.45 180.5,-363.45 180.5,-363.45 123.5,-363.45 123.5,-363.45 117.5,-363.45 111.5,-357.45 111.5,-351.45 111.5,-351.45 111.5,-323.45 111.5,-323.45 111.5,-317.45 117.5,-311.45 123.5,-311.45"/>
<text text-anchor="middle" x="152" y="-352.25" font-family="Helvetica,sans-Serif" font-weight="bold" font-size="9.00">auth</text>
</g>
<g id="clust23" class="cluster">
<title>cluster_pages/blog</title>
<path fill="#ffffff" stroke="black" stroke-width="2" d="M127,-127.45C127,-127.45 177,-127.45 177,-127.45 183,-127.45 189,-133.45 189,-139.45 189,-139.45 189,-197.45 189,-197.45 189,-203.45 183,-209.45 177,-209.45 177,-209.45 127,-209.45 127,-209.45 121,-209.45 115,-203.45 115,-197.45 115,-197.45 115,-139.45 115,-139.45 115,-133.45 121,-127.45 127,-127.45"/>
<text text-anchor="middle" x="152" y="-198.25" font-family="Helvetica,sans-Serif" font-weight="bold" font-size="9.00">blog</text>
</g>
<g id="clust24" class="cluster">
<title>cluster_styles</title>
<path fill="#ffffff" stroke="black" stroke-width="2" d="M228.5,-103.45C228.5,-103.45 332.5,-103.45 332.5,-103.45 338.5,-103.45 344.5,-109.45 344.5,-115.45 344.5,-115.45 344.5,-203.45 344.5,-203.45 344.5,-209.45 338.5,-215.45 332.5,-215.45 332.5,-215.45 228.5,-215.45 228.5,-215.45 222.5,-215.45 216.5,-209.45 216.5,-203.45 216.5,-203.45 216.5,-115.45 216.5,-115.45 216.5,-109.45 222.5,-103.45 228.5,-103.45"/>
<text text-anchor="middle" x="280.5" y="-204.25" font-family="Helvetica,sans-Serif" font-weight="bold" font-size="9.00">styles</text>
</g>
<g id="clust25" class="cluster">
<title>cluster_styles/pages</title>
<path fill="#ffffff" stroke="black" stroke-width="2" d="M236.5,-137.45C236.5,-137.45 324.5,-137.45 324.5,-137.45 330.5,-137.45 336.5,-143.45 336.5,-149.45 336.5,-149.45 336.5,-177.45 336.5,-177.45 336.5,-183.45 330.5,-189.45 324.5,-189.45 324.5,-189.45 236.5,-189.45 236.5,-189.45 230.5,-189.45 224.5,-183.45 224.5,-177.45 224.5,-177.45 224.5,-149.45 224.5,-149.45 224.5,-143.45 230.5,-137.45 236.5,-137.45"/>
<text text-anchor="middle" x="280.5" y="-178.25" font-family="Helvetica,sans-Serif" font-weight="bold" font-size="9.00">pages</text>
</g>
<g id="clust26" class="cluster">
<title>cluster_utils</title>
<path fill="#ffffff" stroke="black" stroke-width="2" d="M966.5,-77.45C966.5,-77.45 1043.5,-77.45 1043.5,-77.45 1049.5,-77.45 1055.5,-83.45 1055.5,-89.45 1055.5,-89.45 1055.5,-147.45 1055.5,-147.45 1055.5,-153.45 1049.5,-159.45 1043.5,-159.45 1043.5,-159.45 966.5,-159.45 966.5,-159.45 960.5,-159.45 954.5,-153.45 954.5,-147.45 954.5,-147.45 954.5,-89.45 954.5,-89.45 954.5,-83.45 960.5,-77.45 966.5,-77.45"/>
<text text-anchor="middle" x="1005" y="-148.25" font-family="Helvetica,sans-Serif" font-weight="bold" font-size="9.00">utils</text>
</g>
<!-- Layout/Footer/index.tsx -->
<g id="node1" class="node">
<title>Layout/Footer/index.tsx</title>
<g id="a_node1"><a xlink:href="Layout/Footer/index.tsx" xlink:title="index.tsx">
<path fill="#bbfeff" stroke="black" d="M175,-1161.45C175,-1161.45 129,-1161.45 129,-1161.45 126,-1161.45 123,-1158.45 123,-1155.45 123,-1155.45 123,-1149.45 123,-1149.45 123,-1146.45 126,-1143.45 129,-1143.45 129,-1143.45 175,-1143.45 175,-1143.45 178,-1143.45 181,-1146.45 181,-1149.45 181,-1149.45 181,-1155.45 181,-1155.45 181,-1158.45 178,-1161.45 175,-1161.45"/>
<text text-anchor="start" x="131" y="-1150.25" font-family="Helvetica,sans-Serif" font-size="9.00">index.tsx</text>
</a>
</g>
</g>
<!-- components/SocialMedia/Follow/index.tsx -->
<g id="node2" class="node">
<title>components/SocialMedia/Follow/index.tsx</title>
<g id="a_node2"><a xlink:href="components/SocialMedia/Follow/index.tsx" xlink:title="index.tsx">
<path fill="#bbfeff" stroke="black" d="M303.5,-948.45C303.5,-948.45 257.5,-948.45 257.5,-948.45 254.5,-948.45 251.5,-945.45 251.5,-942.45 251.5,-942.45 251.5,-936.45 251.5,-936.45 251.5,-933.45 254.5,-930.45 257.5,-930.45 257.5,-930.45 303.5,-930.45 303.5,-930.45 306.5,-930.45 309.5,-933.45 309.5,-936.45 309.5,-936.45 309.5,-942.45 309.5,-942.45 309.5,-945.45 306.5,-948.45 303.5,-948.45"/>
<text text-anchor="start" x="259.5" y="-937.25" font-family="Helvetica,sans-Serif" font-size="9.00">index.tsx</text>
</a>
</g>
</g>
<!-- Layout/Footer/index.tsx&#45;&gt;components/SocialMedia/Follow/index.tsx -->
<g id="edge1" class="edge">
<title>Layout/Footer/index.tsx&#45;&gt;components/SocialMedia/Follow/index.tsx</title>
<path fill="none" stroke="#000000" stroke-width="2" stroke-opacity="0.200000" d="M158.44,-1143.3C178.18,-1110.06 246.21,-995.5 270.66,-954.34"/>
<polygon fill="#000000" fill-opacity="0.200000" stroke="#000000" stroke-width="2" stroke-opacity="0.200000" points="272.68,-955.04 273.94,-948.81 269.07,-952.9 272.68,-955.04"/>
</g>
<!-- Layout/Footer/style.module.scss -->
<g id="node3" class="node">
<title>Layout/Footer/style.module.scss</title>
<g id="a_node3"><a xlink:href="Layout/Footer/style.module.scss" xlink:title="style.module.scss">
<path fill="#ffffcc" stroke="black" d="M322.5,-1161.45C322.5,-1161.45 238.5,-1161.45 238.5,-1161.45 235.5,-1161.45 232.5,-1158.45 232.5,-1155.45 232.5,-1155.45 232.5,-1149.45 232.5,-1149.45 232.5,-1146.45 235.5,-1143.45 238.5,-1143.45 238.5,-1143.45 322.5,-1143.45 322.5,-1143.45 325.5,-1143.45 328.5,-1146.45 328.5,-1149.45 328.5,-1149.45 328.5,-1155.45 328.5,-1155.45 328.5,-1158.45 325.5,-1161.45 322.5,-1161.45"/>
<text text-anchor="start" x="240.5" y="-1150.25" font-family="Helvetica,sans-Serif" font-size="9.00">style.module.scss</text>
</a>
</g>
</g>
<!-- Layout/Footer/index.tsx&#45;&gt;Layout/Footer/style.module.scss -->
<g id="edge2" class="edge">
<title>Layout/Footer/index.tsx&#45;&gt;Layout/Footer/style.module.scss</title>
<path fill="none" stroke="#000000" stroke-width="2" stroke-opacity="0.200000" d="M181.07,-1152.45C194.38,-1152.45 210.72,-1152.45 226.24,-1152.45"/>
<polygon fill="#000000" fill-opacity="0.200000" stroke="#000000" stroke-width="2" stroke-opacity="0.200000" points="226.37,-1154.55 232.37,-1152.45 226.37,-1150.35 226.37,-1154.55"/>
</g>
<!-- components/SocialMedia/Button/index.tsx -->
<g id="node37" class="node">
<title>components/SocialMedia/Button/index.tsx</title>
<g id="a_node37"><a xlink:href="components/SocialMedia/Button/index.tsx" xlink:title="index.tsx">
<path fill="#bbfeff" stroke="black" d="M427.5,-862.45C427.5,-862.45 381.5,-862.45 381.5,-862.45 378.5,-862.45 375.5,-859.45 375.5,-856.45 375.5,-856.45 375.5,-850.45 375.5,-850.45 375.5,-847.45 378.5,-844.45 381.5,-844.45 381.5,-844.45 427.5,-844.45 427.5,-844.45 430.5,-844.45 433.5,-847.45 433.5,-850.45 433.5,-850.45 433.5,-856.45 433.5,-856.45 433.5,-859.45 430.5,-862.45 427.5,-862.45"/>
<text text-anchor="start" x="383.5" y="-851.25" font-family="Helvetica,sans-Serif" font-size="9.00">index.tsx</text>
</a>
</g>
</g>
<!-- components/SocialMedia/Follow/index.tsx&#45;&gt;components/SocialMedia/Button/index.tsx -->
<g id="edge40" class="edge">
<title>components/SocialMedia/Follow/index.tsx&#45;&gt;components/SocialMedia/Button/index.tsx</title>
<path fill="none" stroke="#000000" stroke-width="2" stroke-opacity="0.200000" d="M294.56,-930.25C316.48,-914.8 360.72,-883.61 385.55,-866.11"/>
<polygon fill="#000000" fill-opacity="0.200000" stroke="#000000" stroke-width="2" stroke-opacity="0.200000" points="386.84,-867.76 390.54,-862.59 384.42,-864.33 386.84,-867.76"/>
</g>
<!-- Layout/Header/MainMenu.tsx -->
<g id="node4" class="node">
<title>Layout/Header/MainMenu.tsx</title>
<g id="a_node4"><a xlink:href="Layout/Header/MainMenu.tsx" xlink:title="MainMenu.tsx">
<path fill="#bbfeff" stroke="black" d="M314,-1235.45C314,-1235.45 247,-1235.45 247,-1235.45 244,-1235.45 241,-1232.45 241,-1229.45 241,-1229.45 241,-1223.45 241,-1223.45 241,-1220.45 244,-1217.45 247,-1217.45 247,-1217.45 314,-1217.45 314,-1217.45 317,-1217.45 320,-1220.45 320,-1223.45 320,-1223.45 320,-1229.45 320,-1229.45 320,-1232.45 317,-1235.45 314,-1235.45"/>
<text text-anchor="start" x="249" y="-1224.25" font-family="Helvetica,sans-Serif" font-size="9.00">MainMenu.tsx</text>
</a>
</g>
</g>
<!-- Layout/Header/style.module.scss -->
<g id="node5" class="node">
<title>Layout/Header/style.module.scss</title>
<g id="a_node5"><a xlink:href="Layout/Header/style.module.scss" xlink:title="style.module.scss">
<path fill="#ffffcc" stroke="black" d="M446.5,-1228.45C446.5,-1228.45 362.5,-1228.45 362.5,-1228.45 359.5,-1228.45 356.5,-1225.45 356.5,-1222.45 356.5,-1222.45 356.5,-1216.45 356.5,-1216.45 356.5,-1213.45 359.5,-1210.45 362.5,-1210.45 362.5,-1210.45 446.5,-1210.45 446.5,-1210.45 449.5,-1210.45 452.5,-1213.45 452.5,-1216.45 452.5,-1216.45 452.5,-1222.45 452.5,-1222.45 452.5,-1225.45 449.5,-1228.45 446.5,-1228.45"/>
<text text-anchor="start" x="364.5" y="-1217.25" font-family="Helvetica,sans-Serif" font-size="9.00">style.module.scss</text>
</a>
</g>
</g>
<!-- Layout/Header/MainMenu.tsx&#45;&gt;Layout/Header/style.module.scss -->
<g id="edge3" class="edge">
<title>Layout/Header/MainMenu.tsx&#45;&gt;Layout/Header/style.module.scss</title>
<path fill="none" stroke="#000000" stroke-width="2" stroke-opacity="0.200000" d="M320.1,-1224.24C329.58,-1223.7 339.9,-1223.1 349.95,-1222.53"/>
<polygon fill="#000000" fill-opacity="0.200000" stroke="#000000" stroke-width="2" stroke-opacity="0.200000" points="350.29,-1224.61 356.16,-1222.17 350.05,-1220.42 350.29,-1224.61"/>
</g>
<!-- Layout/Header/Menu/MenuItemParent.tsx -->
<g id="node6" class="node">
<title>Layout/Header/Menu/MenuItemParent.tsx</title>
<g id="a_node6"><a xlink:href="Layout/Header/Menu/MenuItemParent.tsx" xlink:title="MenuItemParent.tsx">
<path fill="#bbfeff" stroke="black" d="M200,-1299.45C200,-1299.45 104,-1299.45 104,-1299.45 101,-1299.45 98,-1296.45 98,-1293.45 98,-1293.45 98,-1287.45 98,-1287.45 98,-1284.45 101,-1281.45 104,-1281.45 104,-1281.45 200,-1281.45 200,-1281.45 203,-1281.45 206,-1284.45 206,-1287.45 206,-1287.45 206,-1293.45 206,-1293.45 206,-1296.45 203,-1299.45 200,-1299.45"/>
<text text-anchor="start" x="106" y="-1288.25" font-family="Helvetica,sans-Serif" font-size="9.00">MenuItemParent.tsx</text>
</a>
</g>
</g>
<!-- Layout/Header/Menu/style.module.scss -->
<g id="node7" class="node">
<title>Layout/Header/Menu/style.module.scss</title>
<g id="a_node7"><a xlink:href="Layout/Header/Menu/style.module.scss" xlink:title="style.module.scss">
<path fill="#ffffcc" stroke="black" d="M322.5,-1299.45C322.5,-1299.45 238.5,-1299.45 238.5,-1299.45 235.5,-1299.45 232.5,-1296.45 232.5,-1293.45 232.5,-1293.45 232.5,-1287.45 232.5,-1287.45 232.5,-1284.45 235.5,-1281.45 238.5,-1281.45 238.5,-1281.45 322.5,-1281.45 322.5,-1281.45 325.5,-1281.45 328.5,-1284.45 328.5,-1287.45 328.5,-1287.45 328.5,-1293.45 328.5,-1293.45 328.5,-1296.45 325.5,-1299.45 322.5,-1299.45"/>
<text text-anchor="start" x="240.5" y="-1288.25" font-family="Helvetica,sans-Serif" font-size="9.00">style.module.scss</text>
</a>
</g>
</g>
<!-- Layout/Header/Menu/MenuItemParent.tsx&#45;&gt;Layout/Header/Menu/style.module.scss -->
<g id="edge4" class="edge">
<title>Layout/Header/Menu/MenuItemParent.tsx&#45;&gt;Layout/Header/Menu/style.module.scss</title>
<path fill="none" stroke="#000000" stroke-width="2" stroke-opacity="0.200000" d="M206.28,-1290.45C212.9,-1290.45 219.66,-1290.45 226.28,-1290.45"/>
<polygon fill="#000000" fill-opacity="0.200000" stroke="#000000" stroke-width="2" stroke-opacity="0.200000" points="226.31,-1292.55 232.31,-1290.45 226.31,-1288.35 226.31,-1292.55"/>
</g>
<!-- Layout/Header/PageLogo.tsx -->
<g id="node8" class="node">
<title>Layout/Header/PageLogo.tsx</title>
<g id="a_node8"><a xlink:href="Layout/Header/PageLogo.tsx" xlink:title="PageLogo.tsx">
<path fill="#bbfeff" stroke="black" d="M312.5,-1265.45C312.5,-1265.45 248.5,-1265.45 248.5,-1265.45 245.5,-1265.45 242.5,-1262.45 242.5,-1259.45 242.5,-1259.45 242.5,-1253.45 242.5,-1253.45 242.5,-1250.45 245.5,-1247.45 248.5,-1247.45 248.5,-1247.45 312.5,-1247.45 312.5,-1247.45 315.5,-1247.45 318.5,-1250.45 318.5,-1253.45 318.5,-1253.45 318.5,-1259.45 318.5,-1259.45 318.5,-1262.45 315.5,-1265.45 312.5,-1265.45"/>
<text text-anchor="start" x="250.5" y="-1254.25" font-family="Helvetica,sans-Serif" font-size="9.00">PageLogo.tsx</text>
</a>
</g>
</g>
<!-- Layout/Header/index.tsx -->
<g id="node9" class="node">
<title>Layout/Header/index.tsx</title>
<g id="a_node9"><a xlink:href="Layout/Header/index.tsx" xlink:title="index.tsx">
<path fill="#bbfeff" stroke="black" d="M175,-1228.45C175,-1228.45 129,-1228.45 129,-1228.45 126,-1228.45 123,-1225.45 123,-1222.45 123,-1222.45 123,-1216.45 123,-1216.45 123,-1213.45 126,-1210.45 129,-1210.45 129,-1210.45 175,-1210.45 175,-1210.45 178,-1210.45 181,-1213.45 181,-1216.45 181,-1216.45 181,-1222.45 181,-1222.45 181,-1225.45 178,-1228.45 175,-1228.45"/>
<text text-anchor="start" x="131" y="-1217.25" font-family="Helvetica,sans-Serif" font-size="9.00">index.tsx</text>
</a>
</g>
</g>
<!-- Layout/Header/index.tsx&#45;&gt;Layout/Header/MainMenu.tsx -->
<g id="edge5" class="edge">
<title>Layout/Header/index.tsx&#45;&gt;Layout/Header/MainMenu.tsx</title>
<path fill="none" stroke="#000000" stroke-width="2" stroke-opacity="0.200000" d="M181.07,-1221.01C196.76,-1221.88 216.68,-1222.98 234.5,-1223.96"/>
<polygon fill="#000000" fill-opacity="0.200000" stroke="#000000" stroke-width="2" stroke-opacity="0.200000" points="234.84,-1226.09 240.95,-1224.32 235.08,-1221.89 234.84,-1226.09"/>
</g>
<!-- Layout/Header/index.tsx&#45;&gt;Layout/Header/style.module.scss -->
<g id="edge7" class="edge">
<title>Layout/Header/index.tsx&#45;&gt;Layout/Header/style.module.scss</title>
<path fill="none" stroke="#000000" stroke-width="2" stroke-opacity="0.200000" d="M181.06,-1215.15C192.08,-1213.66 204.86,-1212.18 216.5,-1211.45 273.28,-1207.89 287.74,-1207.62 344.5,-1211.45 346.29,-1211.57 348.11,-1211.72 349.94,-1211.87"/>
<polygon fill="#000000" fill-opacity="0.200000" stroke="#000000" stroke-width="2" stroke-opacity="0.200000" points="350.05,-1213.99 356.22,-1212.47 350.45,-1209.81 350.05,-1213.99"/>
</g>
<!-- Layout/Header/index.tsx&#45;&gt;Layout/Header/PageLogo.tsx -->
<g id="edge6" class="edge">
<title>Layout/Header/index.tsx&#45;&gt;Layout/Header/PageLogo.tsx</title>
<path fill="none" stroke="#000000" stroke-width="2" stroke-opacity="0.200000" d="M177.24,-1228.49C189,-1232.71 203.39,-1237.63 216.5,-1241.45 222.86,-1243.31 229.64,-1245.1 236.29,-1246.77"/>
<polygon fill="#000000" fill-opacity="0.200000" stroke="#000000" stroke-width="2" stroke-opacity="0.200000" points="236.03,-1248.87 242.36,-1248.26 237.04,-1244.79 236.03,-1248.87"/>
</g>
<!-- Layout/index.tsx -->
<g id="node10" class="node">
<title>Layout/index.tsx</title>
<g id="a_node10"><a xlink:href="Layout/index.tsx" xlink:title="index.tsx">
<path fill="#bbfeff" stroke="black" d="M68,-1161.45C68,-1161.45 22,-1161.45 22,-1161.45 19,-1161.45 16,-1158.45 16,-1155.45 16,-1155.45 16,-1149.45 16,-1149.45 16,-1146.45 19,-1143.45 22,-1143.45 22,-1143.45 68,-1143.45 68,-1143.45 71,-1143.45 74,-1146.45 74,-1149.45 74,-1149.45 74,-1155.45 74,-1155.45 74,-1158.45 71,-1161.45 68,-1161.45"/>
<text text-anchor="start" x="24" y="-1150.25" font-family="Helvetica,sans-Serif" font-size="9.00">index.tsx</text>
</a>
</g>
</g>
<!-- Layout/index.tsx&#45;&gt;Layout/Footer/index.tsx -->
<g id="edge8" class="edge">
<title>Layout/index.tsx&#45;&gt;Layout/Footer/index.tsx</title>
<path fill="none" stroke="#000000" stroke-width="2" stroke-opacity="0.200000" d="M74.14,-1152.45C87.2,-1152.45 102.85,-1152.45 116.61,-1152.45"/>
<polygon fill="#000000" fill-opacity="0.200000" stroke="#000000" stroke-width="2" stroke-opacity="0.200000" points="116.78,-1154.55 122.78,-1152.45 116.78,-1150.35 116.78,-1154.55"/>
</g>
<!-- Layout/index.tsx&#45;&gt;Layout/Header/index.tsx -->
<g id="edge9" class="edge">
<title>Layout/index.tsx&#45;&gt;Layout/Header/index.tsx</title>
<path fill="none" stroke="#000000" stroke-width="2" stroke-opacity="0.200000" d="M52.85,-1161.63C59.52,-1170.04 70.34,-1182.39 82,-1190.45 92.65,-1197.82 105.47,-1203.85 117.16,-1208.46"/>
<polygon fill="#000000" fill-opacity="0.200000" stroke="#000000" stroke-width="2" stroke-opacity="0.200000" points="116.43,-1210.43 122.79,-1210.61 117.93,-1206.51 116.43,-1210.43"/>
</g>
<!-- components/Blog/PostExcerpt.tsx -->
<g id="node11" class="node">
<title>components/Blog/PostExcerpt.tsx</title>
<g id="a_node11"><a xlink:href="components/Blog/PostExcerpt.tsx" xlink:title="PostExcerpt.tsx">
<path fill="#bbfeff" stroke="black" d="M318,-443.45C318,-443.45 243,-443.45 243,-443.45 240,-443.45 237,-440.45 237,-437.45 237,-437.45 237,-431.45 237,-431.45 237,-428.45 240,-425.45 243,-425.45 243,-425.45 318,-425.45 318,-425.45 321,-425.45 324,-428.45 324,-431.45 324,-431.45 324,-437.45 324,-437.45 324,-440.45 321,-443.45 318,-443.45"/>
<text text-anchor="start" x="245" y="-432.25" font-family="Helvetica,sans-Serif" font-size="9.00">PostExcerpt.tsx</text>
</a>
</g>
</g>
<!-- components/Blog/PostFull.tsx -->
<g id="node12" class="node">
<title>components/Blog/PostFull.tsx</title>
<g id="a_node12"><a xlink:href="components/Blog/PostFull.tsx" xlink:title="PostFull.tsx">
<path fill="#bbfeff" stroke="black" d="M308,-413.45C308,-413.45 253,-413.45 253,-413.45 250,-413.45 247,-410.45 247,-407.45 247,-407.45 247,-401.45 247,-401.45 247,-398.45 250,-395.45 253,-395.45 253,-395.45 308,-395.45 308,-395.45 311,-395.45 314,-398.45 314,-401.45 314,-401.45 314,-407.45 314,-407.45 314,-410.45 311,-413.45 308,-413.45"/>
<text text-anchor="start" x="255" y="-402.25" font-family="Helvetica,sans-Serif" font-size="9.00">PostFull.tsx</text>
</a>
</g>
</g>
<!-- components/Editor/ButtonRow.module.scss -->
<g id="node13" class="node">
<title>components/Editor/ButtonRow.module.scss</title>
<g id="a_node13"><a xlink:href="components/Editor/ButtonRow.module.scss" xlink:title="ButtonRow.module.scss">
<path fill="#ffffcc" stroke="black" d="M782.5,-443.45C782.5,-443.45 670.5,-443.45 670.5,-443.45 667.5,-443.45 664.5,-440.45 664.5,-437.45 664.5,-437.45 664.5,-431.45 664.5,-431.45 664.5,-428.45 667.5,-425.45 670.5,-425.45 670.5,-425.45 782.5,-425.45 782.5,-425.45 785.5,-425.45 788.5,-428.45 788.5,-431.45 788.5,-431.45 788.5,-437.45 788.5,-437.45 788.5,-440.45 785.5,-443.45 782.5,-443.45"/>
<text text-anchor="start" x="672.5" y="-432.25" font-family="Helvetica,sans-Serif" font-size="9.00">ButtonRow.module.scss</text>
</a>
</g>
</g>
<!-- components/Editor/Tiptap.tsx -->
<g id="node14" class="node">
<title>components/Editor/Tiptap.tsx</title>
<g id="a_node14"><a xlink:href="components/Editor/Tiptap.tsx" xlink:title="Tiptap.tsx">
<path fill="#bbfeff" stroke="black" d="M583.5,-443.45C583.5,-443.45 533.5,-443.45 533.5,-443.45 530.5,-443.45 527.5,-440.45 527.5,-437.45 527.5,-437.45 527.5,-431.45 527.5,-431.45 527.5,-428.45 530.5,-425.45 533.5,-425.45 533.5,-425.45 583.5,-425.45 583.5,-425.45 586.5,-425.45 589.5,-428.45 589.5,-431.45 589.5,-431.45 589.5,-437.45 589.5,-437.45 589.5,-440.45 586.5,-443.45 583.5,-443.45"/>
<text text-anchor="start" x="535.5" y="-432.25" font-family="Helvetica,sans-Serif" font-size="9.00">Tiptap.tsx</text>
</a>
</g>
</g>
<!-- components/Editor/Tiptap.tsx&#45;&gt;components/Editor/ButtonRow.module.scss -->
<g id="edge10" class="edge">
<title>components/Editor/Tiptap.tsx&#45;&gt;components/Editor/ButtonRow.module.scss</title>
<path fill="none" stroke="#000000" stroke-width="2" stroke-opacity="0.200000" d="M589.56,-434.45C608.77,-434.45 634.47,-434.45 658.35,-434.45"/>
<polygon fill="#000000" fill-opacity="0.200000" stroke="#000000" stroke-width="2" stroke-opacity="0.200000" points="658.38,-436.55 664.38,-434.45 658.38,-432.35 658.38,-436.55"/>
</g>
<!-- components/Section/EditElement.tsx -->
<g id="node15" class="node">
<title>components/Section/EditElement.tsx</title>
<g id="a_node15"><a xlink:href="components/Section/EditElement.tsx" xlink:title="EditElement.tsx">
<path fill="#bbfeff" stroke="black" d="M597,-547.45C597,-547.45 520,-547.45 520,-547.45 517,-547.45 514,-544.45 514,-541.45 514,-541.45 514,-535.45 514,-535.45 514,-532.45 517,-529.45 520,-529.45 520,-529.45 597,-529.45 597,-529.45 600,-529.45 603,-532.45 603,-535.45 603,-535.45 603,-541.45 603,-541.45 603,-544.45 600,-547.45 597,-547.45"/>
<text text-anchor="start" x="522" y="-536.25" font-family="Helvetica,sans-Serif" font-size="9.00">EditElement.tsx</text>
</a>
</g>
</g>
<!-- components/Util/NoSsr.tsx -->
<g id="node16" class="node">
<title>components/Util/NoSsr.tsx</title>
<g id="a_node16"><a xlink:href="components/Util/NoSsr.tsx" xlink:title="NoSsr.tsx">
<path fill="#bbfeff" stroke="black" d="M885.5,-417.45C885.5,-417.45 838.5,-417.45 838.5,-417.45 835.5,-417.45 832.5,-414.45 832.5,-411.45 832.5,-411.45 832.5,-405.45 832.5,-405.45 832.5,-402.45 835.5,-399.45 838.5,-399.45 838.5,-399.45 885.5,-399.45 885.5,-399.45 888.5,-399.45 891.5,-402.45 891.5,-405.45 891.5,-405.45 891.5,-411.45 891.5,-411.45 891.5,-414.45 888.5,-417.45 885.5,-417.45"/>
<text text-anchor="start" x="840.5" y="-406.25" font-family="Helvetica,sans-Serif" font-size="9.00">NoSsr.tsx</text>
</a>
</g>
</g>
<!-- components/Section/EditElement.tsx&#45;&gt;components/Util/NoSsr.tsx -->
<g id="edge11" class="edge">
<title>components/Section/EditElement.tsx&#45;&gt;components/Util/NoSsr.tsx</title>
<path fill="none" stroke="#000000" stroke-width="2" stroke-opacity="0.200000" d="M603.03,-546.08C621.87,-549.02 644.2,-552.01 664.5,-553.45 723.02,-557.61 747.3,-585.41 796.5,-553.45 841.8,-524.03 855.54,-454.63 859.5,-423.74"/>
<polygon fill="#000000" fill-opacity="0.200000" stroke="#000000" stroke-width="2" stroke-opacity="0.200000" points="861.59,-423.97 860.2,-417.76 857.41,-423.48 861.59,-423.97"/>
</g>
<!-- components/Section/EditIcon.tsx -->
<g id="node17" class="node">
<title>components/Section/EditIcon.tsx</title>
<g id="a_node17"><a xlink:href="components/Section/EditIcon.tsx" xlink:title="EditIcon.tsx">
<path fill="#bbfeff" stroke="black" d="M756,-547.45C756,-547.45 697,-547.45 697,-547.45 694,-547.45 691,-544.45 691,-541.45 691,-541.45 691,-535.45 691,-535.45 691,-532.45 694,-529.45 697,-529.45 697,-529.45 756,-529.45 756,-529.45 759,-529.45 762,-532.45 762,-535.45 762,-535.45 762,-541.45 762,-541.45 762,-544.45 759,-547.45 756,-547.45"/>
<text text-anchor="start" x="699" y="-536.25" font-family="Helvetica,sans-Serif" font-size="9.00">EditIcon.tsx</text>
</a>
</g>
</g>
<!-- components/Section/EditElement.tsx&#45;&gt;components/Section/EditIcon.tsx -->
<g id="edge12" class="edge">
<title>components/Section/EditElement.tsx&#45;&gt;components/Section/EditIcon.tsx</title>
<path fill="none" stroke="#000000" stroke-width="2" stroke-opacity="0.200000" d="M603.11,-538.45C628.35,-538.45 659.92,-538.45 684.67,-538.45"/>
<polygon fill="#000000" fill-opacity="0.200000" stroke="#000000" stroke-width="2" stroke-opacity="0.200000" points="684.81,-540.55 690.81,-538.45 684.81,-536.35 684.81,-540.55"/>
</g>
<!-- components/Section/style.module.scss -->
<g id="node18" class="node">
<title>components/Section/style.module.scss</title>
<g id="a_node18"><a xlink:href="components/Section/style.module.scss" xlink:title="style.module.scss">
<path fill="#ffffcc" stroke="black" d="M768.5,-517.45C768.5,-517.45 684.5,-517.45 684.5,-517.45 681.5,-517.45 678.5,-514.45 678.5,-511.45 678.5,-511.45 678.5,-505.45 678.5,-505.45 678.5,-502.45 681.5,-499.45 684.5,-499.45 684.5,-499.45 768.5,-499.45 768.5,-499.45 771.5,-499.45 774.5,-502.45 774.5,-505.45 774.5,-505.45 774.5,-511.45 774.5,-511.45 774.5,-514.45 771.5,-517.45 768.5,-517.45"/>
<text text-anchor="start" x="686.5" y="-506.25" font-family="Helvetica,sans-Serif" font-size="9.00">style.module.scss</text>
</a>
</g>
</g>
<!-- components/Section/EditElement.tsx&#45;&gt;components/Section/style.module.scss -->
<g id="edge13" class="edge">
<title>components/Section/EditElement.tsx&#45;&gt;components/Section/style.module.scss</title>
<path fill="none" stroke="#000000" stroke-width="2" stroke-opacity="0.200000" d="M603.11,-530.57C624.37,-526.73 650.1,-522.08 672.48,-518.04"/>
<polygon fill="#000000" fill-opacity="0.200000" stroke="#000000" stroke-width="2" stroke-opacity="0.200000" points="672.86,-520.1 678.39,-516.97 672.11,-515.97 672.86,-520.1"/>
</g>
<!-- components/Section/EditIcon.tsx&#45;&gt;components/Util/NoSsr.tsx -->
<g id="edge14" class="edge">
<title>components/Section/EditIcon.tsx&#45;&gt;components/Util/NoSsr.tsx</title>
<path fill="none" stroke="#000000" stroke-width="2" stroke-opacity="0.200000" d="M762.16,-536.65C773.96,-534.63 786.64,-530.74 796.5,-523.45 830.8,-498.09 849.34,-448.72 856.89,-423.73"/>
<polygon fill="#000000" fill-opacity="0.200000" stroke="#000000" stroke-width="2" stroke-opacity="0.200000" points="859,-423.99 858.65,-417.65 854.97,-422.82 859,-423.99"/>
</g>
<!-- components/Section/EditSection.tsx -->
<g id="node19" class="node">
<title>components/Section/EditSection.tsx</title>
<g id="a_node19"><a xlink:href="components/Section/EditSection.tsx" xlink:title="EditSection.tsx">
<path fill="#bbfeff" stroke="black" d="M441,-591.45C441,-591.45 368,-591.45 368,-591.45 365,-591.45 362,-588.45 362,-585.45 362,-585.45 362,-579.45 362,-579.45 362,-576.45 365,-573.45 368,-573.45 368,-573.45 441,-573.45 441,-573.45 444,-573.45 447,-576.45 447,-579.45 447,-579.45 447,-585.45 447,-585.45 447,-588.45 444,-591.45 441,-591.45"/>
<text text-anchor="start" x="370" y="-580.25" font-family="Helvetica,sans-Serif" font-size="9.00">EditSection.tsx</text>
</a>
</g>
</g>
<!-- components/Section/EditSection.tsx&#45;&gt;components/Section/EditIcon.tsx -->
<g id="edge16" class="edge">
<title>components/Section/EditSection.tsx&#45;&gt;components/Section/EditIcon.tsx</title>
<path fill="none" stroke="#000000" stroke-width="2" stroke-opacity="0.200000" d="M447.41,-589.86C498.1,-597.2 585.49,-604.56 656.5,-583.45 677.32,-577.27 697.71,-562.59 710.87,-551.67"/>
<polygon fill="#000000" fill-opacity="0.200000" stroke="#000000" stroke-width="2" stroke-opacity="0.200000" points="712.5,-553.03 715.7,-547.55 709.77,-549.84 712.5,-553.03"/>
</g>
<!-- components/Section/EditSection.tsx&#45;&gt;components/Section/style.module.scss -->
<g id="edge18" class="edge">
<title>components/Section/EditSection.tsx&#45;&gt;components/Section/style.module.scss</title>
<path fill="none" stroke="#000000" stroke-width="2" stroke-opacity="0.200000" d="M431.2,-573.38C443.99,-567.7 458.75,-559.2 468.5,-547.45 475.68,-538.8 467.58,-530.3 476.5,-523.45 484.13,-517.6 601.06,-512.65 671.94,-510.16"/>
<polygon fill="#000000" fill-opacity="0.200000" stroke="#000000" stroke-width="2" stroke-opacity="0.200000" points="672.3,-512.25 678.22,-509.95 672.15,-508.06 672.3,-512.25"/>
</g>
<!-- directus/sdk/updateSection.ts -->
<g id="node20" class="node">
<title>directus/sdk/updateSection.ts</title>
<g id="a_node20"><a xlink:href="directus/sdk/updateSection.ts" xlink:title="updateSection.ts">
<path fill="#ddfeff" stroke="black" d="M1046,-351.45C1046,-351.45 964,-351.45 964,-351.45 961,-351.45 958,-348.45 958,-345.45 958,-345.45 958,-339.45 958,-339.45 958,-336.45 961,-333.45 964,-333.45 964,-333.45 1046,-333.45 1046,-333.45 1049,-333.45 1052,-336.45 1052,-339.45 1052,-339.45 1052,-345.45 1052,-345.45 1052,-348.45 1049,-351.45 1046,-351.45"/>
<text text-anchor="start" x="966" y="-340.25" font-family="Helvetica,sans-Serif" font-size="9.00">updateSection.ts</text>
</a>
</g>
</g>
<!-- components/Section/EditSection.tsx&#45;&gt;directus/sdk/updateSection.ts -->
<g id="edge15" class="edge">
<title>components/Section/EditSection.tsx&#45;&gt;directus/sdk/updateSection.ts</title>
<path fill="none" stroke="#000000" stroke-width="2" stroke-opacity="0.200000" d="M425.37,-591.51C440.2,-599.46 459.42,-612.55 468.5,-630.45 479.01,-651.17 459.92,-1032.19 476.5,-1048.45 533.61,-1104.48 589.32,-1091.89 656.5,-1048.45 902.91,-889.15 853.11,-730.28 927.5,-446.45 932.53,-427.25 922.37,-372.35 935.5,-357.45 939.94,-352.42 945.64,-348.86 951.86,-346.37"/>
<polygon fill="#000000" fill-opacity="0.200000" stroke="#000000" stroke-width="2" stroke-opacity="0.200000" points="952.69,-348.3 957.69,-344.37 951.33,-344.33 952.69,-348.3"/>
</g>
<!-- components/Section/SelectColor.tsx -->
<g id="node21" class="node">
<title>components/Section/SelectColor.tsx</title>
<g id="a_node21"><a xlink:href="components/Section/SelectColor.tsx" xlink:title="SelectColor.tsx">
<path fill="#bbfeff" stroke="black" d="M594,-577.45C594,-577.45 523,-577.45 523,-577.45 520,-577.45 517,-574.45 517,-571.45 517,-571.45 517,-565.45 517,-565.45 517,-562.45 520,-559.45 523,-559.45 523,-559.45 594,-559.45 594,-559.45 597,-559.45 600,-562.45 600,-565.45 600,-565.45 600,-571.45 600,-571.45 600,-574.45 597,-577.45 594,-577.45"/>
<text text-anchor="start" x="525" y="-566.25" font-family="Helvetica,sans-Serif" font-size="9.00">SelectColor.tsx</text>
</a>
</g>
</g>
<!-- components/Section/EditSection.tsx&#45;&gt;components/Section/SelectColor.tsx -->
<g id="edge17" class="edge">
<title>components/Section/EditSection.tsx&#45;&gt;components/Section/SelectColor.tsx</title>
<path fill="none" stroke="#000000" stroke-width="2" stroke-opacity="0.200000" d="M447.03,-578.63C466.71,-576.82 490.3,-574.64 510.61,-572.77"/>
<polygon fill="#000000" fill-opacity="0.200000" stroke="#000000" stroke-width="2" stroke-opacity="0.200000" points="511.02,-574.84 516.8,-572.2 510.64,-570.66 511.02,-574.84"/>
</g>
<!-- components/Section/SelectColor.tsx&#45;&gt;components/Section/style.module.scss -->
<g id="edge21" class="edge">
<title>components/Section/SelectColor.tsx&#45;&gt;components/Section/style.module.scss</title>
<path fill="none" stroke="#000000" stroke-width="2" stroke-opacity="0.200000" d="M600.15,-571.81C619.39,-571.2 641.41,-567 656.5,-553.45 666.77,-544.23 654.65,-533.12 664.5,-523.45 666.98,-521.02 669.79,-518.96 672.81,-517.22"/>
<polygon fill="#000000" fill-opacity="0.200000" stroke="#000000" stroke-width="2" stroke-opacity="0.200000" points="674,-518.97 678.44,-514.41 672.13,-515.21 674,-518.97"/>
</g>
<!-- components/Section/SectionWrapper.tsx -->
<g id="node22" class="node">
<title>components/Section/SectionWrapper.tsx</title>
<g id="a_node22"><a xlink:href="components/Section/SectionWrapper.tsx" xlink:title="SectionWrapper.tsx">
<path fill="#bbfeff" stroke="black" d="M450.5,-503.45C450.5,-503.45 358.5,-503.45 358.5,-503.45 355.5,-503.45 352.5,-500.45 352.5,-497.45 352.5,-497.45 352.5,-491.45 352.5,-491.45 352.5,-488.45 355.5,-485.45 358.5,-485.45 358.5,-485.45 450.5,-485.45 450.5,-485.45 453.5,-485.45 456.5,-488.45 456.5,-491.45 456.5,-491.45 456.5,-497.45 456.5,-497.45 456.5,-500.45 453.5,-503.45 450.5,-503.45"/>
<text text-anchor="start" x="360.5" y="-492.25" font-family="Helvetica,sans-Serif" font-size="9.00">SectionWrapper.tsx</text>
</a>
</g>
</g>
<!-- components/Section/SectionsText.tsx -->
<g id="node23" class="node">
<title>components/Section/SectionsText.tsx</title>
<g id="a_node23"><a xlink:href="components/Section/SectionsText.tsx" xlink:title="SectionsText.tsx">
<path fill="#bbfeff" stroke="black" d="M443,-533.45C443,-533.45 366,-533.45 366,-533.45 363,-533.45 360,-530.45 360,-527.45 360,-527.45 360,-521.45 360,-521.45 360,-518.45 363,-515.45 366,-515.45 366,-515.45 443,-515.45 443,-515.45 446,-515.45 449,-518.45 449,-521.45 449,-521.45 449,-527.45 449,-527.45 449,-530.45 446,-533.45 443,-533.45"/>
<text text-anchor="start" x="368" y="-522.25" font-family="Helvetica,sans-Serif" font-size="9.00">SectionsText.tsx</text>
</a>
</g>
</g>
<!-- components/Section/SectionsText.tsx&#45;&gt;components/Editor/Tiptap.tsx -->
<g id="edge19" class="edge">
<title>components/Section/SectionsText.tsx&#45;&gt;components/Editor/Tiptap.tsx</title>
<path fill="none" stroke="#000000" stroke-width="2" stroke-opacity="0.200000" d="M449.14,-520.75C456.36,-518.38 463.2,-514.8 468.5,-509.45 479.73,-498.12 466.61,-486.98 476.5,-474.45 487.75,-460.2 505.4,-450.66 521.35,-444.48"/>
<polygon fill="#000000" fill-opacity="0.200000" stroke="#000000" stroke-width="2" stroke-opacity="0.200000" points="522.22,-446.4 527.13,-442.36 520.78,-442.46 522.22,-446.4"/>
</g>
<!-- components/Section/SectionsText.tsx&#45;&gt;components/Section/EditElement.tsx -->
<g id="edge20" class="edge">
<title>components/Section/SectionsText.tsx&#45;&gt;components/Section/EditElement.tsx</title>
<path fill="none" stroke="#000000" stroke-width="2" stroke-opacity="0.200000" d="M449.06,-528.47C467.34,-530.15 488.71,-532.12 507.62,-533.86"/>
<polygon fill="#000000" fill-opacity="0.200000" stroke="#000000" stroke-width="2" stroke-opacity="0.200000" points="507.77,-535.98 513.94,-534.44 508.15,-531.8 507.77,-535.98"/>
</g>
<!-- components/Section/Sort.tsx -->
<g id="node24" class="node">
<title>components/Section/Sort.tsx</title>
<g id="a_node24"><a xlink:href="components/Section/Sort.tsx" xlink:title="Sort.tsx">
<path fill="#ccffcc" stroke="black" d="M301.5,-562.45C301.5,-562.45 259.5,-562.45 259.5,-562.45 256.5,-562.45 253.5,-559.45 253.5,-556.45 253.5,-556.45 253.5,-550.45 253.5,-550.45 253.5,-547.45 256.5,-544.45 259.5,-544.45 259.5,-544.45 301.5,-544.45 301.5,-544.45 304.5,-544.45 307.5,-547.45 307.5,-550.45 307.5,-550.45 307.5,-556.45 307.5,-556.45 307.5,-559.45 304.5,-562.45 301.5,-562.45"/>
<text text-anchor="start" x="262.5" y="-551.25" font-family="Helvetica,sans-Serif" font-size="9.00">Sort.tsx</text>
</a>
</g>
</g>
<!-- components/Section/index.tsx -->
<g id="node25" class="node">
<title>components/Section/index.tsx</title>
<g id="a_node25"><a xlink:href="components/Section/index.tsx" xlink:title="index.tsx">
<path fill="#bbfeff" stroke="black" d="M303.5,-503.45C303.5,-503.45 257.5,-503.45 257.5,-503.45 254.5,-503.45 251.5,-500.45 251.5,-497.45 251.5,-497.45 251.5,-491.45 251.5,-491.45 251.5,-488.45 254.5,-485.45 257.5,-485.45 257.5,-485.45 303.5,-485.45 303.5,-485.45 306.5,-485.45 309.5,-488.45 309.5,-491.45 309.5,-491.45 309.5,-497.45 309.5,-497.45 309.5,-500.45 306.5,-503.45 303.5,-503.45"/>
<text text-anchor="start" x="259.5" y="-492.25" font-family="Helvetica,sans-Serif" font-size="9.00">index.tsx</text>
</a>
</g>
</g>
<!-- components/Section/index.tsx&#45;&gt;components/Section/EditElement.tsx -->
<g id="edge24" class="edge">
<title>components/Section/index.tsx&#45;&gt;components/Section/EditElement.tsx</title>
<path fill="none" stroke="#000000" stroke-width="2" stroke-opacity="0.200000" d="M296.48,-503.5C309.72,-511.82 329.25,-524.89 344.5,-538.45 348.5,-542.01 347.62,-545.26 352.5,-547.45 379.2,-559.44 456.09,-552.33 507.73,-545.7"/>
<polygon fill="#000000" fill-opacity="0.200000" stroke="#000000" stroke-width="2" stroke-opacity="0.200000" points="508.22,-547.76 513.9,-544.9 507.68,-543.59 508.22,-547.76"/>
</g>
<!-- components/Section/index.tsx&#45;&gt;components/Util/NoSsr.tsx -->
<g id="edge23" class="edge">
<title>components/Section/index.tsx&#45;&gt;components/Util/NoSsr.tsx</title>
<path fill="none" stroke="#000000" stroke-width="2" stroke-opacity="0.200000" d="M308.96,-485.39C320.07,-481.58 332.97,-476.99 344.5,-472.45 404.13,-448.98 413.89,-428.11 476.5,-414.45 602.56,-386.95 757.43,-397.56 825.76,-404.4"/>
<polygon fill="#000000" fill-opacity="0.200000" stroke="#000000" stroke-width="2" stroke-opacity="0.200000" points="825.91,-406.53 832.1,-405.05 826.34,-402.35 825.91,-406.53"/>
</g>
<!-- components/Section/index.tsx&#45;&gt;components/Section/EditSection.tsx -->
<g id="edge25" class="edge">
<title>components/Section/index.tsx&#45;&gt;components/Section/EditSection.tsx</title>
<path fill="none" stroke="#000000" stroke-width="2" stroke-opacity="0.200000" d="M300.92,-503.59C314.92,-511.11 333.26,-523.04 344.5,-538.45 351.62,-548.22 344.13,-555.73 352.5,-564.45 354.58,-566.63 356.95,-568.54 359.49,-570.22"/>
<polygon fill="#000000" fill-opacity="0.200000" stroke="#000000" stroke-width="2" stroke-opacity="0.200000" points="358.66,-572.17 364.91,-573.35 360.77,-568.53 358.66,-572.17"/>
</g>
<!-- components/Section/index.tsx&#45;&gt;components/Section/SectionWrapper.tsx -->
<g id="edge27" class="edge">
<title>components/Section/index.tsx&#45;&gt;components/Section/SectionWrapper.tsx</title>
<path fill="none" stroke="#000000" stroke-width="2" stroke-opacity="0.200000" d="M309.8,-494.45C320.68,-494.45 333.55,-494.45 346.2,-494.45"/>
<polygon fill="#000000" fill-opacity="0.200000" stroke="#000000" stroke-width="2" stroke-opacity="0.200000" points="346.38,-496.55 352.38,-494.45 346.38,-492.35 346.38,-496.55"/>
</g>
<!-- components/Section/index.tsx&#45;&gt;components/Section/SectionsText.tsx -->
<g id="edge26" class="edge">
<title>components/Section/index.tsx&#45;&gt;components/Section/SectionsText.tsx</title>
<path fill="none" stroke="#000000" stroke-width="2" stroke-opacity="0.200000" d="M309.8,-501.41C324.84,-505.11 343.66,-509.74 360.47,-513.87"/>
<polygon fill="#000000" fill-opacity="0.200000" stroke="#000000" stroke-width="2" stroke-opacity="0.200000" points="360.24,-515.98 366.56,-515.37 361.24,-511.9 360.24,-515.98"/>
</g>
<!-- components/Util/DirectusImage.tsx -->
<g id="node26" class="node">
<title>components/Util/DirectusImage.tsx</title>
<g id="a_node26"><a xlink:href="components/Util/DirectusImage.tsx" xlink:title="DirectusImage.tsx">
<path fill="#bbfeff" stroke="black" d="M905.5,-387.45C905.5,-387.45 818.5,-387.45 818.5,-387.45 815.5,-387.45 812.5,-384.45 812.5,-381.45 812.5,-381.45 812.5,-375.45 812.5,-375.45 812.5,-372.45 815.5,-369.45 818.5,-369.45 818.5,-369.45 905.5,-369.45 905.5,-369.45 908.5,-369.45 911.5,-372.45 911.5,-375.45 911.5,-375.45 911.5,-381.45 911.5,-381.45 911.5,-384.45 908.5,-387.45 905.5,-387.45"/>
<text text-anchor="start" x="820.5" y="-376.25" font-family="Helvetica,sans-Serif" font-size="9.00">DirectusImage.tsx</text>
</a>
</g>
</g>
<!-- components/Section/index.tsx&#45;&gt;components/Util/DirectusImage.tsx -->
<g id="edge22" class="edge">
<title>components/Section/index.tsx&#45;&gt;components/Util/DirectusImage.tsx</title>
<path fill="none" stroke="#000000" stroke-width="2" stroke-opacity="0.200000" d="M309.8,-491.26C322.28,-488.37 336.01,-482.87 344.5,-472.45 361.49,-451.6 333.66,-431.66 352.5,-412.45 481.32,-281.1 736.35,-340.7 827.58,-367.71"/>
<polygon fill="#000000" fill-opacity="0.200000" stroke="#000000" stroke-width="2" stroke-opacity="0.200000" points="827,-369.73 833.35,-369.44 828.2,-365.7 827,-369.73"/>
</g>
<!-- components/Section/style.utlis.ts -->
<g id="node27" class="node">
<title>components/Section/style.utlis.ts</title>
<g id="a_node27"><a xlink:href="components/Section/style.utlis.ts" xlink:title="style.utlis.ts">
<path fill="#ddfeff" stroke="black" d="M588,-503.45C588,-503.45 529,-503.45 529,-503.45 526,-503.45 523,-500.45 523,-497.45 523,-497.45 523,-491.45 523,-491.45 523,-488.45 526,-485.45 529,-485.45 529,-485.45 588,-485.45 588,-485.45 591,-485.45 594,-488.45 594,-491.45 594,-491.45 594,-497.45 594,-497.45 594,-500.45 591,-503.45 588,-503.45"/>
<text text-anchor="start" x="531" y="-492.25" font-family="Helvetica,sans-Serif" font-size="9.00">style.utlis.ts</text>
</a>
</g>
</g>
<!-- components/Section/index.tsx&#45;&gt;components/Section/style.utlis.ts -->
<g id="edge28" class="edge">
<title>components/Section/index.tsx&#45;&gt;components/Section/style.utlis.ts</title>
<path fill="none" stroke="#000000" stroke-width="2" stroke-opacity="0.200000" d="M291.63,-503.55C304.63,-514.55 328.39,-532.46 352.5,-539.45 377.26,-546.64 447.84,-554.88 468.5,-539.45 478.53,-531.97 467.35,-520.99 476.5,-512.45 487.28,-502.39 502.4,-497.5 516.65,-495.25"/>
<polygon fill="#000000" fill-opacity="0.200000" stroke="#000000" stroke-width="2" stroke-opacity="0.200000" points="517.02,-497.32 522.69,-494.44 516.47,-493.16 517.02,-497.32"/>
</g>
<!-- directus/restAPI/fetchFileMetadata.ts -->
<g id="node41" class="node">
<title>directus/restAPI/fetchFileMetadata.ts</title>
<g id="a_node41"><a xlink:href="directus/restAPI/fetchFileMetadata.ts" xlink:title="fetchFileMetadata.ts">
<path fill="#ddfeff" stroke="black" d="M1052.5,-261.45C1052.5,-261.45 957.5,-261.45 957.5,-261.45 954.5,-261.45 951.5,-258.45 951.5,-255.45 951.5,-255.45 951.5,-249.45 951.5,-249.45 951.5,-246.45 954.5,-243.45 957.5,-243.45 957.5,-243.45 1052.5,-243.45 1052.5,-243.45 1055.5,-243.45 1058.5,-246.45 1058.5,-249.45 1058.5,-249.45 1058.5,-255.45 1058.5,-255.45 1058.5,-258.45 1055.5,-261.45 1052.5,-261.45"/>
<text text-anchor="start" x="959.5" y="-250.25" font-family="Helvetica,sans-Serif" font-size="9.00">fetchFileMetadata.ts</text>
</a>
</g>
</g>
<!-- components/Util/DirectusImage.tsx&#45;&gt;directus/restAPI/fetchFileMetadata.ts -->
<g id="edge43" class="edge">
<title>components/Util/DirectusImage.tsx&#45;&gt;directus/restAPI/fetchFileMetadata.ts</title>
<path fill="none" stroke="#000000" stroke-width="2" stroke-opacity="0.200000" d="M869.13,-369.28C880.65,-352.52 906.96,-316.47 935.5,-292.45 948.69,-281.36 965.35,-271.56 978.93,-264.43"/>
<polygon fill="#000000" fill-opacity="0.200000" stroke="#000000" stroke-width="2" stroke-opacity="0.200000" points="980.17,-266.15 984.55,-261.54 978.25,-262.42 980.17,-266.15"/>
</g>
<!-- utils/getAssetURL.ts -->
<g id="node42" class="node">
<title>utils/getAssetURL.ts</title>
<g id="a_node42"><a xlink:href="utils/getAssetURL.ts" xlink:title="getAssetURL.ts">
<path fill="#ddfeff" stroke="black" d="M1041.5,-133.45C1041.5,-133.45 968.5,-133.45 968.5,-133.45 965.5,-133.45 962.5,-130.45 962.5,-127.45 962.5,-127.45 962.5,-121.45 962.5,-121.45 962.5,-118.45 965.5,-115.45 968.5,-115.45 968.5,-115.45 1041.5,-115.45 1041.5,-115.45 1044.5,-115.45 1047.5,-118.45 1047.5,-121.45 1047.5,-121.45 1047.5,-127.45 1047.5,-127.45 1047.5,-130.45 1044.5,-133.45 1041.5,-133.45"/>
<text text-anchor="start" x="970.5" y="-122.25" font-family="Helvetica,sans-Serif" font-size="9.00">getAssetURL.ts</text>
</a>
</g>
</g>
<!-- components/Util/DirectusImage.tsx&#45;&gt;utils/getAssetURL.ts -->
<g id="edge44" class="edge">
<title>components/Util/DirectusImage.tsx&#45;&gt;utils/getAssetURL.ts</title>
<path fill="none" stroke="#000000" stroke-width="2" stroke-opacity="0.200000" d="M864.19,-369.29C868.58,-338.56 886.23,-237.4 935.5,-172.45 947.04,-157.24 964.81,-144.98 979.36,-136.67"/>
<polygon fill="#000000" fill-opacity="0.200000" stroke="#000000" stroke-width="2" stroke-opacity="0.200000" points="980.73,-138.31 984.96,-133.57 978.69,-134.64 980.73,-138.31"/>
</g>
<!-- components/Section/style.utlis.ts&#45;&gt;components/Section/style.module.scss -->
<g id="edge29" class="edge">
<title>components/Section/style.utlis.ts&#45;&gt;components/Section/style.module.scss</title>
<path fill="none" stroke="#000000" stroke-width="2" stroke-opacity="0.200000" d="M594.3,-497.39C616.92,-499.3 646.85,-501.82 672.41,-503.98"/>
<polygon fill="#000000" fill-opacity="0.200000" stroke="#000000" stroke-width="2" stroke-opacity="0.200000" points="672.31,-506.08 678.47,-504.49 672.66,-501.89 672.31,-506.08"/>
</g>
<!-- components/SocialMedia/Button/icons/facebook&#45;brands.svg -->
<g id="node28" class="node">
<title>components/SocialMedia/Button/icons/facebook&#45;brands.svg</title>
<g id="a_node28"><a xlink:href="components/SocialMedia/Button/icons/facebook-brands.svg" xlink:title="facebook&#45;brands.svg">
<path fill="#ffffcc" stroke="black" d="M607.5,-967.45C607.5,-967.45 509.5,-967.45 509.5,-967.45 506.5,-967.45 503.5,-964.45 503.5,-961.45 503.5,-961.45 503.5,-955.45 503.5,-955.45 503.5,-952.45 506.5,-949.45 509.5,-949.45 509.5,-949.45 607.5,-949.45 607.5,-949.45 610.5,-949.45 613.5,-952.45 613.5,-955.45 613.5,-955.45 613.5,-961.45 613.5,-961.45 613.5,-964.45 610.5,-967.45 607.5,-967.45"/>
<text text-anchor="start" x="511.5" y="-956.25" font-family="Helvetica,sans-Serif" font-size="9.00">facebook&#45;brands.svg</text>
</a>
</g>
</g>
<!-- components/SocialMedia/Button/icons/facebook&#45;square&#45;brands.svg -->
<g id="node29" class="node">
<title>components/SocialMedia/Button/icons/facebook&#45;square&#45;brands.svg</title>
<g id="a_node29"><a xlink:href="components/SocialMedia/Button/icons/facebook-square-brands.svg" xlink:title="facebook&#45;square&#45;brands.svg">
<path fill="#ffffcc" stroke="black" d="M624.5,-937.45C624.5,-937.45 492.5,-937.45 492.5,-937.45 489.5,-937.45 486.5,-934.45 486.5,-931.45 486.5,-931.45 486.5,-925.45 486.5,-925.45 486.5,-922.45 489.5,-919.45 492.5,-919.45 492.5,-919.45 624.5,-919.45 624.5,-919.45 627.5,-919.45 630.5,-922.45 630.5,-925.45 630.5,-925.45 630.5,-931.45 630.5,-931.45 630.5,-934.45 627.5,-937.45 624.5,-937.45"/>
<text text-anchor="start" x="494.5" y="-926.25" font-family="Helvetica,sans-Serif" font-size="9.00">facebook&#45;square&#45;brands.svg</text>
</a>
</g>
</g>
<!-- components/SocialMedia/Button/icons/instagram&#45;brands.svg -->
<g id="node30" class="node">
<title>components/SocialMedia/Button/icons/instagram&#45;brands.svg</title>
<g id="a_node30"><a xlink:href="components/SocialMedia/Button/icons/instagram-brands.svg" xlink:title="instagram&#45;brands.svg">
<path fill="#ffffcc" stroke="black" d="M610.5,-907.45C610.5,-907.45 506.5,-907.45 506.5,-907.45 503.5,-907.45 500.5,-904.45 500.5,-901.45 500.5,-901.45 500.5,-895.45 500.5,-895.45 500.5,-892.45 503.5,-889.45 506.5,-889.45 506.5,-889.45 610.5,-889.45 610.5,-889.45 613.5,-889.45 616.5,-892.45 616.5,-895.45 616.5,-895.45 616.5,-901.45 616.5,-901.45 616.5,-904.45 613.5,-907.45 610.5,-907.45"/>
<text text-anchor="start" x="508.5" y="-896.25" font-family="Helvetica,sans-Serif" font-size="9.00">instagram&#45;brands.svg</text>
</a>
</g>
</g>
<!-- components/SocialMedia/Button/icons/telegram&#45;brands.svg -->
<g id="node31" class="node">
<title>components/SocialMedia/Button/icons/telegram&#45;brands.svg</title>
<g id="a_node31"><a xlink:href="components/SocialMedia/Button/icons/telegram-brands.svg" xlink:title="telegram&#45;brands.svg">
<path fill="#ffffcc" stroke="black" d="M607.5,-877.45C607.5,-877.45 509.5,-877.45 509.5,-877.45 506.5,-877.45 503.5,-874.45 503.5,-871.45 503.5,-871.45 503.5,-865.45 503.5,-865.45 503.5,-862.45 506.5,-859.45 509.5,-859.45 509.5,-859.45 607.5,-859.45 607.5,-859.45 610.5,-859.45 613.5,-862.45 613.5,-865.45 613.5,-865.45 613.5,-871.45 613.5,-871.45 613.5,-874.45 610.5,-877.45 607.5,-877.45"/>
<text text-anchor="start" x="511.5" y="-866.25" font-family="Helvetica,sans-Serif" font-size="9.00">telegram&#45;brands.svg</text>
</a>
</g>
</g>
<!-- components/SocialMedia/Button/icons/telegram&#45;plane&#45;brands.svg -->
<g id="node32" class="node">
<title>components/SocialMedia/Button/icons/telegram&#45;plane&#45;brands.svg</title>
<g id="a_node32"><a xlink:href="components/SocialMedia/Button/icons/telegram-plane-brands.svg" xlink:title="telegram&#45;plane&#45;brands.svg">
<path fill="#ffffcc" stroke="black" d="M621.5,-847.45C621.5,-847.45 495.5,-847.45 495.5,-847.45 492.5,-847.45 489.5,-844.45 489.5,-841.45 489.5,-841.45 489.5,-835.45 489.5,-835.45 489.5,-832.45 492.5,-829.45 495.5,-829.45 495.5,-829.45 621.5,-829.45 621.5,-829.45 624.5,-829.45 627.5,-832.45 627.5,-835.45 627.5,-835.45 627.5,-841.45 627.5,-841.45 627.5,-844.45 624.5,-847.45 621.5,-847.45"/>
<text text-anchor="start" x="497.5" y="-836.25" font-family="Helvetica,sans-Serif" font-size="9.00">telegram&#45;plane&#45;brands.svg</text>
</a>
</g>
</g>
<!-- components/SocialMedia/Button/icons/twitter&#45;brands.svg -->
<g id="node33" class="node">
<title>components/SocialMedia/Button/icons/twitter&#45;brands.svg</title>
<g id="a_node33"><a xlink:href="components/SocialMedia/Button/icons/twitter-brands.svg" xlink:title="twitter&#45;brands.svg">
<path fill="#ffffcc" stroke="black" d="M602,-817.45C602,-817.45 515,-817.45 515,-817.45 512,-817.45 509,-814.45 509,-811.45 509,-811.45 509,-805.45 509,-805.45 509,-802.45 512,-799.45 515,-799.45 515,-799.45 602,-799.45 602,-799.45 605,-799.45 608,-802.45 608,-805.45 608,-805.45 608,-811.45 608,-811.45 608,-814.45 605,-817.45 602,-817.45"/>
<text text-anchor="start" x="517" y="-806.25" font-family="Helvetica,sans-Serif" font-size="9.00">twitter&#45;brands.svg</text>
</a>
</g>
</g>
<!-- components/SocialMedia/Button/icons/whatsapp&#45;brands.svg -->
<g id="node34" class="node">
<title>components/SocialMedia/Button/icons/whatsapp&#45;brands.svg</title>
<g id="a_node34"><a xlink:href="components/SocialMedia/Button/icons/whatsapp-brands.svg" xlink:title="whatsapp&#45;brands.svg">
<path fill="#ffffcc" stroke="black" d="M609.5,-787.45C609.5,-787.45 507.5,-787.45 507.5,-787.45 504.5,-787.45 501.5,-784.45 501.5,-781.45 501.5,-781.45 501.5,-775.45 501.5,-775.45 501.5,-772.45 504.5,-769.45 507.5,-769.45 507.5,-769.45 609.5,-769.45 609.5,-769.45 612.5,-769.45 615.5,-772.45 615.5,-775.45 615.5,-775.45 615.5,-781.45 615.5,-781.45 615.5,-784.45 612.5,-787.45 609.5,-787.45"/>
<text text-anchor="start" x="509.5" y="-776.25" font-family="Helvetica,sans-Serif" font-size="9.00">whatsapp&#45;brands.svg</text>
</a>
</g>
</g>
<!-- components/SocialMedia/Button/icons/whatsapp&#45;square&#45;brands.svg -->
<g id="node35" class="node">
<title>components/SocialMedia/Button/icons/whatsapp&#45;square&#45;brands.svg</title>
<g id="a_node35"><a xlink:href="components/SocialMedia/Button/icons/whatsapp-square-brands.svg" xlink:title="whatsapp&#45;square&#45;brands.svg">
<path fill="#ffffcc" stroke="black" d="M626.5,-757.45C626.5,-757.45 490.5,-757.45 490.5,-757.45 487.5,-757.45 484.5,-754.45 484.5,-751.45 484.5,-751.45 484.5,-745.45 484.5,-745.45 484.5,-742.45 487.5,-739.45 490.5,-739.45 490.5,-739.45 626.5,-739.45 626.5,-739.45 629.5,-739.45 632.5,-742.45 632.5,-745.45 632.5,-745.45 632.5,-751.45 632.5,-751.45 632.5,-754.45 629.5,-757.45 626.5,-757.45"/>
<text text-anchor="start" x="492.5" y="-746.25" font-family="Helvetica,sans-Serif" font-size="9.00">whatsapp&#45;square&#45;brands.svg</text>
</a>
</g>
</g>
<!-- components/SocialMedia/Button/icons/youtube.svg -->
<g id="node36" class="node">
<title>components/SocialMedia/Button/icons/youtube.svg</title>
<g id="a_node36"><a xlink:href="components/SocialMedia/Button/icons/youtube.svg" xlink:title="youtube.svg">
<path fill="#ffffcc" stroke="black" d="M589,-727.45C589,-727.45 528,-727.45 528,-727.45 525,-727.45 522,-724.45 522,-721.45 522,-721.45 522,-715.45 522,-715.45 522,-712.45 525,-709.45 528,-709.45 528,-709.45 589,-709.45 589,-709.45 592,-709.45 595,-712.45 595,-715.45 595,-715.45 595,-721.45 595,-721.45 595,-724.45 592,-727.45 589,-727.45"/>
<text text-anchor="start" x="530" y="-716.25" font-family="Helvetica,sans-Serif" font-size="9.00">youtube.svg</text>
</a>
</g>
</g>
<!-- components/SocialMedia/Button/index.tsx&#45;&gt;components/SocialMedia/Button/icons/facebook&#45;brands.svg -->
<g id="edge30" class="edge">
<title>components/SocialMedia/Button/index.tsx&#45;&gt;components/SocialMedia/Button/icons/facebook&#45;brands.svg</title>
<path fill="none" stroke="#000000" stroke-width="2" stroke-opacity="0.200000" d="M409.87,-862.65C419.23,-881.25 443.1,-923.3 476.5,-943.45 482.81,-947.26 489.87,-950.15 497.11,-952.32"/>
<polygon fill="#000000" fill-opacity="0.200000" stroke="#000000" stroke-width="2" stroke-opacity="0.200000" points="496.89,-954.44 503.23,-953.99 497.99,-950.39 496.89,-954.44"/>
</g>
<!-- components/SocialMedia/Button/index.tsx&#45;&gt;components/SocialMedia/Button/icons/facebook&#45;square&#45;brands.svg -->
<g id="edge31" class="edge">
<title>components/SocialMedia/Button/index.tsx&#45;&gt;components/SocialMedia/Button/icons/facebook&#45;square&#45;brands.svg</title>
<path fill="none" stroke="#000000" stroke-width="2" stroke-opacity="0.200000" d="M413.62,-862.89C425.81,-876.41 450.25,-901.02 476.5,-913.45 479.57,-914.91 482.77,-916.22 486.04,-917.41"/>
<polygon fill="#000000" fill-opacity="0.200000" stroke="#000000" stroke-width="2" stroke-opacity="0.200000" points="485.65,-919.49 492.01,-919.41 486.99,-915.51 485.65,-919.49"/>
</g>
<!-- components/SocialMedia/Button/index.tsx&#45;&gt;components/SocialMedia/Button/icons/instagram&#45;brands.svg -->
<g id="edge32" class="edge">
<title>components/SocialMedia/Button/index.tsx&#45;&gt;components/SocialMedia/Button/icons/instagram&#45;brands.svg</title>
<path fill="none" stroke="#000000" stroke-width="2" stroke-opacity="0.200000" d="M423.78,-862.48C437.89,-869.12 458.04,-877.92 476.5,-883.45 482.25,-885.18 488.3,-886.74 494.39,-888.15"/>
<polygon fill="#000000" fill-opacity="0.200000" stroke="#000000" stroke-width="2" stroke-opacity="0.200000" points="494.17,-890.25 500.48,-889.51 495.08,-886.15 494.17,-890.25"/>
</g>
<!-- components/SocialMedia/Button/index.tsx&#45;&gt;components/SocialMedia/Button/icons/telegram&#45;brands.svg -->
<g id="edge33" class="edge">
<title>components/SocialMedia/Button/index.tsx&#45;&gt;components/SocialMedia/Button/icons/telegram&#45;brands.svg</title>
<path fill="none" stroke="#000000" stroke-width="2" stroke-opacity="0.200000" d="M433.73,-856.24C451.55,-858 475.25,-860.34 497.14,-862.5"/>
<polygon fill="#000000" fill-opacity="0.200000" stroke="#000000" stroke-width="2" stroke-opacity="0.200000" points="497.09,-864.6 503.26,-863.1 497.5,-860.42 497.09,-864.6"/>
</g>
<!-- components/SocialMedia/Button/index.tsx&#45;&gt;components/SocialMedia/Button/icons/telegram&#45;plane&#45;brands.svg -->
<g id="edge34" class="edge">
<title>components/SocialMedia/Button/index.tsx&#45;&gt;components/SocialMedia/Button/icons/telegram&#45;plane&#45;brands.svg</title>
<path fill="none" stroke="#000000" stroke-width="2" stroke-opacity="0.200000" d="M433.73,-850.67C447.85,-849.27 465.66,-847.52 483.34,-845.77"/>
<polygon fill="#000000" fill-opacity="0.200000" stroke="#000000" stroke-width="2" stroke-opacity="0.200000" points="483.56,-847.86 489.33,-845.18 483.15,-843.68 483.56,-847.86"/>
</g>
<!-- components/SocialMedia/Button/index.tsx&#45;&gt;components/SocialMedia/Button/icons/twitter&#45;brands.svg -->
<g id="edge35" class="edge">
<title>components/SocialMedia/Button/index.tsx&#45;&gt;components/SocialMedia/Button/icons/twitter&#45;brands.svg</title>
<path fill="none" stroke="#000000" stroke-width="2" stroke-opacity="0.200000" d="M423.78,-844.43C437.89,-837.79 458.04,-828.99 476.5,-823.45 484.85,-820.95 493.81,-818.79 502.62,-816.95"/>
<polygon fill="#000000" fill-opacity="0.200000" stroke="#000000" stroke-width="2" stroke-opacity="0.200000" points="503.22,-818.97 508.69,-815.72 502.39,-814.85 503.22,-818.97"/>
</g>
<!-- components/SocialMedia/Button/index.tsx&#45;&gt;components/SocialMedia/Button/icons/whatsapp&#45;brands.svg -->
<g id="edge36" class="edge">
<title>components/SocialMedia/Button/index.tsx&#45;&gt;components/SocialMedia/Button/icons/whatsapp&#45;brands.svg</title>
<path fill="none" stroke="#000000" stroke-width="2" stroke-opacity="0.200000" d="M413.62,-844.02C425.81,-830.5 450.25,-805.89 476.5,-793.45 482.44,-790.64 488.85,-788.36 495.38,-786.5"/>
<polygon fill="#000000" fill-opacity="0.200000" stroke="#000000" stroke-width="2" stroke-opacity="0.200000" points="496.13,-788.47 501.4,-784.91 495.06,-784.41 496.13,-788.47"/>
</g>
<!-- components/SocialMedia/Button/index.tsx&#45;&gt;components/SocialMedia/Button/icons/whatsapp&#45;square&#45;brands.svg -->
<g id="edge37" class="edge">
<title>components/SocialMedia/Button/index.tsx&#45;&gt;components/SocialMedia/Button/icons/whatsapp&#45;square&#45;brands.svg</title>
<path fill="none" stroke="#000000" stroke-width="2" stroke-opacity="0.200000" d="M409.87,-844.26C419.23,-825.66 443.1,-783.61 476.5,-763.45 478.52,-762.24 480.61,-761.11 482.76,-760.08"/>
<polygon fill="#000000" fill-opacity="0.200000" stroke="#000000" stroke-width="2" stroke-opacity="0.200000" points="483.92,-761.87 488.57,-757.54 482.23,-758.02 483.92,-761.87"/>
</g>
<!-- components/SocialMedia/Button/index.tsx&#45;&gt;components/SocialMedia/Button/icons/youtube.svg -->
<g id="edge38" class="edge">
<title>components/SocialMedia/Button/index.tsx&#45;&gt;components/SocialMedia/Button/icons/youtube.svg</title>
<path fill="none" stroke="#000000" stroke-width="2" stroke-opacity="0.200000" d="M407.99,-844.45C414.76,-821.73 435.82,-761.87 476.5,-733.45 487.89,-725.5 502.29,-721.42 515.79,-719.42"/>
<polygon fill="#000000" fill-opacity="0.200000" stroke="#000000" stroke-width="2" stroke-opacity="0.200000" points="516.22,-721.48 521.91,-718.65 515.69,-717.32 516.22,-721.48"/>
</g>
<!-- components/SocialMedia/Button/style.module.scss -->
<g id="node38" class="node">
<title>components/SocialMedia/Button/style.module.scss</title>
<g id="a_node38"><a xlink:href="components/SocialMedia/Button/style.module.scss" xlink:title="style.module.scss">
<path fill="#ffffcc" stroke="black" d="M600.5,-1019.45C600.5,-1019.45 516.5,-1019.45 516.5,-1019.45 513.5,-1019.45 510.5,-1016.45 510.5,-1013.45 510.5,-1013.45 510.5,-1007.45 510.5,-1007.45 510.5,-1004.45 513.5,-1001.45 516.5,-1001.45 516.5,-1001.45 600.5,-1001.45 600.5,-1001.45 603.5,-1001.45 606.5,-1004.45 606.5,-1007.45 606.5,-1007.45 606.5,-1013.45 606.5,-1013.45 606.5,-1016.45 603.5,-1019.45 600.5,-1019.45"/>
<text text-anchor="start" x="518.5" y="-1008.25" font-family="Helvetica,sans-Serif" font-size="9.00">style.module.scss</text>
</a>
</g>
</g>
<!-- components/SocialMedia/Button/index.tsx&#45;&gt;components/SocialMedia/Button/style.module.scss -->
<g id="edge39" class="edge">
<title>components/SocialMedia/Button/index.tsx&#45;&gt;components/SocialMedia/Button/style.module.scss</title>
<path fill="none" stroke="#000000" stroke-width="2" stroke-opacity="0.200000" d="M407.1,-862.64C412.12,-888.43 430.05,-961.83 476.5,-996.45 484.63,-1002.51 494.49,-1006.29 504.49,-1008.58"/>
<polygon fill="#000000" fill-opacity="0.200000" stroke="#000000" stroke-width="2" stroke-opacity="0.200000" points="504.08,-1010.64 510.38,-1009.76 504.91,-1006.52 504.08,-1010.64"/>
</g>
<!-- components/SocialMedia/Share/index.tsx -->
<g id="node39" class="node">
<title>components/SocialMedia/Share/index.tsx</title>
<g id="a_node39"><a xlink:href="components/SocialMedia/Share/index.tsx" xlink:title="index.tsx">
<path fill="#bbfeff" stroke="black" d="M303.5,-659.45C303.5,-659.45 257.5,-659.45 257.5,-659.45 254.5,-659.45 251.5,-656.45 251.5,-653.45 251.5,-653.45 251.5,-647.45 251.5,-647.45 251.5,-644.45 254.5,-641.45 257.5,-641.45 257.5,-641.45 303.5,-641.45 303.5,-641.45 306.5,-641.45 309.5,-644.45 309.5,-647.45 309.5,-647.45 309.5,-653.45 309.5,-653.45 309.5,-656.45 306.5,-659.45 303.5,-659.45"/>
<text text-anchor="start" x="259.5" y="-648.25" font-family="Helvetica,sans-Serif" font-size="9.00">index.tsx</text>
</a>
</g>
</g>
<!-- components/SocialMedia/Share/index.tsx&#45;&gt;components/SocialMedia/Button/index.tsx -->
<g id="edge41" class="edge">
<title>components/SocialMedia/Share/index.tsx&#45;&gt;components/SocialMedia/Button/index.tsx</title>
<path fill="none" stroke="#000000" stroke-width="2" stroke-opacity="0.200000" d="M287.06,-659.7C306.43,-691.94 371.06,-799.48 394.72,-838.85"/>
<polygon fill="#000000" fill-opacity="0.200000" stroke="#000000" stroke-width="2" stroke-opacity="0.200000" points="393.02,-840.09 397.91,-844.15 396.62,-837.93 393.02,-840.09"/>
</g>
<!-- components/SocialMedia/Share/style.module.scss -->
<g id="node40" class="node">
<title>components/SocialMedia/Share/style.module.scss</title>
<g id="a_node40"><a xlink:href="components/SocialMedia/Share/style.module.scss" xlink:title="style.module.scss">
<path fill="#ffffcc" stroke="black" d="M446.5,-659.45C446.5,-659.45 362.5,-659.45 362.5,-659.45 359.5,-659.45 356.5,-656.45 356.5,-653.45 356.5,-653.45 356.5,-647.45 356.5,-647.45 356.5,-644.45 359.5,-641.45 362.5,-641.45 362.5,-641.45 446.5,-641.45 446.5,-641.45 449.5,-641.45 452.5,-644.45 452.5,-647.45 452.5,-647.45 452.5,-653.45 452.5,-653.45 452.5,-656.45 449.5,-659.45 446.5,-659.45"/>
<text text-anchor="start" x="364.5" y="-648.25" font-family="Helvetica,sans-Serif" font-size="9.00">style.module.scss</text>
</a>
</g>
</g>
<!-- components/SocialMedia/Share/index.tsx&#45;&gt;components/SocialMedia/Share/style.module.scss -->
<g id="edge42" class="edge">
<title>components/SocialMedia/Share/index.tsx&#45;&gt;components/SocialMedia/Share/style.module.scss</title>
<path fill="none" stroke="#000000" stroke-width="2" stroke-opacity="0.200000" d="M309.8,-650.45C321.76,-650.45 336.11,-650.45 349.94,-650.45"/>
<polygon fill="#000000" fill-opacity="0.200000" stroke="#000000" stroke-width="2" stroke-opacity="0.200000" points="350.24,-652.55 356.24,-650.45 350.24,-648.35 350.24,-652.55"/>
</g>
<!-- components/_dynamic/Another.tsx -->
<g id="node43" class="node">
<title>components/_dynamic/Another.tsx</title>
<g id="a_node43"><a xlink:href="components/_dynamic/Another.tsx" xlink:title="Another.tsx">
<path fill="#ccffcc" stroke="black" d="M308.5,-353.45C308.5,-353.45 252.5,-353.45 252.5,-353.45 249.5,-353.45 246.5,-350.45 246.5,-347.45 246.5,-347.45 246.5,-341.45 246.5,-341.45 246.5,-338.45 249.5,-335.45 252.5,-335.45 252.5,-335.45 308.5,-335.45 308.5,-335.45 311.5,-335.45 314.5,-338.45 314.5,-341.45 314.5,-341.45 314.5,-347.45 314.5,-347.45 314.5,-350.45 311.5,-353.45 308.5,-353.45"/>
<text text-anchor="start" x="254.5" y="-342.25" font-family="Helvetica,sans-Serif" font-size="9.00">Another.tsx</text>
</a>
</g>
</g>
<!-- components/_dynamic/Ticker.tsx -->
<g id="node44" class="node">
<title>components/_dynamic/Ticker.tsx</title>
<g id="a_node44"><a xlink:href="components/_dynamic/Ticker.tsx" xlink:title="Ticker.tsx">
<path fill="#ccffcc" stroke="black" d="M304,-323.45C304,-323.45 257,-323.45 257,-323.45 254,-323.45 251,-320.45 251,-317.45 251,-317.45 251,-311.45 251,-311.45 251,-308.45 254,-305.45 257,-305.45 257,-305.45 304,-305.45 304,-305.45 307,-305.45 310,-308.45 310,-311.45 310,-311.45 310,-317.45 310,-317.45 310,-320.45 307,-323.45 304,-323.45"/>
<text text-anchor="start" x="259" y="-312.25" font-family="Helvetica,sans-Serif" font-size="9.00">Ticker.tsx</text>
</a>
</g>
</g>
<!-- directus/graphql/fetchData.ts -->
<g id="node45" class="node">
<title>directus/graphql/fetchData.ts</title>
<g id="a_node45"><a xlink:href="directus/graphql/fetchData.ts" xlink:title="fetchData.ts">
<path fill="#ddfeff" stroke="black" d="M1140.5,-471.45C1140.5,-471.45 1080.5,-471.45 1080.5,-471.45 1077.5,-471.45 1074.5,-468.45 1074.5,-465.45 1074.5,-465.45 1074.5,-459.45 1074.5,-459.45 1074.5,-456.45 1077.5,-453.45 1080.5,-453.45 1080.5,-453.45 1140.5,-453.45 1140.5,-453.45 1143.5,-453.45 1146.5,-456.45 1146.5,-459.45 1146.5,-459.45 1146.5,-465.45 1146.5,-465.45 1146.5,-468.45 1143.5,-471.45 1140.5,-471.45"/>
<text text-anchor="start" x="1082.5" y="-460.25" font-family="Helvetica,sans-Serif" font-size="9.00">fetchData.ts</text>
</a>
</g>
</g>
<!-- directus/graphql/getPageData.ts -->
<g id="node46" class="node">
<title>directus/graphql/getPageData.ts</title>
<g id="a_node46"><a xlink:href="directus/graphql/getPageData.ts" xlink:title="getPageData.ts">
<path fill="#ddfeff" stroke="black" d="M1042,-471.45C1042,-471.45 968,-471.45 968,-471.45 965,-471.45 962,-468.45 962,-465.45 962,-465.45 962,-459.45 962,-459.45 962,-456.45 965,-453.45 968,-453.45 968,-453.45 1042,-453.45 1042,-453.45 1045,-453.45 1048,-456.45 1048,-459.45 1048,-459.45 1048,-465.45 1048,-465.45 1048,-468.45 1045,-471.45 1042,-471.45"/>
<text text-anchor="start" x="970" y="-460.25" font-family="Helvetica,sans-Serif" font-size="9.00">getPageData.ts</text>
</a>
</g>
</g>
<!-- directus/graphql/getPageData.ts&#45;&gt;directus/graphql/fetchData.ts -->
<g id="edge45" class="edge">
<title>directus/graphql/getPageData.ts&#45;&gt;directus/graphql/fetchData.ts</title>
<path fill="none" stroke="#000000" stroke-width="2" stroke-opacity="0.200000" d="M1048.1,-462.45C1054.78,-462.45 1061.69,-462.45 1068.35,-462.45"/>
<polygon fill="#000000" fill-opacity="0.200000" stroke="#000000" stroke-width="2" stroke-opacity="0.200000" points="1068.39,-464.55 1074.39,-462.45 1068.39,-460.35 1068.39,-464.55"/>
</g>
<!-- directus/restAPI/fetchCollection.ts -->
<g id="node47" class="node">
<title>directus/restAPI/fetchCollection.ts</title>
<g id="a_node47"><a xlink:href="directus/restAPI/fetchCollection.ts" xlink:title="fetchCollection.ts">
<path fill="#ccffcc" stroke="black" d="M1046.5,-231.45C1046.5,-231.45 963.5,-231.45 963.5,-231.45 960.5,-231.45 957.5,-228.45 957.5,-225.45 957.5,-225.45 957.5,-219.45 957.5,-219.45 957.5,-216.45 960.5,-213.45 963.5,-213.45 963.5,-213.45 1046.5,-213.45 1046.5,-213.45 1049.5,-213.45 1052.5,-216.45 1052.5,-219.45 1052.5,-219.45 1052.5,-225.45 1052.5,-225.45 1052.5,-228.45 1049.5,-231.45 1046.5,-231.45"/>
<text text-anchor="start" x="965.5" y="-220.25" font-family="Helvetica,sans-Serif" font-size="9.00">fetchCollection.ts</text>
</a>
</g>
</g>
<!-- directus/restAPI/fetchItem.ts -->
<g id="node48" class="node">
<title>directus/restAPI/fetchItem.ts</title>
<g id="a_node48"><a xlink:href="directus/restAPI/fetchItem.ts" xlink:title="fetchItem.ts">
<path fill="#ccffcc" stroke="black" d="M1035,-201.45C1035,-201.45 975,-201.45 975,-201.45 972,-201.45 969,-198.45 969,-195.45 969,-195.45 969,-189.45 969,-189.45 969,-186.45 972,-183.45 975,-183.45 975,-183.45 1035,-183.45 1035,-183.45 1038,-183.45 1041,-186.45 1041,-189.45 1041,-189.45 1041,-195.45 1041,-195.45 1041,-198.45 1038,-201.45 1035,-201.45"/>
<text text-anchor="start" x="977" y="-190.25" font-family="Helvetica,sans-Serif" font-size="9.00">fetchItem.ts</text>
</a>
</g>
</g>
<!-- directus/sdk/getFileMetadata.ts -->
<g id="node49" class="node">
<title>directus/sdk/getFileMetadata.ts</title>
<g id="a_node49"><a xlink:href="directus/sdk/getFileMetadata.ts" xlink:title="getFileMetadata.ts">
<path fill="#ccffcc" stroke="black" d="M1048.5,-381.45C1048.5,-381.45 961.5,-381.45 961.5,-381.45 958.5,-381.45 955.5,-378.45 955.5,-375.45 955.5,-375.45 955.5,-369.45 955.5,-369.45 955.5,-366.45 958.5,-363.45 961.5,-363.45 961.5,-363.45 1048.5,-363.45 1048.5,-363.45 1051.5,-363.45 1054.5,-366.45 1054.5,-369.45 1054.5,-369.45 1054.5,-375.45 1054.5,-375.45 1054.5,-378.45 1051.5,-381.45 1048.5,-381.45"/>
<text text-anchor="start" x="963.5" y="-370.25" font-family="Helvetica,sans-Serif" font-size="9.00">getFileMetadata.ts</text>
</a>
</g>
</g>
<!-- directus/sdk/getMenus.ts -->
<g id="node50" class="node">
<title>directus/sdk/getMenus.ts</title>
<g id="a_node50"><a xlink:href="directus/sdk/getMenus.ts" xlink:title="getMenus.ts">
<path fill="#ddfeff" stroke="black" d="M1035,-411.45C1035,-411.45 975,-411.45 975,-411.45 972,-411.45 969,-408.45 969,-405.45 969,-405.45 969,-399.45 969,-399.45 969,-396.45 972,-393.45 975,-393.45 975,-393.45 1035,-393.45 1035,-393.45 1038,-393.45 1041,-396.45 1041,-399.45 1041,-399.45 1041,-405.45 1041,-405.45 1041,-408.45 1038,-411.45 1035,-411.45"/>
<text text-anchor="start" x="977" y="-400.25" font-family="Helvetica,sans-Serif" font-size="9.00">getMenus.ts</text>
</a>
</g>
</g>
<!-- directus/sdk/getPageProps.ts -->
<g id="node51" class="node">
<title>directus/sdk/getPageProps.ts</title>
<g id="a_node51"><a xlink:href="directus/sdk/getPageProps.ts" xlink:title="getPageProps.ts">
<path fill="#ddfeff" stroke="black" d="M1043.5,-321.45C1043.5,-321.45 966.5,-321.45 966.5,-321.45 963.5,-321.45 960.5,-318.45 960.5,-315.45 960.5,-315.45 960.5,-309.45 960.5,-309.45 960.5,-306.45 963.5,-303.45 966.5,-303.45 966.5,-303.45 1043.5,-303.45 1043.5,-303.45 1046.5,-303.45 1049.5,-306.45 1049.5,-309.45 1049.5,-309.45 1049.5,-315.45 1049.5,-315.45 1049.5,-318.45 1046.5,-321.45 1043.5,-321.45"/>
<text text-anchor="start" x="968.5" y="-310.25" font-family="Helvetica,sans-Serif" font-size="9.00">getPageProps.ts</text>
</a>
</g>
</g>
<!-- pages/[id].tsx -->
<g id="node52" class="node">
<title>pages/[id].tsx</title>
<g id="a_node52"><a xlink:href="pages/[id].tsx" xlink:title="[id].tsx">
<path fill="#bbfeff" stroke="black" d="M173,-265.45C173,-265.45 131,-265.45 131,-265.45 128,-265.45 125,-262.45 125,-259.45 125,-259.45 125,-253.45 125,-253.45 125,-250.45 128,-247.45 131,-247.45 131,-247.45 173,-247.45 173,-247.45 176,-247.45 179,-250.45 179,-253.45 179,-253.45 179,-259.45 179,-259.45 179,-262.45 176,-265.45 173,-265.45"/>
<text text-anchor="start" x="135.5" y="-254.25" font-family="Helvetica,sans-Serif" font-size="9.00">[id].tsx</text>
</a>
</g>
</g>
<!-- pages/[id].tsx&#45;&gt;components/Section/index.tsx -->
<g id="edge46" class="edge">
<title>pages/[id].tsx&#45;&gt;components/Section/index.tsx</title>
<path fill="none" stroke="#000000" stroke-width="2" stroke-opacity="0.200000" d="M179.02,-257.01C189.83,-258.68 201.47,-262.64 208.5,-271.45 222.44,-288.93 203.2,-454.49 216.5,-472.45 223.36,-481.72 234.42,-487.11 245.36,-490.23"/>
<polygon fill="#000000" fill-opacity="0.200000" stroke="#000000" stroke-width="2" stroke-opacity="0.200000" points="245.08,-492.33 251.41,-491.75 246.1,-488.25 245.08,-492.33"/>
</g>
<!-- pages/[id].tsx&#45;&gt;directus/sdk/getPageProps.ts -->
<g id="edge47" class="edge">
<title>pages/[id].tsx&#45;&gt;directus/sdk/getPageProps.ts</title>
<path fill="none" stroke="#000000" stroke-width="2" stroke-opacity="0.200000" d="M179.33,-256.45C224.97,-256.45 321.74,-256.45 403.5,-256.45 403.5,-256.45 403.5,-256.45 727.5,-256.45 817.16,-256.45 919.97,-285.09 971.29,-301.41"/>
<polygon fill="#000000" fill-opacity="0.200000" stroke="#000000" stroke-width="2" stroke-opacity="0.200000" points="970.93,-303.5 977.28,-303.33 972.21,-299.5 970.93,-303.5"/>
</g>
<!-- pages/_app.tsx -->
<g id="node53" class="node">
<title>pages/_app.tsx</title>
<g id="a_node53"><a xlink:href="pages/_app.tsx" xlink:title="_app.tsx">
<path fill="#bbfeff" stroke="black" d="M173.5,-295.45C173.5,-295.45 130.5,-295.45 130.5,-295.45 127.5,-295.45 124.5,-292.45 124.5,-289.45 124.5,-289.45 124.5,-283.45 124.5,-283.45 124.5,-280.45 127.5,-277.45 130.5,-277.45 130.5,-277.45 173.5,-277.45 173.5,-277.45 176.5,-277.45 179.5,-280.45 179.5,-283.45 179.5,-283.45 179.5,-289.45 179.5,-289.45 179.5,-292.45 176.5,-295.45 173.5,-295.45"/>
<text text-anchor="start" x="132.5" y="-284.25" font-family="Helvetica,sans-Serif" font-size="9.00">_app.tsx</text>
</a>
</g>
</g>
<!-- pages/_app.tsx&#45;&gt;Layout/index.tsx -->
<g id="edge50" class="edge">
<title>pages/_app.tsx&#45;&gt;Layout/index.tsx</title>
<path fill="none" stroke="#000000" stroke-width="2" stroke-opacity="0.200000" d="M124.17,-287.81C109.29,-290.08 91.85,-295.57 82,-308.45 55.84,-342.7 47.37,-1025.74 46.16,-1137.15"/>
<polygon fill="#000000" fill-opacity="0.200000" stroke="#000000" stroke-width="2" stroke-opacity="0.200000" points="44.06,-1137.36 46.09,-1143.39 48.26,-1137.41 44.06,-1137.36"/>
</g>
<!-- pages/_app.tsx&#45;&gt;components/Util/NoSsr.tsx -->
<g id="edge48" class="edge">
<title>pages/_app.tsx&#45;&gt;components/Util/NoSsr.tsx</title>
<path fill="none" stroke="#000000" stroke-width="2" stroke-opacity="0.200000" d="M179.69,-285.75C225.48,-284.6 321.95,-282.45 403.5,-282.45 403.5,-282.45 403.5,-282.45 559.5,-282.45 679.04,-282.45 691.9,-353.31 804.5,-393.45 811.45,-395.93 819,-398.21 826.26,-400.2"/>
<polygon fill="#000000" fill-opacity="0.200000" stroke="#000000" stroke-width="2" stroke-opacity="0.200000" points="825.93,-402.29 832.26,-401.81 827.01,-398.23 825.93,-402.29"/>
</g>
<!-- pages/_app.tsx&#45;&gt;directus/sdk/getMenus.ts -->
<g id="edge49" class="edge">
<title>pages/_app.tsx&#45;&gt;directus/sdk/getMenus.ts</title>
<path fill="none" stroke="#000000" stroke-width="2" stroke-opacity="0.200000" d="M179.68,-290.43C190.47,-293.48 201.92,-298.89 208.5,-308.45 229.57,-339.07 199.38,-944.46 216.5,-977.45 263.72,-1068.44 300.99,-1112.45 403.5,-1112.45 403.5,-1112.45 403.5,-1112.45 727.5,-1112.45 788.64,-1112.45 769.12,-1048.12 796.5,-993.45 862.94,-860.82 895.41,-831.29 927.5,-686.45 933.37,-659.97 921.61,-465.75 935.5,-442.45 943.21,-429.52 956.84,-420.33 969.92,-414.06"/>
<polygon fill="#000000" fill-opacity="0.200000" stroke="#000000" stroke-width="2" stroke-opacity="0.200000" points="970.87,-415.93 975.47,-411.54 969.14,-412.1 970.87,-415.93"/>
</g>
<!-- styles/globals.scss -->
<g id="node54" class="node">
<title>styles/globals.scss</title>
<g id="a_node54"><a xlink:href="styles/globals.scss" xlink:title="globals.scss">
<path fill="#ffffcc" stroke="black" d="M309.5,-129.45C309.5,-129.45 251.5,-129.45 251.5,-129.45 248.5,-129.45 245.5,-126.45 245.5,-123.45 245.5,-123.45 245.5,-117.45 245.5,-117.45 245.5,-114.45 248.5,-111.45 251.5,-111.45 251.5,-111.45 309.5,-111.45 309.5,-111.45 312.5,-111.45 315.5,-114.45 315.5,-117.45 315.5,-117.45 315.5,-123.45 315.5,-123.45 315.5,-126.45 312.5,-129.45 309.5,-129.45"/>
<text text-anchor="start" x="253.5" y="-118.25" font-family="Helvetica,sans-Serif" font-size="9.00">globals.scss</text>
</a>
</g>
</g>
<!-- pages/_app.tsx&#45;&gt;styles/globals.scss -->
<g id="edge51" class="edge">
<title>pages/_app.tsx&#45;&gt;styles/globals.scss</title>
<path fill="none" stroke="#000000" stroke-width="2" stroke-opacity="0.200000" d="M179.52,-285.74C190.15,-284.01 201.51,-280.05 208.5,-271.45 227.74,-247.79 196.73,-157.68 216.5,-134.45 222.28,-127.66 230.56,-123.74 239.23,-121.56"/>
<polygon fill="#000000" fill-opacity="0.200000" stroke="#000000" stroke-width="2" stroke-opacity="0.200000" points="239.81,-123.58 245.26,-120.32 238.96,-119.47 239.81,-123.58"/>
</g>
<!-- pages/api/auth/directus.ts -->
<g id="node55" class="node">
<title>pages/api/auth/directus.ts</title>
<g id="a_node55"><a xlink:href="pages/api/auth/directus.ts" xlink:title="directus.ts">
<path fill="#ccffcc" stroke="black" d="M178.5,-337.45C178.5,-337.45 125.5,-337.45 125.5,-337.45 122.5,-337.45 119.5,-334.45 119.5,-331.45 119.5,-331.45 119.5,-325.45 119.5,-325.45 119.5,-322.45 122.5,-319.45 125.5,-319.45 125.5,-319.45 178.5,-319.45 178.5,-319.45 181.5,-319.45 184.5,-322.45 184.5,-325.45 184.5,-325.45 184.5,-331.45 184.5,-331.45 184.5,-334.45 181.5,-337.45 178.5,-337.45"/>
<text text-anchor="start" x="127.5" y="-326.25" font-family="Helvetica,sans-Serif" font-size="9.00">directus.ts</text>
</a>
</g>
</g>
<!-- pages/blog/[id].tsx -->
<g id="node56" class="node">
<title>pages/blog/[id].tsx</title>
<g id="a_node56"><a xlink:href="pages/blog/[id].tsx" xlink:title="[id].tsx">
<path fill="#bbfeff" stroke="black" d="M173,-153.45C173,-153.45 131,-153.45 131,-153.45 128,-153.45 125,-150.45 125,-147.45 125,-147.45 125,-141.45 125,-141.45 125,-138.45 128,-135.45 131,-135.45 131,-135.45 173,-135.45 173,-135.45 176,-135.45 179,-138.45 179,-141.45 179,-141.45 179,-147.45 179,-147.45 179,-150.45 176,-153.45 173,-153.45"/>
<text text-anchor="start" x="135.5" y="-142.25" font-family="Helvetica,sans-Serif" font-size="9.00">[id].tsx</text>
</a>
</g>
</g>
<!-- pages/blog/[id].tsx&#45;&gt;components/Blog/PostFull.tsx -->
<g id="edge52" class="edge">
<title>pages/blog/[id].tsx&#45;&gt;components/Blog/PostFull.tsx</title>
<path fill="none" stroke="#000000" stroke-width="2" stroke-opacity="0.200000" d="M179.04,-145C189.85,-146.67 201.48,-150.62 208.5,-159.45 223.92,-178.87 201.79,-362.5 216.5,-382.45 222.42,-390.48 231.49,-395.6 240.92,-398.86"/>
<polygon fill="#000000" fill-opacity="0.200000" stroke="#000000" stroke-width="2" stroke-opacity="0.200000" points="240.46,-400.91 246.81,-400.65 241.68,-396.89 240.46,-400.91"/>
</g>
<!-- pages/blog/[id].tsx&#45;&gt;utils/getAssetURL.ts -->
<g id="edge54" class="edge">
<title>pages/blog/[id].tsx&#45;&gt;utils/getAssetURL.ts</title>
<path fill="none" stroke="#000000" stroke-width="2" stroke-opacity="0.200000" d="M156.18,-135.4C163.46,-116.23 183.27,-71.75 216.5,-52.45 288.64,-10.57 320.09,-36.45 403.5,-36.45 403.5,-36.45 403.5,-36.45 727.5,-36.45 818.33,-36.45 861.83,-15.71 927.5,-78.45 937.79,-88.28 925.25,-99.58 935.5,-109.45 941.3,-115.04 948.67,-118.74 956.42,-121.16"/>
<polygon fill="#000000" fill-opacity="0.200000" stroke="#000000" stroke-width="2" stroke-opacity="0.200000" points="956.06,-123.24 962.4,-122.77 957.15,-119.18 956.06,-123.24"/>
</g>
<!-- pages/blog/[id].tsx&#45;&gt;directus/graphql/fetchData.ts -->
<g id="edge53" class="edge">
<title>pages/blog/[id].tsx&#45;&gt;directus/graphql/fetchData.ts</title>
<path fill="none" stroke="#000000" stroke-width="2" stroke-opacity="0.200000" d="M154.78,-135.3C159.79,-112.25 176.35,-51.78 216.5,-25.45 286.23,20.26 320.12,-10.45 403.5,-10.45 403.5,-10.45 403.5,-10.45 863,-10.45 954.36,-10.45 1003.21,26.43 1066.5,-39.45 1095.29,-69.43 1106.71,-374.1 1109.03,-446.89"/>
<polygon fill="#000000" fill-opacity="0.200000" stroke="#000000" stroke-width="2" stroke-opacity="0.200000" points="1106.94,-447.27 1109.23,-453.2 1111.14,-447.13 1106.94,-447.27"/>
</g>
<!-- pages/blog/index.tsx -->
<g id="node57" class="node">
<title>pages/blog/index.tsx</title>
<g id="a_node57"><a xlink:href="pages/blog/index.tsx" xlink:title="index.tsx">
<path fill="#bbfeff" stroke="black" d="M175,-183.45C175,-183.45 129,-183.45 129,-183.45 126,-183.45 123,-180.45 123,-177.45 123,-177.45 123,-171.45 123,-171.45 123,-168.45 126,-165.45 129,-165.45 129,-165.45 175,-165.45 175,-165.45 178,-165.45 181,-168.45 181,-171.45 181,-171.45 181,-177.45 181,-177.45 181,-180.45 178,-183.45 175,-183.45"/>
<text text-anchor="start" x="131" y="-172.25" font-family="Helvetica,sans-Serif" font-size="9.00">index.tsx</text>
</a>
</g>
</g>
<!-- pages/blog/index.tsx&#45;&gt;components/Blog/PostExcerpt.tsx -->
<g id="edge55" class="edge">
<title>pages/blog/index.tsx&#45;&gt;components/Blog/PostExcerpt.tsx</title>
<path fill="none" stroke="#000000" stroke-width="2" stroke-opacity="0.200000" d="M181.27,-174.31C191.38,-175.79 201.91,-179.42 208.5,-187.45 224.87,-207.39 200.17,-399.49 216.5,-419.45 220.4,-424.22 225.51,-427.63 231.14,-430.05"/>
<polygon fill="#000000" fill-opacity="0.200000" stroke="#000000" stroke-width="2" stroke-opacity="0.200000" points="230.56,-432.07 236.91,-432.16 232,-428.13 230.56,-432.07"/>
</g>
<!-- pages/blog/index.tsx&#45;&gt;utils/getAssetURL.ts -->
<g id="edge57" class="edge">
<title>pages/blog/index.tsx&#45;&gt;utils/getAssetURL.ts</title>
<path fill="none" stroke="#000000" stroke-width="2" stroke-opacity="0.200000" d="M181.22,-173.12C191.2,-171.19 201.65,-167.25 208.5,-159.45 225.96,-139.57 197.14,-118.49 216.5,-100.45 246.97,-72.07 361.86,-88.45 403.5,-88.45 403.5,-88.45 403.5,-88.45 727.5,-88.45 808.14,-88.45 900.91,-103.7 955.88,-114.35"/>
<polygon fill="#000000" fill-opacity="0.200000" stroke="#000000" stroke-width="2" stroke-opacity="0.200000" points="955.77,-116.46 962.06,-115.56 956.58,-112.34 955.77,-116.46"/>
</g>
<!-- pages/blog/index.tsx&#45;&gt;directus/graphql/fetchData.ts -->
<g id="edge56" class="edge">
<title>pages/blog/index.tsx&#45;&gt;directus/graphql/fetchData.ts</title>
<path fill="none" stroke="#000000" stroke-width="2" stroke-opacity="0.200000" d="M181.07,-173.29C191.16,-171.4 201.72,-167.44 208.5,-159.45 219.92,-146 203.99,-92.9 216.5,-80.45 246.09,-51.01 361.75,-62.45 403.5,-62.45 403.5,-62.45 403.5,-62.45 863,-62.45 953.6,-62.45 1000.81,-12.06 1066.5,-74.45 1094,-100.57 1106.28,-377.59 1108.94,-446.83"/>
<polygon fill="#000000" fill-opacity="0.200000" stroke="#000000" stroke-width="2" stroke-opacity="0.200000" points="1106.85,-447.3 1109.18,-453.22 1111.05,-447.14 1106.85,-447.3"/>
</g>
<!-- pages/index.tsx -->
<g id="node58" class="node">
<title>pages/index.tsx</title>
<g id="a_node58"><a xlink:href="pages/index.tsx" xlink:title="index.tsx">
<path fill="#bbfeff" stroke="black" d="M175,-235.45C175,-235.45 129,-235.45 129,-235.45 126,-235.45 123,-232.45 123,-229.45 123,-229.45 123,-223.45 123,-223.45 123,-220.45 126,-217.45 129,-217.45 129,-217.45 175,-217.45 175,-217.45 178,-217.45 181,-220.45 181,-223.45 181,-223.45 181,-229.45 181,-229.45 181,-232.45 178,-235.45 175,-235.45"/>
<text text-anchor="start" x="131" y="-224.25" font-family="Helvetica,sans-Serif" font-size="9.00">index.tsx</text>
</a>
</g>
</g>
<!-- pages/index.tsx&#45;&gt;components/Section/index.tsx -->
<g id="edge58" class="edge">
<title>pages/index.tsx&#45;&gt;components/Section/index.tsx</title>
<path fill="none" stroke="#000000" stroke-width="2" stroke-opacity="0.200000" d="M181.06,-227.33C191.28,-229.17 201.92,-233.17 208.5,-241.45 224.46,-261.57 201.27,-451.77 216.5,-472.45 223.34,-481.74 234.39,-487.13 245.34,-490.25"/>
<polygon fill="#000000" fill-opacity="0.200000" stroke="#000000" stroke-width="2" stroke-opacity="0.200000" points="245.05,-492.35 251.38,-491.76 246.07,-488.27 245.05,-492.35"/>
</g>
<!-- pages/index.tsx&#45;&gt;directus/sdk/getPageProps.ts -->
<g id="edge59" class="edge">
<title>pages/index.tsx&#45;&gt;directus/sdk/getPageProps.ts</title>
<path fill="none" stroke="#000000" stroke-width="2" stroke-opacity="0.200000" d="M181.17,-227.2C227.53,-228.35 322.82,-230.45 403.5,-230.45 403.5,-230.45 403.5,-230.45 727.5,-230.45 817.32,-230.45 860.64,-199.48 927.5,-259.45 938.09,-268.95 925.74,-280.1 935.5,-290.45 940.72,-295.99 947.34,-300.14 954.39,-303.24"/>
<polygon fill="#000000" fill-opacity="0.200000" stroke="#000000" stroke-width="2" stroke-opacity="0.200000" points="954.05,-305.36 960.4,-305.61 955.59,-301.46 954.05,-305.36"/>
</g>
<!-- styles/pages/start.module.scss -->
<g id="node59" class="node">
<title>styles/pages/start.module.scss</title>
<g id="a_node59"><a xlink:href="styles/pages/start.module.scss" xlink:title="start.module.scss">
<path fill="#ffffcc" stroke="black" d="M322.5,-163.45C322.5,-163.45 238.5,-163.45 238.5,-163.45 235.5,-163.45 232.5,-160.45 232.5,-157.45 232.5,-157.45 232.5,-151.45 232.5,-151.45 232.5,-148.45 235.5,-145.45 238.5,-145.45 238.5,-145.45 322.5,-145.45 322.5,-145.45 325.5,-145.45 328.5,-148.45 328.5,-151.45 328.5,-151.45 328.5,-157.45 328.5,-157.45 328.5,-160.45 325.5,-163.45 322.5,-163.45"/>
<text text-anchor="start" x="240.5" y="-152.25" font-family="Helvetica,sans-Serif" font-size="9.00">start.module.scss</text>
</a>
</g>
</g>
<!-- pages/index.tsx&#45;&gt;styles/pages/start.module.scss -->
<g id="edge60" class="edge">
<title>pages/index.tsx&#45;&gt;styles/pages/start.module.scss</title>
<path fill="none" stroke="#000000" stroke-width="2" stroke-opacity="0.200000" d="M181.24,-221.84C190.25,-219.72 200.07,-216.7 208.5,-212.45 231.04,-201.12 252.89,-181.58 266.26,-168.34"/>
<polygon fill="#000000" fill-opacity="0.200000" stroke="#000000" stroke-width="2" stroke-opacity="0.200000" points="268.06,-169.52 270.79,-163.78 265.07,-166.56 268.06,-169.52"/>
</g>
<!-- utils/encodeURL.ts -->
<g id="node60" class="node">
<title>utils/encodeURL.ts</title>
<g id="a_node60"><a xlink:href="utils/encodeURL.ts" xlink:title="encodeURL.ts">
<path fill="#ccffcc" stroke="black" d="M1038.5,-103.45C1038.5,-103.45 971.5,-103.45 971.5,-103.45 968.5,-103.45 965.5,-100.45 965.5,-97.45 965.5,-97.45 965.5,-91.45 965.5,-91.45 965.5,-88.45 968.5,-85.45 971.5,-85.45 971.5,-85.45 1038.5,-85.45 1038.5,-85.45 1041.5,-85.45 1044.5,-88.45 1044.5,-91.45 1044.5,-91.45 1044.5,-97.45 1044.5,-97.45 1044.5,-100.45 1041.5,-103.45 1038.5,-103.45"/>
<text text-anchor="start" x="973.5" y="-92.25" font-family="Helvetica,sans-Serif" font-size="9.00">encodeURL.ts</text>
</a>
</g>
</g>
</g>
</svg>
