<?xml version="1.0" encoding="UTF-8" standalone="no"?>
<!DOCTYPE svg PUBLIC "-//W3C//DTD SVG 1.1//EN"
 "http://www.w3.org/Graphics/SVG/1.1/DTD/svg11.dtd">
<!-- Generated by graphviz version 2.50.0 (0)
 -->
<!-- Title: dependency&#45;cruiser output Pages: 1 -->
<svg width="1190pt" height="1395pt"
 viewBox="0.00 0.00 1189.50 1394.94" xmlns="http://www.w3.org/2000/svg" xmlns:xlink="http://www.w3.org/1999/xlink">
<g id="graph0" class="graph" transform="scale(1 1) rotate(0) translate(4 1390.94)">
<title>dependency&#45;cruiser output</title>
<polygon fill="white" stroke="transparent" points="-4,4 -4,-1390.94 1185.5,-1390.94 1185.5,4 -4,4"/>
<g id="clust1" class="cluster">
<title>cluster_Layout</title>
<path fill="#ffffff" stroke="black" stroke-width="2" d="M20,-1128.94C20,-1128.94 467.5,-1128.94 467.5,-1128.94 473.5,-1128.94 479.5,-1134.94 479.5,-1140.94 479.5,-1140.94 479.5,-1366.94 479.5,-1366.94 479.5,-1372.94 473.5,-1378.94 467.5,-1378.94 467.5,-1378.94 20,-1378.94 20,-1378.94 14,-1378.94 8,-1372.94 8,-1366.94 8,-1366.94 8,-1140.94 8,-1140.94 8,-1134.94 14,-1128.94 20,-1128.94"/>
<text text-anchor="middle" x="243.75" y="-1367.74" font-family="Helvetica,sans-Serif" font-weight="bold" font-size="9.00">Layout</text>
</g>
<g id="clust2" class="cluster">
<title>cluster_Layout/Footer</title>
<path fill="#ffffff" stroke="black" stroke-width="2" d="M127,-1136.94C127,-1136.94 324.5,-1136.94 324.5,-1136.94 330.5,-1136.94 336.5,-1142.94 336.5,-1148.94 336.5,-1148.94 336.5,-1176.94 336.5,-1176.94 336.5,-1182.94 330.5,-1188.94 324.5,-1188.94 324.5,-1188.94 127,-1188.94 127,-1188.94 121,-1188.94 115,-1182.94 115,-1176.94 115,-1176.94 115,-1148.94 115,-1148.94 115,-1142.94 121,-1136.94 127,-1136.94"/>
<text text-anchor="middle" x="225.75" y="-1177.74" font-family="Helvetica,sans-Serif" font-weight="bold" font-size="9.00">Footer</text>
</g>
<g id="clust3" class="cluster">
<title>cluster_Layout/Header</title>
<path fill="#ffffff" stroke="black" stroke-width="2" d="M94,-1196.94C94,-1196.94 459.5,-1196.94 459.5,-1196.94 465.5,-1196.94 471.5,-1202.94 471.5,-1208.94 471.5,-1208.94 471.5,-1340.94 471.5,-1340.94 471.5,-1346.94 465.5,-1352.94 459.5,-1352.94 459.5,-1352.94 94,-1352.94 94,-1352.94 88,-1352.94 82,-1346.94 82,-1340.94 82,-1340.94 82,-1208.94 82,-1208.94 82,-1202.94 88,-1196.94 94,-1196.94"/>
<text text-anchor="middle" x="276.75" y="-1341.74" font-family="Helvetica,sans-Serif" font-weight="bold" font-size="9.00">Header</text>
</g>
<g id="clust4" class="cluster">
<title>cluster_Layout/Header/Menu</title>
<path fill="#ffffff" stroke="black" stroke-width="2" d="M102,-1274.94C102,-1274.94 324.5,-1274.94 324.5,-1274.94 330.5,-1274.94 336.5,-1280.94 336.5,-1286.94 336.5,-1286.94 336.5,-1314.94 336.5,-1314.94 336.5,-1320.94 330.5,-1326.94 324.5,-1326.94 324.5,-1326.94 102,-1326.94 102,-1326.94 96,-1326.94 90,-1320.94 90,-1314.94 90,-1314.94 90,-1286.94 90,-1286.94 90,-1280.94 96,-1274.94 102,-1274.94"/>
<text text-anchor="middle" x="213.25" y="-1315.74" font-family="Helvetica,sans-Serif" font-weight="bold" font-size="9.00">Menu</text>
</g>
<g id="clust5" class="cluster">
<title>cluster_components</title>
<path fill="#ffffff" stroke="black" stroke-width="2" d="M233,-290.94C233,-290.94 926.5,-290.94 926.5,-290.94 932.5,-290.94 938.5,-296.94 938.5,-302.94 938.5,-302.94 938.5,-1086.94 938.5,-1086.94 938.5,-1092.94 932.5,-1098.94 926.5,-1098.94 926.5,-1098.94 233,-1098.94 233,-1098.94 227,-1098.94 221,-1092.94 221,-1086.94 221,-1086.94 221,-302.94 221,-302.94 221,-296.94 227,-290.94 233,-290.94"/>
<text text-anchor="middle" x="579.75" y="-1087.74" font-family="Helvetica,sans-Serif" font-weight="bold" font-size="9.00">components</text>
</g>
<g id="clust6" class="cluster">
<title>cluster_components/Blog</title>
<path fill="#ffffff" stroke="black" stroke-width="2" d="M241,-388.94C241,-388.94 320,-388.94 320,-388.94 326,-388.94 332,-394.94 332,-400.94 332,-400.94 332,-458.94 332,-458.94 332,-464.94 326,-470.94 320,-470.94 320,-470.94 241,-470.94 241,-470.94 235,-470.94 229,-464.94 229,-458.94 229,-458.94 229,-400.94 229,-400.94 229,-394.94 235,-388.94 241,-388.94"/>
<text text-anchor="middle" x="280.5" y="-459.74" font-family="Helvetica,sans-Serif" font-weight="bold" font-size="9.00">Blog</text>
</g>
<g id="clust7" class="cluster">
<title>cluster_components/Editor</title>
<path fill="#ffffff" stroke="black" stroke-width="2" d="M542.5,-418.94C542.5,-418.94 795.5,-418.94 795.5,-418.94 801.5,-418.94 807.5,-424.94 807.5,-430.94 807.5,-430.94 807.5,-458.94 807.5,-458.94 807.5,-464.94 801.5,-470.94 795.5,-470.94 795.5,-470.94 542.5,-470.94 542.5,-470.94 536.5,-470.94 530.5,-464.94 530.5,-458.94 530.5,-458.94 530.5,-430.94 530.5,-430.94 530.5,-424.94 536.5,-418.94 542.5,-418.94"/>
<text text-anchor="middle" x="669" y="-459.74" font-family="Helvetica,sans-Serif" font-weight="bold" font-size="9.00">Editor</text>
</g>
<g id="clust8" class="cluster">
<title>cluster_components/Section</title>
<path fill="#ffffff" stroke="black" stroke-width="2" d="M255.5,-478.94C255.5,-478.94 781.5,-478.94 781.5,-478.94 787.5,-478.94 793.5,-484.94 793.5,-490.94 793.5,-490.94 793.5,-606.94 793.5,-606.94 793.5,-612.94 787.5,-618.94 781.5,-618.94 781.5,-618.94 255.5,-618.94 255.5,-618.94 249.5,-618.94 243.5,-612.94 243.5,-606.94 243.5,-606.94 243.5,-490.94 243.5,-490.94 243.5,-484.94 249.5,-478.94 255.5,-478.94"/>
<text text-anchor="middle" x="518.5" y="-607.74" font-family="Helvetica,sans-Serif" font-weight="bold" font-size="9.00">Section</text>
</g>
<g id="clust9" class="cluster">
<title>cluster_components/SocialMedia</title>
<path fill="#ffffff" stroke="black" stroke-width="2" d="M247.5,-626.94C247.5,-626.94 655.5,-626.94 655.5,-626.94 661.5,-626.94 667.5,-632.94 667.5,-638.94 667.5,-638.94 667.5,-1060.94 667.5,-1060.94 667.5,-1066.94 661.5,-1072.94 655.5,-1072.94 655.5,-1072.94 247.5,-1072.94 247.5,-1072.94 241.5,-1072.94 235.5,-1066.94 235.5,-1060.94 235.5,-1060.94 235.5,-638.94 235.5,-638.94 235.5,-632.94 241.5,-626.94 247.5,-626.94"/>
<text text-anchor="middle" x="451.5" y="-1061.74" font-family="Helvetica,sans-Serif" font-weight="bold" font-size="9.00">SocialMedia</text>
</g>
<g id="clust10" class="cluster">
<title>cluster_components/SocialMedia/Button</title>
<path fill="#ffffff" stroke="black" stroke-width="2" d="M390.5,-694.94C390.5,-694.94 647.5,-694.94 647.5,-694.94 653.5,-694.94 659.5,-700.94 659.5,-706.94 659.5,-706.94 659.5,-1034.94 659.5,-1034.94 659.5,-1040.94 653.5,-1046.94 647.5,-1046.94 647.5,-1046.94 390.5,-1046.94 390.5,-1046.94 384.5,-1046.94 378.5,-1040.94 378.5,-1034.94 378.5,-1034.94 378.5,-706.94 378.5,-706.94 378.5,-700.94 384.5,-694.94 390.5,-694.94"/>
<text text-anchor="middle" x="519" y="-1035.74" font-family="Helvetica,sans-Serif" font-weight="bold" font-size="9.00">Button</text>
</g>
<g id="clust11" class="cluster">
<title>cluster_components/SocialMedia/Button/icons</title>
<path fill="#ffffff" stroke="black" stroke-width="2" d="M499.5,-702.94C499.5,-702.94 639.5,-702.94 639.5,-702.94 645.5,-702.94 651.5,-708.94 651.5,-714.94 651.5,-714.94 651.5,-982.94 651.5,-982.94 651.5,-988.94 645.5,-994.94 639.5,-994.94 639.5,-994.94 499.5,-994.94 499.5,-994.94 493.5,-994.94 487.5,-988.94 487.5,-982.94 487.5,-982.94 487.5,-714.94 487.5,-714.94 487.5,-708.94 493.5,-702.94 499.5,-702.94"/>
<text text-anchor="middle" x="569.5" y="-983.74" font-family="Helvetica,sans-Serif" font-weight="bold" font-size="9.00">icons</text>
</g>
<g id="clust12" class="cluster">
<title>cluster_components/SocialMedia/Follow</title>
<path fill="#ffffff" stroke="black" stroke-width="2" d="M255.5,-923.94C255.5,-923.94 305.5,-923.94 305.5,-923.94 311.5,-923.94 317.5,-929.94 317.5,-935.94 317.5,-935.94 317.5,-963.94 317.5,-963.94 317.5,-969.94 311.5,-975.94 305.5,-975.94 305.5,-975.94 255.5,-975.94 255.5,-975.94 249.5,-975.94 243.5,-969.94 243.5,-963.94 243.5,-963.94 243.5,-935.94 243.5,-935.94 243.5,-929.94 249.5,-923.94 255.5,-923.94"/>
<text text-anchor="middle" x="280.5" y="-964.74" font-family="Helvetica,sans-Serif" font-weight="bold" font-size="9.00">Follow</text>
</g>
<g id="clust13" class="cluster">
<title>cluster_components/SocialMedia/Share</title>
<path fill="#ffffff" stroke="black" stroke-width="2" d="M255.5,-634.94C255.5,-634.94 459.5,-634.94 459.5,-634.94 465.5,-634.94 471.5,-640.94 471.5,-646.94 471.5,-646.94 471.5,-674.94 471.5,-674.94 471.5,-680.94 465.5,-686.94 459.5,-686.94 459.5,-686.94 255.5,-686.94 255.5,-686.94 249.5,-686.94 243.5,-680.94 243.5,-674.94 243.5,-674.94 243.5,-646.94 243.5,-646.94 243.5,-640.94 249.5,-634.94 255.5,-634.94"/>
<text text-anchor="middle" x="357.5" y="-675.74" font-family="Helvetica,sans-Serif" font-weight="bold" font-size="9.00">Share</text>
</g>
<g id="clust14" class="cluster">
<title>cluster_components/Util</title>
<path fill="#ffffff" stroke="black" stroke-width="2" d="M827.5,-362.94C827.5,-362.94 918.5,-362.94 918.5,-362.94 924.5,-362.94 930.5,-368.94 930.5,-374.94 930.5,-374.94 930.5,-432.94 930.5,-432.94 930.5,-438.94 924.5,-444.94 918.5,-444.94 918.5,-444.94 827.5,-444.94 827.5,-444.94 821.5,-444.94 815.5,-438.94 815.5,-432.94 815.5,-432.94 815.5,-374.94 815.5,-374.94 815.5,-368.94 821.5,-362.94 827.5,-362.94"/>
<text text-anchor="middle" x="873" y="-433.74" font-family="Helvetica,sans-Serif" font-weight="bold" font-size="9.00">Util</text>
</g>
<g id="clust15" class="cluster">
<title>cluster_components/_dynamic</title>
<path fill="#ffffff" stroke="black" stroke-width="2" d="M250.5,-298.94C250.5,-298.94 310.5,-298.94 310.5,-298.94 316.5,-298.94 322.5,-304.94 322.5,-310.94 322.5,-310.94 322.5,-368.94 322.5,-368.94 322.5,-374.94 316.5,-380.94 310.5,-380.94 310.5,-380.94 250.5,-380.94 250.5,-380.94 244.5,-380.94 238.5,-374.94 238.5,-368.94 238.5,-368.94 238.5,-310.94 238.5,-310.94 238.5,-304.94 244.5,-298.94 250.5,-298.94"/>
<text text-anchor="middle" x="280.5" y="-369.74" font-family="Helvetica,sans-Serif" font-weight="bold" font-size="9.00">_dynamic</text>
</g>
<g id="clust16" class="cluster">
<title>cluster_directus</title>
<path fill="#ffffff" stroke="black" stroke-width="2" d="M958.5,-168.94C958.5,-168.94 1161.5,-168.94 1161.5,-168.94 1167.5,-168.94 1173.5,-174.94 1173.5,-180.94 1173.5,-180.94 1173.5,-512.94 1173.5,-512.94 1173.5,-518.94 1167.5,-524.94 1161.5,-524.94 1161.5,-524.94 958.5,-524.94 958.5,-524.94 952.5,-524.94 946.5,-518.94 946.5,-512.94 946.5,-512.94 946.5,-180.94 946.5,-180.94 946.5,-174.94 952.5,-168.94 958.5,-168.94"/>
<text text-anchor="middle" x="1060" y="-513.74" font-family="Helvetica,sans-Serif" font-weight="bold" font-size="9.00">directus</text>
</g>
<g id="clust17" class="cluster">
<title>cluster_directus/graphql</title>
<path fill="#ffffff" stroke="black" stroke-width="2" d="M977,-446.94C977,-446.94 1153.5,-446.94 1153.5,-446.94 1159.5,-446.94 1165.5,-452.94 1165.5,-458.94 1165.5,-458.94 1165.5,-486.94 1165.5,-486.94 1165.5,-492.94 1159.5,-498.94 1153.5,-498.94 1153.5,-498.94 977,-498.94 977,-498.94 971,-498.94 965,-492.94 965,-486.94 965,-486.94 965,-458.94 965,-458.94 965,-452.94 971,-446.94 977,-446.94"/>
<text text-anchor="middle" x="1065.25" y="-487.74" font-family="Helvetica,sans-Serif" font-weight="bold" font-size="9.00">graphql</text>
</g>
<g id="clust18" class="cluster">
<title>cluster_directus/restAPI</title>
<path fill="#ffffff" stroke="black" stroke-width="2" d="M966.5,-176.94C966.5,-176.94 1065.5,-176.94 1065.5,-176.94 1071.5,-176.94 1077.5,-182.94 1077.5,-188.94 1077.5,-188.94 1077.5,-276.94 1077.5,-276.94 1077.5,-282.94 1071.5,-288.94 1065.5,-288.94 1065.5,-288.94 966.5,-288.94 966.5,-288.94 960.5,-288.94 954.5,-282.94 954.5,-276.94 954.5,-276.94 954.5,-188.94 954.5,-188.94 954.5,-182.94 960.5,-176.94 966.5,-176.94"/>
<text text-anchor="middle" x="1016" y="-277.74" font-family="Helvetica,sans-Serif" font-weight="bold" font-size="9.00">restAPI</text>
</g>
<g id="clust19" class="cluster">
<title>cluster_directus/sdk</title>
<path fill="#ffffff" stroke="black" stroke-width="2" d="M970.5,-296.94C970.5,-296.94 1061.5,-296.94 1061.5,-296.94 1067.5,-296.94 1073.5,-302.94 1073.5,-308.94 1073.5,-308.94 1073.5,-426.94 1073.5,-426.94 1073.5,-432.94 1067.5,-438.94 1061.5,-438.94 1061.5,-438.94 970.5,-438.94 970.5,-438.94 964.5,-438.94 958.5,-432.94 958.5,-426.94 958.5,-426.94 958.5,-308.94 958.5,-308.94 958.5,-302.94 964.5,-296.94 970.5,-296.94"/>
<text text-anchor="middle" x="1016" y="-427.74" font-family="Helvetica,sans-Serif" font-weight="bold" font-size="9.00">sdk</text>
</g>
<g id="clust20" class="cluster">
<title>cluster_pages</title>
<path fill="#ffffff" stroke="black" stroke-width="2" d="M107.5,-120.94C107.5,-120.94 196.5,-120.94 196.5,-120.94 202.5,-120.94 208.5,-126.94 208.5,-132.94 208.5,-132.94 208.5,-404.94 208.5,-404.94 208.5,-410.94 202.5,-416.94 196.5,-416.94 196.5,-416.94 107.5,-416.94 107.5,-416.94 101.5,-416.94 95.5,-410.94 95.5,-404.94 95.5,-404.94 95.5,-132.94 95.5,-132.94 95.5,-126.94 101.5,-120.94 107.5,-120.94"/>
<text text-anchor="middle" x="152" y="-405.74" font-family="Helvetica,sans-Serif" font-weight="bold" font-size="9.00">pages</text>
</g>
<g id="clust21" class="cluster">
<title>cluster_pages/api</title>
<path fill="#ffffff" stroke="black" stroke-width="2" d="M115.5,-304.94C115.5,-304.94 188.5,-304.94 188.5,-304.94 194.5,-304.94 200.5,-310.94 200.5,-316.94 200.5,-316.94 200.5,-378.94 200.5,-378.94 200.5,-384.94 194.5,-390.94 188.5,-390.94 188.5,-390.94 115.5,-390.94 115.5,-390.94 109.5,-390.94 103.5,-384.94 103.5,-378.94 103.5,-378.94 103.5,-316.94 103.5,-316.94 103.5,-310.94 109.5,-304.94 115.5,-304.94"/>
<text text-anchor="middle" x="152" y="-379.74" font-family="Helvetica,sans-Serif" font-weight="bold" font-size="9.00">api</text>
</g>
<g id="clust22" class="cluster">
<title>cluster_pages/api/auth</title>
<path fill="#ffffff" stroke="black" stroke-width="2" d="M123.5,-312.94C123.5,-312.94 180.5,-312.94 180.5,-312.94 186.5,-312.94 192.5,-318.94 192.5,-324.94 192.5,-324.94 192.5,-352.94 192.5,-352.94 192.5,-358.94 186.5,-364.94 180.5,-364.94 180.5,-364.94 123.5,-364.94 123.5,-364.94 117.5,-364.94 111.5,-358.94 111.5,-352.94 111.5,-352.94 111.5,-324.94 111.5,-324.94 111.5,-318.94 117.5,-312.94 123.5,-312.94"/>
<text text-anchor="middle" x="152" y="-353.74" font-family="Helvetica,sans-Serif" font-weight="bold" font-size="9.00">auth</text>
</g>
<g id="clust23" class="cluster">
<title>cluster_pages/blog</title>
<path fill="#ffffff" stroke="black" stroke-width="2" d="M127,-128.94C127,-128.94 177,-128.94 177,-128.94 183,-128.94 189,-134.94 189,-140.94 189,-140.94 189,-198.94 189,-198.94 189,-204.94 183,-210.94 177,-210.94 177,-210.94 127,-210.94 127,-210.94 121,-210.94 115,-204.94 115,-198.94 115,-198.94 115,-140.94 115,-140.94 115,-134.94 121,-128.94 127,-128.94"/>
<text text-anchor="middle" x="152" y="-199.74" font-family="Helvetica,sans-Serif" font-weight="bold" font-size="9.00">blog</text>
</g>
<g id="clust24" class="cluster">
<title>cluster_styles</title>
<path fill="#ffffff" stroke="black" stroke-width="2" d="M228.5,-104.94C228.5,-104.94 332.5,-104.94 332.5,-104.94 338.5,-104.94 344.5,-110.94 344.5,-116.94 344.5,-116.94 344.5,-204.94 344.5,-204.94 344.5,-210.94 338.5,-216.94 332.5,-216.94 332.5,-216.94 228.5,-216.94 228.5,-216.94 222.5,-216.94 216.5,-210.94 216.5,-204.94 216.5,-204.94 216.5,-116.94 216.5,-116.94 216.5,-110.94 222.5,-104.94 228.5,-104.94"/>
<text text-anchor="middle" x="280.5" y="-205.74" font-family="Helvetica,sans-Serif" font-weight="bold" font-size="9.00">styles</text>
</g>
<g id="clust25" class="cluster">
<title>cluster_styles/pages</title>
<path fill="#ffffff" stroke="black" stroke-width="2" d="M236.5,-138.94C236.5,-138.94 324.5,-138.94 324.5,-138.94 330.5,-138.94 336.5,-144.94 336.5,-150.94 336.5,-150.94 336.5,-178.94 336.5,-178.94 336.5,-184.94 330.5,-190.94 324.5,-190.94 324.5,-190.94 236.5,-190.94 236.5,-190.94 230.5,-190.94 224.5,-184.94 224.5,-178.94 224.5,-178.94 224.5,-150.94 224.5,-150.94 224.5,-144.94 230.5,-138.94 236.5,-138.94"/>
<text text-anchor="middle" x="280.5" y="-179.74" font-family="Helvetica,sans-Serif" font-weight="bold" font-size="9.00">pages</text>
</g>
<g id="clust26" class="cluster">
<title>cluster_utils</title>
<path fill="#ffffff" stroke="black" stroke-width="2" d="M977.5,-78.94C977.5,-78.94 1054.5,-78.94 1054.5,-78.94 1060.5,-78.94 1066.5,-84.94 1066.5,-90.94 1066.5,-90.94 1066.5,-148.94 1066.5,-148.94 1066.5,-154.94 1060.5,-160.94 1054.5,-160.94 1054.5,-160.94 977.5,-160.94 977.5,-160.94 971.5,-160.94 965.5,-154.94 965.5,-148.94 965.5,-148.94 965.5,-90.94 965.5,-90.94 965.5,-84.94 971.5,-78.94 977.5,-78.94"/>
<text text-anchor="middle" x="1016" y="-149.74" font-family="Helvetica,sans-Serif" font-weight="bold" font-size="9.00">utils</text>
</g>
<!-- Layout/Footer/index.tsx -->
<g id="node1" class="node">
<title>Layout/Footer/index.tsx</title>
<g id="a_node1"><a xlink:href="Layout/Footer/index.tsx" xlink:title="index.tsx">
<path fill="#bbfeff" stroke="black" d="M175,-1162.94C175,-1162.94 129,-1162.94 129,-1162.94 126,-1162.94 123,-1159.94 123,-1156.94 123,-1156.94 123,-1150.94 123,-1150.94 123,-1147.94 126,-1144.94 129,-1144.94 129,-1144.94 175,-1144.94 175,-1144.94 178,-1144.94 181,-1147.94 181,-1150.94 181,-1150.94 181,-1156.94 181,-1156.94 181,-1159.94 178,-1162.94 175,-1162.94"/>
<text text-anchor="start" x="131" y="-1151.74" font-family="Helvetica,sans-Serif" font-size="9.00">index.tsx</text>
</a>
</g>
</g>
<!-- components/SocialMedia/Follow/index.tsx -->
<g id="node2" class="node">
<title>components/SocialMedia/Follow/index.tsx</title>
<g id="a_node2"><a xlink:href="components/SocialMedia/Follow/index.tsx" xlink:title="index.tsx">
<path fill="#bbfeff" stroke="black" d="M303.5,-949.94C303.5,-949.94 257.5,-949.94 257.5,-949.94 254.5,-949.94 251.5,-946.94 251.5,-943.94 251.5,-943.94 251.5,-937.94 251.5,-937.94 251.5,-934.94 254.5,-931.94 257.5,-931.94 257.5,-931.94 303.5,-931.94 303.5,-931.94 306.5,-931.94 309.5,-934.94 309.5,-937.94 309.5,-937.94 309.5,-943.94 309.5,-943.94 309.5,-946.94 306.5,-949.94 303.5,-949.94"/>
<text text-anchor="start" x="259.5" y="-938.74" font-family="Helvetica,sans-Serif" font-size="9.00">index.tsx</text>
</a>
</g>
</g>
<!-- Layout/Footer/index.tsx&#45;&gt;components/SocialMedia/Follow/index.tsx -->
<g id="edge1" class="edge">
<title>Layout/Footer/index.tsx&#45;&gt;components/SocialMedia/Follow/index.tsx</title>
<path fill="none" stroke="#000000" stroke-width="2" stroke-opacity="0.200000" d="M158.44,-1144.79C178.18,-1111.54 246.21,-996.99 270.66,-955.82"/>
<polygon fill="#000000" fill-opacity="0.200000" stroke="#000000" stroke-width="2" stroke-opacity="0.200000" points="272.68,-956.53 273.94,-950.3 269.07,-954.38 272.68,-956.53"/>
</g>
<!-- Layout/Footer/style.module.scss -->
<g id="node3" class="node">
<title>Layout/Footer/style.module.scss</title>
<g id="a_node3"><a xlink:href="Layout/Footer/style.module.scss" xlink:title="style.module.scss">
<path fill="#ffffcc" stroke="black" d="M322.5,-1162.94C322.5,-1162.94 238.5,-1162.94 238.5,-1162.94 235.5,-1162.94 232.5,-1159.94 232.5,-1156.94 232.5,-1156.94 232.5,-1150.94 232.5,-1150.94 232.5,-1147.94 235.5,-1144.94 238.5,-1144.94 238.5,-1144.94 322.5,-1144.94 322.5,-1144.94 325.5,-1144.94 328.5,-1147.94 328.5,-1150.94 328.5,-1150.94 328.5,-1156.94 328.5,-1156.94 328.5,-1159.94 325.5,-1162.94 322.5,-1162.94"/>
<text text-anchor="start" x="240.5" y="-1151.74" font-family="Helvetica,sans-Serif" font-size="9.00">style.module.scss</text>
</a>
</g>
</g>
<!-- Layout/Footer/index.tsx&#45;&gt;Layout/Footer/style.module.scss -->
<g id="edge2" class="edge">
<title>Layout/Footer/index.tsx&#45;&gt;Layout/Footer/style.module.scss</title>
<path fill="none" stroke="#000000" stroke-width="2" stroke-opacity="0.200000" d="M181.07,-1153.94C194.38,-1153.94 210.72,-1153.94 226.24,-1153.94"/>
<polygon fill="#000000" fill-opacity="0.200000" stroke="#000000" stroke-width="2" stroke-opacity="0.200000" points="226.37,-1156.04 232.37,-1153.94 226.37,-1151.84 226.37,-1156.04"/>
</g>
<!-- components/SocialMedia/Button/index.tsx -->
<g id="node37" class="node">
<title>components/SocialMedia/Button/index.tsx</title>
<g id="a_node37"><a xlink:href="components/SocialMedia/Button/index.tsx" xlink:title="index.tsx">
<path fill="#bbfeff" stroke="black" d="M438.5,-863.94C438.5,-863.94 392.5,-863.94 392.5,-863.94 389.5,-863.94 386.5,-860.94 386.5,-857.94 386.5,-857.94 386.5,-851.94 386.5,-851.94 386.5,-848.94 389.5,-845.94 392.5,-845.94 392.5,-845.94 438.5,-845.94 438.5,-845.94 441.5,-845.94 444.5,-848.94 444.5,-851.94 444.5,-851.94 444.5,-857.94 444.5,-857.94 444.5,-860.94 441.5,-863.94 438.5,-863.94"/>
<text text-anchor="start" x="394.5" y="-852.74" font-family="Helvetica,sans-Serif" font-size="9.00">index.tsx</text>
</a>
</g>
</g>
<!-- components/SocialMedia/Follow/index.tsx&#45;&gt;components/SocialMedia/Button/index.tsx -->
<g id="edge40" class="edge">
<title>components/SocialMedia/Follow/index.tsx&#45;&gt;components/SocialMedia/Button/index.tsx</title>
<path fill="none" stroke="#000000" stroke-width="2" stroke-opacity="0.200000" d="M295.73,-931.74C319.73,-916.22 368.26,-884.84 395.27,-867.37"/>
<polygon fill="#000000" fill-opacity="0.200000" stroke="#000000" stroke-width="2" stroke-opacity="0.200000" points="396.47,-869.1 400.37,-864.08 394.19,-865.57 396.47,-869.1"/>
</g>
<!-- Layout/Header/MainMenu.tsx -->
<g id="node4" class="node">
<title>Layout/Header/MainMenu.tsx</title>
<g id="a_node4"><a xlink:href="Layout/Header/MainMenu.tsx" xlink:title="MainMenu.tsx">
<path fill="#bbfeff" stroke="black" d="M314,-1236.94C314,-1236.94 247,-1236.94 247,-1236.94 244,-1236.94 241,-1233.94 241,-1230.94 241,-1230.94 241,-1224.94 241,-1224.94 241,-1221.94 244,-1218.94 247,-1218.94 247,-1218.94 314,-1218.94 314,-1218.94 317,-1218.94 320,-1221.94 320,-1224.94 320,-1224.94 320,-1230.94 320,-1230.94 320,-1233.94 317,-1236.94 314,-1236.94"/>
<text text-anchor="start" x="249" y="-1225.74" font-family="Helvetica,sans-Serif" font-size="9.00">MainMenu.tsx</text>
</a>
</g>
</g>
<!-- Layout/Header/style.module.scss -->
<g id="node5" class="node">
<title>Layout/Header/style.module.scss</title>
<g id="a_node5"><a xlink:href="Layout/Header/style.module.scss" xlink:title="style.module.scss">
<path fill="#ffffcc" stroke="black" d="M457.5,-1229.94C457.5,-1229.94 373.5,-1229.94 373.5,-1229.94 370.5,-1229.94 367.5,-1226.94 367.5,-1223.94 367.5,-1223.94 367.5,-1217.94 367.5,-1217.94 367.5,-1214.94 370.5,-1211.94 373.5,-1211.94 373.5,-1211.94 457.5,-1211.94 457.5,-1211.94 460.5,-1211.94 463.5,-1214.94 463.5,-1217.94 463.5,-1217.94 463.5,-1223.94 463.5,-1223.94 463.5,-1226.94 460.5,-1229.94 457.5,-1229.94"/>
<text text-anchor="start" x="375.5" y="-1218.74" font-family="Helvetica,sans-Serif" font-size="9.00">style.module.scss</text>
</a>
</g>
</g>
<!-- Layout/Header/MainMenu.tsx&#45;&gt;Layout/Header/style.module.scss -->
<g id="edge3" class="edge">
<title>Layout/Header/MainMenu.tsx&#45;&gt;Layout/Header/style.module.scss</title>
<path fill="none" stroke="#000000" stroke-width="2" stroke-opacity="0.200000" d="M320.33,-1225.9C333.09,-1225.22 347.51,-1224.46 361.17,-1223.75"/>
<polygon fill="#000000" fill-opacity="0.200000" stroke="#000000" stroke-width="2" stroke-opacity="0.200000" points="361.49,-1225.83 367.38,-1223.42 361.27,-1221.64 361.49,-1225.83"/>
</g>
<!-- Layout/Header/Menu/MenuItemParent.tsx -->
<g id="node6" class="node">
<title>Layout/Header/Menu/MenuItemParent.tsx</title>
<g id="a_node6"><a xlink:href="Layout/Header/Menu/MenuItemParent.tsx" xlink:title="MenuItemParent.tsx">
<path fill="#bbfeff" stroke="black" d="M200,-1300.94C200,-1300.94 104,-1300.94 104,-1300.94 101,-1300.94 98,-1297.94 98,-1294.94 98,-1294.94 98,-1288.94 98,-1288.94 98,-1285.94 101,-1282.94 104,-1282.94 104,-1282.94 200,-1282.94 200,-1282.94 203,-1282.94 206,-1285.94 206,-1288.94 206,-1288.94 206,-1294.94 206,-1294.94 206,-1297.94 203,-1300.94 200,-1300.94"/>
<text text-anchor="start" x="106" y="-1289.74" font-family="Helvetica,sans-Serif" font-size="9.00">MenuItemParent.tsx</text>
</a>
</g>
</g>
<!-- Layout/Header/Menu/style.module.scss -->
<g id="node7" class="node">
<title>Layout/Header/Menu/style.module.scss</title>
<g id="a_node7"><a xlink:href="Layout/Header/Menu/style.module.scss" xlink:title="style.module.scss">
<path fill="#ffffcc" stroke="black" d="M322.5,-1300.94C322.5,-1300.94 238.5,-1300.94 238.5,-1300.94 235.5,-1300.94 232.5,-1297.94 232.5,-1294.94 232.5,-1294.94 232.5,-1288.94 232.5,-1288.94 232.5,-1285.94 235.5,-1282.94 238.5,-1282.94 238.5,-1282.94 322.5,-1282.94 322.5,-1282.94 325.5,-1282.94 328.5,-1285.94 328.5,-1288.94 328.5,-1288.94 328.5,-1294.94 328.5,-1294.94 328.5,-1297.94 325.5,-1300.94 322.5,-1300.94"/>
<text text-anchor="start" x="240.5" y="-1289.74" font-family="Helvetica,sans-Serif" font-size="9.00">style.module.scss</text>
</a>
</g>
</g>
<!-- Layout/Header/Menu/MenuItemParent.tsx&#45;&gt;Layout/Header/Menu/style.module.scss -->
<g id="edge4" class="edge">
<title>Layout/Header/Menu/MenuItemParent.tsx&#45;&gt;Layout/Header/Menu/style.module.scss</title>
<path fill="none" stroke="#000000" stroke-width="2" stroke-opacity="0.200000" d="M206.28,-1291.94C212.9,-1291.94 219.66,-1291.94 226.28,-1291.94"/>
<polygon fill="#000000" fill-opacity="0.200000" stroke="#000000" stroke-width="2" stroke-opacity="0.200000" points="226.31,-1294.04 232.31,-1291.94 226.31,-1289.84 226.31,-1294.04"/>
</g>
<!-- Layout/Header/PageLogo.tsx -->
<g id="node8" class="node">
<title>Layout/Header/PageLogo.tsx</title>
<g id="a_node8"><a xlink:href="Layout/Header/PageLogo.tsx" xlink:title="PageLogo.tsx">
<path fill="#bbfeff" stroke="black" d="M312.5,-1266.94C312.5,-1266.94 248.5,-1266.94 248.5,-1266.94 245.5,-1266.94 242.5,-1263.94 242.5,-1260.94 242.5,-1260.94 242.5,-1254.94 242.5,-1254.94 242.5,-1251.94 245.5,-1248.94 248.5,-1248.94 248.5,-1248.94 312.5,-1248.94 312.5,-1248.94 315.5,-1248.94 318.5,-1251.94 318.5,-1254.94 318.5,-1254.94 318.5,-1260.94 318.5,-1260.94 318.5,-1263.94 315.5,-1266.94 312.5,-1266.94"/>
<text text-anchor="start" x="250.5" y="-1255.74" font-family="Helvetica,sans-Serif" font-size="9.00">PageLogo.tsx</text>
</a>
</g>
</g>
<!-- Layout/Header/index.tsx -->
<g id="node9" class="node">
<title>Layout/Header/index.tsx</title>
<g id="a_node9"><a xlink:href="Layout/Header/index.tsx" xlink:title="index.tsx">
<path fill="#bbfeff" stroke="black" d="M175,-1229.94C175,-1229.94 129,-1229.94 129,-1229.94 126,-1229.94 123,-1226.94 123,-1223.94 123,-1223.94 123,-1217.94 123,-1217.94 123,-1214.94 126,-1211.94 129,-1211.94 129,-1211.94 175,-1211.94 175,-1211.94 178,-1211.94 181,-1214.94 181,-1217.94 181,-1217.94 181,-1223.94 181,-1223.94 181,-1226.94 178,-1229.94 175,-1229.94"/>
<text text-anchor="start" x="131" y="-1218.74" font-family="Helvetica,sans-Serif" font-size="9.00">index.tsx</text>
</a>
</g>
</g>
<!-- Layout/Header/index.tsx&#45;&gt;Layout/Header/MainMenu.tsx -->
<g id="edge5" class="edge">
<title>Layout/Header/index.tsx&#45;&gt;Layout/Header/MainMenu.tsx</title>
<path fill="none" stroke="#000000" stroke-width="2" stroke-opacity="0.200000" d="M181.07,-1222.49C196.76,-1223.36 216.68,-1224.46 234.5,-1225.45"/>
<polygon fill="#000000" fill-opacity="0.200000" stroke="#000000" stroke-width="2" stroke-opacity="0.200000" points="234.84,-1227.57 240.95,-1225.81 235.08,-1223.38 234.84,-1227.57"/>
</g>
<!-- Layout/Header/index.tsx&#45;&gt;Layout/Header/style.module.scss -->
<g id="edge7" class="edge">
<title>Layout/Header/index.tsx&#45;&gt;Layout/Header/style.module.scss</title>
<path fill="none" stroke="#000000" stroke-width="2" stroke-opacity="0.200000" d="M181.06,-1216.64C192.08,-1215.15 204.86,-1213.67 216.5,-1212.94 273.28,-1209.38 287.7,-1209.7 344.5,-1212.94 349.97,-1213.25 355.67,-1213.7 361.35,-1214.22"/>
<polygon fill="#000000" fill-opacity="0.200000" stroke="#000000" stroke-width="2" stroke-opacity="0.200000" points="361.32,-1216.33 367.5,-1214.82 361.73,-1212.15 361.32,-1216.33"/>
</g>
<!-- Layout/Header/index.tsx&#45;&gt;Layout/Header/PageLogo.tsx -->
<g id="edge6" class="edge">
<title>Layout/Header/index.tsx&#45;&gt;Layout/Header/PageLogo.tsx</title>
<path fill="none" stroke="#000000" stroke-width="2" stroke-opacity="0.200000" d="M177.24,-1229.98C189,-1234.2 203.39,-1239.12 216.5,-1242.94 222.86,-1244.79 229.64,-1246.59 236.29,-1248.26"/>
<polygon fill="#000000" fill-opacity="0.200000" stroke="#000000" stroke-width="2" stroke-opacity="0.200000" points="236.03,-1250.35 242.36,-1249.75 237.04,-1246.28 236.03,-1250.35"/>
</g>
<!-- Layout/index.tsx -->
<g id="node10" class="node">
<title>Layout/index.tsx</title>
<g id="a_node10"><a xlink:href="Layout/index.tsx" xlink:title="index.tsx">
<path fill="#bbfeff" stroke="black" d="M68,-1162.94C68,-1162.94 22,-1162.94 22,-1162.94 19,-1162.94 16,-1159.94 16,-1156.94 16,-1156.94 16,-1150.94 16,-1150.94 16,-1147.94 19,-1144.94 22,-1144.94 22,-1144.94 68,-1144.94 68,-1144.94 71,-1144.94 74,-1147.94 74,-1150.94 74,-1150.94 74,-1156.94 74,-1156.94 74,-1159.94 71,-1162.94 68,-1162.94"/>
<text text-anchor="start" x="24" y="-1151.74" font-family="Helvetica,sans-Serif" font-size="9.00">index.tsx</text>
</a>
</g>
</g>
<!-- Layout/index.tsx&#45;&gt;Layout/Footer/index.tsx -->
<g id="edge8" class="edge">
<title>Layout/index.tsx&#45;&gt;Layout/Footer/index.tsx</title>
<path fill="none" stroke="#000000" stroke-width="2" stroke-opacity="0.200000" d="M74.14,-1153.94C87.2,-1153.94 102.85,-1153.94 116.61,-1153.94"/>
<polygon fill="#000000" fill-opacity="0.200000" stroke="#000000" stroke-width="2" stroke-opacity="0.200000" points="116.78,-1156.04 122.78,-1153.94 116.78,-1151.84 116.78,-1156.04"/>
</g>
<!-- Layout/index.tsx&#45;&gt;Layout/Header/index.tsx -->
<g id="edge9" class="edge">
<title>Layout/index.tsx&#45;&gt;Layout/Header/index.tsx</title>
<path fill="none" stroke="#000000" stroke-width="2" stroke-opacity="0.200000" d="M52.85,-1163.11C59.52,-1171.53 70.34,-1183.87 82,-1191.94 92.65,-1199.31 105.47,-1205.34 117.16,-1209.95"/>
<polygon fill="#000000" fill-opacity="0.200000" stroke="#000000" stroke-width="2" stroke-opacity="0.200000" points="116.43,-1211.92 122.79,-1212.1 117.93,-1208 116.43,-1211.92"/>
</g>
<!-- components/Blog/PostExcerpt.tsx -->
<g id="node11" class="node">
<title>components/Blog/PostExcerpt.tsx</title>
<g id="a_node11"><a xlink:href="components/Blog/PostExcerpt.tsx" xlink:title="PostExcerpt.tsx">
<path fill="#bbfeff" stroke="black" d="M318,-444.94C318,-444.94 243,-444.94 243,-444.94 240,-444.94 237,-441.94 237,-438.94 237,-438.94 237,-432.94 237,-432.94 237,-429.94 240,-426.94 243,-426.94 243,-426.94 318,-426.94 318,-426.94 321,-426.94 324,-429.94 324,-432.94 324,-432.94 324,-438.94 324,-438.94 324,-441.94 321,-444.94 318,-444.94"/>
<text text-anchor="start" x="245" y="-433.74" font-family="Helvetica,sans-Serif" font-size="9.00">PostExcerpt.tsx</text>
</a>
</g>
</g>
<!-- components/Blog/PostFull.tsx -->
<g id="node12" class="node">
<title>components/Blog/PostFull.tsx</title>
<g id="a_node12"><a xlink:href="components/Blog/PostFull.tsx" xlink:title="PostFull.tsx">
<path fill="#bbfeff" stroke="black" d="M308,-414.94C308,-414.94 253,-414.94 253,-414.94 250,-414.94 247,-411.94 247,-408.94 247,-408.94 247,-402.94 247,-402.94 247,-399.94 250,-396.94 253,-396.94 253,-396.94 308,-396.94 308,-396.94 311,-396.94 314,-399.94 314,-402.94 314,-402.94 314,-408.94 314,-408.94 314,-411.94 311,-414.94 308,-414.94"/>
<text text-anchor="start" x="255" y="-403.74" font-family="Helvetica,sans-Serif" font-size="9.00">PostFull.tsx</text>
</a>
</g>
</g>
<!-- components/Editor/ButtonRow.module.scss -->
<g id="node13" class="node">
<title>components/Editor/ButtonRow.module.scss</title>
<g id="a_node13"><a xlink:href="components/Editor/ButtonRow.module.scss" xlink:title="ButtonRow.module.scss">
<path fill="#ffffcc" stroke="black" d="M793.5,-444.94C793.5,-444.94 681.5,-444.94 681.5,-444.94 678.5,-444.94 675.5,-441.94 675.5,-438.94 675.5,-438.94 675.5,-432.94 675.5,-432.94 675.5,-429.94 678.5,-426.94 681.5,-426.94 681.5,-426.94 793.5,-426.94 793.5,-426.94 796.5,-426.94 799.5,-429.94 799.5,-432.94 799.5,-432.94 799.5,-438.94 799.5,-438.94 799.5,-441.94 796.5,-444.94 793.5,-444.94"/>
<text text-anchor="start" x="683.5" y="-433.74" font-family="Helvetica,sans-Serif" font-size="9.00">ButtonRow.module.scss</text>
</a>
</g>
</g>
<!-- components/Editor/Tiptap.tsx -->
<g id="node14" class="node">
<title>components/Editor/Tiptap.tsx</title>
<g id="a_node14"><a xlink:href="components/Editor/Tiptap.tsx" xlink:title="Tiptap.tsx">
<path fill="#bbfeff" stroke="black" d="M594.5,-444.94C594.5,-444.94 544.5,-444.94 544.5,-444.94 541.5,-444.94 538.5,-441.94 538.5,-438.94 538.5,-438.94 538.5,-432.94 538.5,-432.94 538.5,-429.94 541.5,-426.94 544.5,-426.94 544.5,-426.94 594.5,-426.94 594.5,-426.94 597.5,-426.94 600.5,-429.94 600.5,-432.94 600.5,-432.94 600.5,-438.94 600.5,-438.94 600.5,-441.94 597.5,-444.94 594.5,-444.94"/>
<text text-anchor="start" x="546.5" y="-433.74" font-family="Helvetica,sans-Serif" font-size="9.00">Tiptap.tsx</text>
</a>
</g>
</g>
<!-- components/Editor/Tiptap.tsx&#45;&gt;components/Editor/ButtonRow.module.scss -->
<g id="edge10" class="edge">
<title>components/Editor/Tiptap.tsx&#45;&gt;components/Editor/ButtonRow.module.scss</title>
<path fill="none" stroke="#000000" stroke-width="2" stroke-opacity="0.200000" d="M600.56,-435.94C619.77,-435.94 645.47,-435.94 669.35,-435.94"/>
<polygon fill="#000000" fill-opacity="0.200000" stroke="#000000" stroke-width="2" stroke-opacity="0.200000" points="669.38,-438.04 675.38,-435.94 669.38,-433.84 669.38,-438.04"/>
</g>
<!-- components/Section/EditElement.tsx -->
<g id="node15" class="node">
<title>components/Section/EditElement.tsx</title>
<g id="a_node15"><a xlink:href="components/Section/EditElement.tsx" xlink:title="EditElement.tsx">
<path fill="#bbfeff" stroke="black" d="M608,-548.94C608,-548.94 531,-548.94 531,-548.94 528,-548.94 525,-545.94 525,-542.94 525,-542.94 525,-536.94 525,-536.94 525,-533.94 528,-530.94 531,-530.94 531,-530.94 608,-530.94 608,-530.94 611,-530.94 614,-533.94 614,-536.94 614,-536.94 614,-542.94 614,-542.94 614,-545.94 611,-548.94 608,-548.94"/>
<text text-anchor="start" x="533" y="-537.74" font-family="Helvetica,sans-Serif" font-size="9.00">EditElement.tsx</text>
</a>
</g>
</g>
<!-- components/Util/NoSsr.tsx -->
<g id="node16" class="node">
<title>components/Util/NoSsr.tsx</title>
<g id="a_node16"><a xlink:href="components/Util/NoSsr.tsx" xlink:title="NoSsr.tsx">
<path fill="#bbfeff" stroke="black" d="M896.5,-418.94C896.5,-418.94 849.5,-418.94 849.5,-418.94 846.5,-418.94 843.5,-415.94 843.5,-412.94 843.5,-412.94 843.5,-406.94 843.5,-406.94 843.5,-403.94 846.5,-400.94 849.5,-400.94 849.5,-400.94 896.5,-400.94 896.5,-400.94 899.5,-400.94 902.5,-403.94 902.5,-406.94 902.5,-406.94 902.5,-412.94 902.5,-412.94 902.5,-415.94 899.5,-418.94 896.5,-418.94"/>
<text text-anchor="start" x="851.5" y="-407.74" font-family="Helvetica,sans-Serif" font-size="9.00">NoSsr.tsx</text>
</a>
</g>
</g>
<!-- components/Section/EditElement.tsx&#45;&gt;components/Util/NoSsr.tsx -->
<g id="edge11" class="edge">
<title>components/Section/EditElement.tsx&#45;&gt;components/Util/NoSsr.tsx</title>
<path fill="none" stroke="#000000" stroke-width="2" stroke-opacity="0.200000" d="M614.03,-547.57C632.87,-550.51 655.2,-553.5 675.5,-554.94 734.02,-559.1 758.3,-586.9 807.5,-554.94 852.8,-525.51 866.54,-456.11 870.5,-425.23"/>
<polygon fill="#000000" fill-opacity="0.200000" stroke="#000000" stroke-width="2" stroke-opacity="0.200000" points="872.59,-425.45 871.2,-419.25 868.41,-424.96 872.59,-425.45"/>
</g>
<!-- components/Section/EditIcon.tsx -->
<g id="node17" class="node">
<title>components/Section/EditIcon.tsx</title>
<g id="a_node17"><a xlink:href="components/Section/EditIcon.tsx" xlink:title="EditIcon.tsx">
<path fill="#bbfeff" stroke="black" d="M767,-548.94C767,-548.94 708,-548.94 708,-548.94 705,-548.94 702,-545.94 702,-542.94 702,-542.94 702,-536.94 702,-536.94 702,-533.94 705,-530.94 708,-530.94 708,-530.94 767,-530.94 767,-530.94 770,-530.94 773,-533.94 773,-536.94 773,-536.94 773,-542.94 773,-542.94 773,-545.94 770,-548.94 767,-548.94"/>
<text text-anchor="start" x="710" y="-537.74" font-family="Helvetica,sans-Serif" font-size="9.00">EditIcon.tsx</text>
</a>
</g>
</g>
<!-- components/Section/EditElement.tsx&#45;&gt;components/Section/EditIcon.tsx -->
<g id="edge12" class="edge">
<title>components/Section/EditElement.tsx&#45;&gt;components/Section/EditIcon.tsx</title>
<path fill="none" stroke="#000000" stroke-width="2" stroke-opacity="0.200000" d="M614.11,-539.94C639.35,-539.94 670.92,-539.94 695.67,-539.94"/>
<polygon fill="#000000" fill-opacity="0.200000" stroke="#000000" stroke-width="2" stroke-opacity="0.200000" points="695.81,-542.04 701.81,-539.94 695.81,-537.84 695.81,-542.04"/>
</g>
<!-- components/Section/style.module.scss -->
<g id="node18" class="node">
<title>components/Section/style.module.scss</title>
<g id="a_node18"><a xlink:href="components/Section/style.module.scss" xlink:title="style.module.scss">
<path fill="#ffffcc" stroke="black" d="M779.5,-518.94C779.5,-518.94 695.5,-518.94 695.5,-518.94 692.5,-518.94 689.5,-515.94 689.5,-512.94 689.5,-512.94 689.5,-506.94 689.5,-506.94 689.5,-503.94 692.5,-500.94 695.5,-500.94 695.5,-500.94 779.5,-500.94 779.5,-500.94 782.5,-500.94 785.5,-503.94 785.5,-506.94 785.5,-506.94 785.5,-512.94 785.5,-512.94 785.5,-515.94 782.5,-518.94 779.5,-518.94"/>
<text text-anchor="start" x="697.5" y="-507.74" font-family="Helvetica,sans-Serif" font-size="9.00">style.module.scss</text>
</a>
</g>
</g>
<!-- components/Section/EditElement.tsx&#45;&gt;components/Section/style.module.scss -->
<g id="edge13" class="edge">
<title>components/Section/EditElement.tsx&#45;&gt;components/Section/style.module.scss</title>
<path fill="none" stroke="#000000" stroke-width="2" stroke-opacity="0.200000" d="M614.11,-532.06C635.37,-528.22 661.1,-523.57 683.48,-519.52"/>
<polygon fill="#000000" fill-opacity="0.200000" stroke="#000000" stroke-width="2" stroke-opacity="0.200000" points="683.86,-521.59 689.39,-518.45 683.11,-517.45 683.86,-521.59"/>
</g>
<!-- components/Section/EditIcon.tsx&#45;&gt;components/Util/NoSsr.tsx -->
<g id="edge14" class="edge">
<title>components/Section/EditIcon.tsx&#45;&gt;components/Util/NoSsr.tsx</title>
<path fill="none" stroke="#000000" stroke-width="2" stroke-opacity="0.200000" d="M773.16,-538.14C784.96,-536.11 797.64,-532.23 807.5,-524.94 841.8,-499.57 860.34,-450.2 867.89,-425.21"/>
<polygon fill="#000000" fill-opacity="0.200000" stroke="#000000" stroke-width="2" stroke-opacity="0.200000" points="870,-425.48 869.65,-419.13 865.97,-424.31 870,-425.48"/>
</g>
<!-- components/Section/EditSection.tsx -->
<g id="node19" class="node">
<title>components/Section/EditSection.tsx</title>
<g id="a_node19"><a xlink:href="components/Section/EditSection.tsx" xlink:title="EditSection.tsx">
<path fill="#bbfeff" stroke="black" d="M452,-592.94C452,-592.94 379,-592.94 379,-592.94 376,-592.94 373,-589.94 373,-586.94 373,-586.94 373,-580.94 373,-580.94 373,-577.94 376,-574.94 379,-574.94 379,-574.94 452,-574.94 452,-574.94 455,-574.94 458,-577.94 458,-580.94 458,-580.94 458,-586.94 458,-586.94 458,-589.94 455,-592.94 452,-592.94"/>
<text text-anchor="start" x="381" y="-581.74" font-family="Helvetica,sans-Serif" font-size="9.00">EditSection.tsx</text>
</a>
</g>
</g>
<!-- components/Section/EditSection.tsx&#45;&gt;components/Section/EditIcon.tsx -->
<g id="edge16" class="edge">
<title>components/Section/EditSection.tsx&#45;&gt;components/Section/EditIcon.tsx</title>
<path fill="none" stroke="#000000" stroke-width="2" stroke-opacity="0.200000" d="M458.41,-591.35C509.1,-598.68 596.49,-606.05 667.5,-584.94 688.32,-578.75 708.71,-564.07 721.87,-553.15"/>
<polygon fill="#000000" fill-opacity="0.200000" stroke="#000000" stroke-width="2" stroke-opacity="0.200000" points="723.5,-554.52 726.7,-549.03 720.77,-551.32 723.5,-554.52"/>
</g>
<!-- components/Section/EditSection.tsx&#45;&gt;components/Section/style.module.scss -->
<g id="edge18" class="edge">
<title>components/Section/EditSection.tsx&#45;&gt;components/Section/style.module.scss</title>
<path fill="none" stroke="#000000" stroke-width="2" stroke-opacity="0.200000" d="M442.2,-574.86C454.99,-569.19 469.75,-560.69 479.5,-548.94 486.68,-540.29 478.58,-531.79 487.5,-524.94 495.13,-519.08 612.06,-514.13 682.94,-511.65"/>
<polygon fill="#000000" fill-opacity="0.200000" stroke="#000000" stroke-width="2" stroke-opacity="0.200000" points="683.3,-513.74 689.22,-511.43 683.15,-509.54 683.3,-513.74"/>
</g>
<!-- directus/sdk/updateSection.ts -->
<g id="node20" class="node">
<title>directus/sdk/updateSection.ts</title>
<g id="a_node20"><a xlink:href="directus/sdk/updateSection.ts" xlink:title="updateSection.ts">
<path fill="#ddfeff" stroke="black" d="M1057,-352.94C1057,-352.94 975,-352.94 975,-352.94 972,-352.94 969,-349.94 969,-346.94 969,-346.94 969,-340.94 969,-340.94 969,-337.94 972,-334.94 975,-334.94 975,-334.94 1057,-334.94 1057,-334.94 1060,-334.94 1063,-337.94 1063,-340.94 1063,-340.94 1063,-346.94 1063,-346.94 1063,-349.94 1060,-352.94 1057,-352.94"/>
<text text-anchor="start" x="977" y="-341.74" font-family="Helvetica,sans-Serif" font-size="9.00">updateSection.ts</text>
</a>
</g>
</g>
<!-- components/Section/EditSection.tsx&#45;&gt;directus/sdk/updateSection.ts -->
<g id="edge15" class="edge">
<title>components/Section/EditSection.tsx&#45;&gt;directus/sdk/updateSection.ts</title>
<path fill="none" stroke="#000000" stroke-width="2" stroke-opacity="0.200000" d="M436.37,-592.99C451.2,-600.94 470.42,-614.04 479.5,-631.94 490.01,-652.65 470.92,-1033.67 487.5,-1049.94 544.61,-1105.96 600.32,-1093.37 667.5,-1049.94 913.91,-890.64 864.11,-731.77 938.5,-447.94 943.53,-428.73 933.37,-373.84 946.5,-358.94 950.94,-353.9 956.64,-350.34 962.86,-347.85"/>
<polygon fill="#000000" fill-opacity="0.200000" stroke="#000000" stroke-width="2" stroke-opacity="0.200000" points="963.69,-349.79 968.69,-345.86 962.33,-345.81 963.69,-349.79"/>
</g>
<!-- components/Section/SelectColor.tsx -->
<g id="node21" class="node">
<title>components/Section/SelectColor.tsx</title>
<g id="a_node21"><a xlink:href="components/Section/SelectColor.tsx" xlink:title="SelectColor.tsx">
<path fill="#bbfeff" stroke="black" d="M605,-578.94C605,-578.94 534,-578.94 534,-578.94 531,-578.94 528,-575.94 528,-572.94 528,-572.94 528,-566.94 528,-566.94 528,-563.94 531,-560.94 534,-560.94 534,-560.94 605,-560.94 605,-560.94 608,-560.94 611,-563.94 611,-566.94 611,-566.94 611,-572.94 611,-572.94 611,-575.94 608,-578.94 605,-578.94"/>
<text text-anchor="start" x="536" y="-567.74" font-family="Helvetica,sans-Serif" font-size="9.00">SelectColor.tsx</text>
</a>
</g>
</g>
<!-- components/Section/EditSection.tsx&#45;&gt;components/Section/SelectColor.tsx -->
<g id="edge17" class="edge">
<title>components/Section/EditSection.tsx&#45;&gt;components/Section/SelectColor.tsx</title>
<path fill="none" stroke="#000000" stroke-width="2" stroke-opacity="0.200000" d="M458.03,-580.11C477.71,-578.3 501.3,-576.13 521.61,-574.26"/>
<polygon fill="#000000" fill-opacity="0.200000" stroke="#000000" stroke-width="2" stroke-opacity="0.200000" points="522.02,-576.33 527.8,-573.69 521.64,-572.15 522.02,-576.33"/>
</g>
<!-- components/Section/SelectColor.tsx&#45;&gt;components/Section/style.module.scss -->
<g id="edge21" class="edge">
<title>components/Section/SelectColor.tsx&#45;&gt;components/Section/style.module.scss</title>
<path fill="none" stroke="#000000" stroke-width="2" stroke-opacity="0.200000" d="M611.15,-573.29C630.39,-572.68 652.41,-568.49 667.5,-554.94 677.77,-545.72 665.65,-534.6 675.5,-524.94 677.98,-522.51 680.79,-520.45 683.81,-518.7"/>
<polygon fill="#000000" fill-opacity="0.200000" stroke="#000000" stroke-width="2" stroke-opacity="0.200000" points="685,-520.45 689.44,-515.9 683.13,-516.69 685,-520.45"/>
</g>
<!-- components/Section/SectionWrapper.tsx -->
<g id="node22" class="node">
<title>components/Section/SectionWrapper.tsx</title>
<g id="a_node22"><a xlink:href="components/Section/SectionWrapper.tsx" xlink:title="SectionWrapper.tsx">
<path fill="#bbfeff" stroke="black" d="M461.5,-504.94C461.5,-504.94 369.5,-504.94 369.5,-504.94 366.5,-504.94 363.5,-501.94 363.5,-498.94 363.5,-498.94 363.5,-492.94 363.5,-492.94 363.5,-489.94 366.5,-486.94 369.5,-486.94 369.5,-486.94 461.5,-486.94 461.5,-486.94 464.5,-486.94 467.5,-489.94 467.5,-492.94 467.5,-492.94 467.5,-498.94 467.5,-498.94 467.5,-501.94 464.5,-504.94 461.5,-504.94"/>
<text text-anchor="start" x="371.5" y="-493.74" font-family="Helvetica,sans-Serif" font-size="9.00">SectionWrapper.tsx</text>
</a>
</g>
</g>
<!-- components/Section/SectionsTextEditable.tsx -->
<g id="node23" class="node">
<title>components/Section/SectionsTextEditable.tsx</title>
<g id="a_node23"><a xlink:href="components/Section/SectionsTextEditable.tsx" xlink:title="SectionsTextEditable.tsx">
<path fill="#bbfeff" stroke="black" d="M472.5,-534.94C472.5,-534.94 358.5,-534.94 358.5,-534.94 355.5,-534.94 352.5,-531.94 352.5,-528.94 352.5,-528.94 352.5,-522.94 352.5,-522.94 352.5,-519.94 355.5,-516.94 358.5,-516.94 358.5,-516.94 472.5,-516.94 472.5,-516.94 475.5,-516.94 478.5,-519.94 478.5,-522.94 478.5,-522.94 478.5,-528.94 478.5,-528.94 478.5,-531.94 475.5,-534.94 472.5,-534.94"/>
<text text-anchor="start" x="360.5" y="-523.74" font-family="Helvetica,sans-Serif" font-size="9.00">SectionsTextEditable.tsx</text>
</a>
</g>
</g>
<!-- components/Section/SectionsTextEditable.tsx&#45;&gt;components/Editor/Tiptap.tsx -->
<g id="edge19" class="edge">
<title>components/Section/SectionsTextEditable.tsx&#45;&gt;components/Editor/Tiptap.tsx</title>
<path fill="none" stroke="#000000" stroke-width="2" stroke-opacity="0.200000" d="M471.84,-516.94C474.62,-515.24 477.2,-513.26 479.5,-510.94 490.73,-499.61 477.61,-488.46 487.5,-475.94 498.75,-461.69 516.4,-452.15 532.35,-445.97"/>
<polygon fill="#000000" fill-opacity="0.200000" stroke="#000000" stroke-width="2" stroke-opacity="0.200000" points="533.22,-447.88 538.13,-443.84 531.78,-443.94 533.22,-447.88"/>
</g>
<!-- components/Section/SectionsTextEditable.tsx&#45;&gt;components/Section/EditElement.tsx -->
<g id="edge20" class="edge">
<title>components/Section/SectionsTextEditable.tsx&#45;&gt;components/Section/EditElement.tsx</title>
<path fill="none" stroke="#000000" stroke-width="2" stroke-opacity="0.200000" d="M478.76,-531.67C492.01,-532.89 505.83,-534.17 518.55,-535.34"/>
<polygon fill="#000000" fill-opacity="0.200000" stroke="#000000" stroke-width="2" stroke-opacity="0.200000" points="518.52,-537.45 524.69,-535.9 518.91,-533.26 518.52,-537.45"/>
</g>
<!-- components/Section/Sort.tsx -->
<g id="node24" class="node">
<title>components/Section/Sort.tsx</title>
<g id="a_node24"><a xlink:href="components/Section/Sort.tsx" xlink:title="Sort.tsx">
<path fill="#ccffcc" stroke="black" d="M301.5,-563.94C301.5,-563.94 259.5,-563.94 259.5,-563.94 256.5,-563.94 253.5,-560.94 253.5,-557.94 253.5,-557.94 253.5,-551.94 253.5,-551.94 253.5,-548.94 256.5,-545.94 259.5,-545.94 259.5,-545.94 301.5,-545.94 301.5,-545.94 304.5,-545.94 307.5,-548.94 307.5,-551.94 307.5,-551.94 307.5,-557.94 307.5,-557.94 307.5,-560.94 304.5,-563.94 301.5,-563.94"/>
<text text-anchor="start" x="262.5" y="-552.74" font-family="Helvetica,sans-Serif" font-size="9.00">Sort.tsx</text>
</a>
</g>
</g>
<!-- components/Section/index.tsx -->
<g id="node25" class="node">
<title>components/Section/index.tsx</title>
<g id="a_node25"><a xlink:href="components/Section/index.tsx" xlink:title="index.tsx">
<path fill="#bbfeff" stroke="black" d="M303.5,-504.94C303.5,-504.94 257.5,-504.94 257.5,-504.94 254.5,-504.94 251.5,-501.94 251.5,-498.94 251.5,-498.94 251.5,-492.94 251.5,-492.94 251.5,-489.94 254.5,-486.94 257.5,-486.94 257.5,-486.94 303.5,-486.94 303.5,-486.94 306.5,-486.94 309.5,-489.94 309.5,-492.94 309.5,-492.94 309.5,-498.94 309.5,-498.94 309.5,-501.94 306.5,-504.94 303.5,-504.94"/>
<text text-anchor="start" x="259.5" y="-493.74" font-family="Helvetica,sans-Serif" font-size="9.00">index.tsx</text>
</a>
</g>
</g>
<!-- components/Section/index.tsx&#45;&gt;components/Section/EditElement.tsx -->
<g id="edge24" class="edge">
<title>components/Section/index.tsx&#45;&gt;components/Section/EditElement.tsx</title>
<path fill="none" stroke="#000000" stroke-width="2" stroke-opacity="0.200000" d="M296.48,-504.99C309.72,-513.31 329.25,-526.37 344.5,-539.94 348.5,-543.5 347.62,-546.75 352.5,-548.94 381.1,-561.78 464.36,-554.03 518.76,-547.09"/>
<polygon fill="#000000" fill-opacity="0.200000" stroke="#000000" stroke-width="2" stroke-opacity="0.200000" points="519.23,-549.15 524.91,-546.3 518.69,-544.98 519.23,-549.15"/>
</g>
<!-- components/Section/index.tsx&#45;&gt;components/Util/NoSsr.tsx -->
<g id="edge23" class="edge">
<title>components/Section/index.tsx&#45;&gt;components/Util/NoSsr.tsx</title>
<path fill="none" stroke="#000000" stroke-width="2" stroke-opacity="0.200000" d="M308.27,-486.92C319.51,-483.05 332.68,-478.4 344.5,-473.94 408.67,-449.74 420.29,-429.6 487.5,-415.94 613.94,-390.25 768.61,-399.93 836.83,-406.22"/>
<polygon fill="#000000" fill-opacity="0.200000" stroke="#000000" stroke-width="2" stroke-opacity="0.200000" points="836.98,-408.34 843.15,-406.81 837.38,-404.16 836.98,-408.34"/>
</g>
<!-- components/Section/index.tsx&#45;&gt;components/Section/EditSection.tsx -->
<g id="edge25" class="edge">
<title>components/Section/index.tsx&#45;&gt;components/Section/EditSection.tsx</title>
<path fill="none" stroke="#000000" stroke-width="2" stroke-opacity="0.200000" d="M300.92,-505.08C314.92,-512.6 333.26,-524.52 344.5,-539.94 351.62,-549.71 343.88,-557.46 352.5,-565.94 356.61,-569.98 361.56,-573.13 366.86,-575.57"/>
<polygon fill="#000000" fill-opacity="0.200000" stroke="#000000" stroke-width="2" stroke-opacity="0.200000" points="366.38,-577.64 372.73,-577.96 367.96,-573.75 366.38,-577.64"/>
</g>
<!-- components/Section/index.tsx&#45;&gt;components/Section/SectionWrapper.tsx -->
<g id="edge27" class="edge">
<title>components/Section/index.tsx&#45;&gt;components/Section/SectionWrapper.tsx</title>
<path fill="none" stroke="#000000" stroke-width="2" stroke-opacity="0.200000" d="M309.71,-495.94C323.56,-495.94 340.78,-495.94 357.23,-495.94"/>
<polygon fill="#000000" fill-opacity="0.200000" stroke="#000000" stroke-width="2" stroke-opacity="0.200000" points="357.25,-498.04 363.25,-495.94 357.25,-493.84 357.25,-498.04"/>
</g>
<!-- components/Section/index.tsx&#45;&gt;components/Section/SectionsTextEditable.tsx -->
<g id="edge26" class="edge">
<title>components/Section/index.tsx&#45;&gt;components/Section/SectionsTextEditable.tsx</title>
<path fill="none" stroke="#000000" stroke-width="2" stroke-opacity="0.200000" d="M309.71,-502.3C326.77,-506.15 348.95,-511.15 368.5,-515.56"/>
<polygon fill="#000000" fill-opacity="0.200000" stroke="#000000" stroke-width="2" stroke-opacity="0.200000" points="368.16,-517.64 374.48,-516.91 369.09,-513.54 368.16,-517.64"/>
</g>
<!-- components/Util/DirectusImage.tsx -->
<g id="node26" class="node">
<title>components/Util/DirectusImage.tsx</title>
<g id="a_node26"><a xlink:href="components/Util/DirectusImage.tsx" xlink:title="DirectusImage.tsx">
<path fill="#bbfeff" stroke="black" d="M916.5,-388.94C916.5,-388.94 829.5,-388.94 829.5,-388.94 826.5,-388.94 823.5,-385.94 823.5,-382.94 823.5,-382.94 823.5,-376.94 823.5,-376.94 823.5,-373.94 826.5,-370.94 829.5,-370.94 829.5,-370.94 916.5,-370.94 916.5,-370.94 919.5,-370.94 922.5,-373.94 922.5,-376.94 922.5,-376.94 922.5,-382.94 922.5,-382.94 922.5,-385.94 919.5,-388.94 916.5,-388.94"/>
<text text-anchor="start" x="831.5" y="-377.74" font-family="Helvetica,sans-Serif" font-size="9.00">DirectusImage.tsx</text>
</a>
</g>
</g>
<!-- components/Section/index.tsx&#45;&gt;components/Util/DirectusImage.tsx -->
<g id="edge22" class="edge">
<title>components/Section/index.tsx&#45;&gt;components/Util/DirectusImage.tsx</title>
<path fill="none" stroke="#000000" stroke-width="2" stroke-opacity="0.200000" d="M309.8,-492.74C322.28,-489.85 336.01,-484.36 344.5,-473.94 361.49,-453.08 333.48,-432.96 352.5,-413.94 485.55,-280.89 745.75,-341.75 838.32,-369.13"/>
<polygon fill="#000000" fill-opacity="0.200000" stroke="#000000" stroke-width="2" stroke-opacity="0.200000" points="837.82,-371.17 844.17,-370.88 839.02,-367.15 837.82,-371.17"/>
</g>
<!-- components/Section/style.utlis.ts -->
<g id="node27" class="node">
<title>components/Section/style.utlis.ts</title>
<g id="a_node27"><a xlink:href="components/Section/style.utlis.ts" xlink:title="style.utlis.ts">
<path fill="#ddfeff" stroke="black" d="M599,-504.94C599,-504.94 540,-504.94 540,-504.94 537,-504.94 534,-501.94 534,-498.94 534,-498.94 534,-492.94 534,-492.94 534,-489.94 537,-486.94 540,-486.94 540,-486.94 599,-486.94 599,-486.94 602,-486.94 605,-489.94 605,-492.94 605,-492.94 605,-498.94 605,-498.94 605,-501.94 602,-504.94 599,-504.94"/>
<text text-anchor="start" x="542" y="-493.74" font-family="Helvetica,sans-Serif" font-size="9.00">style.utlis.ts</text>
</a>
</g>
</g>
<!-- components/Section/index.tsx&#45;&gt;components/Section/style.utlis.ts -->
<g id="edge28" class="edge">
<title>components/Section/index.tsx&#45;&gt;components/Section/style.utlis.ts</title>
<path fill="none" stroke="#000000" stroke-width="2" stroke-opacity="0.200000" d="M291.63,-505.04C304.63,-516.03 328.39,-533.94 352.5,-540.94 379.6,-548.81 456.89,-557.82 479.5,-540.94 489.53,-533.45 478.35,-522.48 487.5,-513.94 498.28,-503.88 513.4,-498.99 527.65,-496.74"/>
<polygon fill="#000000" fill-opacity="0.200000" stroke="#000000" stroke-width="2" stroke-opacity="0.200000" points="528.02,-498.81 533.69,-495.93 527.47,-494.64 528.02,-498.81"/>
</g>
<!-- directus/restAPI/fetchFileMetadata.ts -->
<g id="node41" class="node">
<title>directus/restAPI/fetchFileMetadata.ts</title>
<g id="a_node41"><a xlink:href="directus/restAPI/fetchFileMetadata.ts" xlink:title="fetchFileMetadata.ts">
<path fill="#ddfeff" stroke="black" d="M1063.5,-262.94C1063.5,-262.94 968.5,-262.94 968.5,-262.94 965.5,-262.94 962.5,-259.94 962.5,-256.94 962.5,-256.94 962.5,-250.94 962.5,-250.94 962.5,-247.94 965.5,-244.94 968.5,-244.94 968.5,-244.94 1063.5,-244.94 1063.5,-244.94 1066.5,-244.94 1069.5,-247.94 1069.5,-250.94 1069.5,-250.94 1069.5,-256.94 1069.5,-256.94 1069.5,-259.94 1066.5,-262.94 1063.5,-262.94"/>
<text text-anchor="start" x="970.5" y="-251.74" font-family="Helvetica,sans-Serif" font-size="9.00">fetchFileMetadata.ts</text>
</a>
</g>
</g>
<!-- components/Util/DirectusImage.tsx&#45;&gt;directus/restAPI/fetchFileMetadata.ts -->
<g id="edge43" class="edge">
<title>components/Util/DirectusImage.tsx&#45;&gt;directus/restAPI/fetchFileMetadata.ts</title>
<path fill="none" stroke="#000000" stroke-width="2" stroke-opacity="0.200000" d="M880.13,-370.77C891.65,-354.01 917.96,-317.95 946.5,-293.94 959.69,-282.85 976.35,-273.04 989.93,-265.92"/>
<polygon fill="#000000" fill-opacity="0.200000" stroke="#000000" stroke-width="2" stroke-opacity="0.200000" points="991.17,-267.64 995.55,-263.03 989.25,-263.9 991.17,-267.64"/>
</g>
<!-- utils/getAssetURL.ts -->
<g id="node42" class="node">
<title>utils/getAssetURL.ts</title>
<g id="a_node42"><a xlink:href="utils/getAssetURL.ts" xlink:title="getAssetURL.ts">
<path fill="#ddfeff" stroke="black" d="M1052.5,-134.94C1052.5,-134.94 979.5,-134.94 979.5,-134.94 976.5,-134.94 973.5,-131.94 973.5,-128.94 973.5,-128.94 973.5,-122.94 973.5,-122.94 973.5,-119.94 976.5,-116.94 979.5,-116.94 979.5,-116.94 1052.5,-116.94 1052.5,-116.94 1055.5,-116.94 1058.5,-119.94 1058.5,-122.94 1058.5,-122.94 1058.5,-128.94 1058.5,-128.94 1058.5,-131.94 1055.5,-134.94 1052.5,-134.94"/>
<text text-anchor="start" x="981.5" y="-123.74" font-family="Helvetica,sans-Serif" font-size="9.00">getAssetURL.ts</text>
</a>
</g>
</g>
<!-- components/Util/DirectusImage.tsx&#45;&gt;utils/getAssetURL.ts -->
<g id="edge44" class="edge">
<title>components/Util/DirectusImage.tsx&#45;&gt;utils/getAssetURL.ts</title>
<path fill="none" stroke="#000000" stroke-width="2" stroke-opacity="0.200000" d="M875.19,-370.78C879.58,-340.04 897.23,-238.88 946.5,-173.94 958.04,-158.72 975.81,-146.47 990.36,-138.15"/>
<polygon fill="#000000" fill-opacity="0.200000" stroke="#000000" stroke-width="2" stroke-opacity="0.200000" points="991.73,-139.8 995.96,-135.05 989.69,-136.12 991.73,-139.8"/>
</g>
<!-- components/Section/style.utlis.ts&#45;&gt;components/Section/style.module.scss -->
<g id="edge29" class="edge">
<title>components/Section/style.utlis.ts&#45;&gt;components/Section/style.module.scss</title>
<path fill="none" stroke="#000000" stroke-width="2" stroke-opacity="0.200000" d="M605.3,-498.87C627.92,-500.78 657.85,-503.31 683.41,-505.46"/>
<polygon fill="#000000" fill-opacity="0.200000" stroke="#000000" stroke-width="2" stroke-opacity="0.200000" points="683.31,-507.56 689.47,-505.97 683.66,-503.38 683.31,-507.56"/>
</g>
<!-- components/SocialMedia/Button/icons/facebook&#45;brands.svg -->
<g id="node28" class="node">
<title>components/SocialMedia/Button/icons/facebook&#45;brands.svg</title>
<g id="a_node28"><a xlink:href="components/SocialMedia/Button/icons/facebook-brands.svg" xlink:title="facebook&#45;brands.svg">
<path fill="#ffffcc" stroke="black" d="M618.5,-968.94C618.5,-968.94 520.5,-968.94 520.5,-968.94 517.5,-968.94 514.5,-965.94 514.5,-962.94 514.5,-962.94 514.5,-956.94 514.5,-956.94 514.5,-953.94 517.5,-950.94 520.5,-950.94 520.5,-950.94 618.5,-950.94 618.5,-950.94 621.5,-950.94 624.5,-953.94 624.5,-956.94 624.5,-956.94 624.5,-962.94 624.5,-962.94 624.5,-965.94 621.5,-968.94 618.5,-968.94"/>
<text text-anchor="start" x="522.5" y="-957.74" font-family="Helvetica,sans-Serif" font-size="9.00">facebook&#45;brands.svg</text>
</a>
</g>
</g>
<!-- components/SocialMedia/Button/icons/facebook&#45;square&#45;brands.svg -->
<g id="node29" class="node">
<title>components/SocialMedia/Button/icons/facebook&#45;square&#45;brands.svg</title>
<g id="a_node29"><a xlink:href="components/SocialMedia/Button/icons/facebook-square-brands.svg" xlink:title="facebook&#45;square&#45;brands.svg">
<path fill="#ffffcc" stroke="black" d="M635.5,-938.94C635.5,-938.94 503.5,-938.94 503.5,-938.94 500.5,-938.94 497.5,-935.94 497.5,-932.94 497.5,-932.94 497.5,-926.94 497.5,-926.94 497.5,-923.94 500.5,-920.94 503.5,-920.94 503.5,-920.94 635.5,-920.94 635.5,-920.94 638.5,-920.94 641.5,-923.94 641.5,-926.94 641.5,-926.94 641.5,-932.94 641.5,-932.94 641.5,-935.94 638.5,-938.94 635.5,-938.94"/>
<text text-anchor="start" x="505.5" y="-927.74" font-family="Helvetica,sans-Serif" font-size="9.00">facebook&#45;square&#45;brands.svg</text>
</a>
</g>
</g>
<!-- components/SocialMedia/Button/icons/instagram&#45;brands.svg -->
<g id="node30" class="node">
<title>components/SocialMedia/Button/icons/instagram&#45;brands.svg</title>
<g id="a_node30"><a xlink:href="components/SocialMedia/Button/icons/instagram-brands.svg" xlink:title="instagram&#45;brands.svg">
<path fill="#ffffcc" stroke="black" d="M621.5,-908.94C621.5,-908.94 517.5,-908.94 517.5,-908.94 514.5,-908.94 511.5,-905.94 511.5,-902.94 511.5,-902.94 511.5,-896.94 511.5,-896.94 511.5,-893.94 514.5,-890.94 517.5,-890.94 517.5,-890.94 621.5,-890.94 621.5,-890.94 624.5,-890.94 627.5,-893.94 627.5,-896.94 627.5,-896.94 627.5,-902.94 627.5,-902.94 627.5,-905.94 624.5,-908.94 621.5,-908.94"/>
<text text-anchor="start" x="519.5" y="-897.74" font-family="Helvetica,sans-Serif" font-size="9.00">instagram&#45;brands.svg</text>
</a>
</g>
</g>
<!-- components/SocialMedia/Button/icons/telegram&#45;brands.svg -->
<g id="node31" class="node">
<title>components/SocialMedia/Button/icons/telegram&#45;brands.svg</title>
<g id="a_node31"><a xlink:href="components/SocialMedia/Button/icons/telegram-brands.svg" xlink:title="telegram&#45;brands.svg">
<path fill="#ffffcc" stroke="black" d="M618.5,-878.94C618.5,-878.94 520.5,-878.94 520.5,-878.94 517.5,-878.94 514.5,-875.94 514.5,-872.94 514.5,-872.94 514.5,-866.94 514.5,-866.94 514.5,-863.94 517.5,-860.94 520.5,-860.94 520.5,-860.94 618.5,-860.94 618.5,-860.94 621.5,-860.94 624.5,-863.94 624.5,-866.94 624.5,-866.94 624.5,-872.94 624.5,-872.94 624.5,-875.94 621.5,-878.94 618.5,-878.94"/>
<text text-anchor="start" x="522.5" y="-867.74" font-family="Helvetica,sans-Serif" font-size="9.00">telegram&#45;brands.svg</text>
</a>
</g>
</g>
<!-- components/SocialMedia/Button/icons/telegram&#45;plane&#45;brands.svg -->
<g id="node32" class="node">
<title>components/SocialMedia/Button/icons/telegram&#45;plane&#45;brands.svg</title>
<g id="a_node32"><a xlink:href="components/SocialMedia/Button/icons/telegram-plane-brands.svg" xlink:title="telegram&#45;plane&#45;brands.svg">
<path fill="#ffffcc" stroke="black" d="M632.5,-848.94C632.5,-848.94 506.5,-848.94 506.5,-848.94 503.5,-848.94 500.5,-845.94 500.5,-842.94 500.5,-842.94 500.5,-836.94 500.5,-836.94 500.5,-833.94 503.5,-830.94 506.5,-830.94 506.5,-830.94 632.5,-830.94 632.5,-830.94 635.5,-830.94 638.5,-833.94 638.5,-836.94 638.5,-836.94 638.5,-842.94 638.5,-842.94 638.5,-845.94 635.5,-848.94 632.5,-848.94"/>
<text text-anchor="start" x="508.5" y="-837.74" font-family="Helvetica,sans-Serif" font-size="9.00">telegram&#45;plane&#45;brands.svg</text>
</a>
</g>
</g>
<!-- components/SocialMedia/Button/icons/twitter&#45;brands.svg -->
<g id="node33" class="node">
<title>components/SocialMedia/Button/icons/twitter&#45;brands.svg</title>
<g id="a_node33"><a xlink:href="components/SocialMedia/Button/icons/twitter-brands.svg" xlink:title="twitter&#45;brands.svg">
<path fill="#ffffcc" stroke="black" d="M613,-818.94C613,-818.94 526,-818.94 526,-818.94 523,-818.94 520,-815.94 520,-812.94 520,-812.94 520,-806.94 520,-806.94 520,-803.94 523,-800.94 526,-800.94 526,-800.94 613,-800.94 613,-800.94 616,-800.94 619,-803.94 619,-806.94 619,-806.94 619,-812.94 619,-812.94 619,-815.94 616,-818.94 613,-818.94"/>
<text text-anchor="start" x="528" y="-807.74" font-family="Helvetica,sans-Serif" font-size="9.00">twitter&#45;brands.svg</text>
</a>
</g>
</g>
<!-- components/SocialMedia/Button/icons/whatsapp&#45;brands.svg -->
<g id="node34" class="node">
<title>components/SocialMedia/Button/icons/whatsapp&#45;brands.svg</title>
<g id="a_node34"><a xlink:href="components/SocialMedia/Button/icons/whatsapp-brands.svg" xlink:title="whatsapp&#45;brands.svg">
<path fill="#ffffcc" stroke="black" d="M620.5,-788.94C620.5,-788.94 518.5,-788.94 518.5,-788.94 515.5,-788.94 512.5,-785.94 512.5,-782.94 512.5,-782.94 512.5,-776.94 512.5,-776.94 512.5,-773.94 515.5,-770.94 518.5,-770.94 518.5,-770.94 620.5,-770.94 620.5,-770.94 623.5,-770.94 626.5,-773.94 626.5,-776.94 626.5,-776.94 626.5,-782.94 626.5,-782.94 626.5,-785.94 623.5,-788.94 620.5,-788.94"/>
<text text-anchor="start" x="520.5" y="-777.74" font-family="Helvetica,sans-Serif" font-size="9.00">whatsapp&#45;brands.svg</text>
</a>
</g>
</g>
<!-- components/SocialMedia/Button/icons/whatsapp&#45;square&#45;brands.svg -->
<g id="node35" class="node">
<title>components/SocialMedia/Button/icons/whatsapp&#45;square&#45;brands.svg</title>
<g id="a_node35"><a xlink:href="components/SocialMedia/Button/icons/whatsapp-square-brands.svg" xlink:title="whatsapp&#45;square&#45;brands.svg">
<path fill="#ffffcc" stroke="black" d="M637.5,-758.94C637.5,-758.94 501.5,-758.94 501.5,-758.94 498.5,-758.94 495.5,-755.94 495.5,-752.94 495.5,-752.94 495.5,-746.94 495.5,-746.94 495.5,-743.94 498.5,-740.94 501.5,-740.94 501.5,-740.94 637.5,-740.94 637.5,-740.94 640.5,-740.94 643.5,-743.94 643.5,-746.94 643.5,-746.94 643.5,-752.94 643.5,-752.94 643.5,-755.94 640.5,-758.94 637.5,-758.94"/>
<text text-anchor="start" x="503.5" y="-747.74" font-family="Helvetica,sans-Serif" font-size="9.00">whatsapp&#45;square&#45;brands.svg</text>
</a>
</g>
</g>
<!-- components/SocialMedia/Button/icons/youtube.svg -->
<g id="node36" class="node">
<title>components/SocialMedia/Button/icons/youtube.svg</title>
<g id="a_node36"><a xlink:href="components/SocialMedia/Button/icons/youtube.svg" xlink:title="youtube.svg">
<path fill="#ffffcc" stroke="black" d="M600,-728.94C600,-728.94 539,-728.94 539,-728.94 536,-728.94 533,-725.94 533,-722.94 533,-722.94 533,-716.94 533,-716.94 533,-713.94 536,-710.94 539,-710.94 539,-710.94 600,-710.94 600,-710.94 603,-710.94 606,-713.94 606,-716.94 606,-716.94 606,-722.94 606,-722.94 606,-725.94 603,-728.94 600,-728.94"/>
<text text-anchor="start" x="541" y="-717.74" font-family="Helvetica,sans-Serif" font-size="9.00">youtube.svg</text>
</a>
</g>
</g>
<!-- components/SocialMedia/Button/index.tsx&#45;&gt;components/SocialMedia/Button/icons/facebook&#45;brands.svg -->
<g id="edge30" class="edge">
<title>components/SocialMedia/Button/index.tsx&#45;&gt;components/SocialMedia/Button/icons/facebook&#45;brands.svg</title>
<path fill="none" stroke="#000000" stroke-width="2" stroke-opacity="0.200000" d="M420.87,-864.13C430.23,-882.74 454.1,-924.78 487.5,-944.94 493.81,-948.75 500.87,-951.63 508.11,-953.81"/>
<polygon fill="#000000" fill-opacity="0.200000" stroke="#000000" stroke-width="2" stroke-opacity="0.200000" points="507.89,-955.93 514.23,-955.48 508.99,-951.87 507.89,-955.93"/>
</g>
<!-- components/SocialMedia/Button/index.tsx&#45;&gt;components/SocialMedia/Button/icons/facebook&#45;square&#45;brands.svg -->
<g id="edge31" class="edge">
<title>components/SocialMedia/Button/index.tsx&#45;&gt;components/SocialMedia/Button/icons/facebook&#45;square&#45;brands.svg</title>
<path fill="none" stroke="#000000" stroke-width="2" stroke-opacity="0.200000" d="M424.62,-864.38C436.81,-877.89 461.25,-902.5 487.5,-914.94 490.57,-916.39 493.77,-917.71 497.04,-918.89"/>
<polygon fill="#000000" fill-opacity="0.200000" stroke="#000000" stroke-width="2" stroke-opacity="0.200000" points="496.65,-920.98 503.01,-920.89 497.99,-917 496.65,-920.98"/>
</g>
<!-- components/SocialMedia/Button/index.tsx&#45;&gt;components/SocialMedia/Button/icons/instagram&#45;brands.svg -->
<g id="edge32" class="edge">
<title>components/SocialMedia/Button/index.tsx&#45;&gt;components/SocialMedia/Button/icons/instagram&#45;brands.svg</title>
<path fill="none" stroke="#000000" stroke-width="2" stroke-opacity="0.200000" d="M434.78,-863.96C448.89,-870.6 469.04,-879.4 487.5,-884.94 493.25,-886.67 499.3,-888.23 505.39,-889.64"/>
<polygon fill="#000000" fill-opacity="0.200000" stroke="#000000" stroke-width="2" stroke-opacity="0.200000" points="505.17,-891.74 511.48,-890.99 506.08,-887.64 505.17,-891.74"/>
</g>
<!-- components/SocialMedia/Button/index.tsx&#45;&gt;components/SocialMedia/Button/icons/telegram&#45;brands.svg -->
<g id="edge33" class="edge">
<title>components/SocialMedia/Button/index.tsx&#45;&gt;components/SocialMedia/Button/icons/telegram&#45;brands.svg</title>
<path fill="none" stroke="#000000" stroke-width="2" stroke-opacity="0.200000" d="M444.73,-857.73C462.55,-859.48 486.25,-861.82 508.14,-863.98"/>
<polygon fill="#000000" fill-opacity="0.200000" stroke="#000000" stroke-width="2" stroke-opacity="0.200000" points="508.09,-866.09 514.26,-864.59 508.5,-861.91 508.09,-866.09"/>
</g>
<!-- components/SocialMedia/Button/index.tsx&#45;&gt;components/SocialMedia/Button/icons/telegram&#45;plane&#45;brands.svg -->
<g id="edge34" class="edge">
<title>components/SocialMedia/Button/index.tsx&#45;&gt;components/SocialMedia/Button/icons/telegram&#45;plane&#45;brands.svg</title>
<path fill="none" stroke="#000000" stroke-width="2" stroke-opacity="0.200000" d="M444.73,-852.15C458.85,-850.76 476.66,-849 494.34,-847.26"/>
<polygon fill="#000000" fill-opacity="0.200000" stroke="#000000" stroke-width="2" stroke-opacity="0.200000" points="494.56,-849.35 500.33,-846.67 494.15,-845.17 494.56,-849.35"/>
</g>
<!-- components/SocialMedia/Button/index.tsx&#45;&gt;components/SocialMedia/Button/icons/twitter&#45;brands.svg -->
<g id="edge35" class="edge">
<title>components/SocialMedia/Button/index.tsx&#45;&gt;components/SocialMedia/Button/icons/twitter&#45;brands.svg</title>
<path fill="none" stroke="#000000" stroke-width="2" stroke-opacity="0.200000" d="M434.78,-845.92C448.89,-839.28 469.04,-830.48 487.5,-824.94 495.85,-822.44 504.81,-820.27 513.62,-818.43"/>
<polygon fill="#000000" fill-opacity="0.200000" stroke="#000000" stroke-width="2" stroke-opacity="0.200000" points="514.22,-820.45 519.69,-817.21 513.39,-816.34 514.22,-820.45"/>
</g>
<!-- components/SocialMedia/Button/index.tsx&#45;&gt;components/SocialMedia/Button/icons/whatsapp&#45;brands.svg -->
<g id="edge36" class="edge">
<title>components/SocialMedia/Button/index.tsx&#45;&gt;components/SocialMedia/Button/icons/whatsapp&#45;brands.svg</title>
<path fill="none" stroke="#000000" stroke-width="2" stroke-opacity="0.200000" d="M424.62,-845.5C436.81,-831.99 461.25,-807.37 487.5,-794.94 493.44,-792.13 499.85,-789.84 506.38,-787.98"/>
<polygon fill="#000000" fill-opacity="0.200000" stroke="#000000" stroke-width="2" stroke-opacity="0.200000" points="507.13,-789.96 512.4,-786.39 506.06,-785.9 507.13,-789.96"/>
</g>
<!-- components/SocialMedia/Button/index.tsx&#45;&gt;components/SocialMedia/Button/icons/whatsapp&#45;square&#45;brands.svg -->
<g id="edge37" class="edge">
<title>components/SocialMedia/Button/index.tsx&#45;&gt;components/SocialMedia/Button/icons/whatsapp&#45;square&#45;brands.svg</title>
<path fill="none" stroke="#000000" stroke-width="2" stroke-opacity="0.200000" d="M420.87,-845.75C430.23,-827.14 454.1,-785.09 487.5,-764.94 489.52,-763.72 491.61,-762.6 493.76,-761.56"/>
<polygon fill="#000000" fill-opacity="0.200000" stroke="#000000" stroke-width="2" stroke-opacity="0.200000" points="494.92,-763.35 499.57,-759.02 493.23,-759.5 494.92,-763.35"/>
</g>
<!-- components/SocialMedia/Button/index.tsx&#45;&gt;components/SocialMedia/Button/icons/youtube.svg -->
<g id="edge38" class="edge">
<title>components/SocialMedia/Button/index.tsx&#45;&gt;components/SocialMedia/Button/icons/youtube.svg</title>
<path fill="none" stroke="#000000" stroke-width="2" stroke-opacity="0.200000" d="M418.99,-845.93C425.76,-823.21 446.82,-763.36 487.5,-734.94 498.89,-726.98 513.29,-722.91 526.79,-720.91"/>
<polygon fill="#000000" fill-opacity="0.200000" stroke="#000000" stroke-width="2" stroke-opacity="0.200000" points="527.22,-722.97 532.91,-720.13 526.69,-718.8 527.22,-722.97"/>
</g>
<!-- components/SocialMedia/Button/style.module.scss -->
<g id="node38" class="node">
<title>components/SocialMedia/Button/style.module.scss</title>
<g id="a_node38"><a xlink:href="components/SocialMedia/Button/style.module.scss" xlink:title="style.module.scss">
<path fill="#ffffcc" stroke="black" d="M611.5,-1020.94C611.5,-1020.94 527.5,-1020.94 527.5,-1020.94 524.5,-1020.94 521.5,-1017.94 521.5,-1014.94 521.5,-1014.94 521.5,-1008.94 521.5,-1008.94 521.5,-1005.94 524.5,-1002.94 527.5,-1002.94 527.5,-1002.94 611.5,-1002.94 611.5,-1002.94 614.5,-1002.94 617.5,-1005.94 617.5,-1008.94 617.5,-1008.94 617.5,-1014.94 617.5,-1014.94 617.5,-1017.94 614.5,-1020.94 611.5,-1020.94"/>
<text text-anchor="start" x="529.5" y="-1009.74" font-family="Helvetica,sans-Serif" font-size="9.00">style.module.scss</text>
</a>
</g>
</g>
<!-- components/SocialMedia/Button/index.tsx&#45;&gt;components/SocialMedia/Button/style.module.scss -->
<g id="edge39" class="edge">
<title>components/SocialMedia/Button/index.tsx&#45;&gt;components/SocialMedia/Button/style.module.scss</title>
<path fill="none" stroke="#000000" stroke-width="2" stroke-opacity="0.200000" d="M418.1,-864.13C423.12,-889.91 441.05,-963.32 487.5,-997.94 495.63,-1004 505.49,-1007.77 515.49,-1010.07"/>
<polygon fill="#000000" fill-opacity="0.200000" stroke="#000000" stroke-width="2" stroke-opacity="0.200000" points="515.08,-1012.13 521.38,-1011.25 515.91,-1008.01 515.08,-1012.13"/>
</g>
<!-- components/SocialMedia/Share/index.tsx -->
<g id="node39" class="node">
<title>components/SocialMedia/Share/index.tsx</title>
<g id="a_node39"><a xlink:href="components/SocialMedia/Share/index.tsx" xlink:title="index.tsx">
<path fill="#bbfeff" stroke="black" d="M303.5,-660.94C303.5,-660.94 257.5,-660.94 257.5,-660.94 254.5,-660.94 251.5,-657.94 251.5,-654.94 251.5,-654.94 251.5,-648.94 251.5,-648.94 251.5,-645.94 254.5,-642.94 257.5,-642.94 257.5,-642.94 303.5,-642.94 303.5,-642.94 306.5,-642.94 309.5,-645.94 309.5,-648.94 309.5,-648.94 309.5,-654.94 309.5,-654.94 309.5,-657.94 306.5,-660.94 303.5,-660.94"/>
<text text-anchor="start" x="259.5" y="-649.74" font-family="Helvetica,sans-Serif" font-size="9.00">index.tsx</text>
</a>
</g>
</g>
<!-- components/SocialMedia/Share/index.tsx&#45;&gt;components/SocialMedia/Button/index.tsx -->
<g id="edge41" class="edge">
<title>components/SocialMedia/Share/index.tsx&#45;&gt;components/SocialMedia/Button/index.tsx</title>
<path fill="none" stroke="#000000" stroke-width="2" stroke-opacity="0.200000" d="M287.56,-661.19C308.68,-693.42 379.14,-800.97 404.93,-840.34"/>
<polygon fill="#000000" fill-opacity="0.200000" stroke="#000000" stroke-width="2" stroke-opacity="0.200000" points="403.36,-841.77 408.4,-845.64 406.87,-839.47 403.36,-841.77"/>
</g>
<!-- components/SocialMedia/Share/style.module.scss -->
<g id="node40" class="node">
<title>components/SocialMedia/Share/style.module.scss</title>
<g id="a_node40"><a xlink:href="components/SocialMedia/Share/style.module.scss" xlink:title="style.module.scss">
<path fill="#ffffcc" stroke="black" d="M457.5,-660.94C457.5,-660.94 373.5,-660.94 373.5,-660.94 370.5,-660.94 367.5,-657.94 367.5,-654.94 367.5,-654.94 367.5,-648.94 367.5,-648.94 367.5,-645.94 370.5,-642.94 373.5,-642.94 373.5,-642.94 457.5,-642.94 457.5,-642.94 460.5,-642.94 463.5,-645.94 463.5,-648.94 463.5,-648.94 463.5,-654.94 463.5,-654.94 463.5,-657.94 460.5,-660.94 457.5,-660.94"/>
<text text-anchor="start" x="375.5" y="-649.74" font-family="Helvetica,sans-Serif" font-size="9.00">style.module.scss</text>
</a>
</g>
</g>
<!-- components/SocialMedia/Share/index.tsx&#45;&gt;components/SocialMedia/Share/style.module.scss -->
<g id="edge42" class="edge">
<title>components/SocialMedia/Share/index.tsx&#45;&gt;components/SocialMedia/Share/style.module.scss</title>
<path fill="none" stroke="#000000" stroke-width="2" stroke-opacity="0.200000" d="M309.71,-651.94C324.65,-651.94 343.5,-651.94 361.08,-651.94"/>
<polygon fill="#000000" fill-opacity="0.200000" stroke="#000000" stroke-width="2" stroke-opacity="0.200000" points="361.49,-654.04 367.49,-651.94 361.49,-649.84 361.49,-654.04"/>
</g>
<!-- components/_dynamic/Another.tsx -->
<g id="node43" class="node">
<title>components/_dynamic/Another.tsx</title>
<g id="a_node43"><a xlink:href="components/_dynamic/Another.tsx" xlink:title="Another.tsx">
<path fill="#ccffcc" stroke="black" d="M308.5,-354.94C308.5,-354.94 252.5,-354.94 252.5,-354.94 249.5,-354.94 246.5,-351.94 246.5,-348.94 246.5,-348.94 246.5,-342.94 246.5,-342.94 246.5,-339.94 249.5,-336.94 252.5,-336.94 252.5,-336.94 308.5,-336.94 308.5,-336.94 311.5,-336.94 314.5,-339.94 314.5,-342.94 314.5,-342.94 314.5,-348.94 314.5,-348.94 314.5,-351.94 311.5,-354.94 308.5,-354.94"/>
<text text-anchor="start" x="254.5" y="-343.74" font-family="Helvetica,sans-Serif" font-size="9.00">Another.tsx</text>
</a>
</g>
</g>
<!-- components/_dynamic/Ticker.tsx -->
<g id="node44" class="node">
<title>components/_dynamic/Ticker.tsx</title>
<g id="a_node44"><a xlink:href="components/_dynamic/Ticker.tsx" xlink:title="Ticker.tsx">
<path fill="#ccffcc" stroke="black" d="M304,-324.94C304,-324.94 257,-324.94 257,-324.94 254,-324.94 251,-321.94 251,-318.94 251,-318.94 251,-312.94 251,-312.94 251,-309.94 254,-306.94 257,-306.94 257,-306.94 304,-306.94 304,-306.94 307,-306.94 310,-309.94 310,-312.94 310,-312.94 310,-318.94 310,-318.94 310,-321.94 307,-324.94 304,-324.94"/>
<text text-anchor="start" x="259" y="-313.74" font-family="Helvetica,sans-Serif" font-size="9.00">Ticker.tsx</text>
</a>
</g>
</g>
<!-- directus/graphql/fetchData.ts -->
<g id="node45" class="node">
<title>directus/graphql/fetchData.ts</title>
<g id="a_node45"><a xlink:href="directus/graphql/fetchData.ts" xlink:title="fetchData.ts">
<path fill="#ddfeff" stroke="black" d="M1151.5,-472.94C1151.5,-472.94 1091.5,-472.94 1091.5,-472.94 1088.5,-472.94 1085.5,-469.94 1085.5,-466.94 1085.5,-466.94 1085.5,-460.94 1085.5,-460.94 1085.5,-457.94 1088.5,-454.94 1091.5,-454.94 1091.5,-454.94 1151.5,-454.94 1151.5,-454.94 1154.5,-454.94 1157.5,-457.94 1157.5,-460.94 1157.5,-460.94 1157.5,-466.94 1157.5,-466.94 1157.5,-469.94 1154.5,-472.94 1151.5,-472.94"/>
<text text-anchor="start" x="1093.5" y="-461.74" font-family="Helvetica,sans-Serif" font-size="9.00">fetchData.ts</text>
</a>
</g>
</g>
<!-- directus/graphql/getPageData.ts -->
<g id="node46" class="node">
<title>directus/graphql/getPageData.ts</title>
<g id="a_node46"><a xlink:href="directus/graphql/getPageData.ts" xlink:title="getPageData.ts">
<path fill="#ddfeff" stroke="black" d="M1053,-472.94C1053,-472.94 979,-472.94 979,-472.94 976,-472.94 973,-469.94 973,-466.94 973,-466.94 973,-460.94 973,-460.94 973,-457.94 976,-454.94 979,-454.94 979,-454.94 1053,-454.94 1053,-454.94 1056,-454.94 1059,-457.94 1059,-460.94 1059,-460.94 1059,-466.94 1059,-466.94 1059,-469.94 1056,-472.94 1053,-472.94"/>
<text text-anchor="start" x="981" y="-461.74" font-family="Helvetica,sans-Serif" font-size="9.00">getPageData.ts</text>
</a>
</g>
</g>
<!-- directus/graphql/getPageData.ts&#45;&gt;directus/graphql/fetchData.ts -->
<g id="edge45" class="edge">
<title>directus/graphql/getPageData.ts&#45;&gt;directus/graphql/fetchData.ts</title>
<path fill="none" stroke="#000000" stroke-width="2" stroke-opacity="0.200000" d="M1059.1,-463.94C1065.78,-463.94 1072.69,-463.94 1079.35,-463.94"/>
<polygon fill="#000000" fill-opacity="0.200000" stroke="#000000" stroke-width="2" stroke-opacity="0.200000" points="1079.39,-466.04 1085.39,-463.94 1079.39,-461.84 1079.39,-466.04"/>
</g>
<!-- directus/restAPI/fetchCollection.ts -->
<g id="node47" class="node">
<title>directus/restAPI/fetchCollection.ts</title>
<g id="a_node47"><a xlink:href="directus/restAPI/fetchCollection.ts" xlink:title="fetchCollection.ts">
<path fill="#ccffcc" stroke="black" d="M1057.5,-232.94C1057.5,-232.94 974.5,-232.94 974.5,-232.94 971.5,-232.94 968.5,-229.94 968.5,-226.94 968.5,-226.94 968.5,-220.94 968.5,-220.94 968.5,-217.94 971.5,-214.94 974.5,-214.94 974.5,-214.94 1057.5,-214.94 1057.5,-214.94 1060.5,-214.94 1063.5,-217.94 1063.5,-220.94 1063.5,-220.94 1063.5,-226.94 1063.5,-226.94 1063.5,-229.94 1060.5,-232.94 1057.5,-232.94"/>
<text text-anchor="start" x="976.5" y="-221.74" font-family="Helvetica,sans-Serif" font-size="9.00">fetchCollection.ts</text>
</a>
</g>
</g>
<!-- directus/restAPI/fetchItem.ts -->
<g id="node48" class="node">
<title>directus/restAPI/fetchItem.ts</title>
<g id="a_node48"><a xlink:href="directus/restAPI/fetchItem.ts" xlink:title="fetchItem.ts">
<path fill="#ccffcc" stroke="black" d="M1046,-202.94C1046,-202.94 986,-202.94 986,-202.94 983,-202.94 980,-199.94 980,-196.94 980,-196.94 980,-190.94 980,-190.94 980,-187.94 983,-184.94 986,-184.94 986,-184.94 1046,-184.94 1046,-184.94 1049,-184.94 1052,-187.94 1052,-190.94 1052,-190.94 1052,-196.94 1052,-196.94 1052,-199.94 1049,-202.94 1046,-202.94"/>
<text text-anchor="start" x="988" y="-191.74" font-family="Helvetica,sans-Serif" font-size="9.00">fetchItem.ts</text>
</a>
</g>
</g>
<!-- directus/sdk/getFileMetadata.ts -->
<g id="node49" class="node">
<title>directus/sdk/getFileMetadata.ts</title>
<g id="a_node49"><a xlink:href="directus/sdk/getFileMetadata.ts" xlink:title="getFileMetadata.ts">
<path fill="#ccffcc" stroke="black" d="M1059.5,-382.94C1059.5,-382.94 972.5,-382.94 972.5,-382.94 969.5,-382.94 966.5,-379.94 966.5,-376.94 966.5,-376.94 966.5,-370.94 966.5,-370.94 966.5,-367.94 969.5,-364.94 972.5,-364.94 972.5,-364.94 1059.5,-364.94 1059.5,-364.94 1062.5,-364.94 1065.5,-367.94 1065.5,-370.94 1065.5,-370.94 1065.5,-376.94 1065.5,-376.94 1065.5,-379.94 1062.5,-382.94 1059.5,-382.94"/>
<text text-anchor="start" x="974.5" y="-371.74" font-family="Helvetica,sans-Serif" font-size="9.00">getFileMetadata.ts</text>
</a>
</g>
</g>
<!-- directus/sdk/getMenus.ts -->
<g id="node50" class="node">
<title>directus/sdk/getMenus.ts</title>
<g id="a_node50"><a xlink:href="directus/sdk/getMenus.ts" xlink:title="getMenus.ts">
<path fill="#ddfeff" stroke="black" d="M1046,-412.94C1046,-412.94 986,-412.94 986,-412.94 983,-412.94 980,-409.94 980,-406.94 980,-406.94 980,-400.94 980,-400.94 980,-397.94 983,-394.94 986,-394.94 986,-394.94 1046,-394.94 1046,-394.94 1049,-394.94 1052,-397.94 1052,-400.94 1052,-400.94 1052,-406.94 1052,-406.94 1052,-409.94 1049,-412.94 1046,-412.94"/>
<text text-anchor="start" x="988" y="-401.74" font-family="Helvetica,sans-Serif" font-size="9.00">getMenus.ts</text>
</a>
</g>
</g>
<!-- directus/sdk/getPageProps.ts -->
<g id="node51" class="node">
<title>directus/sdk/getPageProps.ts</title>
<g id="a_node51"><a xlink:href="directus/sdk/getPageProps.ts" xlink:title="getPageProps.ts">
<path fill="#ddfeff" stroke="black" d="M1054.5,-322.94C1054.5,-322.94 977.5,-322.94 977.5,-322.94 974.5,-322.94 971.5,-319.94 971.5,-316.94 971.5,-316.94 971.5,-310.94 971.5,-310.94 971.5,-307.94 974.5,-304.94 977.5,-304.94 977.5,-304.94 1054.5,-304.94 1054.5,-304.94 1057.5,-304.94 1060.5,-307.94 1060.5,-310.94 1060.5,-310.94 1060.5,-316.94 1060.5,-316.94 1060.5,-319.94 1057.5,-322.94 1054.5,-322.94"/>
<text text-anchor="start" x="979.5" y="-311.74" font-family="Helvetica,sans-Serif" font-size="9.00">getPageProps.ts</text>
</a>
</g>
</g>
<!-- pages/[id].tsx -->
<g id="node52" class="node">
<title>pages/[id].tsx</title>
<g id="a_node52"><a xlink:href="pages/[id].tsx" xlink:title="[id].tsx">
<path fill="#bbfeff" stroke="black" d="M173,-266.94C173,-266.94 131,-266.94 131,-266.94 128,-266.94 125,-263.94 125,-260.94 125,-260.94 125,-254.94 125,-254.94 125,-251.94 128,-248.94 131,-248.94 131,-248.94 173,-248.94 173,-248.94 176,-248.94 179,-251.94 179,-254.94 179,-254.94 179,-260.94 179,-260.94 179,-263.94 176,-266.94 173,-266.94"/>
<text text-anchor="start" x="135.5" y="-255.74" font-family="Helvetica,sans-Serif" font-size="9.00">[id].tsx</text>
</a>
</g>
</g>
<!-- pages/[id].tsx&#45;&gt;components/Section/index.tsx -->
<g id="edge46" class="edge">
<title>pages/[id].tsx&#45;&gt;components/Section/index.tsx</title>
<path fill="none" stroke="#000000" stroke-width="2" stroke-opacity="0.200000" d="M179.02,-258.5C189.83,-260.17 201.47,-264.12 208.5,-272.94 222.44,-290.41 203.2,-455.98 216.5,-473.94 223.36,-483.21 234.42,-488.6 245.36,-491.72"/>
<polygon fill="#000000" fill-opacity="0.200000" stroke="#000000" stroke-width="2" stroke-opacity="0.200000" points="245.08,-493.81 251.41,-493.23 246.1,-489.74 245.08,-493.81"/>
</g>
<!-- pages/[id].tsx&#45;&gt;directus/sdk/getPageProps.ts -->
<g id="edge47" class="edge">
<title>pages/[id].tsx&#45;&gt;directus/sdk/getPageProps.ts</title>
<path fill="none" stroke="#000000" stroke-width="2" stroke-opacity="0.200000" d="M179.35,-257.94C226.52,-257.94 328.47,-257.94 414.5,-257.94 414.5,-257.94 414.5,-257.94 738.5,-257.94 828.16,-257.94 930.97,-286.57 982.29,-302.89"/>
<polygon fill="#000000" fill-opacity="0.200000" stroke="#000000" stroke-width="2" stroke-opacity="0.200000" points="981.93,-304.98 988.28,-304.82 983.21,-300.98 981.93,-304.98"/>
</g>
<!-- pages/_app.tsx -->
<g id="node53" class="node">
<title>pages/_app.tsx</title>
<g id="a_node53"><a xlink:href="pages/_app.tsx" xlink:title="_app.tsx">
<path fill="#bbfeff" stroke="black" d="M173.5,-296.94C173.5,-296.94 130.5,-296.94 130.5,-296.94 127.5,-296.94 124.5,-293.94 124.5,-290.94 124.5,-290.94 124.5,-284.94 124.5,-284.94 124.5,-281.94 127.5,-278.94 130.5,-278.94 130.5,-278.94 173.5,-278.94 173.5,-278.94 176.5,-278.94 179.5,-281.94 179.5,-284.94 179.5,-284.94 179.5,-290.94 179.5,-290.94 179.5,-293.94 176.5,-296.94 173.5,-296.94"/>
<text text-anchor="start" x="132.5" y="-285.74" font-family="Helvetica,sans-Serif" font-size="9.00">_app.tsx</text>
</a>
</g>
</g>
<!-- pages/_app.tsx&#45;&gt;Layout/index.tsx -->
<g id="edge50" class="edge">
<title>pages/_app.tsx&#45;&gt;Layout/index.tsx</title>
<path fill="none" stroke="#000000" stroke-width="2" stroke-opacity="0.200000" d="M124.17,-289.29C109.29,-291.57 91.85,-297.05 82,-309.94 55.84,-344.19 47.37,-1027.22 46.16,-1138.64"/>
<polygon fill="#000000" fill-opacity="0.200000" stroke="#000000" stroke-width="2" stroke-opacity="0.200000" points="44.06,-1138.85 46.09,-1144.87 48.26,-1138.89 44.06,-1138.85"/>
</g>
<!-- pages/_app.tsx&#45;&gt;components/Util/NoSsr.tsx -->
<g id="edge48" class="edge">
<title>pages/_app.tsx&#45;&gt;components/Util/NoSsr.tsx</title>
<path fill="none" stroke="#000000" stroke-width="2" stroke-opacity="0.200000" d="M179.73,-287.26C227.05,-286.12 328.69,-283.94 414.5,-283.94 414.5,-283.94 414.5,-283.94 570.5,-283.94 690.04,-283.94 702.9,-354.8 815.5,-394.94 822.45,-397.42 830,-399.69 837.26,-401.69"/>
<polygon fill="#000000" fill-opacity="0.200000" stroke="#000000" stroke-width="2" stroke-opacity="0.200000" points="836.93,-403.77 843.26,-403.29 838.01,-399.72 836.93,-403.77"/>
</g>
<!-- pages/_app.tsx&#45;&gt;directus/sdk/getMenus.ts -->
<g id="edge49" class="edge">
<title>pages/_app.tsx&#45;&gt;directus/sdk/getMenus.ts</title>
<path fill="none" stroke="#000000" stroke-width="2" stroke-opacity="0.200000" d="M179.68,-291.91C190.47,-294.97 201.92,-300.38 208.5,-309.94 229.57,-340.56 198.94,-946.18 216.5,-978.94 266.83,-1072.81 307.99,-1113.94 414.5,-1113.94 414.5,-1113.94 414.5,-1113.94 738.5,-1113.94 799.64,-1113.94 780.12,-1049.6 807.5,-994.94 873.94,-862.3 906.41,-832.77 938.5,-687.94 944.37,-661.46 932.61,-467.24 946.5,-443.94 954.21,-431 967.84,-421.82 980.92,-415.54"/>
<polygon fill="#000000" fill-opacity="0.200000" stroke="#000000" stroke-width="2" stroke-opacity="0.200000" points="981.87,-417.41 986.47,-413.03 980.14,-413.59 981.87,-417.41"/>
</g>
<!-- styles/globals.scss -->
<g id="node54" class="node">
<title>styles/globals.scss</title>
<g id="a_node54"><a xlink:href="styles/globals.scss" xlink:title="globals.scss">
<path fill="#ffffcc" stroke="black" d="M309.5,-130.94C309.5,-130.94 251.5,-130.94 251.5,-130.94 248.5,-130.94 245.5,-127.94 245.5,-124.94 245.5,-124.94 245.5,-118.94 245.5,-118.94 245.5,-115.94 248.5,-112.94 251.5,-112.94 251.5,-112.94 309.5,-112.94 309.5,-112.94 312.5,-112.94 315.5,-115.94 315.5,-118.94 315.5,-118.94 315.5,-124.94 315.5,-124.94 315.5,-127.94 312.5,-130.94 309.5,-130.94"/>
<text text-anchor="start" x="253.5" y="-119.74" font-family="Helvetica,sans-Serif" font-size="9.00">globals.scss</text>
</a>
</g>
</g>
<!-- pages/_app.tsx&#45;&gt;styles/globals.scss -->
<g id="edge51" class="edge">
<title>pages/_app.tsx&#45;&gt;styles/globals.scss</title>
<path fill="none" stroke="#000000" stroke-width="2" stroke-opacity="0.200000" d="M179.52,-287.23C190.15,-285.5 201.51,-281.54 208.5,-272.94 227.74,-249.28 196.73,-159.16 216.5,-135.94 222.28,-129.15 230.56,-125.22 239.23,-123.04"/>
<polygon fill="#000000" fill-opacity="0.200000" stroke="#000000" stroke-width="2" stroke-opacity="0.200000" points="239.81,-125.07 245.26,-121.8 238.96,-120.96 239.81,-125.07"/>
</g>
<!-- pages/api/auth/directus.ts -->
<g id="node55" class="node">
<title>pages/api/auth/directus.ts</title>
<g id="a_node55"><a xlink:href="pages/api/auth/directus.ts" xlink:title="directus.ts">
<path fill="#ccffcc" stroke="black" d="M178.5,-338.94C178.5,-338.94 125.5,-338.94 125.5,-338.94 122.5,-338.94 119.5,-335.94 119.5,-332.94 119.5,-332.94 119.5,-326.94 119.5,-326.94 119.5,-323.94 122.5,-320.94 125.5,-320.94 125.5,-320.94 178.5,-320.94 178.5,-320.94 181.5,-320.94 184.5,-323.94 184.5,-326.94 184.5,-326.94 184.5,-332.94 184.5,-332.94 184.5,-335.94 181.5,-338.94 178.5,-338.94"/>
<text text-anchor="start" x="127.5" y="-327.74" font-family="Helvetica,sans-Serif" font-size="9.00">directus.ts</text>
</a>
</g>
</g>
<!-- pages/blog/[id].tsx -->
<g id="node56" class="node">
<title>pages/blog/[id].tsx</title>
<g id="a_node56"><a xlink:href="pages/blog/[id].tsx" xlink:title="[id].tsx">
<path fill="#bbfeff" stroke="black" d="M173,-154.94C173,-154.94 131,-154.94 131,-154.94 128,-154.94 125,-151.94 125,-148.94 125,-148.94 125,-142.94 125,-142.94 125,-139.94 128,-136.94 131,-136.94 131,-136.94 173,-136.94 173,-136.94 176,-136.94 179,-139.94 179,-142.94 179,-142.94 179,-148.94 179,-148.94 179,-151.94 176,-154.94 173,-154.94"/>
<text text-anchor="start" x="135.5" y="-143.74" font-family="Helvetica,sans-Serif" font-size="9.00">[id].tsx</text>
</a>
</g>
</g>
<!-- pages/blog/[id].tsx&#45;&gt;components/Blog/PostFull.tsx -->
<g id="edge52" class="edge">
<title>pages/blog/[id].tsx&#45;&gt;components/Blog/PostFull.tsx</title>
<path fill="none" stroke="#000000" stroke-width="2" stroke-opacity="0.200000" d="M179.04,-146.49C189.85,-148.15 201.48,-152.11 208.5,-160.94 223.92,-180.35 201.79,-363.98 216.5,-383.94 222.42,-391.97 231.49,-397.09 240.92,-400.34"/>
<polygon fill="#000000" fill-opacity="0.200000" stroke="#000000" stroke-width="2" stroke-opacity="0.200000" points="240.46,-402.4 246.81,-402.14 241.68,-398.38 240.46,-402.4"/>
</g>
<!-- pages/blog/[id].tsx&#45;&gt;utils/getAssetURL.ts -->
<g id="edge54" class="edge">
<title>pages/blog/[id].tsx&#45;&gt;utils/getAssetURL.ts</title>
<path fill="none" stroke="#000000" stroke-width="2" stroke-opacity="0.200000" d="M156.18,-136.87C163.44,-117.68 183.22,-73.15 216.5,-53.94 292.96,-9.79 326.21,-37.94 414.5,-37.94 414.5,-37.94 414.5,-37.94 738.5,-37.94 829.33,-37.94 872.83,-17.19 938.5,-79.94 948.79,-89.77 936.25,-101.07 946.5,-110.94 952.3,-116.53 959.67,-120.23 967.42,-122.65"/>
<polygon fill="#000000" fill-opacity="0.200000" stroke="#000000" stroke-width="2" stroke-opacity="0.200000" points="967.06,-124.72 973.4,-124.25 968.15,-120.67 967.06,-124.72"/>
</g>
<!-- pages/blog/[id].tsx&#45;&gt;directus/graphql/fetchData.ts -->
<g id="edge53" class="edge">
<title>pages/blog/[id].tsx&#45;&gt;directus/graphql/fetchData.ts</title>
<path fill="none" stroke="#000000" stroke-width="2" stroke-opacity="0.200000" d="M154.74,-136.69C159.65,-113.4 176.01,-52.31 216.5,-25.94 290.42,22.21 326.28,-11.94 414.5,-11.94 414.5,-11.94 414.5,-11.94 874,-11.94 965.36,-11.94 1014.21,24.95 1077.5,-40.94 1106.29,-70.92 1117.71,-375.58 1120.03,-448.38"/>
<polygon fill="#000000" fill-opacity="0.200000" stroke="#000000" stroke-width="2" stroke-opacity="0.200000" points="1117.94,-448.75 1120.23,-454.68 1122.14,-448.62 1117.94,-448.75"/>
</g>
<!-- pages/blog/index.tsx -->
<g id="node57" class="node">
<title>pages/blog/index.tsx</title>
<g id="a_node57"><a xlink:href="pages/blog/index.tsx" xlink:title="index.tsx">
<path fill="#bbfeff" stroke="black" d="M175,-184.94C175,-184.94 129,-184.94 129,-184.94 126,-184.94 123,-181.94 123,-178.94 123,-178.94 123,-172.94 123,-172.94 123,-169.94 126,-166.94 129,-166.94 129,-166.94 175,-166.94 175,-166.94 178,-166.94 181,-169.94 181,-172.94 181,-172.94 181,-178.94 181,-178.94 181,-181.94 178,-184.94 175,-184.94"/>
<text text-anchor="start" x="131" y="-173.74" font-family="Helvetica,sans-Serif" font-size="9.00">index.tsx</text>
</a>
</g>
</g>
<!-- pages/blog/index.tsx&#45;&gt;components/Blog/PostExcerpt.tsx -->
<g id="edge55" class="edge">
<title>pages/blog/index.tsx&#45;&gt;components/Blog/PostExcerpt.tsx</title>
<path fill="none" stroke="#000000" stroke-width="2" stroke-opacity="0.200000" d="M181.27,-175.79C191.38,-177.28 201.91,-180.91 208.5,-188.94 224.87,-208.87 200.17,-400.98 216.5,-420.94 220.4,-425.7 225.51,-429.12 231.14,-431.54"/>
<polygon fill="#000000" fill-opacity="0.200000" stroke="#000000" stroke-width="2" stroke-opacity="0.200000" points="230.56,-433.56 236.91,-433.64 232,-429.61 230.56,-433.56"/>
</g>
<!-- pages/blog/index.tsx&#45;&gt;utils/getAssetURL.ts -->
<g id="edge57" class="edge">
<title>pages/blog/index.tsx&#45;&gt;utils/getAssetURL.ts</title>
<path fill="none" stroke="#000000" stroke-width="2" stroke-opacity="0.200000" d="M181.22,-174.6C191.2,-172.68 201.65,-168.74 208.5,-160.94 225.96,-141.06 197.11,-119.94 216.5,-101.94 248.81,-71.95 370.42,-89.94 414.5,-89.94 414.5,-89.94 414.5,-89.94 738.5,-89.94 819.14,-89.94 911.91,-105.18 966.88,-115.83"/>
<polygon fill="#000000" fill-opacity="0.200000" stroke="#000000" stroke-width="2" stroke-opacity="0.200000" points="966.77,-117.95 973.06,-117.04 967.58,-113.83 966.77,-117.95"/>
</g>
<!-- pages/blog/index.tsx&#45;&gt;directus/graphql/fetchData.ts -->
<g id="edge56" class="edge">
<title>pages/blog/index.tsx&#45;&gt;directus/graphql/fetchData.ts</title>
<path fill="none" stroke="#000000" stroke-width="2" stroke-opacity="0.200000" d="M181.07,-174.78C191.17,-172.89 201.72,-168.93 208.5,-160.94 220.05,-147.31 203.78,-93.48 216.5,-80.94 247.95,-49.93 370.34,-63.94 414.5,-63.94 414.5,-63.94 414.5,-63.94 874,-63.94 964.6,-63.94 1011.81,-13.54 1077.5,-75.94 1105,-102.06 1117.28,-379.07 1119.94,-448.32"/>
<polygon fill="#000000" fill-opacity="0.200000" stroke="#000000" stroke-width="2" stroke-opacity="0.200000" points="1117.85,-448.78 1120.18,-454.7 1122.05,-448.63 1117.85,-448.78"/>
</g>
<!-- pages/index.tsx -->
<g id="node58" class="node">
<title>pages/index.tsx</title>
<g id="a_node58"><a xlink:href="pages/index.tsx" xlink:title="index.tsx">
<path fill="#bbfeff" stroke="black" d="M175,-236.94C175,-236.94 129,-236.94 129,-236.94 126,-236.94 123,-233.94 123,-230.94 123,-230.94 123,-224.94 123,-224.94 123,-221.94 126,-218.94 129,-218.94 129,-218.94 175,-218.94 175,-218.94 178,-218.94 181,-221.94 181,-224.94 181,-224.94 181,-230.94 181,-230.94 181,-233.94 178,-236.94 175,-236.94"/>
<text text-anchor="start" x="131" y="-225.74" font-family="Helvetica,sans-Serif" font-size="9.00">index.tsx</text>
</a>
</g>
</g>
<!-- pages/index.tsx&#45;&gt;components/Section/index.tsx -->
<g id="edge58" class="edge">
<title>pages/index.tsx&#45;&gt;components/Section/index.tsx</title>
<path fill="none" stroke="#000000" stroke-width="2" stroke-opacity="0.200000" d="M181.06,-228.82C191.28,-230.66 201.92,-234.65 208.5,-242.94 224.46,-263.06 201.27,-453.26 216.5,-473.94 223.34,-483.23 234.39,-488.62 245.34,-491.74"/>
<polygon fill="#000000" fill-opacity="0.200000" stroke="#000000" stroke-width="2" stroke-opacity="0.200000" points="245.05,-493.83 251.38,-493.25 246.07,-489.76 245.05,-493.83"/>
</g>
<!-- pages/index.tsx&#45;&gt;directus/sdk/getPageProps.ts -->
<g id="edge59" class="edge">
<title>pages/index.tsx&#45;&gt;directus/sdk/getPageProps.ts</title>
<path fill="none" stroke="#000000" stroke-width="2" stroke-opacity="0.200000" d="M181.25,-228.65C229.2,-229.81 329.59,-231.94 414.5,-231.94 414.5,-231.94 414.5,-231.94 738.5,-231.94 828.32,-231.94 871.64,-200.97 938.5,-260.94 949.09,-270.44 936.74,-281.59 946.5,-291.94 951.72,-297.48 958.34,-301.62 965.39,-304.73"/>
<polygon fill="#000000" fill-opacity="0.200000" stroke="#000000" stroke-width="2" stroke-opacity="0.200000" points="965.05,-306.85 971.4,-307.1 966.59,-302.94 965.05,-306.85"/>
</g>
<!-- styles/pages/start.module.scss -->
<g id="node59" class="node">
<title>styles/pages/start.module.scss</title>
<g id="a_node59"><a xlink:href="styles/pages/start.module.scss" xlink:title="start.module.scss">
<path fill="#ffffcc" stroke="black" d="M322.5,-164.94C322.5,-164.94 238.5,-164.94 238.5,-164.94 235.5,-164.94 232.5,-161.94 232.5,-158.94 232.5,-158.94 232.5,-152.94 232.5,-152.94 232.5,-149.94 235.5,-146.94 238.5,-146.94 238.5,-146.94 322.5,-146.94 322.5,-146.94 325.5,-146.94 328.5,-149.94 328.5,-152.94 328.5,-152.94 328.5,-158.94 328.5,-158.94 328.5,-161.94 325.5,-164.94 322.5,-164.94"/>
<text text-anchor="start" x="240.5" y="-153.74" font-family="Helvetica,sans-Serif" font-size="9.00">start.module.scss</text>
</a>
</g>
</g>
<!-- pages/index.tsx&#45;&gt;styles/pages/start.module.scss -->
<g id="edge60" class="edge">
<title>pages/index.tsx&#45;&gt;styles/pages/start.module.scss</title>
<path fill="none" stroke="#000000" stroke-width="2" stroke-opacity="0.200000" d="M181.24,-223.33C190.25,-221.2 200.07,-218.18 208.5,-213.94 231.04,-202.6 252.89,-183.06 266.26,-169.83"/>
<polygon fill="#000000" fill-opacity="0.200000" stroke="#000000" stroke-width="2" stroke-opacity="0.200000" points="268.06,-171 270.79,-165.27 265.07,-168.05 268.06,-171"/>
</g>
<!-- utils/encodeURL.ts -->
<g id="node60" class="node">
<title>utils/encodeURL.ts</title>
<g id="a_node60"><a xlink:href="utils/encodeURL.ts" xlink:title="encodeURL.ts">
<path fill="#ccffcc" stroke="black" d="M1049.5,-104.94C1049.5,-104.94 982.5,-104.94 982.5,-104.94 979.5,-104.94 976.5,-101.94 976.5,-98.94 976.5,-98.94 976.5,-92.94 976.5,-92.94 976.5,-89.94 979.5,-86.94 982.5,-86.94 982.5,-86.94 1049.5,-86.94 1049.5,-86.94 1052.5,-86.94 1055.5,-89.94 1055.5,-92.94 1055.5,-92.94 1055.5,-98.94 1055.5,-98.94 1055.5,-101.94 1052.5,-104.94 1049.5,-104.94"/>
<text text-anchor="start" x="984.5" y="-93.74" font-family="Helvetica,sans-Serif" font-size="9.00">encodeURL.ts</text>
</a>
</g>
</g>
</g>
</svg>
