<?xml version="1.0" encoding="UTF-8" standalone="no"?>
<!DOCTYPE svg PUBLIC "-//W3C//DTD SVG 1.1//EN"
 "http://www.w3.org/Graphics/SVG/1.1/DTD/svg11.dtd">
<!-- Generated by graphviz version 2.50.0 (0)
 -->
<!-- Title: dependency&#45;cruiser output Pages: 1 -->
<svg width="990pt" height="1600pt"
 viewBox="0.00 0.00 990.00 1600.21" xmlns="http://www.w3.org/2000/svg" xmlns:xlink="http://www.w3.org/1999/xlink">
<g id="graph0" class="graph" transform="scale(1 1) rotate(0) translate(4 1596.21)">
<title>dependency&#45;cruiser output</title>
<polygon fill="white" stroke="transparent" points="-4,4 -4,-1596.21 986,-1596.21 986,4 -4,4"/>
<g id="clust1" class="cluster">
<title>cluster_components</title>
<path fill="#ffffff" stroke="black" stroke-width="2" d="M147,-190.21C147,-190.21 962,-190.21 962,-190.21 968,-190.21 974,-196.21 974,-202.21 974,-202.21 974,-556.21 974,-556.21 974,-562.21 968,-568.21 962,-568.21 962,-568.21 147,-568.21 147,-568.21 141,-568.21 135,-562.21 135,-556.21 135,-556.21 135,-202.21 135,-202.21 135,-196.21 141,-190.21 147,-190.21"/>
<text text-anchor="middle" x="554.5" y="-557.01" font-family="Helvetica,sans-Serif" font-weight="bold" font-size="9.00">components</text>
</g>
<g id="clust2" class="cluster">
<title>cluster_components/Blog</title>
<path fill="#ffffff" stroke="black" stroke-width="2" d="M537.5,-198.21C537.5,-198.21 616.5,-198.21 616.5,-198.21 622.5,-198.21 628.5,-204.21 628.5,-210.21 628.5,-210.21 628.5,-268.21 628.5,-268.21 628.5,-274.21 622.5,-280.21 616.5,-280.21 616.5,-280.21 537.5,-280.21 537.5,-280.21 531.5,-280.21 525.5,-274.21 525.5,-268.21 525.5,-268.21 525.5,-210.21 525.5,-210.21 525.5,-204.21 531.5,-198.21 537.5,-198.21"/>
<text text-anchor="middle" x="577" y="-269.01" font-family="Helvetica,sans-Serif" font-weight="bold" font-size="9.00">Blog</text>
</g>
<g id="clust3" class="cluster">
<title>cluster_components/Editor</title>
<path fill="#ffffff" stroke="black" stroke-width="2" d="M424,-466.21C424,-466.21 635,-466.21 635,-466.21 641,-466.21 647,-472.21 647,-478.21 647,-478.21 647,-506.21 647,-506.21 647,-512.21 641,-518.21 635,-518.21 635,-518.21 424,-518.21 424,-518.21 418,-518.21 412,-512.21 412,-506.21 412,-506.21 412,-478.21 412,-478.21 412,-472.21 418,-466.21 424,-466.21"/>
<text text-anchor="middle" x="529.5" y="-507.01" font-family="Helvetica,sans-Serif" font-weight="bold" font-size="9.00">Editor</text>
</g>
<g id="clust4" class="cluster">
<title>cluster_components/Section</title>
<path fill="#ffffff" stroke="black" stroke-width="2" d="M160,-288.21C160,-288.21 621,-288.21 621,-288.21 627,-288.21 633,-294.21 633,-300.21 633,-300.21 633,-446.21 633,-446.21 633,-452.21 627,-458.21 621,-458.21 621,-458.21 160,-458.21 160,-458.21 154,-458.21 148,-452.21 148,-446.21 148,-446.21 148,-300.21 148,-300.21 148,-294.21 154,-288.21 160,-288.21"/>
<text text-anchor="middle" x="390.5" y="-447.01" font-family="Helvetica,sans-Serif" font-weight="bold" font-size="9.00">Section</text>
</g>
<g id="clust5" class="cluster">
<title>cluster_components/Util</title>
<path fill="#ffffff" stroke="black" stroke-width="2" d="M691.5,-307.21C691.5,-307.21 954,-307.21 954,-307.21 960,-307.21 966,-313.21 966,-319.21 966,-319.21 966,-377.21 966,-377.21 966,-383.21 960,-389.21 954,-389.21 954,-389.21 691.5,-389.21 691.5,-389.21 685.5,-389.21 679.5,-383.21 679.5,-377.21 679.5,-377.21 679.5,-319.21 679.5,-319.21 679.5,-313.21 685.5,-307.21 691.5,-307.21"/>
<text text-anchor="middle" x="822.75" y="-378.01" font-family="Helvetica,sans-Serif" font-weight="bold" font-size="9.00">Util</text>
</g>
<g id="clust6" class="cluster">
<title>cluster_components/_dynamic</title>
<path fill="#ffffff" stroke="black" stroke-width="2" d="M155,-198.21C155,-198.21 215,-198.21 215,-198.21 221,-198.21 227,-204.21 227,-210.21 227,-210.21 227,-268.21 227,-268.21 227,-274.21 221,-280.21 215,-280.21 215,-280.21 155,-280.21 155,-280.21 149,-280.21 143,-274.21 143,-268.21 143,-268.21 143,-210.21 143,-210.21 143,-204.21 149,-198.21 155,-198.21"/>
<text text-anchor="middle" x="185" y="-269.01" font-family="Helvetica,sans-Serif" font-weight="bold" font-size="9.00">_dynamic</text>
</g>
<g id="clust7" class="cluster">
<title>cluster_layout</title>
<path fill="#ffffff" stroke="black" stroke-width="2" d="M160,-576.21C160,-576.21 831,-576.21 831,-576.21 837,-576.21 843,-582.21 843,-588.21 843,-588.21 843,-1268.21 843,-1268.21 843,-1274.21 837,-1280.21 831,-1280.21 831,-1280.21 160,-1280.21 160,-1280.21 154,-1280.21 148,-1274.21 148,-1268.21 148,-1268.21 148,-588.21 148,-588.21 148,-582.21 154,-576.21 160,-576.21"/>
<text text-anchor="middle" x="495.5" y="-1269.01" font-family="Helvetica,sans-Serif" font-weight="bold" font-size="9.00">layout</text>
</g>
<g id="clust8" class="cluster">
<title>cluster_layout/Footer</title>
<path fill="#ffffff" stroke="black" stroke-width="2" d="M302,-584.21C302,-584.21 495,-584.21 495,-584.21 501,-584.21 507,-590.21 507,-596.21 507,-596.21 507,-624.21 507,-624.21 507,-630.21 501,-636.21 495,-636.21 495,-636.21 302,-636.21 302,-636.21 296,-636.21 290,-630.21 290,-624.21 290,-624.21 290,-596.21 290,-596.21 290,-590.21 296,-584.21 302,-584.21"/>
<text text-anchor="middle" x="398.5" y="-625.01" font-family="Helvetica,sans-Serif" font-weight="bold" font-size="9.00">Footer</text>
</g>
<g id="clust9" class="cluster">
<title>cluster_layout/Header</title>
<path fill="#ffffff" stroke="black" stroke-width="2" d="M269,-1098.21C269,-1098.21 621,-1098.21 621,-1098.21 627,-1098.21 633,-1104.21 633,-1110.21 633,-1110.21 633,-1242.21 633,-1242.21 633,-1248.21 627,-1254.21 621,-1254.21 621,-1254.21 269,-1254.21 269,-1254.21 263,-1254.21 257,-1248.21 257,-1242.21 257,-1242.21 257,-1110.21 257,-1110.21 257,-1104.21 263,-1098.21 269,-1098.21"/>
<text text-anchor="middle" x="445" y="-1243.01" font-family="Helvetica,sans-Serif" font-weight="bold" font-size="9.00">Header</text>
</g>
<g id="clust10" class="cluster">
<title>cluster_layout/Header/Menu</title>
<path fill="#ffffff" stroke="black" stroke-width="2" d="M277,-1176.21C277,-1176.21 495,-1176.21 495,-1176.21 501,-1176.21 507,-1182.21 507,-1188.21 507,-1188.21 507,-1216.21 507,-1216.21 507,-1222.21 501,-1228.21 495,-1228.21 495,-1228.21 277,-1228.21 277,-1228.21 271,-1228.21 265,-1222.21 265,-1216.21 265,-1216.21 265,-1188.21 265,-1188.21 265,-1182.21 271,-1176.21 277,-1176.21"/>
<text text-anchor="middle" x="386" y="-1217.01" font-family="Helvetica,sans-Serif" font-weight="bold" font-size="9.00">Menu</text>
</g>
<g id="clust11" class="cluster">
<title>cluster_layout/SocialMedia</title>
<path fill="#ffffff" stroke="black" stroke-width="2" d="M418,-644.21C418,-644.21 823,-644.21 823,-644.21 829,-644.21 835,-650.21 835,-656.21 835,-656.21 835,-1078.21 835,-1078.21 835,-1084.21 829,-1090.21 823,-1090.21 823,-1090.21 418,-1090.21 418,-1090.21 412,-1090.21 406,-1084.21 406,-1078.21 406,-1078.21 406,-656.21 406,-656.21 406,-650.21 412,-644.21 418,-644.21"/>
<text text-anchor="middle" x="620.5" y="-1079.01" font-family="Helvetica,sans-Serif" font-weight="bold" font-size="9.00">SocialMedia</text>
</g>
<g id="clust12" class="cluster">
<title>cluster_layout/SocialMedia/Button</title>
<path fill="#ffffff" stroke="black" stroke-width="2" d="M552,-712.21C552,-712.21 815,-712.21 815,-712.21 821,-712.21 827,-718.21 827,-724.21 827,-724.21 827,-1052.21 827,-1052.21 827,-1058.21 821,-1064.21 815,-1064.21 815,-1064.21 552,-1064.21 552,-1064.21 546,-1064.21 540,-1058.21 540,-1052.21 540,-1052.21 540,-724.21 540,-724.21 540,-718.21 546,-712.21 552,-712.21"/>
<text text-anchor="middle" x="683.5" y="-1053.01" font-family="Helvetica,sans-Serif" font-weight="bold" font-size="9.00">Button</text>
</g>
<g id="clust13" class="cluster">
<title>cluster_layout/SocialMedia/Button/icons</title>
<path fill="#ffffff" stroke="black" stroke-width="2" d="M667,-720.21C667,-720.21 807,-720.21 807,-720.21 813,-720.21 819,-726.21 819,-732.21 819,-732.21 819,-1000.21 819,-1000.21 819,-1006.21 813,-1012.21 807,-1012.21 807,-1012.21 667,-1012.21 667,-1012.21 661,-1012.21 655,-1006.21 655,-1000.21 655,-1000.21 655,-732.21 655,-732.21 655,-726.21 661,-720.21 667,-720.21"/>
<text text-anchor="middle" x="737" y="-1001.01" font-family="Helvetica,sans-Serif" font-weight="bold" font-size="9.00">icons</text>
</g>
<g id="clust14" class="cluster">
<title>cluster_layout/SocialMedia/Follow</title>
<path fill="#ffffff" stroke="black" stroke-width="2" d="M426,-761.21C426,-761.21 476,-761.21 476,-761.21 482,-761.21 488,-767.21 488,-773.21 488,-773.21 488,-801.21 488,-801.21 488,-807.21 482,-813.21 476,-813.21 476,-813.21 426,-813.21 426,-813.21 420,-813.21 414,-807.21 414,-801.21 414,-801.21 414,-773.21 414,-773.21 414,-767.21 420,-761.21 426,-761.21"/>
<text text-anchor="middle" x="451" y="-802.01" font-family="Helvetica,sans-Serif" font-weight="bold" font-size="9.00">Follow</text>
</g>
<g id="clust15" class="cluster">
<title>cluster_layout/SocialMedia/Share</title>
<path fill="#ffffff" stroke="black" stroke-width="2" d="M426,-652.21C426,-652.21 621,-652.21 621,-652.21 627,-652.21 633,-658.21 633,-664.21 633,-664.21 633,-692.21 633,-692.21 633,-698.21 627,-704.21 621,-704.21 621,-704.21 426,-704.21 426,-704.21 420,-704.21 414,-698.21 414,-692.21 414,-692.21 414,-664.21 414,-664.21 414,-658.21 420,-652.21 426,-652.21"/>
<text text-anchor="middle" x="523.5" y="-693.01" font-family="Helvetica,sans-Serif" font-weight="bold" font-size="9.00">Share</text>
</g>
<g id="clust16" class="cluster">
<title>cluster_pages</title>
<path fill="#ffffff" stroke="black" stroke-width="2" d="M20,-1288.21C20,-1288.21 225.5,-1288.21 225.5,-1288.21 231.5,-1288.21 237.5,-1294.21 237.5,-1300.21 237.5,-1300.21 237.5,-1572.21 237.5,-1572.21 237.5,-1578.21 231.5,-1584.21 225.5,-1584.21 225.5,-1584.21 20,-1584.21 20,-1584.21 14,-1584.21 8,-1578.21 8,-1572.21 8,-1572.21 8,-1300.21 8,-1300.21 8,-1294.21 14,-1288.21 20,-1288.21"/>
<text text-anchor="middle" x="122.75" y="-1573.01" font-family="Helvetica,sans-Serif" font-weight="bold" font-size="9.00">pages</text>
</g>
<g id="clust17" class="cluster">
<title>cluster_pages/api</title>
<path fill="#ffffff" stroke="black" stroke-width="2" d="M28,-1472.21C28,-1472.21 101,-1472.21 101,-1472.21 107,-1472.21 113,-1478.21 113,-1484.21 113,-1484.21 113,-1546.21 113,-1546.21 113,-1552.21 107,-1558.21 101,-1558.21 101,-1558.21 28,-1558.21 28,-1558.21 22,-1558.21 16,-1552.21 16,-1546.21 16,-1546.21 16,-1484.21 16,-1484.21 16,-1478.21 22,-1472.21 28,-1472.21"/>
<text text-anchor="middle" x="64.5" y="-1547.01" font-family="Helvetica,sans-Serif" font-weight="bold" font-size="9.00">api</text>
</g>
<g id="clust18" class="cluster">
<title>cluster_pages/api/auth</title>
<path fill="#ffffff" stroke="black" stroke-width="2" d="M36,-1480.21C36,-1480.21 93,-1480.21 93,-1480.21 99,-1480.21 105,-1486.21 105,-1492.21 105,-1492.21 105,-1520.21 105,-1520.21 105,-1526.21 99,-1532.21 93,-1532.21 93,-1532.21 36,-1532.21 36,-1532.21 30,-1532.21 24,-1526.21 24,-1520.21 24,-1520.21 24,-1492.21 24,-1492.21 24,-1486.21 30,-1480.21 36,-1480.21"/>
<text text-anchor="middle" x="64.5" y="-1521.01" font-family="Helvetica,sans-Serif" font-weight="bold" font-size="9.00">auth</text>
</g>
<g id="clust19" class="cluster">
<title>cluster_pages/blog</title>
<path fill="#ffffff" stroke="black" stroke-width="2" d="M39.5,-1382.21C39.5,-1382.21 217,-1382.21 217,-1382.21 223,-1382.21 229,-1388.21 229,-1394.21 229,-1394.21 229,-1452.21 229,-1452.21 229,-1458.21 223,-1464.21 217,-1464.21 217,-1464.21 39.5,-1464.21 39.5,-1464.21 33.5,-1464.21 27.5,-1458.21 27.5,-1452.21 27.5,-1452.21 27.5,-1394.21 27.5,-1394.21 27.5,-1388.21 33.5,-1382.21 39.5,-1382.21"/>
<text text-anchor="middle" x="128.25" y="-1453.01" font-family="Helvetica,sans-Serif" font-weight="bold" font-size="9.00">blog</text>
</g>
<g id="clust20" class="cluster">
<title>cluster_styles</title>
<path fill="#ffffff" stroke="black" stroke-width="2" d="M133,-70.21C133,-70.21 237,-70.21 237,-70.21 243,-70.21 249,-76.21 249,-82.21 249,-82.21 249,-170.21 249,-170.21 249,-176.21 243,-182.21 237,-182.21 237,-182.21 133,-182.21 133,-182.21 127,-182.21 121,-176.21 121,-170.21 121,-170.21 121,-82.21 121,-82.21 121,-76.21 127,-70.21 133,-70.21"/>
<text text-anchor="middle" x="185" y="-171.01" font-family="Helvetica,sans-Serif" font-weight="bold" font-size="9.00">styles</text>
</g>
<g id="clust21" class="cluster">
<title>cluster_styles/pages</title>
<path fill="#ffffff" stroke="black" stroke-width="2" d="M141,-78.21C141,-78.21 229,-78.21 229,-78.21 235,-78.21 241,-84.21 241,-90.21 241,-90.21 241,-118.21 241,-118.21 241,-124.21 235,-130.21 229,-130.21 229,-130.21 141,-130.21 141,-130.21 135,-130.21 129,-124.21 129,-118.21 129,-118.21 129,-90.21 129,-90.21 129,-84.21 135,-78.21 141,-78.21"/>
<text text-anchor="middle" x="185" y="-119.01" font-family="Helvetica,sans-Serif" font-weight="bold" font-size="9.00">pages</text>
</g>
<!-- components/Blog/PostExcerpt.tsx -->
<g id="node1" class="node">
<title>components/Blog/PostExcerpt.tsx</title>
<g id="a_node1"><a xlink:href="components/Blog/PostExcerpt.tsx" xlink:title="PostExcerpt.tsx">
<path fill="#bbfeff" stroke="black" d="M614.5,-224.21C614.5,-224.21 539.5,-224.21 539.5,-224.21 536.5,-224.21 533.5,-221.21 533.5,-218.21 533.5,-218.21 533.5,-212.21 533.5,-212.21 533.5,-209.21 536.5,-206.21 539.5,-206.21 539.5,-206.21 614.5,-206.21 614.5,-206.21 617.5,-206.21 620.5,-209.21 620.5,-212.21 620.5,-212.21 620.5,-218.21 620.5,-218.21 620.5,-221.21 617.5,-224.21 614.5,-224.21"/>
<text text-anchor="start" x="541.5" y="-213.01" font-family="Helvetica,sans-Serif" font-size="9.00">PostExcerpt.tsx</text>
</a>
</g>
</g>
<!-- components/Util/DirectusImage.tsx -->
<g id="node2" class="node">
<title>components/Util/DirectusImage.tsx</title>
<g id="a_node2"><a xlink:href="components/Util/DirectusImage.tsx" xlink:title="DirectusImage.tsx">
<path fill="#bbfeff" stroke="black" d="M780.5,-333.21C780.5,-333.21 693.5,-333.21 693.5,-333.21 690.5,-333.21 687.5,-330.21 687.5,-327.21 687.5,-327.21 687.5,-321.21 687.5,-321.21 687.5,-318.21 690.5,-315.21 693.5,-315.21 693.5,-315.21 780.5,-315.21 780.5,-315.21 783.5,-315.21 786.5,-318.21 786.5,-321.21 786.5,-321.21 786.5,-327.21 786.5,-327.21 786.5,-330.21 783.5,-333.21 780.5,-333.21"/>
<text text-anchor="start" x="695.5" y="-322.01" font-family="Helvetica,sans-Serif" font-size="9.00">DirectusImage.tsx</text>
</a>
</g>
</g>
<!-- components/Blog/PostExcerpt.tsx&#45;&gt;components/Util/DirectusImage.tsx -->
<g id="edge1" class="edge">
<title>components/Blog/PostExcerpt.tsx&#45;&gt;components/Util/DirectusImage.tsx</title>
<path fill="none" stroke="#000000" stroke-width="2" stroke-opacity="0.200000" d="M620.69,-220.33C629.75,-222.54 638.99,-225.69 647,-230.21 682.4,-250.17 712.2,-288.84 726.64,-309.82"/>
<polygon fill="#000000" fill-opacity="0.200000" stroke="#000000" stroke-width="2" stroke-opacity="0.200000" points="725.04,-311.2 730.14,-315 728.52,-308.85 725.04,-311.2"/>
</g>
<!-- components/Util/fetchFileMetadata.ts -->
<g id="node18" class="node">
<title>components/Util/fetchFileMetadata.ts</title>
<g id="a_node18"><a xlink:href="components/Util/fetchFileMetadata.ts" xlink:title="fetchFileMetadata.ts">
<path fill="#ddfeff" stroke="black" d="M952,-333.21C952,-333.21 857,-333.21 857,-333.21 854,-333.21 851,-330.21 851,-327.21 851,-327.21 851,-321.21 851,-321.21 851,-318.21 854,-315.21 857,-315.21 857,-315.21 952,-315.21 952,-315.21 955,-315.21 958,-318.21 958,-321.21 958,-321.21 958,-327.21 958,-327.21 958,-330.21 955,-333.21 952,-333.21"/>
<text text-anchor="start" x="859" y="-322.01" font-family="Helvetica,sans-Serif" font-size="9.00">fetchFileMetadata.ts</text>
</a>
</g>
</g>
<!-- components/Util/DirectusImage.tsx&#45;&gt;components/Util/fetchFileMetadata.ts -->
<g id="edge23" class="edge">
<title>components/Util/DirectusImage.tsx&#45;&gt;components/Util/fetchFileMetadata.ts</title>
<path fill="none" stroke="#000000" stroke-width="2" stroke-opacity="0.200000" d="M786.76,-324.21C804.84,-324.21 825.53,-324.21 844.43,-324.21"/>
<polygon fill="#000000" fill-opacity="0.200000" stroke="#000000" stroke-width="2" stroke-opacity="0.200000" points="844.76,-326.31 850.76,-324.21 844.76,-322.11 844.76,-326.31"/>
</g>
<!-- components/Util/getAssetURL.ts -->
<g id="node19" class="node">
<title>components/Util/getAssetURL.ts</title>
<g id="a_node19"><a xlink:href="components/Util/getAssetURL.ts" xlink:title="getAssetURL.ts">
<path fill="#ddfeff" stroke="black" d="M941,-363.21C941,-363.21 868,-363.21 868,-363.21 865,-363.21 862,-360.21 862,-357.21 862,-357.21 862,-351.21 862,-351.21 862,-348.21 865,-345.21 868,-345.21 868,-345.21 941,-345.21 941,-345.21 944,-345.21 947,-348.21 947,-351.21 947,-351.21 947,-357.21 947,-357.21 947,-360.21 944,-363.21 941,-363.21"/>
<text text-anchor="start" x="870" y="-352.01" font-family="Helvetica,sans-Serif" font-size="9.00">getAssetURL.ts</text>
</a>
</g>
</g>
<!-- components/Util/DirectusImage.tsx&#45;&gt;components/Util/getAssetURL.ts -->
<g id="edge24" class="edge">
<title>components/Util/DirectusImage.tsx&#45;&gt;components/Util/getAssetURL.ts</title>
<path fill="none" stroke="#000000" stroke-width="2" stroke-opacity="0.200000" d="M786.52,-330.1C804.35,-332.54 824.65,-335.63 843,-339.21 849.67,-340.51 856.7,-342.07 863.53,-343.69"/>
<polygon fill="#000000" fill-opacity="0.200000" stroke="#000000" stroke-width="2" stroke-opacity="0.200000" points="863.39,-345.82 869.72,-345.19 864.38,-341.74 863.39,-345.82"/>
</g>
<!-- components/Blog/PostFull.tsx -->
<g id="node3" class="node">
<title>components/Blog/PostFull.tsx</title>
<g id="a_node3"><a xlink:href="components/Blog/PostFull.tsx" xlink:title="PostFull.tsx">
<path fill="#bbfeff" stroke="black" d="M604.5,-254.21C604.5,-254.21 549.5,-254.21 549.5,-254.21 546.5,-254.21 543.5,-251.21 543.5,-248.21 543.5,-248.21 543.5,-242.21 543.5,-242.21 543.5,-239.21 546.5,-236.21 549.5,-236.21 549.5,-236.21 604.5,-236.21 604.5,-236.21 607.5,-236.21 610.5,-239.21 610.5,-242.21 610.5,-242.21 610.5,-248.21 610.5,-248.21 610.5,-251.21 607.5,-254.21 604.5,-254.21"/>
<text text-anchor="start" x="551.5" y="-243.01" font-family="Helvetica,sans-Serif" font-size="9.00">PostFull.tsx</text>
</a>
</g>
</g>
<!-- components/Blog/PostFull.tsx&#45;&gt;components/Util/DirectusImage.tsx -->
<g id="edge2" class="edge">
<title>components/Blog/PostFull.tsx&#45;&gt;components/Util/DirectusImage.tsx</title>
<path fill="none" stroke="#000000" stroke-width="2" stroke-opacity="0.200000" d="M596.12,-254.27C624.66,-268.54 680.1,-296.26 711.94,-312.18"/>
<polygon fill="#000000" fill-opacity="0.200000" stroke="#000000" stroke-width="2" stroke-opacity="0.200000" points="711.29,-314.2 717.6,-315.01 713.17,-310.45 711.29,-314.2"/>
</g>
<!-- components/Editor/ButtonRow.module.scss -->
<g id="node4" class="node">
<title>components/Editor/ButtonRow.module.scss</title>
<g id="a_node4"><a xlink:href="components/Editor/ButtonRow.module.scss" xlink:title="ButtonRow.module.scss">
<path fill="#ffffcc" stroke="black" d="M633,-492.21C633,-492.21 521,-492.21 521,-492.21 518,-492.21 515,-489.21 515,-486.21 515,-486.21 515,-480.21 515,-480.21 515,-477.21 518,-474.21 521,-474.21 521,-474.21 633,-474.21 633,-474.21 636,-474.21 639,-477.21 639,-480.21 639,-480.21 639,-486.21 639,-486.21 639,-489.21 636,-492.21 633,-492.21"/>
<text text-anchor="start" x="523" y="-481.01" font-family="Helvetica,sans-Serif" font-size="9.00">ButtonRow.module.scss</text>
</a>
</g>
</g>
<!-- components/Editor/Tiptap.tsx -->
<g id="node5" class="node">
<title>components/Editor/Tiptap.tsx</title>
<g id="a_node5"><a xlink:href="components/Editor/Tiptap.tsx" xlink:title="Tiptap.tsx">
<path fill="#bbfeff" stroke="black" d="M476,-492.21C476,-492.21 426,-492.21 426,-492.21 423,-492.21 420,-489.21 420,-486.21 420,-486.21 420,-480.21 420,-480.21 420,-477.21 423,-474.21 426,-474.21 426,-474.21 476,-474.21 476,-474.21 479,-474.21 482,-477.21 482,-480.21 482,-480.21 482,-486.21 482,-486.21 482,-489.21 479,-492.21 476,-492.21"/>
<text text-anchor="start" x="428" y="-481.01" font-family="Helvetica,sans-Serif" font-size="9.00">Tiptap.tsx</text>
</a>
</g>
</g>
<!-- components/Editor/Tiptap.tsx&#45;&gt;components/Editor/ButtonRow.module.scss -->
<g id="edge3" class="edge">
<title>components/Editor/Tiptap.tsx&#45;&gt;components/Editor/ButtonRow.module.scss</title>
<path fill="none" stroke="#000000" stroke-width="2" stroke-opacity="0.200000" d="M482.02,-483.21C490.13,-483.21 499.25,-483.21 508.54,-483.21"/>
<polygon fill="#000000" fill-opacity="0.200000" stroke="#000000" stroke-width="2" stroke-opacity="0.200000" points="508.65,-485.31 514.65,-483.21 508.65,-481.11 508.65,-485.31"/>
</g>
<!-- components/Section/EditElement.tsx -->
<g id="node6" class="node">
<title>components/Section/EditElement.tsx</title>
<g id="a_node6"><a xlink:href="components/Section/EditElement.tsx" xlink:title="EditElement.tsx">
<path fill="#bbfeff" stroke="black" d="M489.5,-358.21C489.5,-358.21 412.5,-358.21 412.5,-358.21 409.5,-358.21 406.5,-355.21 406.5,-352.21 406.5,-352.21 406.5,-346.21 406.5,-346.21 406.5,-343.21 409.5,-340.21 412.5,-340.21 412.5,-340.21 489.5,-340.21 489.5,-340.21 492.5,-340.21 495.5,-343.21 495.5,-346.21 495.5,-346.21 495.5,-352.21 495.5,-352.21 495.5,-355.21 492.5,-358.21 489.5,-358.21"/>
<text text-anchor="start" x="414.5" y="-347.01" font-family="Helvetica,sans-Serif" font-size="9.00">EditElement.tsx</text>
</a>
</g>
</g>
<!-- components/Util/NoSsr.tsx -->
<g id="node7" class="node">
<title>components/Util/NoSsr.tsx</title>
<g id="a_node7"><a xlink:href="components/Util/NoSsr.tsx" xlink:title="NoSsr.tsx">
<path fill="#bbfeff" stroke="black" d="M760.5,-363.21C760.5,-363.21 713.5,-363.21 713.5,-363.21 710.5,-363.21 707.5,-360.21 707.5,-357.21 707.5,-357.21 707.5,-351.21 707.5,-351.21 707.5,-348.21 710.5,-345.21 713.5,-345.21 713.5,-345.21 760.5,-345.21 760.5,-345.21 763.5,-345.21 766.5,-348.21 766.5,-351.21 766.5,-351.21 766.5,-357.21 766.5,-357.21 766.5,-360.21 763.5,-363.21 760.5,-363.21"/>
<text text-anchor="start" x="715.5" y="-352.01" font-family="Helvetica,sans-Serif" font-size="9.00">NoSsr.tsx</text>
</a>
</g>
</g>
<!-- components/Section/EditElement.tsx&#45;&gt;components/Util/NoSsr.tsx -->
<g id="edge4" class="edge">
<title>components/Section/EditElement.tsx&#45;&gt;components/Util/NoSsr.tsx</title>
<path fill="none" stroke="#000000" stroke-width="2" stroke-opacity="0.200000" d="M495.61,-341.38C502.09,-340.48 508.71,-339.71 515,-339.21 573.49,-334.6 588.54,-334.32 647,-339.21 664.92,-340.71 684.66,-343.88 700.99,-346.92"/>
<polygon fill="#000000" fill-opacity="0.200000" stroke="#000000" stroke-width="2" stroke-opacity="0.200000" points="701.01,-349.06 707.3,-348.12 701.79,-344.93 701.01,-349.06"/>
</g>
<!-- components/Section/EditIcon.tsx -->
<g id="node8" class="node">
<title>components/Section/EditIcon.tsx</title>
<g id="a_node8"><a xlink:href="components/Section/EditIcon.tsx" xlink:title="EditIcon.tsx">
<path fill="#bbfeff" stroke="black" d="M606.5,-363.21C606.5,-363.21 547.5,-363.21 547.5,-363.21 544.5,-363.21 541.5,-360.21 541.5,-357.21 541.5,-357.21 541.5,-351.21 541.5,-351.21 541.5,-348.21 544.5,-345.21 547.5,-345.21 547.5,-345.21 606.5,-345.21 606.5,-345.21 609.5,-345.21 612.5,-348.21 612.5,-351.21 612.5,-351.21 612.5,-357.21 612.5,-357.21 612.5,-360.21 609.5,-363.21 606.5,-363.21"/>
<text text-anchor="start" x="549.5" y="-352.01" font-family="Helvetica,sans-Serif" font-size="9.00">EditIcon.tsx</text>
</a>
</g>
</g>
<!-- components/Section/EditElement.tsx&#45;&gt;components/Section/EditIcon.tsx -->
<g id="edge5" class="edge">
<title>components/Section/EditElement.tsx&#45;&gt;components/Section/EditIcon.tsx</title>
<path fill="none" stroke="#000000" stroke-width="2" stroke-opacity="0.200000" d="M495.72,-350.97C508.54,-351.49 522.51,-352.05 535.15,-352.56"/>
<polygon fill="#000000" fill-opacity="0.200000" stroke="#000000" stroke-width="2" stroke-opacity="0.200000" points="535.15,-354.66 541.23,-352.81 535.32,-350.47 535.15,-354.66"/>
</g>
<!-- components/Section/style.module.scss -->
<g id="node9" class="node">
<title>components/Section/style.module.scss</title>
<g id="a_node9"><a xlink:href="components/Section/style.module.scss" xlink:title="style.module.scss">
<path fill="#ffffcc" stroke="black" d="M619,-404.21C619,-404.21 535,-404.21 535,-404.21 532,-404.21 529,-401.21 529,-398.21 529,-398.21 529,-392.21 529,-392.21 529,-389.21 532,-386.21 535,-386.21 535,-386.21 619,-386.21 619,-386.21 622,-386.21 625,-389.21 625,-392.21 625,-392.21 625,-398.21 625,-398.21 625,-401.21 622,-404.21 619,-404.21"/>
<text text-anchor="start" x="537" y="-393.01" font-family="Helvetica,sans-Serif" font-size="9.00">style.module.scss</text>
</a>
</g>
</g>
<!-- components/Section/EditElement.tsx&#45;&gt;components/Section/style.module.scss -->
<g id="edge6" class="edge">
<title>components/Section/EditElement.tsx&#45;&gt;components/Section/style.module.scss</title>
<path fill="none" stroke="#000000" stroke-width="2" stroke-opacity="0.200000" d="M490.66,-358.21C496.24,-359.95 501.83,-361.95 507,-364.21 510.84,-365.89 511.28,-367.27 515,-369.21 525.07,-374.46 536.43,-379.53 546.6,-383.77"/>
<polygon fill="#000000" fill-opacity="0.200000" stroke="#000000" stroke-width="2" stroke-opacity="0.200000" points="546.09,-385.82 552.43,-386.17 547.68,-381.94 546.09,-385.82"/>
</g>
<!-- components/Section/EditIcon.tsx&#45;&gt;components/Util/NoSsr.tsx -->
<g id="edge7" class="edge">
<title>components/Section/EditIcon.tsx&#45;&gt;components/Util/NoSsr.tsx</title>
<path fill="none" stroke="#000000" stroke-width="2" stroke-opacity="0.200000" d="M612.67,-354.21C639,-354.21 675.03,-354.21 701.34,-354.21"/>
<polygon fill="#000000" fill-opacity="0.200000" stroke="#000000" stroke-width="2" stroke-opacity="0.200000" points="701.48,-356.31 707.48,-354.21 701.48,-352.11 701.48,-356.31"/>
</g>
<!-- components/Section/EditSection.tsx -->
<g id="node10" class="node">
<title>components/Section/EditSection.tsx</title>
<g id="a_node10"><a xlink:href="components/Section/EditSection.tsx" xlink:title="EditSection.tsx">
<path fill="#bbfeff" stroke="black" d="M363.5,-358.21C363.5,-358.21 290.5,-358.21 290.5,-358.21 287.5,-358.21 284.5,-355.21 284.5,-352.21 284.5,-352.21 284.5,-346.21 284.5,-346.21 284.5,-343.21 287.5,-340.21 290.5,-340.21 290.5,-340.21 363.5,-340.21 363.5,-340.21 366.5,-340.21 369.5,-343.21 369.5,-346.21 369.5,-346.21 369.5,-352.21 369.5,-352.21 369.5,-355.21 366.5,-358.21 363.5,-358.21"/>
<text text-anchor="start" x="292.5" y="-347.01" font-family="Helvetica,sans-Serif" font-size="9.00">EditSection.tsx</text>
</a>
</g>
</g>
<!-- components/Section/EditSection.tsx&#45;&gt;components/Section/EditIcon.tsx -->
<g id="edge8" class="edge">
<title>components/Section/EditSection.tsx&#45;&gt;components/Section/EditIcon.tsx</title>
<path fill="none" stroke="#000000" stroke-width="2" stroke-opacity="0.200000" d="M338.8,-340.11C352.63,-329.1 377.83,-311.18 403,-304.21 447.55,-291.87 463.03,-289.95 507,-304.21 529.06,-311.36 549.97,-328.5 562.87,-340.72"/>
<polygon fill="#000000" fill-opacity="0.200000" stroke="#000000" stroke-width="2" stroke-opacity="0.200000" points="561.48,-342.29 567.25,-344.96 564.41,-339.28 561.48,-342.29"/>
</g>
<!-- components/Section/EditSection.tsx&#45;&gt;components/Section/style.module.scss -->
<g id="edge10" class="edge">
<title>components/Section/EditSection.tsx&#45;&gt;components/Section/style.module.scss</title>
<path fill="none" stroke="#000000" stroke-width="2" stroke-opacity="0.200000" d="M369.56,-353.65C376.95,-355.93 384.15,-359.29 390,-364.21 401.12,-373.57 390.88,-386.2 403,-394.21 422.03,-406.78 479.36,-404.79 522.85,-401.09"/>
<polygon fill="#000000" fill-opacity="0.200000" stroke="#000000" stroke-width="2" stroke-opacity="0.200000" points="523.1,-403.17 528.89,-400.56 522.73,-398.99 523.1,-403.17"/>
</g>
<!-- components/Section/SelectColor.tsx -->
<g id="node11" class="node">
<title>components/Section/SelectColor.tsx</title>
<g id="a_node11"><a xlink:href="components/Section/SelectColor.tsx" xlink:title="SelectColor.tsx">
<path fill="#bbfeff" stroke="black" d="M486.5,-388.21C486.5,-388.21 415.5,-388.21 415.5,-388.21 412.5,-388.21 409.5,-385.21 409.5,-382.21 409.5,-382.21 409.5,-376.21 409.5,-376.21 409.5,-373.21 412.5,-370.21 415.5,-370.21 415.5,-370.21 486.5,-370.21 486.5,-370.21 489.5,-370.21 492.5,-373.21 492.5,-376.21 492.5,-376.21 492.5,-382.21 492.5,-382.21 492.5,-385.21 489.5,-388.21 486.5,-388.21"/>
<text text-anchor="start" x="417.5" y="-377.01" font-family="Helvetica,sans-Serif" font-size="9.00">SelectColor.tsx</text>
</a>
</g>
</g>
<!-- components/Section/EditSection.tsx&#45;&gt;components/Section/SelectColor.tsx -->
<g id="edge9" class="edge">
<title>components/Section/EditSection.tsx&#45;&gt;components/Section/SelectColor.tsx</title>
<path fill="none" stroke="#000000" stroke-width="2" stroke-opacity="0.200000" d="M365.72,-358.29C373.73,-360.23 382.15,-362.28 390,-364.21 395.86,-365.65 402.05,-367.18 408.13,-368.7"/>
<polygon fill="#000000" fill-opacity="0.200000" stroke="#000000" stroke-width="2" stroke-opacity="0.200000" points="407.83,-370.79 414.16,-370.2 408.85,-366.71 407.83,-370.79"/>
</g>
<!-- components/Section/updateSection.ts -->
<g id="node12" class="node">
<title>components/Section/updateSection.ts</title>
<g id="a_node12"><a xlink:href="components/Section/updateSection.ts" xlink:title="updateSection.ts">
<path fill="#ddfeff" stroke="black" d="M492,-328.21C492,-328.21 410,-328.21 410,-328.21 407,-328.21 404,-325.21 404,-322.21 404,-322.21 404,-316.21 404,-316.21 404,-313.21 407,-310.21 410,-310.21 410,-310.21 492,-310.21 492,-310.21 495,-310.21 498,-313.21 498,-316.21 498,-316.21 498,-322.21 498,-322.21 498,-325.21 495,-328.21 492,-328.21"/>
<text text-anchor="start" x="412" y="-317.01" font-family="Helvetica,sans-Serif" font-size="9.00">updateSection.ts</text>
</a>
</g>
</g>
<!-- components/Section/EditSection.tsx&#45;&gt;components/Section/updateSection.ts -->
<g id="edge11" class="edge">
<title>components/Section/EditSection.tsx&#45;&gt;components/Section/updateSection.ts</title>
<path fill="none" stroke="#000000" stroke-width="2" stroke-opacity="0.200000" d="M364.6,-340.21C377.99,-336.92 393.26,-333.16 407.14,-329.75"/>
<polygon fill="#000000" fill-opacity="0.200000" stroke="#000000" stroke-width="2" stroke-opacity="0.200000" points="407.68,-331.78 413,-328.31 406.67,-327.7 407.68,-331.78"/>
</g>
<!-- components/Section/SelectColor.tsx&#45;&gt;components/Section/style.module.scss -->
<g id="edge14" class="edge">
<title>components/Section/SelectColor.tsx&#45;&gt;components/Section/style.module.scss</title>
<path fill="none" stroke="#000000" stroke-width="2" stroke-opacity="0.200000" d="M492.6,-384.45C502.19,-385.69 512.57,-387.02 522.63,-388.32"/>
<polygon fill="#000000" fill-opacity="0.200000" stroke="#000000" stroke-width="2" stroke-opacity="0.200000" points="522.63,-390.44 528.84,-389.12 523.16,-386.27 522.63,-390.44"/>
</g>
<!-- components/Section/SectionWrapper.tsx -->
<g id="node13" class="node">
<title>components/Section/SectionWrapper.tsx</title>
<g id="a_node13"><a xlink:href="components/Section/SectionWrapper.tsx" xlink:title="SectionWrapper.tsx">
<path fill="#bbfeff" stroke="black" d="M373,-418.21C373,-418.21 281,-418.21 281,-418.21 278,-418.21 275,-415.21 275,-412.21 275,-412.21 275,-406.21 275,-406.21 275,-403.21 278,-400.21 281,-400.21 281,-400.21 373,-400.21 373,-400.21 376,-400.21 379,-403.21 379,-406.21 379,-406.21 379,-412.21 379,-412.21 379,-415.21 376,-418.21 373,-418.21"/>
<text text-anchor="start" x="283" y="-407.01" font-family="Helvetica,sans-Serif" font-size="9.00">SectionWrapper.tsx</text>
</a>
</g>
</g>
<!-- components/Section/SectionsTextEditable.tsx -->
<g id="node14" class="node">
<title>components/Section/SectionsTextEditable.tsx</title>
<g id="a_node14"><a xlink:href="components/Section/SectionsTextEditable.tsx" xlink:title="SectionsTextEditable.tsx">
<path fill="#bbfeff" stroke="black" d="M384,-388.21C384,-388.21 270,-388.21 270,-388.21 267,-388.21 264,-385.21 264,-382.21 264,-382.21 264,-376.21 264,-376.21 264,-373.21 267,-370.21 270,-370.21 270,-370.21 384,-370.21 384,-370.21 387,-370.21 390,-373.21 390,-376.21 390,-376.21 390,-382.21 390,-382.21 390,-385.21 387,-388.21 384,-388.21"/>
<text text-anchor="start" x="272" y="-377.01" font-family="Helvetica,sans-Serif" font-size="9.00">SectionsTextEditable.tsx</text>
</a>
</g>
</g>
<!-- components/Section/SectionsTextEditable.tsx&#45;&gt;components/Editor/Tiptap.tsx -->
<g id="edge12" class="edge">
<title>components/Section/SectionsTextEditable.tsx&#45;&gt;components/Editor/Tiptap.tsx</title>
<path fill="none" stroke="#000000" stroke-width="2" stroke-opacity="0.200000" d="M382.84,-388.37C385.44,-390.04 387.86,-391.97 390,-394.21 410.95,-416.14 384.35,-437.29 403,-461.21 406.11,-465.19 410.11,-468.49 414.46,-471.2"/>
<polygon fill="#000000" fill-opacity="0.200000" stroke="#000000" stroke-width="2" stroke-opacity="0.200000" points="413.44,-473.03 419.7,-474.13 415.49,-469.37 413.44,-473.03"/>
</g>
<!-- components/Section/SectionsTextEditable.tsx&#45;&gt;components/Section/EditElement.tsx -->
<g id="edge13" class="edge">
<title>components/Section/SectionsTextEditable.tsx&#45;&gt;components/Section/EditElement.tsx</title>
<path fill="none" stroke="#000000" stroke-width="2" stroke-opacity="0.200000" d="M365.72,-370.13C373.73,-368.19 382.15,-366.14 390,-364.21 395.86,-362.77 402.05,-361.23 408.13,-359.72"/>
<polygon fill="#000000" fill-opacity="0.200000" stroke="#000000" stroke-width="2" stroke-opacity="0.200000" points="408.85,-361.71 414.16,-358.22 407.83,-357.63 408.85,-361.71"/>
</g>
<!-- components/Section/Sort.tsx -->
<g id="node15" class="node">
<title>components/Section/Sort.tsx</title>
<g id="a_node15"><a xlink:href="components/Section/Sort.tsx" xlink:title="Sort.tsx">
<path fill="#ccffcc" stroke="black" d="M206,-432.21C206,-432.21 164,-432.21 164,-432.21 161,-432.21 158,-429.21 158,-426.21 158,-426.21 158,-420.21 158,-420.21 158,-417.21 161,-414.21 164,-414.21 164,-414.21 206,-414.21 206,-414.21 209,-414.21 212,-417.21 212,-420.21 212,-420.21 212,-426.21 212,-426.21 212,-429.21 209,-432.21 206,-432.21"/>
<text text-anchor="start" x="167" y="-421.01" font-family="Helvetica,sans-Serif" font-size="9.00">Sort.tsx</text>
</a>
</g>
</g>
<!-- components/Section/index.tsx -->
<g id="node16" class="node">
<title>components/Section/index.tsx</title>
<g id="a_node16"><a xlink:href="components/Section/index.tsx" xlink:title="index.tsx">
<path fill="#bbfeff" stroke="black" d="M208,-402.21C208,-402.21 162,-402.21 162,-402.21 159,-402.21 156,-399.21 156,-396.21 156,-396.21 156,-390.21 156,-390.21 156,-387.21 159,-384.21 162,-384.21 162,-384.21 208,-384.21 208,-384.21 211,-384.21 214,-387.21 214,-390.21 214,-390.21 214,-396.21 214,-396.21 214,-399.21 211,-402.21 208,-402.21"/>
<text text-anchor="start" x="164" y="-391.01" font-family="Helvetica,sans-Serif" font-size="9.00">index.tsx</text>
</a>
</g>
</g>
<!-- components/Section/index.tsx&#45;&gt;components/Util/DirectusImage.tsx -->
<g id="edge15" class="edge">
<title>components/Section/index.tsx&#45;&gt;components/Util/DirectusImage.tsx</title>
<path fill="none" stroke="#000000" stroke-width="2" stroke-opacity="0.200000" d="M214.02,-393.84C226.13,-395.51 239.65,-399.44 249,-408.21 257.82,-416.48 249.53,-424.7 257,-434.21 303.67,-493.61 330.17,-501.16 403,-521.21 429.14,-528.41 627.41,-539.95 647,-521.21 661.62,-507.21 641.72,-354.48 655,-339.21 661.83,-331.36 671.31,-326.76 681.39,-324.2"/>
<polygon fill="#000000" fill-opacity="0.200000" stroke="#000000" stroke-width="2" stroke-opacity="0.200000" points="681.95,-326.22 687.38,-322.91 681.07,-322.12 681.95,-326.22"/>
</g>
<!-- components/Section/index.tsx&#45;&gt;components/Section/EditElement.tsx -->
<g id="edge17" class="edge">
<title>components/Section/index.tsx&#45;&gt;components/Section/EditElement.tsx</title>
<path fill="none" stroke="#000000" stroke-width="2" stroke-opacity="0.200000" d="M193.49,-383.75C205.25,-369.76 229.57,-344.12 257,-334.21 310.26,-314.97 377.01,-327.55 416.43,-338.4"/>
<polygon fill="#000000" fill-opacity="0.200000" stroke="#000000" stroke-width="2" stroke-opacity="0.200000" points="416.17,-340.51 422.51,-340.13 417.31,-336.47 416.17,-340.51"/>
</g>
<!-- components/Section/index.tsx&#45;&gt;components/Util/NoSsr.tsx -->
<g id="edge16" class="edge">
<title>components/Section/index.tsx&#45;&gt;components/Util/NoSsr.tsx</title>
<path fill="none" stroke="#000000" stroke-width="2" stroke-opacity="0.200000" d="M214.05,-392.78C226.63,-394.16 240.52,-398.16 249,-408.21 266.67,-429.14 237.01,-512.48 257,-531.21 288.62,-560.84 610.11,-553.95 647,-531.21 706.26,-494.68 727.45,-405.27 733.72,-369.43"/>
<polygon fill="#000000" fill-opacity="0.200000" stroke="#000000" stroke-width="2" stroke-opacity="0.200000" points="735.81,-369.65 734.73,-363.39 731.67,-368.96 735.81,-369.65"/>
</g>
<!-- components/Section/index.tsx&#45;&gt;components/Section/EditSection.tsx -->
<g id="edge18" class="edge">
<title>components/Section/index.tsx&#45;&gt;components/Section/EditSection.tsx</title>
<path fill="none" stroke="#000000" stroke-width="2" stroke-opacity="0.200000" d="M205.56,-384.15C219.63,-377.89 239.2,-369.73 257,-364.21 263.86,-362.08 271.19,-360.14 278.43,-358.41"/>
<polygon fill="#000000" fill-opacity="0.200000" stroke="#000000" stroke-width="2" stroke-opacity="0.200000" points="279.09,-360.41 284.47,-357.01 278.15,-356.32 279.09,-360.41"/>
</g>
<!-- components/Section/index.tsx&#45;&gt;components/Section/SectionWrapper.tsx -->
<g id="edge20" class="edge">
<title>components/Section/index.tsx&#45;&gt;components/Section/SectionWrapper.tsx</title>
<path fill="none" stroke="#000000" stroke-width="2" stroke-opacity="0.200000" d="M214.33,-396.45C229.91,-398.23 249.81,-400.5 268.49,-402.64"/>
<polygon fill="#000000" fill-opacity="0.200000" stroke="#000000" stroke-width="2" stroke-opacity="0.200000" points="268.57,-404.76 274.77,-403.35 269.05,-400.59 268.57,-404.76"/>
</g>
<!-- components/Section/index.tsx&#45;&gt;components/Section/SectionsTextEditable.tsx -->
<g id="edge19" class="edge">
<title>components/Section/index.tsx&#45;&gt;components/Section/SectionsTextEditable.tsx</title>
<path fill="none" stroke="#000000" stroke-width="2" stroke-opacity="0.200000" d="M214.33,-390.38C226.96,-389.11 242.43,-387.57 257.78,-386.03"/>
<polygon fill="#000000" fill-opacity="0.200000" stroke="#000000" stroke-width="2" stroke-opacity="0.200000" points="258.12,-388.11 263.88,-385.42 257.7,-383.93 258.12,-388.11"/>
</g>
<!-- components/Section/style.utlis.ts -->
<g id="node17" class="node">
<title>components/Section/style.utlis.ts</title>
<g id="a_node17"><a xlink:href="components/Section/style.utlis.ts" xlink:title="style.utlis.ts">
<path fill="#ddfeff" stroke="black" d="M480.5,-432.21C480.5,-432.21 421.5,-432.21 421.5,-432.21 418.5,-432.21 415.5,-429.21 415.5,-426.21 415.5,-426.21 415.5,-420.21 415.5,-420.21 415.5,-417.21 418.5,-414.21 421.5,-414.21 421.5,-414.21 480.5,-414.21 480.5,-414.21 483.5,-414.21 486.5,-417.21 486.5,-420.21 486.5,-420.21 486.5,-426.21 486.5,-426.21 486.5,-429.21 483.5,-432.21 480.5,-432.21"/>
<text text-anchor="start" x="423.5" y="-421.01" font-family="Helvetica,sans-Serif" font-size="9.00">style.utlis.ts</text>
</a>
</g>
</g>
<!-- components/Section/index.tsx&#45;&gt;components/Section/style.utlis.ts -->
<g id="edge21" class="edge">
<title>components/Section/index.tsx&#45;&gt;components/Section/style.utlis.ts</title>
<path fill="none" stroke="#000000" stroke-width="2" stroke-opacity="0.200000" d="M214.01,-394.68C225.84,-396.54 239.13,-400.38 249,-408.21 255.23,-413.15 250.24,-420.03 257,-424.21 307.28,-455.29 330.89,-424.7 390,-424.21 396.17,-424.16 402.7,-424.08 409.09,-423.98"/>
<polygon fill="#000000" fill-opacity="0.200000" stroke="#000000" stroke-width="2" stroke-opacity="0.200000" points="409.45,-426.08 415.42,-423.88 409.39,-421.88 409.45,-426.08"/>
</g>
<!-- components/Section/style.utlis.ts&#45;&gt;components/Section/style.module.scss -->
<g id="edge22" class="edge">
<title>components/Section/style.utlis.ts&#45;&gt;components/Section/style.module.scss</title>
<path fill="none" stroke="#000000" stroke-width="2" stroke-opacity="0.200000" d="M486.54,-415.41C499.96,-412.38 515.53,-408.86 529.88,-405.62"/>
<polygon fill="#000000" fill-opacity="0.200000" stroke="#000000" stroke-width="2" stroke-opacity="0.200000" points="530.56,-407.62 535.95,-404.25 529.63,-403.53 530.56,-407.62"/>
</g>
<!-- components/_dynamic/Another.tsx -->
<g id="node20" class="node">
<title>components/_dynamic/Another.tsx</title>
<g id="a_node20"><a xlink:href="components/_dynamic/Another.tsx" xlink:title="Another.tsx">
<path fill="#ccffcc" stroke="black" d="M213,-254.21C213,-254.21 157,-254.21 157,-254.21 154,-254.21 151,-251.21 151,-248.21 151,-248.21 151,-242.21 151,-242.21 151,-239.21 154,-236.21 157,-236.21 157,-236.21 213,-236.21 213,-236.21 216,-236.21 219,-239.21 219,-242.21 219,-242.21 219,-248.21 219,-248.21 219,-251.21 216,-254.21 213,-254.21"/>
<text text-anchor="start" x="159" y="-243.01" font-family="Helvetica,sans-Serif" font-size="9.00">Another.tsx</text>
</a>
</g>
</g>
<!-- components/_dynamic/Ticker.tsx -->
<g id="node21" class="node">
<title>components/_dynamic/Ticker.tsx</title>
<g id="a_node21"><a xlink:href="components/_dynamic/Ticker.tsx" xlink:title="Ticker.tsx">
<path fill="#ccffcc" stroke="black" d="M208.5,-224.21C208.5,-224.21 161.5,-224.21 161.5,-224.21 158.5,-224.21 155.5,-221.21 155.5,-218.21 155.5,-218.21 155.5,-212.21 155.5,-212.21 155.5,-209.21 158.5,-206.21 161.5,-206.21 161.5,-206.21 208.5,-206.21 208.5,-206.21 211.5,-206.21 214.5,-209.21 214.5,-212.21 214.5,-212.21 214.5,-218.21 214.5,-218.21 214.5,-221.21 211.5,-224.21 208.5,-224.21"/>
<text text-anchor="start" x="163.5" y="-213.01" font-family="Helvetica,sans-Serif" font-size="9.00">Ticker.tsx</text>
</a>
</g>
</g>
<!-- layout/Footer/index.tsx -->
<g id="node22" class="node">
<title>layout/Footer/index.tsx</title>
<g id="a_node22"><a xlink:href="layout/Footer/index.tsx" xlink:title="index.tsx">
<path fill="#bbfeff" stroke="black" d="M350,-610.21C350,-610.21 304,-610.21 304,-610.21 301,-610.21 298,-607.21 298,-604.21 298,-604.21 298,-598.21 298,-598.21 298,-595.21 301,-592.21 304,-592.21 304,-592.21 350,-592.21 350,-592.21 353,-592.21 356,-595.21 356,-598.21 356,-598.21 356,-604.21 356,-604.21 356,-607.21 353,-610.21 350,-610.21"/>
<text text-anchor="start" x="306" y="-599.01" font-family="Helvetica,sans-Serif" font-size="9.00">index.tsx</text>
</a>
</g>
</g>
<!-- layout/SocialMedia/Follow/index.tsx -->
<g id="node23" class="node">
<title>layout/SocialMedia/Follow/index.tsx</title>
<g id="a_node23"><a xlink:href="layout/SocialMedia/Follow/index.tsx" xlink:title="index.tsx">
<path fill="#bbfeff" stroke="black" d="M474,-787.21C474,-787.21 428,-787.21 428,-787.21 425,-787.21 422,-784.21 422,-781.21 422,-781.21 422,-775.21 422,-775.21 422,-772.21 425,-769.21 428,-769.21 428,-769.21 474,-769.21 474,-769.21 477,-769.21 480,-772.21 480,-775.21 480,-775.21 480,-781.21 480,-781.21 480,-784.21 477,-787.21 474,-787.21"/>
<text text-anchor="start" x="430" y="-776.01" font-family="Helvetica,sans-Serif" font-size="9.00">index.tsx</text>
</a>
</g>
</g>
<!-- layout/Footer/index.tsx&#45;&gt;layout/SocialMedia/Follow/index.tsx -->
<g id="edge25" class="edge">
<title>layout/Footer/index.tsx&#45;&gt;layout/SocialMedia/Follow/index.tsx</title>
<path fill="none" stroke="#000000" stroke-width="2" stroke-opacity="0.200000" d="M334.22,-610.23C354.04,-638.98 415.84,-728.65 440.09,-763.83"/>
<polygon fill="#000000" fill-opacity="0.200000" stroke="#000000" stroke-width="2" stroke-opacity="0.200000" points="438.51,-765.25 443.65,-768.99 441.97,-762.86 438.51,-765.25"/>
</g>
<!-- layout/Footer/style.module.scss -->
<g id="node24" class="node">
<title>layout/Footer/style.module.scss</title>
<g id="a_node24"><a xlink:href="layout/Footer/style.module.scss" xlink:title="style.module.scss">
<path fill="#ffffcc" stroke="black" d="M493,-610.21C493,-610.21 409,-610.21 409,-610.21 406,-610.21 403,-607.21 403,-604.21 403,-604.21 403,-598.21 403,-598.21 403,-595.21 406,-592.21 409,-592.21 409,-592.21 493,-592.21 493,-592.21 496,-592.21 499,-595.21 499,-598.21 499,-598.21 499,-604.21 499,-604.21 499,-607.21 496,-610.21 493,-610.21"/>
<text text-anchor="start" x="411" y="-599.01" font-family="Helvetica,sans-Serif" font-size="9.00">style.module.scss</text>
</a>
</g>
</g>
<!-- layout/Footer/index.tsx&#45;&gt;layout/Footer/style.module.scss -->
<g id="edge26" class="edge">
<title>layout/Footer/index.tsx&#45;&gt;layout/Footer/style.module.scss</title>
<path fill="none" stroke="#000000" stroke-width="2" stroke-opacity="0.200000" d="M356.3,-601.21C368.26,-601.21 382.61,-601.21 396.44,-601.21"/>
<polygon fill="#000000" fill-opacity="0.200000" stroke="#000000" stroke-width="2" stroke-opacity="0.200000" points="396.74,-603.31 402.74,-601.21 396.74,-599.11 396.74,-603.31"/>
</g>
<!-- layout/SocialMedia/Button/index.tsx -->
<g id="node40" class="node">
<title>layout/SocialMedia/Button/index.tsx</title>
<g id="a_node40"><a xlink:href="layout/SocialMedia/Button/index.tsx" xlink:title="index.tsx">
<path fill="#bbfeff" stroke="black" d="M600,-851.21C600,-851.21 554,-851.21 554,-851.21 551,-851.21 548,-848.21 548,-845.21 548,-845.21 548,-839.21 548,-839.21 548,-836.21 551,-833.21 554,-833.21 554,-833.21 600,-833.21 600,-833.21 603,-833.21 606,-836.21 606,-839.21 606,-839.21 606,-845.21 606,-845.21 606,-848.21 603,-851.21 600,-851.21"/>
<text text-anchor="start" x="556" y="-840.01" font-family="Helvetica,sans-Serif" font-size="9.00">index.tsx</text>
</a>
</g>
</g>
<!-- layout/SocialMedia/Follow/index.tsx&#45;&gt;layout/SocialMedia/Button/index.tsx -->
<g id="edge42" class="edge">
<title>layout/SocialMedia/Follow/index.tsx&#45;&gt;layout/SocialMedia/Button/index.tsx</title>
<path fill="none" stroke="#000000" stroke-width="2" stroke-opacity="0.200000" d="M469.5,-787.24C491.26,-798.47 528.46,-817.67 552.64,-830.15"/>
<polygon fill="#000000" fill-opacity="0.200000" stroke="#000000" stroke-width="2" stroke-opacity="0.200000" points="551.89,-832.13 558.18,-833.01 553.82,-828.4 551.89,-832.13"/>
</g>
<!-- layout/Header/MainMenu.tsx -->
<g id="node25" class="node">
<title>layout/Header/MainMenu.tsx</title>
<g id="a_node25"><a xlink:href="layout/Header/MainMenu.tsx" xlink:title="MainMenu.tsx">
<path fill="#bbfeff" stroke="black" d="M484.5,-1138.21C484.5,-1138.21 417.5,-1138.21 417.5,-1138.21 414.5,-1138.21 411.5,-1135.21 411.5,-1132.21 411.5,-1132.21 411.5,-1126.21 411.5,-1126.21 411.5,-1123.21 414.5,-1120.21 417.5,-1120.21 417.5,-1120.21 484.5,-1120.21 484.5,-1120.21 487.5,-1120.21 490.5,-1123.21 490.5,-1126.21 490.5,-1126.21 490.5,-1132.21 490.5,-1132.21 490.5,-1135.21 487.5,-1138.21 484.5,-1138.21"/>
<text text-anchor="start" x="419.5" y="-1127.01" font-family="Helvetica,sans-Serif" font-size="9.00">MainMenu.tsx</text>
</a>
</g>
</g>
<!-- layout/Header/style.module.scss -->
<g id="node26" class="node">
<title>layout/Header/style.module.scss</title>
<g id="a_node26"><a xlink:href="layout/Header/style.module.scss" xlink:title="style.module.scss">
<path fill="#ffffcc" stroke="black" d="M619,-1131.21C619,-1131.21 535,-1131.21 535,-1131.21 532,-1131.21 529,-1128.21 529,-1125.21 529,-1125.21 529,-1119.21 529,-1119.21 529,-1116.21 532,-1113.21 535,-1113.21 535,-1113.21 619,-1113.21 619,-1113.21 622,-1113.21 625,-1116.21 625,-1119.21 625,-1119.21 625,-1125.21 625,-1125.21 625,-1128.21 622,-1131.21 619,-1131.21"/>
<text text-anchor="start" x="537" y="-1120.01" font-family="Helvetica,sans-Serif" font-size="9.00">style.module.scss</text>
</a>
</g>
</g>
<!-- layout/Header/MainMenu.tsx&#45;&gt;layout/Header/style.module.scss -->
<g id="edge27" class="edge">
<title>layout/Header/MainMenu.tsx&#45;&gt;layout/Header/style.module.scss</title>
<path fill="none" stroke="#000000" stroke-width="2" stroke-opacity="0.200000" d="M490.55,-1127.03C500.66,-1126.46 511.74,-1125.84 522.47,-1125.23"/>
<polygon fill="#000000" fill-opacity="0.200000" stroke="#000000" stroke-width="2" stroke-opacity="0.200000" points="522.86,-1127.31 528.74,-1124.88 522.63,-1123.12 522.86,-1127.31"/>
</g>
<!-- layout/Header/Menu/MenuItemParent.tsx -->
<g id="node27" class="node">
<title>layout/Header/Menu/MenuItemParent.tsx</title>
<g id="a_node27"><a xlink:href="layout/Header/Menu/MenuItemParent.tsx" xlink:title="MenuItemParent.tsx">
<path fill="#bbfeff" stroke="black" d="M375,-1202.21C375,-1202.21 279,-1202.21 279,-1202.21 276,-1202.21 273,-1199.21 273,-1196.21 273,-1196.21 273,-1190.21 273,-1190.21 273,-1187.21 276,-1184.21 279,-1184.21 279,-1184.21 375,-1184.21 375,-1184.21 378,-1184.21 381,-1187.21 381,-1190.21 381,-1190.21 381,-1196.21 381,-1196.21 381,-1199.21 378,-1202.21 375,-1202.21"/>
<text text-anchor="start" x="281" y="-1191.01" font-family="Helvetica,sans-Serif" font-size="9.00">MenuItemParent.tsx</text>
</a>
</g>
</g>
<!-- layout/Header/Menu/style.module.scss -->
<g id="node28" class="node">
<title>layout/Header/Menu/style.module.scss</title>
<g id="a_node28"><a xlink:href="layout/Header/Menu/style.module.scss" xlink:title="style.module.scss">
<path fill="#ffffcc" stroke="black" d="M493,-1202.21C493,-1202.21 409,-1202.21 409,-1202.21 406,-1202.21 403,-1199.21 403,-1196.21 403,-1196.21 403,-1190.21 403,-1190.21 403,-1187.21 406,-1184.21 409,-1184.21 409,-1184.21 493,-1184.21 493,-1184.21 496,-1184.21 499,-1187.21 499,-1190.21 499,-1190.21 499,-1196.21 499,-1196.21 499,-1199.21 496,-1202.21 493,-1202.21"/>
<text text-anchor="start" x="411" y="-1191.01" font-family="Helvetica,sans-Serif" font-size="9.00">style.module.scss</text>
</a>
</g>
</g>
<!-- layout/Header/Menu/MenuItemParent.tsx&#45;&gt;layout/Header/Menu/style.module.scss -->
<g id="edge28" class="edge">
<title>layout/Header/Menu/MenuItemParent.tsx&#45;&gt;layout/Header/Menu/style.module.scss</title>
<path fill="none" stroke="#000000" stroke-width="2" stroke-opacity="0.200000" d="M381.16,-1193.21C386.33,-1193.21 391.57,-1193.21 396.74,-1193.21"/>
<polygon fill="#000000" fill-opacity="0.200000" stroke="#000000" stroke-width="2" stroke-opacity="0.200000" points="396.77,-1195.31 402.77,-1193.21 396.77,-1191.11 396.77,-1195.31"/>
</g>
<!-- layout/Header/PageLogo.tsx -->
<g id="node29" class="node">
<title>layout/Header/PageLogo.tsx</title>
<g id="a_node29"><a xlink:href="layout/Header/PageLogo.tsx" xlink:title="PageLogo.tsx">
<path fill="#bbfeff" stroke="black" d="M483,-1168.21C483,-1168.21 419,-1168.21 419,-1168.21 416,-1168.21 413,-1165.21 413,-1162.21 413,-1162.21 413,-1156.21 413,-1156.21 413,-1153.21 416,-1150.21 419,-1150.21 419,-1150.21 483,-1150.21 483,-1150.21 486,-1150.21 489,-1153.21 489,-1156.21 489,-1156.21 489,-1162.21 489,-1162.21 489,-1165.21 486,-1168.21 483,-1168.21"/>
<text text-anchor="start" x="421" y="-1157.01" font-family="Helvetica,sans-Serif" font-size="9.00">PageLogo.tsx</text>
</a>
</g>
</g>
<!-- layout/Header/index.tsx -->
<g id="node30" class="node">
<title>layout/Header/index.tsx</title>
<g id="a_node30"><a xlink:href="layout/Header/index.tsx" xlink:title="index.tsx">
<path fill="#bbfeff" stroke="black" d="M350,-1138.21C350,-1138.21 304,-1138.21 304,-1138.21 301,-1138.21 298,-1135.21 298,-1132.21 298,-1132.21 298,-1126.21 298,-1126.21 298,-1123.21 301,-1120.21 304,-1120.21 304,-1120.21 350,-1120.21 350,-1120.21 353,-1120.21 356,-1123.21 356,-1126.21 356,-1126.21 356,-1132.21 356,-1132.21 356,-1135.21 353,-1138.21 350,-1138.21"/>
<text text-anchor="start" x="306" y="-1127.01" font-family="Helvetica,sans-Serif" font-size="9.00">index.tsx</text>
</a>
</g>
</g>
<!-- layout/Header/index.tsx&#45;&gt;layout/Header/MainMenu.tsx -->
<g id="edge29" class="edge">
<title>layout/Header/index.tsx&#45;&gt;layout/Header/MainMenu.tsx</title>
<path fill="none" stroke="#000000" stroke-width="2" stroke-opacity="0.200000" d="M356.3,-1129.21C370.71,-1129.21 388.59,-1129.21 404.85,-1129.21"/>
<polygon fill="#000000" fill-opacity="0.200000" stroke="#000000" stroke-width="2" stroke-opacity="0.200000" points="405.23,-1131.31 411.23,-1129.21 405.23,-1127.11 405.23,-1131.31"/>
</g>
<!-- layout/Header/index.tsx&#45;&gt;layout/Header/style.module.scss -->
<g id="edge31" class="edge">
<title>layout/Header/index.tsx&#45;&gt;layout/Header/style.module.scss</title>
<path fill="none" stroke="#000000" stroke-width="2" stroke-opacity="0.200000" d="M356.29,-1122.18C370.25,-1119.06 387.41,-1115.75 403,-1114.21 449,-1109.65 460.85,-1111.54 507,-1114.21 512.11,-1114.5 517.41,-1114.92 522.72,-1115.41"/>
<polygon fill="#000000" fill-opacity="0.200000" stroke="#000000" stroke-width="2" stroke-opacity="0.200000" points="522.75,-1117.52 528.92,-1116.02 523.16,-1113.34 522.75,-1117.52"/>
</g>
<!-- layout/Header/index.tsx&#45;&gt;layout/Header/PageLogo.tsx -->
<g id="edge30" class="edge">
<title>layout/Header/index.tsx&#45;&gt;layout/Header/PageLogo.tsx</title>
<path fill="none" stroke="#000000" stroke-width="2" stroke-opacity="0.200000" d="M356.3,-1136.17C371.34,-1139.87 390.16,-1144.49 406.97,-1148.63"/>
<polygon fill="#000000" fill-opacity="0.200000" stroke="#000000" stroke-width="2" stroke-opacity="0.200000" points="406.74,-1150.73 413.06,-1150.13 407.74,-1146.65 406.74,-1150.73"/>
</g>
<!-- layout/SocialMedia/Button/icons/facebook&#45;brands.svg -->
<g id="node31" class="node">
<title>layout/SocialMedia/Button/icons/facebook&#45;brands.svg</title>
<g id="a_node31"><a xlink:href="layout/SocialMedia/Button/icons/facebook-brands.svg" xlink:title="facebook&#45;brands.svg">
<path fill="#ffffcc" stroke="black" d="M786,-986.21C786,-986.21 688,-986.21 688,-986.21 685,-986.21 682,-983.21 682,-980.21 682,-980.21 682,-974.21 682,-974.21 682,-971.21 685,-968.21 688,-968.21 688,-968.21 786,-968.21 786,-968.21 789,-968.21 792,-971.21 792,-974.21 792,-974.21 792,-980.21 792,-980.21 792,-983.21 789,-986.21 786,-986.21"/>
<text text-anchor="start" x="690" y="-975.01" font-family="Helvetica,sans-Serif" font-size="9.00">facebook&#45;brands.svg</text>
</a>
</g>
</g>
<!-- layout/SocialMedia/Button/icons/facebook&#45;square&#45;brands.svg -->
<g id="node32" class="node">
<title>layout/SocialMedia/Button/icons/facebook&#45;square&#45;brands.svg</title>
<g id="a_node32"><a xlink:href="layout/SocialMedia/Button/icons/facebook-square-brands.svg" xlink:title="facebook&#45;square&#45;brands.svg">
<path fill="#ffffcc" stroke="black" d="M803,-956.21C803,-956.21 671,-956.21 671,-956.21 668,-956.21 665,-953.21 665,-950.21 665,-950.21 665,-944.21 665,-944.21 665,-941.21 668,-938.21 671,-938.21 671,-938.21 803,-938.21 803,-938.21 806,-938.21 809,-941.21 809,-944.21 809,-944.21 809,-950.21 809,-950.21 809,-953.21 806,-956.21 803,-956.21"/>
<text text-anchor="start" x="673" y="-945.01" font-family="Helvetica,sans-Serif" font-size="9.00">facebook&#45;square&#45;brands.svg</text>
</a>
</g>
</g>
<!-- layout/SocialMedia/Button/icons/instagram&#45;brands.svg -->
<g id="node33" class="node">
<title>layout/SocialMedia/Button/icons/instagram&#45;brands.svg</title>
<g id="a_node33"><a xlink:href="layout/SocialMedia/Button/icons/instagram-brands.svg" xlink:title="instagram&#45;brands.svg">
<path fill="#ffffcc" stroke="black" d="M789,-926.21C789,-926.21 685,-926.21 685,-926.21 682,-926.21 679,-923.21 679,-920.21 679,-920.21 679,-914.21 679,-914.21 679,-911.21 682,-908.21 685,-908.21 685,-908.21 789,-908.21 789,-908.21 792,-908.21 795,-911.21 795,-914.21 795,-914.21 795,-920.21 795,-920.21 795,-923.21 792,-926.21 789,-926.21"/>
<text text-anchor="start" x="687" y="-915.01" font-family="Helvetica,sans-Serif" font-size="9.00">instagram&#45;brands.svg</text>
</a>
</g>
</g>
<!-- layout/SocialMedia/Button/icons/telegram&#45;brands.svg -->
<g id="node34" class="node">
<title>layout/SocialMedia/Button/icons/telegram&#45;brands.svg</title>
<g id="a_node34"><a xlink:href="layout/SocialMedia/Button/icons/telegram-brands.svg" xlink:title="telegram&#45;brands.svg">
<path fill="#ffffcc" stroke="black" d="M786,-896.21C786,-896.21 688,-896.21 688,-896.21 685,-896.21 682,-893.21 682,-890.21 682,-890.21 682,-884.21 682,-884.21 682,-881.21 685,-878.21 688,-878.21 688,-878.21 786,-878.21 786,-878.21 789,-878.21 792,-881.21 792,-884.21 792,-884.21 792,-890.21 792,-890.21 792,-893.21 789,-896.21 786,-896.21"/>
<text text-anchor="start" x="690" y="-885.01" font-family="Helvetica,sans-Serif" font-size="9.00">telegram&#45;brands.svg</text>
</a>
</g>
</g>
<!-- layout/SocialMedia/Button/icons/telegram&#45;plane&#45;brands.svg -->
<g id="node35" class="node">
<title>layout/SocialMedia/Button/icons/telegram&#45;plane&#45;brands.svg</title>
<g id="a_node35"><a xlink:href="layout/SocialMedia/Button/icons/telegram-plane-brands.svg" xlink:title="telegram&#45;plane&#45;brands.svg">
<path fill="#ffffcc" stroke="black" d="M800,-866.21C800,-866.21 674,-866.21 674,-866.21 671,-866.21 668,-863.21 668,-860.21 668,-860.21 668,-854.21 668,-854.21 668,-851.21 671,-848.21 674,-848.21 674,-848.21 800,-848.21 800,-848.21 803,-848.21 806,-851.21 806,-854.21 806,-854.21 806,-860.21 806,-860.21 806,-863.21 803,-866.21 800,-866.21"/>
<text text-anchor="start" x="676" y="-855.01" font-family="Helvetica,sans-Serif" font-size="9.00">telegram&#45;plane&#45;brands.svg</text>
</a>
</g>
</g>
<!-- layout/SocialMedia/Button/icons/twitter&#45;brands.svg -->
<g id="node36" class="node">
<title>layout/SocialMedia/Button/icons/twitter&#45;brands.svg</title>
<g id="a_node36"><a xlink:href="layout/SocialMedia/Button/icons/twitter-brands.svg" xlink:title="twitter&#45;brands.svg">
<path fill="#ffffcc" stroke="black" d="M780.5,-836.21C780.5,-836.21 693.5,-836.21 693.5,-836.21 690.5,-836.21 687.5,-833.21 687.5,-830.21 687.5,-830.21 687.5,-824.21 687.5,-824.21 687.5,-821.21 690.5,-818.21 693.5,-818.21 693.5,-818.21 780.5,-818.21 780.5,-818.21 783.5,-818.21 786.5,-821.21 786.5,-824.21 786.5,-824.21 786.5,-830.21 786.5,-830.21 786.5,-833.21 783.5,-836.21 780.5,-836.21"/>
<text text-anchor="start" x="695.5" y="-825.01" font-family="Helvetica,sans-Serif" font-size="9.00">twitter&#45;brands.svg</text>
</a>
</g>
</g>
<!-- layout/SocialMedia/Button/icons/whatsapp&#45;brands.svg -->
<g id="node37" class="node">
<title>layout/SocialMedia/Button/icons/whatsapp&#45;brands.svg</title>
<g id="a_node37"><a xlink:href="layout/SocialMedia/Button/icons/whatsapp-brands.svg" xlink:title="whatsapp&#45;brands.svg">
<path fill="#ffffcc" stroke="black" d="M788,-806.21C788,-806.21 686,-806.21 686,-806.21 683,-806.21 680,-803.21 680,-800.21 680,-800.21 680,-794.21 680,-794.21 680,-791.21 683,-788.21 686,-788.21 686,-788.21 788,-788.21 788,-788.21 791,-788.21 794,-791.21 794,-794.21 794,-794.21 794,-800.21 794,-800.21 794,-803.21 791,-806.21 788,-806.21"/>
<text text-anchor="start" x="688" y="-795.01" font-family="Helvetica,sans-Serif" font-size="9.00">whatsapp&#45;brands.svg</text>
</a>
</g>
</g>
<!-- layout/SocialMedia/Button/icons/whatsapp&#45;square&#45;brands.svg -->
<g id="node38" class="node">
<title>layout/SocialMedia/Button/icons/whatsapp&#45;square&#45;brands.svg</title>
<g id="a_node38"><a xlink:href="layout/SocialMedia/Button/icons/whatsapp-square-brands.svg" xlink:title="whatsapp&#45;square&#45;brands.svg">
<path fill="#ffffcc" stroke="black" d="M805,-776.21C805,-776.21 669,-776.21 669,-776.21 666,-776.21 663,-773.21 663,-770.21 663,-770.21 663,-764.21 663,-764.21 663,-761.21 666,-758.21 669,-758.21 669,-758.21 805,-758.21 805,-758.21 808,-758.21 811,-761.21 811,-764.21 811,-764.21 811,-770.21 811,-770.21 811,-773.21 808,-776.21 805,-776.21"/>
<text text-anchor="start" x="671" y="-765.01" font-family="Helvetica,sans-Serif" font-size="9.00">whatsapp&#45;square&#45;brands.svg</text>
</a>
</g>
</g>
<!-- layout/SocialMedia/Button/icons/youtube.svg -->
<g id="node39" class="node">
<title>layout/SocialMedia/Button/icons/youtube.svg</title>
<g id="a_node39"><a xlink:href="layout/SocialMedia/Button/icons/youtube.svg" xlink:title="youtube.svg">
<path fill="#ffffcc" stroke="black" d="M767.5,-746.21C767.5,-746.21 706.5,-746.21 706.5,-746.21 703.5,-746.21 700.5,-743.21 700.5,-740.21 700.5,-740.21 700.5,-734.21 700.5,-734.21 700.5,-731.21 703.5,-728.21 706.5,-728.21 706.5,-728.21 767.5,-728.21 767.5,-728.21 770.5,-728.21 773.5,-731.21 773.5,-734.21 773.5,-734.21 773.5,-740.21 773.5,-740.21 773.5,-743.21 770.5,-746.21 767.5,-746.21"/>
<text text-anchor="start" x="708.5" y="-735.01" font-family="Helvetica,sans-Serif" font-size="9.00">youtube.svg</text>
</a>
</g>
</g>
<!-- layout/SocialMedia/Button/index.tsx&#45;&gt;layout/SocialMedia/Button/icons/facebook&#45;brands.svg -->
<g id="edge32" class="edge">
<title>layout/SocialMedia/Button/index.tsx&#45;&gt;layout/SocialMedia/Button/icons/facebook&#45;brands.svg</title>
<path fill="none" stroke="#000000" stroke-width="2" stroke-opacity="0.200000" d="M580.94,-851.23C588.84,-873.98 612.88,-933.9 655,-962.21 661.21,-966.38 668.27,-969.48 675.57,-971.76"/>
<polygon fill="#000000" fill-opacity="0.200000" stroke="#000000" stroke-width="2" stroke-opacity="0.200000" points="675.4,-973.89 681.75,-973.49 676.54,-969.85 675.4,-973.89"/>
</g>
<!-- layout/SocialMedia/Button/index.tsx&#45;&gt;layout/SocialMedia/Button/icons/facebook&#45;square&#45;brands.svg -->
<g id="edge33" class="edge">
<title>layout/SocialMedia/Button/index.tsx&#45;&gt;layout/SocialMedia/Button/icons/facebook&#45;square&#45;brands.svg</title>
<path fill="none" stroke="#000000" stroke-width="2" stroke-opacity="0.200000" d="M582.95,-851.41C593.5,-870.01 620.09,-912.07 655,-932.21 657.23,-933.5 659.55,-934.67 661.93,-935.76"/>
<polygon fill="#000000" fill-opacity="0.200000" stroke="#000000" stroke-width="2" stroke-opacity="0.200000" points="661.24,-937.74 667.59,-938.1 662.85,-933.86 661.24,-937.74"/>
</g>
<!-- layout/SocialMedia/Button/index.tsx&#45;&gt;layout/SocialMedia/Button/icons/instagram&#45;brands.svg -->
<g id="edge34" class="edge">
<title>layout/SocialMedia/Button/index.tsx&#45;&gt;layout/SocialMedia/Button/icons/instagram&#45;brands.svg</title>
<path fill="none" stroke="#000000" stroke-width="2" stroke-opacity="0.200000" d="M586.97,-851.63C600.41,-865.12 627.18,-889.7 655,-902.21 660.58,-904.72 666.55,-906.8 672.63,-908.54"/>
<polygon fill="#000000" fill-opacity="0.200000" stroke="#000000" stroke-width="2" stroke-opacity="0.200000" points="672.4,-910.65 678.74,-910.17 673.48,-906.6 672.4,-910.65"/>
</g>
<!-- layout/SocialMedia/Button/index.tsx&#45;&gt;layout/SocialMedia/Button/icons/telegram&#45;brands.svg -->
<g id="edge35" class="edge">
<title>layout/SocialMedia/Button/index.tsx&#45;&gt;layout/SocialMedia/Button/icons/telegram&#45;brands.svg</title>
<path fill="none" stroke="#000000" stroke-width="2" stroke-opacity="0.200000" d="M598.23,-851.3C613.55,-857.89 635.27,-866.59 655,-872.21 661.66,-874.11 668.7,-875.82 675.74,-877.36"/>
<polygon fill="#000000" fill-opacity="0.200000" stroke="#000000" stroke-width="2" stroke-opacity="0.200000" points="675.34,-879.42 681.64,-878.6 676.21,-875.31 675.34,-879.42"/>
</g>
<!-- layout/SocialMedia/Button/index.tsx&#45;&gt;layout/SocialMedia/Button/icons/telegram&#45;plane&#45;brands.svg -->
<g id="edge36" class="edge">
<title>layout/SocialMedia/Button/index.tsx&#45;&gt;layout/SocialMedia/Button/icons/telegram&#45;plane&#45;brands.svg</title>
<path fill="none" stroke="#000000" stroke-width="2" stroke-opacity="0.200000" d="M606.25,-844.89C621.85,-846.37 642.04,-848.29 661.82,-850.17"/>
<polygon fill="#000000" fill-opacity="0.200000" stroke="#000000" stroke-width="2" stroke-opacity="0.200000" points="661.77,-852.27 667.94,-850.75 662.17,-848.09 661.77,-852.27"/>
</g>
<!-- layout/SocialMedia/Button/index.tsx&#45;&gt;layout/SocialMedia/Button/icons/twitter&#45;brands.svg -->
<g id="edge37" class="edge">
<title>layout/SocialMedia/Button/index.tsx&#45;&gt;layout/SocialMedia/Button/icons/twitter&#45;brands.svg</title>
<path fill="none" stroke="#000000" stroke-width="2" stroke-opacity="0.200000" d="M606.25,-839.53C627.04,-837.55 655.96,-834.81 681.22,-832.41"/>
<polygon fill="#000000" fill-opacity="0.200000" stroke="#000000" stroke-width="2" stroke-opacity="0.200000" points="681.45,-834.5 687.22,-831.84 681.05,-830.32 681.45,-834.5"/>
</g>
<!-- layout/SocialMedia/Button/index.tsx&#45;&gt;layout/SocialMedia/Button/icons/whatsapp&#45;brands.svg -->
<g id="edge38" class="edge">
<title>layout/SocialMedia/Button/index.tsx&#45;&gt;layout/SocialMedia/Button/icons/whatsapp&#45;brands.svg</title>
<path fill="none" stroke="#000000" stroke-width="2" stroke-opacity="0.200000" d="M598.23,-833.12C613.55,-826.53 635.27,-817.83 655,-812.21 661.11,-810.47 667.53,-808.88 673.98,-807.45"/>
<polygon fill="#000000" fill-opacity="0.200000" stroke="#000000" stroke-width="2" stroke-opacity="0.200000" points="674.48,-809.49 679.91,-806.17 673.6,-805.38 674.48,-809.49"/>
</g>
<!-- layout/SocialMedia/Button/index.tsx&#45;&gt;layout/SocialMedia/Button/icons/whatsapp&#45;square&#45;brands.svg -->
<g id="edge39" class="edge">
<title>layout/SocialMedia/Button/index.tsx&#45;&gt;layout/SocialMedia/Button/icons/whatsapp&#45;square&#45;brands.svg</title>
<path fill="none" stroke="#000000" stroke-width="2" stroke-opacity="0.200000" d="M586.97,-832.79C600.41,-819.3 627.18,-794.72 655,-782.21 658.42,-780.67 662,-779.29 665.65,-778.05"/>
<polygon fill="#000000" fill-opacity="0.200000" stroke="#000000" stroke-width="2" stroke-opacity="0.200000" points="666.37,-780.02 671.46,-776.21 665.1,-776.02 666.37,-780.02"/>
</g>
<!-- layout/SocialMedia/Button/index.tsx&#45;&gt;layout/SocialMedia/Button/icons/youtube.svg -->
<g id="edge40" class="edge">
<title>layout/SocialMedia/Button/index.tsx&#45;&gt;layout/SocialMedia/Button/icons/youtube.svg</title>
<path fill="none" stroke="#000000" stroke-width="2" stroke-opacity="0.200000" d="M582.95,-833.01C593.5,-814.4 620.09,-772.34 655,-752.21 666.82,-745.39 681.08,-741.57 694.31,-739.47"/>
<polygon fill="#000000" fill-opacity="0.200000" stroke="#000000" stroke-width="2" stroke-opacity="0.200000" points="694.67,-741.54 700.31,-738.61 694.08,-737.38 694.67,-741.54"/>
</g>
<!-- layout/SocialMedia/Button/style.module.scss -->
<g id="node41" class="node">
<title>layout/SocialMedia/Button/style.module.scss</title>
<g id="a_node41"><a xlink:href="layout/SocialMedia/Button/style.module.scss" xlink:title="style.module.scss">
<path fill="#ffffcc" stroke="black" d="M779,-1038.21C779,-1038.21 695,-1038.21 695,-1038.21 692,-1038.21 689,-1035.21 689,-1032.21 689,-1032.21 689,-1026.21 689,-1026.21 689,-1023.21 692,-1020.21 695,-1020.21 695,-1020.21 779,-1020.21 779,-1020.21 782,-1020.21 785,-1023.21 785,-1026.21 785,-1026.21 785,-1032.21 785,-1032.21 785,-1035.21 782,-1038.21 779,-1038.21"/>
<text text-anchor="start" x="697" y="-1027.01" font-family="Helvetica,sans-Serif" font-size="9.00">style.module.scss</text>
</a>
</g>
</g>
<!-- layout/SocialMedia/Button/index.tsx&#45;&gt;layout/SocialMedia/Button/style.module.scss -->
<g id="edge41" class="edge">
<title>layout/SocialMedia/Button/index.tsx&#45;&gt;layout/SocialMedia/Button/style.module.scss</title>
<path fill="none" stroke="#000000" stroke-width="2" stroke-opacity="0.200000" d="M579.11,-851.57C583.13,-880.99 599.75,-972.19 655,-1015.21 663,-1021.44 672.8,-1025.29 682.78,-1027.6"/>
<polygon fill="#000000" fill-opacity="0.200000" stroke="#000000" stroke-width="2" stroke-opacity="0.200000" points="682.37,-1029.66 688.67,-1028.79 683.21,-1025.54 682.37,-1029.66"/>
</g>
<!-- layout/SocialMedia/Share/index.tsx -->
<g id="node42" class="node">
<title>layout/SocialMedia/Share/index.tsx</title>
<g id="a_node42"><a xlink:href="layout/SocialMedia/Share/index.tsx" xlink:title="index.tsx">
<path fill="#bbfeff" stroke="black" d="M474,-678.21C474,-678.21 428,-678.21 428,-678.21 425,-678.21 422,-675.21 422,-672.21 422,-672.21 422,-666.21 422,-666.21 422,-663.21 425,-660.21 428,-660.21 428,-660.21 474,-660.21 474,-660.21 477,-660.21 480,-663.21 480,-666.21 480,-666.21 480,-672.21 480,-672.21 480,-675.21 477,-678.21 474,-678.21"/>
<text text-anchor="start" x="430" y="-667.01" font-family="Helvetica,sans-Serif" font-size="9.00">index.tsx</text>
</a>
</g>
</g>
<!-- layout/SocialMedia/Share/index.tsx&#45;&gt;layout/SocialMedia/Button/index.tsx -->
<g id="edge43" class="edge">
<title>layout/SocialMedia/Share/index.tsx&#45;&gt;layout/SocialMedia/Button/index.tsx</title>
<path fill="none" stroke="#000000" stroke-width="2" stroke-opacity="0.200000" d="M458.67,-678.51C479.1,-707.02 540.98,-793.36 565.67,-827.8"/>
<polygon fill="#000000" fill-opacity="0.200000" stroke="#000000" stroke-width="2" stroke-opacity="0.200000" points="564.1,-829.21 569.3,-832.86 567.51,-826.76 564.1,-829.21"/>
</g>
<!-- layout/SocialMedia/Share/style.module.scss -->
<g id="node43" class="node">
<title>layout/SocialMedia/Share/style.module.scss</title>
<g id="a_node43"><a xlink:href="layout/SocialMedia/Share/style.module.scss" xlink:title="style.module.scss">
<path fill="#ffffcc" stroke="black" d="M619,-678.21C619,-678.21 535,-678.21 535,-678.21 532,-678.21 529,-675.21 529,-672.21 529,-672.21 529,-666.21 529,-666.21 529,-663.21 532,-660.21 535,-660.21 535,-660.21 619,-660.21 619,-660.21 622,-660.21 625,-663.21 625,-666.21 625,-666.21 625,-672.21 625,-672.21 625,-675.21 622,-678.21 619,-678.21"/>
<text text-anchor="start" x="537" y="-667.01" font-family="Helvetica,sans-Serif" font-size="9.00">style.module.scss</text>
</a>
</g>
</g>
<!-- layout/SocialMedia/Share/index.tsx&#45;&gt;layout/SocialMedia/Share/style.module.scss -->
<g id="edge44" class="edge">
<title>layout/SocialMedia/Share/index.tsx&#45;&gt;layout/SocialMedia/Share/style.module.scss</title>
<path fill="none" stroke="#000000" stroke-width="2" stroke-opacity="0.200000" d="M480.14,-669.21C492.64,-669.21 507.8,-669.21 522.33,-669.21"/>
<polygon fill="#000000" fill-opacity="0.200000" stroke="#000000" stroke-width="2" stroke-opacity="0.200000" points="522.51,-671.31 528.51,-669.21 522.51,-667.11 522.51,-671.31"/>
</g>
<!-- layout/index.tsx -->
<g id="node44" class="node">
<title>layout/index.tsx</title>
<g id="a_node44"><a xlink:href="layout/index.tsx" xlink:title="index.tsx">
<path fill="#bbfeff" stroke="black" d="M208,-1138.21C208,-1138.21 162,-1138.21 162,-1138.21 159,-1138.21 156,-1135.21 156,-1132.21 156,-1132.21 156,-1126.21 156,-1126.21 156,-1123.21 159,-1120.21 162,-1120.21 162,-1120.21 208,-1120.21 208,-1120.21 211,-1120.21 214,-1123.21 214,-1126.21 214,-1126.21 214,-1132.21 214,-1132.21 214,-1135.21 211,-1138.21 208,-1138.21"/>
<text text-anchor="start" x="164" y="-1127.01" font-family="Helvetica,sans-Serif" font-size="9.00">index.tsx</text>
</a>
</g>
</g>
<!-- layout/index.tsx&#45;&gt;layout/Footer/index.tsx -->
<g id="edge45" class="edge">
<title>layout/index.tsx&#45;&gt;layout/Footer/index.tsx</title>
<path fill="none" stroke="#000000" stroke-width="2" stroke-opacity="0.200000" d="M188.43,-1120.04C204.99,-1057.58 301.25,-694.56 322.04,-616.14"/>
<polygon fill="#000000" fill-opacity="0.200000" stroke="#000000" stroke-width="2" stroke-opacity="0.200000" points="324.1,-616.55 323.61,-610.21 320.04,-615.48 324.1,-616.55"/>
</g>
<!-- layout/index.tsx&#45;&gt;layout/Header/index.tsx -->
<g id="edge46" class="edge">
<title>layout/index.tsx&#45;&gt;layout/Header/index.tsx</title>
<path fill="none" stroke="#000000" stroke-width="2" stroke-opacity="0.200000" d="M214.33,-1129.21C236.63,-1129.21 267.79,-1129.21 291.54,-1129.21"/>
<polygon fill="#000000" fill-opacity="0.200000" stroke="#000000" stroke-width="2" stroke-opacity="0.200000" points="291.71,-1131.31 297.71,-1129.21 291.71,-1127.11 291.71,-1131.31"/>
</g>
<!-- pages/[id].tsx -->
<g id="node45" class="node">
<title>pages/[id].tsx</title>
<g id="a_node45"><a xlink:href="pages/[id].tsx" xlink:title="[id].tsx">
<path fill="#bbfeff" stroke="black" d="M85.5,-1374.21C85.5,-1374.21 43.5,-1374.21 43.5,-1374.21 40.5,-1374.21 37.5,-1371.21 37.5,-1368.21 37.5,-1368.21 37.5,-1362.21 37.5,-1362.21 37.5,-1359.21 40.5,-1356.21 43.5,-1356.21 43.5,-1356.21 85.5,-1356.21 85.5,-1356.21 88.5,-1356.21 91.5,-1359.21 91.5,-1362.21 91.5,-1362.21 91.5,-1368.21 91.5,-1368.21 91.5,-1371.21 88.5,-1374.21 85.5,-1374.21"/>
<text text-anchor="start" x="48" y="-1363.01" font-family="Helvetica,sans-Serif" font-size="9.00">[id].tsx</text>
</a>
</g>
</g>
<!-- pages/[id].tsx&#45;&gt;components/Section/index.tsx -->
<g id="edge47" class="edge">
<title>pages/[id].tsx&#45;&gt;components/Section/index.tsx</title>
<path fill="none" stroke="#000000" stroke-width="2" stroke-opacity="0.200000" d="M91.69,-1362.91C99.82,-1360.82 107.96,-1357.02 113,-1350.21 128.56,-1329.17 104.69,-428.67 121,-408.21 127.92,-399.53 138.87,-395.31 149.71,-393.41"/>
<polygon fill="#000000" fill-opacity="0.200000" stroke="#000000" stroke-width="2" stroke-opacity="0.200000" points="150.05,-395.48 155.7,-392.57 149.47,-391.32 150.05,-395.48"/>
</g>
<!-- pages/getPageProps.ts -->
<g id="node46" class="node">
<title>pages/getPageProps.ts</title>
<g id="a_node46"><a xlink:href="pages/getPageProps.ts" xlink:title="getPageProps.ts">
<path fill="#ddfeff" stroke="black" d="M223.5,-1374.21C223.5,-1374.21 146.5,-1374.21 146.5,-1374.21 143.5,-1374.21 140.5,-1371.21 140.5,-1368.21 140.5,-1368.21 140.5,-1362.21 140.5,-1362.21 140.5,-1359.21 143.5,-1356.21 146.5,-1356.21 146.5,-1356.21 223.5,-1356.21 223.5,-1356.21 226.5,-1356.21 229.5,-1359.21 229.5,-1362.21 229.5,-1362.21 229.5,-1368.21 229.5,-1368.21 229.5,-1371.21 226.5,-1374.21 223.5,-1374.21"/>
<text text-anchor="start" x="148.5" y="-1363.01" font-family="Helvetica,sans-Serif" font-size="9.00">getPageProps.ts</text>
</a>
</g>
</g>
<!-- pages/[id].tsx&#45;&gt;pages/getPageProps.ts -->
<g id="edge48" class="edge">
<title>pages/[id].tsx&#45;&gt;pages/getPageProps.ts</title>
<path fill="none" stroke="#000000" stroke-width="2" stroke-opacity="0.200000" d="M91.51,-1365.21C104.02,-1365.21 119.47,-1365.21 134.13,-1365.21"/>
<polygon fill="#000000" fill-opacity="0.200000" stroke="#000000" stroke-width="2" stroke-opacity="0.200000" points="134.35,-1367.31 140.35,-1365.21 134.35,-1363.11 134.35,-1367.31"/>
</g>
<!-- pages/_app.tsx -->
<g id="node47" class="node">
<title>pages/_app.tsx</title>
<g id="a_node47"><a xlink:href="pages/_app.tsx" xlink:title="_app.tsx">
<path fill="#bbfeff" stroke="black" d="M86,-1344.21C86,-1344.21 43,-1344.21 43,-1344.21 40,-1344.21 37,-1341.21 37,-1338.21 37,-1338.21 37,-1332.21 37,-1332.21 37,-1329.21 40,-1326.21 43,-1326.21 43,-1326.21 86,-1326.21 86,-1326.21 89,-1326.21 92,-1329.21 92,-1332.21 92,-1332.21 92,-1338.21 92,-1338.21 92,-1341.21 89,-1344.21 86,-1344.21"/>
<text text-anchor="start" x="45" y="-1333.01" font-family="Helvetica,sans-Serif" font-size="9.00">_app.tsx</text>
</a>
</g>
</g>
<!-- pages/_app.tsx&#45;&gt;components/Util/NoSsr.tsx -->
<g id="edge49" class="edge">
<title>pages/_app.tsx&#45;&gt;components/Util/NoSsr.tsx</title>
<path fill="none" stroke="#000000" stroke-width="2" stroke-opacity="0.200000" d="M92.18,-1332.77C100.14,-1330.66 108.06,-1326.88 113,-1320.21 125.36,-1303.54 106.68,-588.23 121,-573.21 183.98,-507.15 234.73,-561.21 326,-561.21 326,-561.21 326,-561.21 452,-561.21 539.04,-561.21 575.73,-593.17 647,-543.21 707.39,-500.88 728,-406.55 733.92,-369.54"/>
<polygon fill="#000000" fill-opacity="0.200000" stroke="#000000" stroke-width="2" stroke-opacity="0.200000" points="736.04,-369.56 734.86,-363.32 731.88,-368.93 736.04,-369.56"/>
</g>
<!-- pages/_app.tsx&#45;&gt;layout/index.tsx -->
<g id="edge50" class="edge">
<title>pages/_app.tsx&#45;&gt;layout/index.tsx</title>
<path fill="none" stroke="#000000" stroke-width="2" stroke-opacity="0.200000" d="M92.37,-1331.83C99.96,-1329.64 107.61,-1326.06 113,-1320.21 123.82,-1308.48 116.22,-1300.43 121,-1285.21 137.68,-1232.1 164.44,-1171.6 177.03,-1144.16"/>
<polygon fill="#000000" fill-opacity="0.200000" stroke="#000000" stroke-width="2" stroke-opacity="0.200000" points="179.03,-1144.84 179.63,-1138.51 175.21,-1143.08 179.03,-1144.84"/>
</g>
<!-- styles/globals.scss -->
<g id="node48" class="node">
<title>styles/globals.scss</title>
<g id="a_node48"><a xlink:href="styles/globals.scss" xlink:title="globals.scss">
<path fill="#ffffcc" stroke="black" d="M214,-156.21C214,-156.21 156,-156.21 156,-156.21 153,-156.21 150,-153.21 150,-150.21 150,-150.21 150,-144.21 150,-144.21 150,-141.21 153,-138.21 156,-138.21 156,-138.21 214,-138.21 214,-138.21 217,-138.21 220,-141.21 220,-144.21 220,-144.21 220,-150.21 220,-150.21 220,-153.21 217,-156.21 214,-156.21"/>
<text text-anchor="start" x="158" y="-145.01" font-family="Helvetica,sans-Serif" font-size="9.00">globals.scss</text>
</a>
</g>
</g>
<!-- pages/_app.tsx&#45;&gt;styles/globals.scss -->
<g id="edge51" class="edge">
<title>pages/_app.tsx&#45;&gt;styles/globals.scss</title>
<path fill="none" stroke="#000000" stroke-width="2" stroke-opacity="0.200000" d="M92.19,-1332.78C100.16,-1330.67 108.07,-1326.89 113,-1320.21 131.56,-1295.07 107.03,-223.16 121,-195.21 128.92,-179.36 144.84,-167.3 158.69,-159.23"/>
<polygon fill="#000000" fill-opacity="0.200000" stroke="#000000" stroke-width="2" stroke-opacity="0.200000" points="159.85,-160.99 164.07,-156.23 157.81,-157.32 159.85,-160.99"/>
</g>
<!-- pages/getMenus.ts -->
<g id="node49" class="node">
<title>pages/getMenus.ts</title>
<g id="a_node49"><a xlink:href="pages/getMenus.ts" xlink:title="getMenus.ts">
<path fill="#ddfeff" stroke="black" d="M215,-1344.21C215,-1344.21 155,-1344.21 155,-1344.21 152,-1344.21 149,-1341.21 149,-1338.21 149,-1338.21 149,-1332.21 149,-1332.21 149,-1329.21 152,-1326.21 155,-1326.21 155,-1326.21 215,-1326.21 215,-1326.21 218,-1326.21 221,-1329.21 221,-1332.21 221,-1332.21 221,-1338.21 221,-1338.21 221,-1341.21 218,-1344.21 215,-1344.21"/>
<text text-anchor="start" x="157" y="-1333.01" font-family="Helvetica,sans-Serif" font-size="9.00">getMenus.ts</text>
</a>
</g>
</g>
<!-- pages/_app.tsx&#45;&gt;pages/getMenus.ts -->
<g id="edge52" class="edge">
<title>pages/_app.tsx&#45;&gt;pages/getMenus.ts</title>
<path fill="none" stroke="#000000" stroke-width="2" stroke-opacity="0.200000" d="M92.09,-1335.21C107.04,-1335.21 126.03,-1335.21 142.86,-1335.21"/>
<polygon fill="#000000" fill-opacity="0.200000" stroke="#000000" stroke-width="2" stroke-opacity="0.200000" points="142.95,-1337.31 148.95,-1335.21 142.95,-1333.11 142.95,-1337.31"/>
</g>
<!-- pages/api/auth/directus.ts -->
<g id="node50" class="node">
<title>pages/api/auth/directus.ts</title>
<g id="a_node50"><a xlink:href="pages/api/auth/directus.ts" xlink:title="directus.ts">
<path fill="#ccffcc" stroke="black" d="M91,-1506.21C91,-1506.21 38,-1506.21 38,-1506.21 35,-1506.21 32,-1503.21 32,-1500.21 32,-1500.21 32,-1494.21 32,-1494.21 32,-1491.21 35,-1488.21 38,-1488.21 38,-1488.21 91,-1488.21 91,-1488.21 94,-1488.21 97,-1491.21 97,-1494.21 97,-1494.21 97,-1500.21 97,-1500.21 97,-1503.21 94,-1506.21 91,-1506.21"/>
<text text-anchor="start" x="40" y="-1495.01" font-family="Helvetica,sans-Serif" font-size="9.00">directus.ts</text>
</a>
</g>
</g>
<!-- pages/blog/[id].tsx -->
<g id="node51" class="node">
<title>pages/blog/[id].tsx</title>
<g id="a_node51"><a xlink:href="pages/blog/[id].tsx" xlink:title="[id].tsx">
<path fill="#bbfeff" stroke="black" d="M85.5,-1438.21C85.5,-1438.21 43.5,-1438.21 43.5,-1438.21 40.5,-1438.21 37.5,-1435.21 37.5,-1432.21 37.5,-1432.21 37.5,-1426.21 37.5,-1426.21 37.5,-1423.21 40.5,-1420.21 43.5,-1420.21 43.5,-1420.21 85.5,-1420.21 85.5,-1420.21 88.5,-1420.21 91.5,-1423.21 91.5,-1426.21 91.5,-1426.21 91.5,-1432.21 91.5,-1432.21 91.5,-1435.21 88.5,-1438.21 85.5,-1438.21"/>
<text text-anchor="start" x="48" y="-1427.01" font-family="Helvetica,sans-Serif" font-size="9.00">[id].tsx</text>
</a>
</g>
</g>
<!-- pages/blog/[id].tsx&#45;&gt;components/Blog/PostFull.tsx -->
<g id="edge53" class="edge">
<title>pages/blog/[id].tsx&#45;&gt;components/Blog/PostFull.tsx</title>
<path fill="none" stroke="#000000" stroke-width="2" stroke-opacity="0.200000" d="M91.7,-1426.92C99.83,-1424.83 107.97,-1421.03 113,-1414.21 124.04,-1399.24 107.81,-88.32 121,-75.21 231.33,34.46 444.6,-201.73 515,-230.21 522.03,-233.05 529.74,-235.46 537.24,-237.45"/>
<polygon fill="#000000" fill-opacity="0.200000" stroke="#000000" stroke-width="2" stroke-opacity="0.200000" points="537.15,-239.59 543.48,-239.03 538.18,-235.52 537.15,-239.59"/>
</g>
<!-- pages/blog/fetchData.ts -->
<g id="node52" class="node">
<title>pages/blog/fetchData.ts</title>
<g id="a_node52"><a xlink:href="pages/blog/fetchData.ts" xlink:title="fetchData.ts">
<path fill="#ddfeff" stroke="black" d="M215,-1423.21C215,-1423.21 155,-1423.21 155,-1423.21 152,-1423.21 149,-1420.21 149,-1417.21 149,-1417.21 149,-1411.21 149,-1411.21 149,-1408.21 152,-1405.21 155,-1405.21 155,-1405.21 215,-1405.21 215,-1405.21 218,-1405.21 221,-1408.21 221,-1411.21 221,-1411.21 221,-1417.21 221,-1417.21 221,-1420.21 218,-1423.21 215,-1423.21"/>
<text text-anchor="start" x="157" y="-1412.01" font-family="Helvetica,sans-Serif" font-size="9.00">fetchData.ts</text>
</a>
</g>
</g>
<!-- pages/blog/[id].tsx&#45;&gt;pages/blog/fetchData.ts -->
<g id="edge54" class="edge">
<title>pages/blog/[id].tsx&#45;&gt;pages/blog/fetchData.ts</title>
<path fill="none" stroke="#000000" stroke-width="2" stroke-opacity="0.200000" d="M91.51,-1425.92C106.43,-1424.03 125.52,-1421.61 142.48,-1419.47"/>
<polygon fill="#000000" fill-opacity="0.200000" stroke="#000000" stroke-width="2" stroke-opacity="0.200000" points="142.93,-1421.52 148.62,-1418.69 142.4,-1417.36 142.93,-1421.52"/>
</g>
<!-- pages/blog/index.tsx -->
<g id="node53" class="node">
<title>pages/blog/index.tsx</title>
<g id="a_node53"><a xlink:href="pages/blog/index.tsx" xlink:title="index.tsx">
<path fill="#bbfeff" stroke="black" d="M87.5,-1408.21C87.5,-1408.21 41.5,-1408.21 41.5,-1408.21 38.5,-1408.21 35.5,-1405.21 35.5,-1402.21 35.5,-1402.21 35.5,-1396.21 35.5,-1396.21 35.5,-1393.21 38.5,-1390.21 41.5,-1390.21 41.5,-1390.21 87.5,-1390.21 87.5,-1390.21 90.5,-1390.21 93.5,-1393.21 93.5,-1396.21 93.5,-1396.21 93.5,-1402.21 93.5,-1402.21 93.5,-1405.21 90.5,-1408.21 87.5,-1408.21"/>
<text text-anchor="start" x="43.5" y="-1397.01" font-family="Helvetica,sans-Serif" font-size="9.00">index.tsx</text>
</a>
</g>
</g>
<!-- pages/blog/index.tsx&#45;&gt;components/Blog/PostExcerpt.tsx -->
<g id="edge55" class="edge">
<title>pages/blog/index.tsx&#45;&gt;components/Blog/PostExcerpt.tsx</title>
<path fill="none" stroke="#000000" stroke-width="2" stroke-opacity="0.200000" d="M93.6,-1397.6C101.05,-1395.73 108.31,-1392.31 113,-1386.21 124.35,-1371.43 107.78,-57.35 121,-44.21 205.92,40.21 278.84,-14.7 390,-59.21 468.74,-90.73 538.62,-169.09 564.92,-201.17"/>
<polygon fill="#000000" fill-opacity="0.200000" stroke="#000000" stroke-width="2" stroke-opacity="0.200000" points="563.35,-202.57 568.76,-205.91 566.61,-199.93 563.35,-202.57"/>
</g>
<!-- pages/blog/index.tsx&#45;&gt;pages/blog/fetchData.ts -->
<g id="edge56" class="edge">
<title>pages/blog/index.tsx&#45;&gt;pages/blog/fetchData.ts</title>
<path fill="none" stroke="#000000" stroke-width="2" stroke-opacity="0.200000" d="M93.58,-1402.76C108.2,-1404.61 126.37,-1406.91 142.57,-1408.96"/>
<polygon fill="#000000" fill-opacity="0.200000" stroke="#000000" stroke-width="2" stroke-opacity="0.200000" points="142.69,-1411.1 148.9,-1409.77 143.22,-1406.93 142.69,-1411.1"/>
</g>
<!-- pages/index.tsx -->
<g id="node54" class="node">
<title>pages/index.tsx</title>
<g id="a_node54"><a xlink:href="pages/index.tsx" xlink:title="index.tsx">
<path fill="#bbfeff" stroke="black" d="M87.5,-1314.21C87.5,-1314.21 41.5,-1314.21 41.5,-1314.21 38.5,-1314.21 35.5,-1311.21 35.5,-1308.21 35.5,-1308.21 35.5,-1302.21 35.5,-1302.21 35.5,-1299.21 38.5,-1296.21 41.5,-1296.21 41.5,-1296.21 87.5,-1296.21 87.5,-1296.21 90.5,-1296.21 93.5,-1299.21 93.5,-1302.21 93.5,-1302.21 93.5,-1308.21 93.5,-1308.21 93.5,-1311.21 90.5,-1314.21 87.5,-1314.21"/>
<text text-anchor="start" x="43.5" y="-1303.01" font-family="Helvetica,sans-Serif" font-size="9.00">index.tsx</text>
</a>
</g>
</g>
<!-- pages/index.tsx&#45;&gt;components/Section/index.tsx -->
<g id="edge57" class="edge">
<title>pages/index.tsx&#45;&gt;components/Section/index.tsx</title>
<path fill="none" stroke="#000000" stroke-width="2" stroke-opacity="0.200000" d="M65.42,-1295.97C64.69,-1205.54 60.73,-479.85 121,-408.21 128.15,-399.72 139.15,-395.54 149.97,-393.62"/>
<polygon fill="#000000" fill-opacity="0.200000" stroke="#000000" stroke-width="2" stroke-opacity="0.200000" points="150.3,-395.7 155.94,-392.77 149.7,-391.54 150.3,-395.7"/>
</g>
<!-- pages/index.tsx&#45;&gt;pages/getPageProps.ts -->
<g id="edge59" class="edge">
<title>pages/index.tsx&#45;&gt;pages/getPageProps.ts</title>
<path fill="none" stroke="#000000" stroke-width="2" stroke-opacity="0.200000" d="M93.72,-1309.15C100.81,-1311.38 107.86,-1314.83 113,-1320.21 122.53,-1330.18 111.11,-1340.58 121,-1350.21 124.82,-1353.93 129.39,-1356.79 134.3,-1358.97"/>
<polygon fill="#000000" fill-opacity="0.200000" stroke="#000000" stroke-width="2" stroke-opacity="0.200000" points="133.84,-1361.04 140.19,-1361.24 135.34,-1357.12 133.84,-1361.04"/>
</g>
<!-- styles/pages/start.module.scss -->
<g id="node55" class="node">
<title>styles/pages/start.module.scss</title>
<g id="a_node55"><a xlink:href="styles/pages/start.module.scss" xlink:title="start.module.scss">
<path fill="#ffffcc" stroke="black" d="M227,-104.21C227,-104.21 143,-104.21 143,-104.21 140,-104.21 137,-101.21 137,-98.21 137,-98.21 137,-92.21 137,-92.21 137,-89.21 140,-86.21 143,-86.21 143,-86.21 227,-86.21 227,-86.21 230,-86.21 233,-89.21 233,-92.21 233,-92.21 233,-98.21 233,-98.21 233,-101.21 230,-104.21 227,-104.21"/>
<text text-anchor="start" x="145" y="-93.01" font-family="Helvetica,sans-Serif" font-size="9.00">start.module.scss</text>
</a>
</g>
</g>
<!-- pages/index.tsx&#45;&gt;styles/pages/start.module.scss -->
<g id="edge58" class="edge">
<title>pages/index.tsx&#45;&gt;styles/pages/start.module.scss</title>
<path fill="none" stroke="#000000" stroke-width="2" stroke-opacity="0.200000" d="M65.61,-1295.97C66.88,-1187.35 80.05,-156.16 121,-108.21 123.89,-104.82 127.41,-102.18 131.29,-100.12"/>
<polygon fill="#000000" fill-opacity="0.200000" stroke="#000000" stroke-width="2" stroke-opacity="0.200000" points="132.16,-102.03 136.79,-97.67 130.45,-98.2 132.16,-102.03"/>
</g>
</g>
</svg>
