<?xml version="1.0" encoding="utf-8"?>
<!-- Generator: Adobe Illustrator 25.1.0, SVG Export Plug-In . SVG Version: 6.00 Build 0)  -->
<svg version="1.1" id="Ebene_1" xmlns="http://www.w3.org/2000/svg" xmlns:xlink="http://www.w3.org/1999/xlink" x="0px" y="0px"
	 viewBox="0 40 708.66 187.46" style="enable-background:new 0 40 708.66 187.46;" xml:space="preserve">
<style type="text/css">
	.st0{fill:#FFFFFF;}
</style>
<g>
	<path class="st0" d="M215.99,91.38l-1.36-7.86l-58.47,10.14l16.34-14.75l-5.35-5.92L146.75,91.4L116.77,73l-4.17,6.8l27.2,16.69
		l-32.77,5.68l1.36,7.86l33.52-5.81l-2.89,19.57l7.89,1.17l3.27-22.1l34.15,20.95l4.17-6.8l-26.51-16.27L215.99,91.38z
		 M443.64,85.66v37.58h9.39V98.96c1.14-2.99,4.13-5.41,7.83-5.41c4.41,0,6.69,3.2,6.69,8.11v21.56h9.39v-22.85
		c0-9.68-5.41-15.37-13.09-15.37c-5.27,0-9.18,2.63-10.82,6.33v-5.69H443.64z M74.9,123.23h27.78v-8.47H84.3v-12.95h18.39v-8.47
		H84.3V81.88h21.71v-8.47H74.9V123.23z M219.98,140.31h9.39V119.6c2.49,2.85,5.91,4.41,10.11,4.41c9.04,0,16.16-7.54,16.16-20
		c0-12.31-6.97-19.14-15.87-19.14c-4.55,0-8.11,1.85-10.39,4.84v-4.06h-9.39V140.31z M237.28,115.69c-3.7,0-6.48-2.06-7.9-4.56
		V98.04c1.42-2.63,4.2-4.84,8.18-4.84c5.12,0,8.68,3.56,8.68,10.89C246.24,111.42,242.61,115.69,237.28,115.69 M340.94,123.23h9.39
		V85.66h-9.39V123.23z M340.72,80.96h9.82v-9.39h-9.82V80.96z M381.92,93.63v-7.97h-11.6v-8.82h-7.12l-0.5,3.84
		c-0.43,3.56-2.35,4.98-6.48,4.98h-1.78v7.97h6.48v15.16c0,9.25,5.27,14.73,14.38,14.73c1.49,0,2.7-0.14,3.63-0.28v-8.26h-2.7
		c-3.7,0-5.91-1.99-5.91-6.19V93.63H381.92z M386.05,123.23h9.39V85.66h-9.39V123.23z M385.84,80.96h9.82v-9.39h-9.82V80.96z
		 M400.93,104.16c0,12.24,7.97,19.93,18.79,19.93c10.82,0,18.79-7.69,18.79-19.93c0-11.81-7.97-19.36-18.79-19.36
		C408.9,84.8,400.93,92.35,400.93,104.16 M429.12,104.16c0,7.12-3.99,11.53-9.4,11.53c-5.41,0-9.39-4.41-9.39-11.53
		c0-6.62,3.99-10.96,9.39-10.96C425.13,93.2,429.12,97.54,429.12,104.16 M293.59,106.43c0.07-0.64,0.21-1.71,0.21-2.85
		c0-11.39-6.33-18.79-16.86-18.79c-11.1,0-17.72,7.4-17.72,19.14c0,12.24,5.88,20.14,17.13,20.14c8.9,0,14.35-4.84,15.7-12.24
		l-8.75-1.57c-0.78,3.56-2.82,5.91-6.88,5.91c-5.12,0-7.38-3.49-7.73-9.75H293.59z M268.68,99.81c0.71-4.7,3.7-7.12,8.25-7.12
		c4.34,0,6.9,2.49,7.54,7.12H268.68z M297.55,103.64c0-12.12,6.57-18.84,14.91-18.84c4.85,0,8.58,2.3,10.72,5.87V71.15h9.41v52.1
		h-15.86C305.11,123.24,297.55,115.61,297.55,103.64 M315.02,93.21c-4.56,0-8.06,3.44-8.06,10.71c0,6.99,3.93,11.44,10.42,11.44h5.8
		V98.15C321.61,95.37,318.52,93.21,315.02,93.21 M307.85,154.72h9.39v37.58h-9.39V154.72z M307.64,140.63h9.82v9.39h-9.82V140.63z
		 M334.58,154.72v5.69c1.64-3.7,5.55-6.33,10.82-6.33c7.69,0,13.1,5.69,13.1,15.37v22.84h-9.39v-21.56c0-4.91-2.28-8.11-6.69-8.11
		c-3.7,0-6.69,2.42-7.83,5.41v24.27h-9.39v-37.58H334.58z M366.25,192.3v-52.1h9.39v32.1l13.81-17.58h10.53l-15.44,19.66
		l10.19,17.92h-9.73l-9.36-16.69v16.69H366.25z M417.32,193.15c-10.82,0-18.79-7.69-18.79-19.93c0-11.81,7.97-19.36,18.79-19.36
		c10.82,0,18.79,7.54,18.79,19.36C436.11,185.47,428.14,193.15,417.32,193.15 M417.32,184.76c5.41,0,9.39-4.41,9.39-11.53
		c0-6.62-3.99-10.96-9.39-10.96c-5.41,0-9.39,4.34-9.39,10.96C407.93,180.34,411.92,184.76,417.32,184.76 M613.88,154.72v5.69
		c1.64-3.7,5.55-6.33,10.82-6.33c7.69,0,13.09,5.69,13.09,15.37v22.84h-9.39v-21.56c0-4.91-2.28-8.11-6.69-8.11
		c-3.7,0-6.69,2.42-7.83,5.41v24.27h-9.39v-37.58H613.88z M94.87,141.66c-14.02,0-24,9.53-24,25.62c0,16.01,9.46,25.9,23.41,25.9
		c8.97,0,15.8-4.13,19.78-10.39V165H95.27v7.9h9.46v7.76c-2.28,2.42-5.91,4.06-10.18,4.06c-8.82,0-14.3-6.83-14.3-17.43
		c0-10.67,6-17.08,14.61-17.08c6.26,0,11.62,2.85,13.12,10.25l9.18-1.78C115.46,147.92,106.18,141.66,94.87,141.66 M131.37,192.32
		v-21.63c1.71-4.84,4.63-7.68,9.68-7.68h2.63v-8.33c-0.78-0.07-1.85-0.21-2.92-0.21c-5.19,0-7.97,2.92-9.39,7.19v-6.97h-9.39v37.64
		H131.37z M148.41,154.75v23.2c0,9.53,5.62,15.23,13.09,15.23c4.63,0,8.75-2.49,10.75-6.55v5.69h9.39v-37.57h-9.39v24.76
		c-1.71,3.06-4.34,5.27-7.76,5.27c-4.2,0-6.69-3.27-6.69-7.76v-22.27H148.41z M188.81,154.75v37.57h9.39v-24.26
		c1.14-2.99,4.13-5.41,7.83-5.41c4.41,0,6.69,3.2,6.69,8.11v21.56h9.39v-22.84c0-9.68-5.41-15.37-13.09-15.37
		c-5.27,0-9.18,2.63-10.82,6.33v-5.69H188.81z M242.31,153.88c-8.34,0-14.91,6.72-14.91,18.84c0,11.98,7.57,19.61,19.19,19.61h15.86
		v-52.1h-9.41v19.51C250.9,156.19,247.16,153.88,242.31,153.88 M236.82,173.01c0-7.27,3.5-10.71,8.07-10.71
		c3.49,0,6.59,2.16,8.15,4.94v17.21h-5.8C240.75,184.45,236.82,180,236.82,173.01 M302,175.53c0.07-0.64,0.21-1.71,0.21-2.85
		c0-11.39-6.33-18.79-16.86-18.79c-11.1,0-17.72,7.4-17.72,19.14c0,12.24,5.88,20.14,17.13,20.14c8.9,0,14.35-4.84,15.7-12.24
		l-8.75-1.57c-0.78,3.56-2.82,5.91-6.88,5.91c-5.12,0-7.38-3.49-7.73-9.75H302z M277.1,168.91c0.71-4.7,3.7-7.12,8.25-7.12
		c4.34,0,6.9,2.49,7.54,7.12H277.1z M598.73,172.69c0,1.14-0.14,2.21-0.21,2.85h-24.91c0.36,6.26,2.61,9.75,7.73,9.75
		c4.06,0,6.1-2.35,6.88-5.91l8.75,1.57c-1.35,7.4-6.81,12.24-15.7,12.24c-11.24,0-17.13-7.9-17.13-20.14
		c0-11.74,6.62-19.14,17.72-19.14C592.4,153.9,598.73,161.3,598.73,172.69 M581.86,161.8c-4.55,0-7.54,2.42-8.25,7.12h15.8
		C588.77,164.29,586.21,161.8,581.86,161.8 M441.71,196.32l-6.87-4.04l13.29-22.6l12.15,5.08l15.11-20.27l16.58,23.16l13.89-27.29
		l19.54,14.17l15.15-25.44l13.68,17.35l8.61-7.92l5.4,5.87l-14.95,13.75l-11.82-15l-13.68,22.97l-19.06-13.82l-15.61,30.67
		L475.26,168l-12.3,16.51l-11.48-4.79L441.71,196.32z"/>
</g>
</svg>
