<svg id="b9c64d78-5740-43a3-8a47-e64a60e9b616" data-name="Layer 1" xmlns="http://www.w3.org/2000/svg" viewBox="0 0 62.87 62.87"><title>avatar1</title><rect x="-0.26" y="0.06" width="63" height="63" style="fill:#fff"/><path d="M64.86,138.31c-27.17,6.4-51.73-8.19-59-38.92-7-29.67,8.56-53.32,35.73-59.72s51.64,7.83,58.62,37.5c7.24,30.73-8.23,54.75-35.39,61.14" style="fill:#f5f5f5"/><path d="M31.57,18.11,15.7,48.83C7.23,44.46,4.05,35.34,8.82,26.1c4.94-9.57,14.28-12.36,22.75-8" style="fill:#f5f5f5"/><path d="M44.61,42.6C38.25,53.68,25.7,57.34,13.15,50.15L35.22,11.64c12.54,7.19,15.74,19.87,9.39,31" style="fill:#f5f5f5"/><path d="M41.1,11.46a25.7,25.7,0,0,1,9.43,5.08A23.27,23.27,0,0,1,56.48,25c.74,2.08,0,3.19-1.81,3.83L48.44,31s2.78,3.25.81,5.19-5.5-.76-5.5-.76" style="fill:none;stroke:#c4c4c4;stroke-width:1.15528496882053px"/><path d="M37.53,20.64c-.7.31-1.67-.35-2.16-1.47s-.32-2.28.38-2.59,1.66.36,2.15,1.48.33,2.27-.37,2.58" style="fill:#c4c4c4"/><path d="M43,37.09a3.14,3.14,0,0,1,1.74-2.51" style="fill:none;stroke:#c4c4c4;stroke-width:1.15528496882053px"/></svg>