<svg xmlns="http://www.w3.org/2000/svg" viewBox="0 0 62.87 62.87"><title>avatar2</title><g id="e92ee670-7786-43ee-97d7-6b0463d95e6b" data-name="Layer 2"><rect x="-0.26" y="0.06" width="63" height="63" style="fill:#fff"/><path d="M31.12,47.11c-8.8-.77-14.73-7.61-13.85-17.61.84-9.64,7.86-15.23,16.65-14.47s14.74,7.5,13.89,17.15c-.87,10-7.9,15.7-16.69,14.93" style="fill:#f5f5f5"/><polygon points="19.09 121.97 -2.14 45.56 52 51.09 19.09 121.97" style="fill:#f5f5f5"/><path d="M49.1,60.67s8.5-1.2,19-3.81,21.68-6.81,21.68-6.81l0-7.64a6.29,6.29,0,0,0,4.61-3,5.27,5.27,0,0,0-.41-5.26,14.07,14.07,0,0,0,4.85-2.84,4.94,4.94,0,0,0,1.7-3.4S86.16,35.64,71.56,42.07,40.38,54.44,40.38,54.44" style="fill:none;stroke:#c4c4c4;stroke-width:1.15528496882053px"/><path d="M-3.17,11.85s8.4-7.17,16.23-4.16c7.56,2.9,9.19,13.06,9.19,13.06s-8.58,8-16.14,5.05c-7.84-3-9.28-13.95-9.28-13.95" style="fill:#f5f5f5"/><path d="M13.36,58.18s-5,13.92-2.79,25.05A42.3,42.3,0,0,0,18.29,100" style="fill:none;stroke:#c4c4c4;stroke-width:1.15528496882053px"/><path d="M24.27,96.5a51.24,51.24,0,0,1-7.73,8.32A58.25,58.25,0,0,1,8.86,110,69.28,69.28,0,0,1,1.09,90.24C-1.73,76.73,4.92,62.49,4.92,62.49" style="fill:none;stroke:#c4c4c4;stroke-width:1.15528496882053px"/><path d="M36.58,37.86a4.28,4.28,0,0,1,1.27-1.37,4.23,4.23,0,0,1,1.77-.56" style="fill:none;stroke:#c4c4c4;stroke-width:1.15528496882053px"/><path d="M35,8.76s2.11,9.08,5,13.64,6.17,5.81,6.17,5.81a18.32,18.32,0,0,1-1.86,2.26A9,9,0,0,1,41.93,32a6.41,6.41,0,0,0,1,2.18,5.24,5.24,0,0,0,1.51,1.5A5.73,5.73,0,0,1,42,38.06c-3,1.15-4.2-1.13-4.2-1.13" style="fill:none;stroke:#c4c4c4;stroke-width:1.15528496882053px"/><path d="M32.89,25.82A1.81,1.81,0,1,1,34,23.72a1.68,1.68,0,0,1-1.13,2.1" style="fill:#c4c4c4"/></g></svg>