<svg width="117" height="117" viewBox="0 0 117 117" fill="none" xmlns="http://www.w3.org/2000/svg">
<path d="M58.5 117C90.8087 117 117 90.8087 117 58.5C117 26.1913 90.8087 0 58.5 0C26.1913 0 0 26.1913 0 58.5C0 90.8087 26.1913 117 58.5 117Z" fill="#FFFF55"/>
<path d="M76.7952 91.7585C77.8804 90.5808 78.4573 89.0227 78.4007 87.4222C78.4107 86.5975 78.2896 85.7763 78.0419 84.9896C79.0507 85.0684 79.9892 85.5364 80.6593 86.2946C81.3293 87.0528 81.6783 88.0417 81.6325 89.0525C81.5867 90.0633 81.1497 91.0167 80.4138 91.7112C79.678 92.4057 78.7009 92.7868 77.6892 92.7741H77.452C77.2541 92.4224 77.0347 92.0833 76.7952 91.7585ZM68.6031 31.9509C68.6031 33.2741 68.9955 34.5675 69.7306 35.6676C70.4656 36.7678 71.5105 37.6252 72.7329 38.1316C73.9553 38.6379 75.3004 38.7704 76.5981 38.5123C77.8958 38.2542 79.0879 37.617 80.0235 36.6814C80.9591 35.7458 81.5962 34.5538 81.8543 33.2561C82.1125 31.9584 81.98 30.6132 81.4736 29.3908C80.9673 28.1684 80.1098 27.1236 79.0097 26.3885C77.9095 25.6534 76.6161 25.2611 75.293 25.2611C73.5217 25.2706 71.8256 25.9785 70.5731 27.2311C69.3206 28.4836 68.6127 30.1796 68.6031 31.9509ZM64.6804 13.7727C64.6666 14.2297 64.7436 14.6849 64.9068 15.1119C65.0699 15.539 65.3161 15.9295 65.6311 16.2609C65.9461 16.5923 66.3236 16.858 66.7419 17.0426C67.1601 17.2272 67.6108 17.3271 68.0679 17.3366C72.4042 17.3366 75.5484 19.5382 77.7987 23.0412C78.1146 23.5274 78.546 23.9279 79.0543 24.207C79.5625 24.4861 80.132 24.6351 80.7118 24.6407C81.1617 24.6603 81.611 24.5892 82.0329 24.4316C82.4548 24.274 82.8406 24.0331 83.1675 23.7232C83.4943 23.4134 83.7555 23.041 83.9354 22.6281C84.1154 22.2153 84.2104 21.7704 84.2149 21.3201C84.2149 18.7658 79.8178 14.3079 77.0263 12.7084C74.3498 11.1741 71.3232 10.3551 68.2382 10.3304C67.3111 10.319 66.417 10.6744 65.7506 11.3191C65.0842 11.9638 64.6996 12.8457 64.6804 13.7727ZM49.5978 43.2508C49.5929 43.7121 49.6801 44.1699 49.8545 44.5971C50.0288 45.0243 50.2866 45.4124 50.6129 45.7387C50.9392 46.065 51.3273 46.3228 51.7545 46.4971C52.1817 46.6714 52.6394 46.7587 53.1008 46.7538C54.0265 46.7428 54.9111 46.3702 55.5656 45.7156C56.2202 45.061 56.5928 44.1764 56.6039 43.2508C56.6006 43.0007 56.6475 42.7525 56.7417 42.5208C56.8359 42.2891 56.9755 42.0786 57.1524 41.9017C57.3292 41.7249 57.5397 41.5852 57.7714 41.491C58.0031 41.3968 58.2513 41.35 58.5014 41.3533C58.7551 41.3484 59.0072 41.3937 59.2434 41.4865C59.4795 41.5794 59.695 41.7179 59.8775 41.8942C60.06 42.0705 60.2059 42.281 60.3069 42.5138C60.4078 42.7466 60.4618 42.9971 60.4658 43.2508C60.4658 44.1798 60.8348 45.0709 61.4918 45.7278C62.1488 46.3848 63.0398 46.7538 63.9688 46.7538C64.8979 46.7538 65.7889 46.3848 66.4459 45.7278C67.1028 45.0709 67.4719 44.1798 67.4719 43.2508C67.4111 40.9209 66.4429 38.7068 64.7735 37.0804C63.1041 35.454 60.8655 34.5438 58.5348 34.5438C56.2041 34.5438 53.9656 35.454 52.2962 37.0804C50.6268 38.7068 49.6585 40.9209 49.5978 43.2508ZM47.1651 95.4562C47.1651 88.3892 49.7194 83.165 52.0973 78.5308C53.9948 74.8453 55.7464 71.105 55.7464 66.8904C55.7464 64.6888 55.6855 62.025 55.6855 59.8782V56.1379C55.6855 52.9937 56.9384 51.5645 58.4771 51.5645C60.4414 51.5645 61.3902 53.5289 61.3902 56.5576V71.403C59.7555 71.6017 58.1442 71.9602 56.5796 72.4734C56.0775 72.6043 55.6318 72.8955 55.3102 73.3027C54.9886 73.7099 54.8086 74.2109 54.7976 74.7297C54.7935 75.0351 54.8507 75.3383 54.9657 75.6213C55.0807 75.9042 55.2512 76.1613 55.4672 76.3773C55.6832 76.5933 55.9402 76.7638 56.2232 76.8788C56.5062 76.9938 56.8093 77.0509 57.1147 77.0469C57.8263 77.0469 61.6274 75.8305 66.2008 75.8305C69.7039 75.8305 73.6813 76.5421 73.6813 78.7984C73.7058 79.1616 73.6232 79.524 73.4437 79.8407C73.2643 80.1574 72.9959 80.4146 72.6718 80.5803C70.5463 79.988 68.3461 79.7073 66.14 79.7471C62.726 79.7695 59.3304 80.2502 56.0444 81.1763C55.5423 81.3073 55.0966 81.5984 54.775 82.0056C54.4534 82.4128 54.2734 82.9139 54.2624 83.4326C54.2568 83.7411 54.3125 84.0475 54.4262 84.3343C54.54 84.621 54.7096 84.8823 54.9252 85.103C55.1407 85.3236 55.398 85.4993 55.682 85.6197C55.966 85.7401 56.2711 85.8029 56.5796 85.8045C57.3519 85.8045 61.0314 84.3814 66.2008 84.3814C70.458 84.3814 73.6813 85.3301 73.6813 87.2337C73.7137 87.5967 73.6416 87.9613 73.4735 88.2846C73.3054 88.6079 73.0483 88.8763 72.7326 89.0582C70.7576 88.4145 68.6916 88.0942 66.6144 88.1095C63.0391 88.1653 59.4861 88.6845 56.0444 89.6542C55.5428 89.7861 55.0976 90.0775 54.7762 90.4845C54.4548 90.8915 54.2744 91.392 54.2624 91.9105C54.2568 92.2193 54.3124 92.526 54.4261 92.8131C54.5398 93.1002 54.7093 93.3619 54.9248 93.583C55.1403 93.8042 55.3975 93.9804 55.6815 94.1015C55.9656 94.2226 56.2708 94.2861 56.5796 94.2885C57.4128 94.2885 61.5118 92.7437 66.6144 92.7437C70.8351 92.7437 73.6813 94.2885 73.6813 97.1347C73.6813 100.997 70.8351 103.137 66.9124 103.137C64.8933 103.137 63.4701 102.663 63.4701 101.471C63.4701 100.407 64.9541 100.17 66.438 99.9262C67.0715 99.8644 67.6593 99.5694 68.0875 99.0985C68.5157 98.6276 68.7536 98.0145 68.7551 97.378C68.7453 97.0874 68.6768 96.8018 68.5539 96.5382C68.4309 96.2747 68.256 96.0388 68.0396 95.8445C67.8232 95.6503 67.5698 95.5017 67.2946 95.4078C67.0194 95.3139 66.728 95.2766 66.438 95.2981C62.6978 95.2981 58.8359 97.5544 58.8359 101.593C58.8359 106.105 62.6978 107.826 66.9124 107.826C68.3243 107.826 69.7277 107.607 71.0723 107.176C69.5275 110.563 66.14 112.339 60.9158 112.339C52.2068 112.303 47.159 104.524 47.159 95.4379L47.1651 95.4562ZM35.0503 31.9509C35.0503 33.2741 35.4426 34.5675 36.1777 35.6676C36.9128 36.7678 37.9577 37.6252 39.1801 38.1316C40.4025 38.6379 41.7476 38.7704 43.0453 38.5123C44.343 38.2542 45.535 37.617 46.4706 36.6814C47.4062 35.7458 48.0434 34.5538 48.3015 33.2561C48.5597 31.9584 48.4272 30.6132 47.9208 29.3908C47.4145 28.1684 46.557 27.1236 45.4569 26.3885C44.3567 25.6534 43.0633 25.2611 41.7402 25.2611C39.9723 25.2816 38.2826 25.993 37.0324 27.2432C35.7822 28.4934 35.0708 30.183 35.0503 31.9509ZM32.794 21.3201C32.7986 21.7678 32.8927 22.21 33.0707 22.6208C33.2488 23.0315 33.5072 23.4026 33.8308 23.712C34.1544 24.0214 34.5366 24.2629 34.9549 24.4224C35.3732 24.5819 35.8192 24.6562 36.2666 24.6407C36.8465 24.6351 37.4159 24.4861 37.9242 24.207C38.4324 23.9279 38.8638 23.5274 39.1798 23.0412C41.4361 19.5382 44.5803 17.3366 48.9105 17.3366C49.3676 17.3271 49.8183 17.2272 50.2366 17.0426C50.6548 16.858 51.0323 16.5923 51.3473 16.2609C51.6623 15.9295 51.9085 15.539 52.0717 15.1119C52.2349 14.6849 52.3118 14.2297 52.298 13.7727C52.2789 12.8446 51.8934 11.9618 51.2257 11.3169C50.558 10.672 49.6623 10.3174 48.7341 10.3304C45.6492 10.3551 42.6226 11.1741 39.9461 12.7084C37.185 14.3079 32.7879 18.7658 32.7879 21.3201H32.794ZM7.0136 58.4976C7.01965 49.0664 9.61572 39.818 14.5186 31.7613C19.4214 23.7046 26.4428 17.1492 34.8166 12.8102C43.1904 8.47113 52.595 6.51516 62.0045 7.15565C71.4139 7.79614 80.4668 11.0085 88.1754 16.4422C95.8839 21.876 101.952 29.3224 105.718 37.9691C109.484 46.6159 110.803 56.1308 109.531 65.4758C108.259 74.8209 104.445 83.6371 98.5047 90.9627C92.5647 98.2883 84.7269 103.842 75.8464 107.018C76.1719 105.825 76.3756 104.602 76.4546 103.368C77.7529 101.549 78.4387 99.3637 78.4129 97.1287C82.81 96.7759 86.3191 93.3884 86.3191 88.9366C86.3027 86.767 85.4456 84.6884 83.9279 83.1379C82.4103 81.5873 80.3505 80.6858 78.1818 80.6229C78.3547 79.9829 78.4346 79.3213 78.419 78.6585C78.419 72.9599 72.1852 71.1172 66.3042 71.1172H66.1218V69.0372C67.3981 67.9055 68.4014 66.4995 69.0565 64.9246C69.7117 63.3496 70.0015 61.6467 69.9044 59.9438C69.8073 58.2408 69.3256 56.5819 68.4956 55.0917C67.6657 53.6015 66.5089 52.3186 65.1122 51.3394C63.8959 48.4871 61.6091 46.8876 58.2824 46.8876C55.3754 46.8876 53.0583 48.6696 51.8723 51.4003C50.4336 52.4604 49.2629 53.8425 48.454 55.4361C47.645 57.0297 47.2203 58.7904 47.2137 60.5776C47.2144 62.1716 47.5536 63.7473 48.2088 65.2005C48.8641 66.6536 49.8205 67.951 51.0148 69.0068C50.7776 71.0868 49.5309 73.5255 48.0469 76.3718C45.5534 81.1824 42.4639 87.1851 42.4639 95.4379C42.3966 99.9999 43.565 104.495 45.8453 108.447C34.7428 105.619 24.8984 99.1743 17.8665 90.1292C10.8347 81.0842 7.01604 69.9545 7.0136 58.4976ZM60.9402 116.998C62.236 117.004 63.5295 116.884 64.802 116.639C79.9068 114.955 93.7581 107.443 103.408 95.7014C113.058 83.9597 117.744 68.9155 116.47 53.7707C115.196 38.6259 108.061 24.5764 96.5848 14.6123C85.1085 4.64829 70.1966 -0.443518 55.0229 0.420623C39.8492 1.28476 25.6118 8.03661 15.3409 19.2392C5.06998 30.4417 -0.423408 45.2104 0.0298861 60.4019C0.48318 75.5935 6.84736 90.0083 17.7679 100.579C28.6885 111.149 43.3031 117.04 58.5014 116.998H60.9341H60.9402Z" fill="#000001"/>
</svg>
