<svg width="110" height="107" viewBox="0 0 110 107" fill="none" xmlns="http://www.w3.org/2000/svg">
<path d="M85.888 51.9536C87.7855 42.1499 92.3906 31.2032 101.823 31.2032C106.372 31.2032 110.001 33.8054 110.001 38.083C110.001 40.036 109.241 42.1499 108.486 44.7409C104.963 55.2825 105.157 57.2577 105.157 67.3388C105.157 88.0892 87.8743 106.731 67.3902 106.731C52.6541 106.731 47.5609 96.3283 35.3159 84.2998C31.7429 80.8321 24.2195 76.2826 18.4105 73.0313C11.9634 69.2918 5.84375 65.8797 5.84375 59.9209C5.84375 56.1814 8.87863 53.6347 12.4517 53.6347C15.6475 53.6347 18.8987 55.4767 21.6063 56.9637C23.1265 57.7182 33.1521 63.6215 36.1815 64.9808C31.0715 60.0263 23.0377 52.7137 17.201 47.7259C13.2451 44.2582 9.611 41.2289 9.611 36.4574C9.611 32.7179 12.9732 29.3057 16.4409 29.3057C19.4203 29.3057 22.616 31.4196 25.7619 33.8553C28.0367 35.7528 41.419 47.6204 46.024 51.7372C41.2026 45.2347 30.8552 30.9869 28.6858 27.952C26.2501 24.5398 24.569 21.0167 24.569 17.9263C24.6183 15.8818 25.4525 13.9346 26.8986 12.4884C28.3448 11.0423 30.292 10.2081 32.3365 10.1588C35.7542 10.1588 38.7836 12.7609 41.6021 16.6613L60.8378 43.2928C59.4285 37.5449 54.6626 20.8613 53.0703 16.2008C51.9606 12.8386 51.2227 10.0256 51.2227 7.58443C51.2227 3.41216 54.5849 0 58.4853 0C60.8711 0 63.2513 1.46473 65.1432 4.0613C69.2101 9.60953 73.9205 28.823 77.9041 37.2785C79.7129 41.0624 82.6701 47.3486 85.888 51.9536Z" fill="#FFFF55"/>
<path d="M89.8433 2.67979C89.8631 2.09221 90.1016 1.53319 90.5122 1.11237C90.9228 0.691544 91.4757 0.439274 92.0626 0.405022C92.6925 0.443432 93.2856 0.7143 93.7271 1.16513C98.754 6.78381 101.549 14.0491 101.583 21.5882C101.583 22.6978 101.472 23.9739 101.361 25.1113C101.295 25.6374 101.038 26.1209 100.64 26.4705C100.241 26.8201 99.7279 27.0116 99.1977 27.0088C97.572 27.0088 96.9229 25.8991 96.9229 24.5176C96.9229 23.5966 97.0838 22.5646 97.0838 21.5882C97.0666 15.1561 94.6987 8.95228 90.4259 4.14453C90.0646 3.74054 89.8582 3.22157 89.8433 2.67979ZM10.3594 60.0818C10.3594 63.4107 15.6691 66.2569 20.6015 69.2363C26.993 72.7595 34.5275 77.3645 38.5888 81.215C50.4565 92.7553 54.5733 102.298 67.5783 102.298C87.3522 102.298 100.685 84.6382 100.685 67.5164C100.685 57.058 100.463 54.6223 104.258 43.3483C104.962 41.24 105.611 39.5034 105.611 38.3549C105.611 36.6183 104.502 35.6474 102.144 35.6474C96.7287 35.6474 92.8227 40.9015 90.7644 51.7372C90.1152 55.5821 88.6005 57.8403 86.3258 57.8403C85.0219 57.8403 83.7237 56.9193 82.5863 55.3436C79.9842 51.715 75.9728 43.7478 73.809 38.4381C70.3968 30.2045 63.5115 9.29328 61.7804 6.85206C60.7484 5.44281 59.6665 4.46632 58.5292 4.46632C57.1199 4.46632 55.6552 5.93106 55.6552 7.98945C55.6552 9.3987 56.1434 11.3184 57.0089 13.8428C59.0729 20.6672 63.8943 37.789 65.2481 42.4495C65.7363 44.1861 66.3577 46.0281 66.3577 47.5982C66.3873 48.023 66.3295 48.4492 66.1878 48.8507C66.046 49.2522 65.8235 49.6203 65.5338 49.9323C65.2442 50.2443 64.8936 50.4936 64.5037 50.6647C64.1139 50.8359 63.6931 50.9252 63.2673 50.9272C61.3754 50.9272 59.6943 48.9742 58.2295 46.9713L37.9119 19.2302C35.5262 15.8125 33.7952 14.6251 32.4414 14.6251C31.5377 14.6626 30.6844 15.0511 30.0627 15.708C29.441 16.3649 29.1001 17.2384 29.1125 18.1427C29.1125 20.2566 30.5772 23.0196 32.2583 25.4053C32.852 26.2154 51.383 51.5763 52.4095 53.0355C53.2805 54.3393 53.9297 55.5322 53.9297 56.6141C53.9297 58.3452 52.1432 59.8099 50.4066 59.8099C48.4536 59.8099 46.2898 58.0788 44.2314 56.1813C41.6293 53.7956 25.323 39.5367 22.7764 37.273C20.2297 35.0093 18.4377 33.6389 16.8675 33.6389C16.124 33.6517 15.4146 33.9528 14.8887 34.4786C14.3629 35.0044 14.0619 35.7139 14.049 36.4574C14.1375 37.6138 14.551 38.7216 15.2419 39.6532C18.1159 43.4482 37.7289 59.2162 41.5738 64.4704C42.3894 65.58 42.983 66.8007 42.983 67.8826C42.983 69.4527 41.6847 70.7565 39.7872 70.7565C38.0007 70.7565 35.8314 69.891 33.3957 68.4818C30.2498 67.017 20.5515 61.38 19.5251 60.8419C15.4028 58.5116 13.5108 57.8625 12.4789 57.8625C11.9078 57.8882 11.3686 58.1333 10.9738 58.5468C10.5789 58.9602 10.3589 59.5101 10.3594 60.0818ZM9.38296 83.1291C9.3911 82.5516 9.62076 81.9993 10.0245 81.5863C10.4282 81.1732 10.9752 80.9311 11.5523 80.9098C11.982 80.9143 12.402 81.038 12.7655 81.2673C13.129 81.4965 13.4216 81.8222 13.6107 82.2081C15.2435 85.5019 17.5558 88.4124 20.3951 90.7478C23.2344 93.0831 26.5364 94.7903 30.0834 95.7569C30.5594 95.8856 30.9801 96.167 31.2808 96.5579C31.5814 96.9488 31.7455 97.4275 31.7479 97.9207C31.7449 98.5246 31.5038 99.1029 31.0767 99.5299C30.6497 99.9569 30.0714 100.198 29.4675 100.201C29.2773 100.199 29.0892 100.161 28.9127 100.09C24.7421 98.9625 20.8609 96.9558 17.5298 94.2046C14.1986 91.4534 11.4947 88.0213 9.59934 84.1389C9.44882 83.824 9.37468 83.478 9.38296 83.1291ZM5.86539 59.9431C5.86539 56.2035 8.90027 53.6569 12.4733 53.6569C15.6691 53.6569 18.9204 55.4989 21.6279 56.9858C23.1481 57.7404 33.1738 63.6437 36.2031 65.003C31.071 60.0263 23.0371 52.7137 17.2004 47.7259C13.2445 44.2582 9.61044 41.2289 9.61044 36.4574C9.61044 32.7179 12.9727 29.3057 16.4403 29.3057C19.4197 29.3057 22.6155 31.4196 25.7613 33.8553C28.0361 35.7528 41.4184 47.6204 46.0234 51.7372C41.202 45.2347 30.8546 30.9869 28.6852 27.952C26.2496 24.5398 24.5685 21.0167 24.5685 17.9263C24.6177 15.8818 25.4519 13.9346 26.8981 12.4884C28.3442 11.0423 30.2914 10.2081 32.336 10.1588C35.7537 10.1588 38.783 12.7609 41.6015 16.6613L60.8372 43.2928C59.428 37.5449 54.662 20.8613 53.0697 16.2008C51.9601 12.8386 51.2221 10.0256 51.2221 7.58443C51.2221 3.41216 54.5844 0 58.4848 0C60.8705 0 63.2507 1.46473 65.1426 4.0613C69.2095 9.60953 73.9199 28.823 77.9036 37.2785C79.6901 41.068 82.6196 47.3541 85.8653 51.9592C87.7628 42.1554 92.3678 31.2088 101.8 31.2088C106.349 31.2088 109.978 33.8109 109.978 38.0886C109.978 40.0416 109.218 42.1554 108.463 44.7465C104.94 55.2881 105.134 57.2633 105.134 67.3444C105.134 88.0948 87.8515 106.737 67.3675 106.737C52.6314 106.737 47.5381 96.3339 35.2932 84.3053C31.7201 80.8377 24.1967 76.2881 18.3877 73.0369C11.9851 69.2918 5.86539 65.8797 5.86539 59.9209V59.9431ZM0.000910139 87.4456C-0.0075304 87.1584 0.0428107 86.8726 0.148844 86.6056C0.254877 86.3385 0.414364 86.096 0.617515 85.8929C0.820666 85.6897 1.06319 85.5302 1.33021 85.4242C1.59722 85.3182 1.88309 85.2678 2.17027 85.2763C2.64203 85.2793 3.10169 85.4259 3.48818 85.6964C3.87467 85.967 4.1697 86.3487 4.33408 86.7909C5.5075 90.291 7.4162 93.4995 9.93202 96.2009C12.4479 98.9024 15.5126 101.034 18.9204 102.454C19.3077 102.61 19.6391 102.88 19.8716 103.227C20.1041 103.574 20.2269 103.983 20.2242 104.401C20.2392 104.702 20.193 105.002 20.0882 105.284C19.9834 105.567 19.8224 105.825 19.6148 106.043C19.4072 106.26 19.1574 106.434 18.8806 106.552C18.6039 106.671 18.3059 106.732 18.0049 106.731C17.7272 106.729 17.4524 106.674 17.1949 106.57C13.213 104.889 9.63306 102.382 6.69123 99.2159C3.7494 96.0493 1.51262 92.2948 0.128519 88.2002C0.0552167 87.9548 0.012359 87.7014 0.000910139 87.4456ZM88.8058 26.9699C88.2296 26.946 87.6842 26.703 87.281 26.2906C86.8778 25.8781 86.6473 25.3273 86.6365 24.7506C86.5343 21.0759 85.6686 17.4626 84.0945 14.1405C82.5204 10.8184 80.2722 7.86017 77.493 5.45391C77.2524 5.2345 77.0604 4.96709 76.9295 4.66894C76.7986 4.37078 76.7316 4.04849 76.7329 3.72286C76.7387 3.15085 76.9697 2.60418 77.3757 2.20125C77.7818 1.79832 78.3302 1.57158 78.9023 1.57015C79.4143 1.56546 79.9121 1.73795 80.3115 2.05839C83.6144 4.84723 86.2808 8.31194 88.1309 12.2188C89.9809 16.1257 90.9717 20.3839 91.0362 24.7063C91.0492 25.0035 91.001 25.3002 90.8948 25.5781C90.7885 25.856 90.6263 26.1091 90.4183 26.3218C90.2103 26.5345 89.9608 26.7022 89.6854 26.8147C89.41 26.9271 89.1144 26.9818 88.8169 26.9755L88.8058 26.9699Z" fill="#000001"/>
</svg>
