<svg xmlns="http://www.w3.org/2000/svg" width="70.502" height="66.811"><path data-name="rocket" d="M32.546 47.315l-9.37-9.379-8.93.756a41.451 41.451 0 016.176-13.956l2.218-3.231 10.636-.727a60.826 60.826 0 016.481-7.619C46.91 6 54.854 1.394 60.857.394a20.1 20.1 0 018.973.237 19.131 19.131 0 01.169 9.379c-1.133 5.959-5.694 13.714-12.69 20.718a60.514 60.514 0 01-7.615 6.481l-.723 10.644-3.335 2.238a44.353 44.353 0 01-13.839 6.164zm21.685-30.957a4.079 4.079 0 10-.085-5.858 4.139 4.139 0 00.085 5.858z" fill="#fff" fill-rule="evenodd"/><path d="M28.058 37.011C11.405 50.755.105 49.386.105 49.386M32.346 41.338c-17.637 19.323-15.91 23.4-10.484 24.417s6.845-2.876 5.194-4.823-3.9-2.276-5.194 0M25.236 42.928c-7.809 7.2-9.224 10.053-15.057 10.053" fill="none" stroke="#1d1d1b" stroke-width="1.75"/></svg>