<?xml version="1.0" encoding="UTF-8"?>
<svg id="Text-Claims-Co." xmlns="http://www.w3.org/2000/svg" viewBox="0 0 1080 400">
  <path d="M424.1,244.44c1.04-.02,2.1-.05,3.18-.07,1.08-.02,2.2-.07,3.35-.13,1.15-.06,2.33-.11,3.52-.13.17,0,.34,0,.51,0,0-.08,0-.16,0-.24-.03-1.46-.07-3.16-.11-5.09-.06-2.77-.3-4.93-.72-6.46-.42-1.53-1.04-2.62-1.86-3.25-.82-.64-1.97-.94-3.43-.91-1.46.03-2.75.43-3.85,1.18-1.1.76-1.96,1.97-2.58,3.64-.62,1.67-1.03,3.97-1.24,6.91-.09,1.34-.15,2.86-.19,4.55.19,0,.39,0,.57,0,.85.02,1.79.02,2.83,0Z"/>
  <path d="M661.27,234.69c-.4-2.26-.96-4.04-1.68-5.34-.72-1.29-1.59-2.16-2.6-2.6-1.01-.44-2.21-.65-3.6-.62-1.23.03-2.35.28-3.34.77-.99.48-1.82,1.37-2.49,2.66-.67,1.29-1.15,3.09-1.44,5.41-.3,2.32-.4,5.29-.33,8.91.08,3.54.32,6.51.71,8.89.4,2.38.96,4.24,1.68,5.57.72,1.33,1.59,2.3,2.61,2.89,1.01.6,2.14.88,3.37.85,1.39-.03,2.61-.36,3.68-1.01,1.06-.64,1.89-1.64,2.48-3,.59-1.36,1.03-3.24,1.32-5.64.29-2.39.4-5.37.33-8.91-.08-3.62-.32-6.56-.71-8.83Z"/>
  <path d="M354.34,259.83c.36,2.3.84,4.11,1.45,5.4.61,1.3,1.4,2.21,2.37,2.72.97.52,1.96.77,2.96.74,1.23-.03,2.31-.26,3.22-.71.92-.44,1.73-1.15,2.44-2.13.71-.98,1.24-2.28,1.59-3.91.35-1.63.5-3.48.46-5.56l-.4-23.04s-.03-.01-.05-.02c-.97-.33-2.02-.61-3.14-.86-1.12-.24-2.34-.35-3.65-.32-1.31.03-2.48.32-3.51.89-1.03.56-1.92,1.51-2.66,2.83-.74,1.33-1.24,3.25-1.49,5.76-.25,2.51-.34,5.66-.26,9.43.08,3.54.29,6.47.65,8.77Z"/>
  <path d="M363.86,150.79c.83.42,1.79.73,2.89.93,1.15.21,2.3.3,3.45.28,1.53-.03,2.79-.32,3.78-.87.99-.55,1.79-1.53,2.42-2.92.63-1.39,1.09-3.26,1.4-5.6.3-2.34.42-5.35.36-9.03-.06-3.68-.25-6.66-.56-8.96-.31-2.29-.78-4.03-1.41-5.21-.63-1.18-1.4-1.99-2.28-2.43-.89-.44-1.91-.66-3.06-.64-1.15.02-2.16.21-3.04.57-.88.36-1.67,1.06-2.38,2.11-.71,1.05-1.22,2.38-1.54,3.99-.32,1.62-.45,3.76-.4,6.45l.37,21.32Z"/>
  <path d="M540.82,133.33c.22,1.65.59,2.96,1.1,3.95.51.99,1.18,1.63,1.99,1.92.81.29,1.71.43,2.71.41,1.3-.02,2.43-.25,3.38-.69.95-.44,1.71-1.08,2.27-1.94.56-.85.98-1.95,1.26-3.3.28-1.35.41-2.9.38-4.66l-.09-16.29c-.17-.1-.32-.23-.49-.32-.89-.48-1.86-.89-2.9-1.21-1.04-.33-2.1-.48-3.17-.46-1.3.02-2.39.25-3.27.69-.87.44-1.63,1.24-2.26,2.4-.63,1.16-1.03,2.8-1.18,4.91-.16,2.11-.2,4.81-.15,8.11.05,2.68.18,4.85.4,6.49Z"/>
  <path d="M676.13,124.01c1.03-.02,2.09-.04,3.16-.06,1.07-.02,2.18-.06,3.33-.12,1.15-.06,2.32-.1,3.51-.12.17,0,.34,0,.51,0,0-.08,0-.16,0-.24-.03-1.45-.06-3.14-.09-5.06-.05-2.76-.28-4.9-.69-6.43-.41-1.53-1.02-2.61-1.84-3.24-.82-.64-1.95-.94-3.41-.92-1.46.03-2.73.41-3.83,1.16-1.1.75-1.96,1.95-2.58,3.61-.62,1.66-1.04,3.95-1.26,6.86-.1,1.33-.17,2.85-.2,4.53.19,0,.39,0,.57,0,.84.02,1.78.03,2.82,0Z"/>
  <path d="M907.58,218.8c-1.1.76-1.96,1.97-2.58,3.64-.62,1.67-1.03,3.97-1.24,6.91-.09,1.34-.15,2.86-.18,4.55.19,0,.39,0,.57,0,.85.02,1.79.02,2.83,0,1.04-.02,2.1-.05,3.18-.07,1.08-.02,2.2-.07,3.35-.13,1.15-.06,2.33-.11,3.52-.13.17,0,.34,0,.51,0,0-.08,0-.16,0-.24-.03-1.46-.07-3.16-.11-5.09-.06-2.77-.3-4.93-.72-6.46-.42-1.53-1.04-2.62-1.86-3.26-.82-.64-1.97-.94-3.43-.91-1.46.03-2.75.43-3.85,1.18Z"/>
  <path d="M840.75,121.13c1.03-.02,2.09-.04,3.16-.06,1.07-.02,2.18-.06,3.33-.12,1.15-.06,2.32-.1,3.5-.12.17,0,.34,0,.51,0,0-.08,0-.16,0-.24-.03-1.45-.05-3.14-.09-5.06-.05-2.76-.28-4.9-.69-6.43-.41-1.53-1.02-2.61-1.84-3.25-.82-.64-1.95-.94-3.41-.92-1.46.03-2.73.41-3.83,1.16-1.1.75-1.96,1.95-2.58,3.61-.62,1.66-1.04,3.95-1.26,6.86-.1,1.33-.17,2.85-.2,4.53.19,0,.39,0,.57,0,.84.02,1.78.03,2.82,0Z"/>
  <path d="M1027.03,162.43l-65.49,1.14-1.98-113.32-886.25,15.47,1.98,113.32-25.29.44,2.97,170.26,977.03-17.05-2.97-170.26ZM967.82,201.47c-.03,2.08-.05,4.03-.05,5.84,0,1.59,0,3.2,0,4.82l.85.11c.57-1.42,1.21-2.72,1.94-3.89,1.75-2.81,4-4.87,6.75-6.16,2.75-1.29,5.93-1.98,9.55-2.06,2.85-.06,5.4.23,7.65.87,2.25.64,4.12,1.76,5.62,3.35,1.5,1.59,2.7,3.62,3.6,6.11.9,2.49,1.39,5.5,1.47,9.05.08,3.47.14,6.55.2,9.25.06,2.7.09,5.18.1,7.46,0,2.27.04,4.43.08,6.47.04,2.04.09,4.14.14,6.3.1,4.7.23,9.03.4,13,.16,3.97.33,7.91.49,11.84l-24.27.53c-.08-3.77-.14-7.96-.16-12.54-.02-4.58-.09-9.58-.21-14.97-.12-5.39-.24-11.21-.38-17.45-.04-1.85-.27-3.33-.68-4.44-.41-1.11-1.02-1.9-1.84-2.39-.82-.48-1.92-.71-3.31-.68-1.23.03-2.29.22-3.17.59-.88.37-1.64,1-2.27,1.9-.64.9-1.13,2.05-1.49,3.44-.36,1.4-.51,3.17-.46,5.33.11,5.09.21,9.55.29,13.41.08,3.85.17,7.19.28,10,.1,2.81.17,5.26.22,7.34.05,2.08.1,3.97.18,5.66.08,1.69.13,3.39.17,5.08l-24.27.53c.07-3.62.07-7.19,0-10.7-.08-3.51-.14-7.38-.2-11.62-.05-4.24-.14-9.05-.26-14.45-.17-7.78-.34-14.54-.5-20.28-.17-5.74-.38-11.11-.64-16.12l24.15-.53ZM929.25,205.03c2.07,1.38,3.73,3.16,4.97,5.33,1.24,2.17,2.15,4.83,2.72,7.98.57,3.15.9,6.8.99,10.96.04,2,.07,3.95.07,5.84,0,1.89-.02,3.6-.06,5.15-.04,1.54-.13,2.82-.26,3.82-1.47-.04-3.07-.07-4.8-.07-1.73,0-3.51.02-5.32.06-1.81.04-3.64.08-5.49.12-1.85.04-3.7.08-5.55.12-2.08.05-4.08.09-6.01.13-1.93.04-3.7.1-5.32.17-.46.02-.9.04-1.33.06.12,1.05.27,2.03.47,2.91.43,1.92,1.1,3.5,2.01,4.76.91,1.25,2.15,2.11,3.7,2.58,1.55.47,3.52.67,5.91.62,1.92-.04,3.76-.12,5.49-.24,1.73-.11,3.35-.32,4.84-.63,1.5-.3,3.03-.68,4.6-1.14,1.57-.46,3.27-.98,5.11-1.56.03,1.31.22,2.87.56,4.67.35,1.8.64,3.63.87,5.47.23,1.84.5,3.65.81,5.42.31,1.77.63,3.3.97,4.6-2.52.9-5.24,1.72-8.16,2.43-2.91.72-5.87,1.28-8.87,1.7-3,.41-6.11.65-9.35.72-4.55.1-8.53-.3-11.94-1.18-3.41-.89-6.35-2.27-8.82-4.14-2.47-1.87-4.53-4.26-6.17-7.15-1.64-2.89-2.86-6.37-3.64-10.44-.78-4.07-1.23-8.72-1.35-13.96-.16-7.24.31-13.3,1.4-18.18,1.09-4.88,2.91-8.83,5.46-11.86,2.55-3.02,5.74-5.21,9.57-6.57,3.82-1.36,8.32-2.09,13.48-2.2,4.16-.09,7.75.16,10.77.75,3.02.59,5.56,1.58,7.64,2.96ZM880.03,87.68c-.02-3.6-.03-7.13-.01-10.58,1.84.05,3.7.07,5.58.08,1.88,0,3.81,0,5.81-.04,1.3-.02,2.62-.05,3.97-.07,1.34-.02,2.64-.08,3.91-.18,1.26-.1,2.51-.16,3.73-.18-.01,3.6-.06,7.42-.15,11.44,0,.34-.01.7-.02,1.05.34-.01.68-.02,1.01-.03,2.57-.08,5.13-.15,7.7-.19,2.57-.04,5-.12,7.3-.24.05,2.61.03,5.21-.04,7.82-.07,2.61-.1,5.23-.09,7.88,0,2.64.04,5.35.08,8.1-1.08-.13-2.38-.21-3.91-.22-1.53-.01-3.24,0-5.12.03-1.88.03-3.85.03-5.92-.01-.35,0-.71-.01-1.07-.02,0,1.04.02,2.08.03,3.14.05,5.06.12,10.31.22,15.75.02,1.3.27,2.37.75,3.21.47.84,1.16,1.42,2.04,1.75.89.33,2.02.48,3.4.46,1.91-.03,3.68-.2,5.28-.49,1.6-.3,3.05-.72,4.35-1.28.1,1.3.22,2.81.37,4.54s.33,3.5.55,5.34c.22,1.84.43,3.67.61,5.51.19,1.84.37,3.62.55,5.34.18,1.72.4,3.27.66,4.65-1.76.49-3.45.94-5.09,1.35-1.64.41-3.3.71-4.99.89-1.68.18-3.6.29-5.74.33-3.76.07-7.1-.24-10.02-.92-2.93-.68-5.36-1.71-7.3-3.09-1.94-1.38-3.5-3.04-4.69-4.98-1.18-1.93-2.05-4.18-2.59-6.74-.54-2.56-.84-5.45-.9-8.67-.04-2.45-.07-5.23-.09-8.33-.02-3.1-.02-6.32,0-9.66.01-2.6,0-5.3-.03-8.1-.33,0-.65,0-.97.01-1.65.03-3.16.06-4.54.08-.03-1.84-.05-3.75-.04-5.75,0-1.99-.01-3.98-.05-5.98-.04-1.99-.09-3.95-.16-5.86-.07-1.91-.12-3.68-.15-5.29,1.81-.03,3.74-.05,5.78-.06,0-.59,0-1.19,0-1.77ZM875.32,220.25c.08,3.47.15,6.67.21,9.59.06,2.93.1,5.68.12,8.27.02,2.58.05,5.09.11,7.51.05,2.43.11,4.95.17,7.57.09,4.24.2,8.32.32,12.25.12,3.93.3,7.66.53,11.2l-21.84.48c.07-3.93.07-8.17.01-12.72-.06-4.55-.15-9.5-.27-14.85-.12-5.35-.24-11.15-.38-17.39-.06-2.7-.53-4.63-1.4-5.81-.88-1.18-2.24-1.74-4.08-1.7-1,.02-1.94.22-2.82.58-.88.37-1.62.96-2.22,1.78-.6.82-1.06,1.95-1.37,3.38-.32,1.43-.45,3.15-.41,5.15.1,4.78.2,9,.28,12.66.08,3.66.15,6.93.21,9.82.06,2.89.12,5.49.17,7.8.05,2.31.11,4.41.2,6.3.08,1.89.18,3.64.29,5.26l-21.38.47c-.14-2.93-.21-5.95-.2-9.07,0-3.12,0-6.46-.04-10-.04-3.54-.1-7.46-.2-11.73-.09-4.28-.2-8.99-.31-14.16-.06-2.54-.5-4.44-1.34-5.69-.84-1.25-2.22-1.86-4.14-1.82-1.08.02-2.02.22-2.82.58s-1.52.96-2.16,1.78c-.64.82-1.13,1.95-1.49,3.39-.36,1.44-.51,3.15-.47,5.16.1,4.47.19,8.53.27,12.19.08,3.66.17,6.95.27,9.88.1,2.93.2,5.57.29,7.91.09,2.35.16,4.51.2,6.47.04,1.96.12,3.76.23,5.37l-22.08.48c-.12-5.39-.2-10.92-.25-16.59-.05-5.66-.15-12.39-.32-20.17-.17-7.78-.36-14.48-.55-20.11-.2-5.62-.36-11.05-.47-16.29l22.31-.49c-.03,2.01-.05,3.91-.05,5.72,0,1.72,0,3.45,0,5.17l.64.09c.54-1.52,1.14-2.89,1.81-4.1,1.52-2.73,3.48-4.78,5.88-6.14,2.4-1.36,5.14-2.08,8.22-2.15,2.62-.06,4.9.3,6.85,1.06,1.94.77,3.61,1.93,4.99,3.48,1.38,1.55,2.48,3.4,3.3,5.54.27.71.49,1.48.69,2.28l.75.1c.71-2.27,1.61-4.2,2.71-5.77,1.83-2.62,3.99-4.5,6.47-5.63,2.48-1.13,5.18-1.73,8.11-1.8,2.62-.06,4.92.3,6.9,1.06,1.98.77,3.68,1.87,5.1,3.3,1.42,1.43,2.5,3.26,3.24,5.48.74,2.22,1.14,4.76,1.21,7.61ZM816.28,109.14c1.1-4.85,2.93-8.77,5.49-11.77,2.55-2.99,5.73-5.16,9.55-6.49,3.81-1.33,8.28-2.04,13.42-2.13,4.14-.07,7.71.19,10.71.79,3,.6,5.53,1.59,7.58,2.97,2.05,1.38,3.69,3.16,4.92,5.32,1.23,2.16,2.11,4.81,2.67,7.94.55,3.13.87,6.77.94,10.91.04,1.99.05,3.93.04,5.81,0,1.88-.03,3.58-.08,5.12-.05,1.54-.14,2.8-.28,3.8-1.46-.05-3.05-.08-4.77-.09-1.72,0-3.49,0-5.29.03-1.8.03-3.62.06-5.46.1-1.84.03-3.68.06-5.52.1-2.07.04-4.06.07-5.98.1-1.92.03-3.68.08-5.29.15-.46.02-.9.04-1.32.05.11,1.04.26,2.02.45,2.9.42,1.91,1.08,3.49,1.98,4.74.9,1.25,2.12,2.11,3.67,2.58,1.54.47,3.5.69,5.88.64,1.92-.03,3.73-.1,5.46-.21,1.72-.11,3.33-.31,4.82-.6,1.49-.29,3.02-.66,4.58-1.11,1.56-.45,3.26-.96,5.09-1.53.02,1.3.2,2.85.54,4.65.34,1.8.62,3.61.84,5.45.22,1.84.48,3.63.78,5.39.3,1.76.61,3.29.94,4.58-2.51.89-5.22,1.68-8.12,2.38-2.9.7-5.84,1.25-8.82,1.65-2.98.4-6.08.62-9.3.68-4.52.08-8.48-.33-11.86-1.23-3.39-.9-6.31-2.28-8.75-4.16-2.45-1.87-4.48-4.25-6.1-7.14-1.62-2.88-2.81-6.35-3.57-10.4-.76-4.05-1.19-8.68-1.28-13.89-.13-7.2.36-13.23,1.47-18.08ZM772.16,89.56c-.02-3.6-.03-7.13-.01-10.58,1.84.04,3.7.07,5.58.07,1.88,0,3.81,0,5.81-.04,1.3-.02,2.62-.05,3.97-.07,1.34-.02,2.64-.08,3.91-.18,1.26-.1,2.51-.16,3.73-.18-.01,3.6-.06,7.42-.15,11.44,0,.34-.01.7-.02,1.05.34-.01.68-.02,1.01-.03,2.57-.08,5.13-.15,7.7-.19,2.57-.04,5-.12,7.3-.24.05,2.61.03,5.21-.04,7.82-.07,2.61-.1,5.23-.09,7.88,0,2.64.04,5.35.08,8.1-1.08-.13-2.38-.21-3.91-.22-1.53-.01-3.24,0-5.12.03-1.88.03-3.85.03-5.92-.01-.35,0-.71-.01-1.07-.02,0,1.04.02,2.08.03,3.14.05,5.06.12,10.31.22,15.75.02,1.3.27,2.37.75,3.21.47.84,1.15,1.42,2.04,1.75.89.33,2.02.48,3.4.46,1.92-.03,3.68-.2,5.28-.49,1.6-.3,3.05-.72,4.35-1.28.1,1.3.22,2.81.37,4.54.15,1.72.33,3.5.55,5.34.22,1.84.43,3.67.61,5.51.18,1.84.37,3.62.55,5.34.18,1.72.4,3.27.66,4.65-1.76.49-3.45.94-5.09,1.35-1.64.41-3.3.71-4.99.89-1.68.18-3.6.29-5.74.33-3.76.07-7.1-.24-10.02-.92-2.93-.68-5.36-1.71-7.3-3.09-1.94-1.38-3.5-3.04-4.69-4.98-1.18-1.93-2.05-4.18-2.59-6.74-.54-2.56-.84-5.45-.9-8.67-.04-2.45-.07-5.23-.09-8.33-.02-3.1-.02-6.32,0-9.66.01-2.6,0-5.3-.03-8.1-.33,0-.66,0-.97.01-1.65.03-3.16.06-4.54.08-.03-1.84-.05-3.75-.04-5.75,0-1.99-.01-3.98-.05-5.98-.03-1.99-.09-3.95-.16-5.86-.07-1.91-.12-3.68-.15-5.29,1.81-.03,3.74-.05,5.78-.06,0-.59,0-1.19,0-1.77ZM758.83,266.5c-.06-4.55-.15-9.5-.27-14.85-.12-5.35-.24-11.15-.38-17.39-.06-2.7-.53-4.63-1.4-5.81-.87-1.18-2.23-1.74-4.08-1.7-1,.02-1.94.22-2.82.58-.88.37-1.62.96-2.22,1.78-.6.82-1.06,1.95-1.37,3.38-.32,1.43-.45,3.15-.41,5.15.1,4.78.2,9,.28,12.66.08,3.66.15,6.93.21,9.82.06,2.89.12,5.49.17,7.8.05,2.31.11,4.41.2,6.3.08,1.89.17,3.64.29,5.26l-21.38.47c-.14-2.93-.21-5.95-.2-9.07,0-3.12,0-6.46-.04-10-.04-3.54-.1-7.46-.2-11.73s-.2-8.99-.31-14.16c-.06-2.54-.5-4.44-1.34-5.69-.84-1.25-2.22-1.86-4.14-1.82-1.08.02-2.02.22-2.82.58-.8.36-1.52.96-2.16,1.78-.64.82-1.13,1.95-1.49,3.39-.36,1.44-.51,3.15-.47,5.16.1,4.47.19,8.53.27,12.19.08,3.66.17,6.95.27,9.88.1,2.93.2,5.57.29,7.91.09,2.35.16,4.51.2,6.47.04,1.96.12,3.76.23,5.37l-22.08.48c-.12-5.39-.2-10.92-.25-16.59-.05-5.66-.15-12.39-.32-20.17-.17-7.78-.36-14.48-.55-20.11-.2-5.62-.36-11.05-.47-16.29l22.31-.49c-.03,2.01-.05,3.91-.05,5.72,0,1.72,0,3.45,0,5.17l.64.09c.54-1.52,1.14-2.89,1.81-4.1,1.52-2.73,3.48-4.78,5.88-6.14,2.4-1.36,5.14-2.08,8.22-2.14,2.62-.06,4.9.3,6.84,1.06,1.94.77,3.61,1.93,4.99,3.48,1.38,1.55,2.48,3.4,3.3,5.54.27.71.49,1.48.69,2.28l.75.1c.71-2.27,1.61-4.2,2.71-5.77,1.83-2.62,3.99-4.5,6.47-5.63,2.48-1.13,5.18-1.73,8.11-1.8,2.62-.06,4.92.3,6.9,1.06,1.98.77,3.68,1.87,5.1,3.3,1.42,1.43,2.5,3.26,3.24,5.48.74,2.22,1.14,4.76,1.21,7.61.08,3.47.15,6.67.21,9.59.06,2.93.1,5.68.12,8.26.02,2.58.05,5.09.11,7.51.05,2.43.11,4.95.17,7.57.09,4.24.2,8.32.33,12.25.12,3.93.3,7.66.53,11.2l-21.84.48c.07-3.93.07-8.17.01-12.72ZM714.1,101.1c1.97-3.21,4.98-5.7,9.01-7.46,4.03-1.76,9.04-2.69,15.01-2.79,3.29-.06,6.5.04,9.61.29,3.11.25,6.01.6,8.7,1.06,2.69.45,5.04,1,7.04,1.66-.41,3-.8,6.07-1.16,9.22-.37,3.15-.68,6.34-.93,9.56-1.31-.59-2.72-1.06-4.22-1.42-1.5-.36-2.98-.68-4.44-.96-1.46-.28-2.9-.45-4.32-.5-1.42-.05-2.9-.06-4.43-.04-1.53.03-2.8.13-3.79.3-.99.17-1.81.43-2.46.79-.65.36-1.1.79-1.36,1.29-.26.5-.38,1.14-.37,1.9.01.61.19,1.2.55,1.77.35.57.88,1.04,1.58,1.41.62.45,1.49.93,2.61,1.45,1.12.52,2.49,1.03,4.11,1.54,2.23.5,4.27,1.1,6.13,1.79,1.85.7,3.55,1.51,5.1,2.44,1.55.93,2.87,2.08,3.97,3.44,1.79,1.66,3.09,3.74,3.9,6.26.81,2.52,1.24,5.42,1.3,8.72.09,5.14-.81,9.4-2.71,12.81-1.9,3.41-4.82,5.99-8.78,7.74-3.96,1.75-9.19,2.69-15.7,2.8-3.45.06-6.79-.15-10.01-.63-3.23-.48-6.23-.98-9-1.51s-5.16-1.16-7.16-1.89c.47-3.61.89-7.16,1.25-10.66.36-3.49.59-6.93.68-10.3,1.47.66,3.01,1.23,4.63,1.7,1.62.47,3.25.88,4.91,1.24,1.65.36,3.31.63,4.96.83,1.65.2,3.28.29,4.89.26,1.91-.03,3.41-.23,4.47-.6,1.07-.36,1.82-.91,2.27-1.65.45-.74.66-1.49.65-2.25-.01-.84-.16-1.61-.44-2.29-.28-.68-.73-1.21-1.35-1.59-.62-.52-1.24-.96-1.86-1.29-.62-.33-1.35-.63-2.2-.88-.85-.25-1.81-.52-2.89-.81-2.23-.57-4.29-1.19-6.18-1.85-1.89-.66-3.63-1.45-5.22-2.38-1.59-.93-2.93-1.92-4.02-2.98-1.56-1.74-2.81-3.76-3.73-6.09-.92-2.32-1.41-5.13-1.47-8.43-.07-4.14.88-7.81,2.85-11.03ZM651.66,112.02c1.1-4.85,2.93-8.77,5.49-11.77,2.55-2.99,5.73-5.16,9.55-6.49,3.81-1.33,8.28-2.04,13.42-2.13,4.14-.07,7.71.19,10.71.79,3,.6,5.53,1.59,7.58,2.97,2.05,1.38,3.69,3.16,4.92,5.32,1.23,2.16,2.11,4.81,2.67,7.94.55,3.13.87,6.77.94,10.91.04,1.99.05,3.93.04,5.81,0,1.88-.03,3.59-.08,5.12-.05,1.54-.14,2.8-.28,3.8-1.46-.05-3.05-.08-4.77-.09-1.73,0-3.49,0-5.29.03-1.8.03-3.62.06-5.46.09-1.84.03-3.68.06-5.52.1-2.07.04-4.06.07-5.98.1-1.92.03-3.68.08-5.29.15-.46.02-.9.04-1.32.05.11,1.04.26,2.02.45,2.9.42,1.91,1.08,3.49,1.98,4.74.9,1.25,2.12,2.11,3.67,2.58,1.54.47,3.5.69,5.88.64,1.91-.03,3.73-.1,5.46-.21,1.72-.11,3.33-.31,4.82-.6,1.49-.29,3.02-.67,4.58-1.11,1.56-.45,3.26-.96,5.09-1.53.02,1.3.2,2.85.54,4.65.34,1.8.62,3.61.84,5.45.22,1.84.48,3.63.78,5.39.3,1.76.61,3.29.94,4.58-2.51.89-5.22,1.68-8.12,2.38-2.9.7-5.84,1.25-8.82,1.65-2.98.4-6.08.62-9.3.68-4.52.08-8.48-.33-11.86-1.23-3.39-.9-6.31-2.28-8.75-4.16-2.45-1.87-4.48-4.25-6.1-7.14-1.62-2.88-2.81-6.35-3.57-10.4-.76-4.05-1.19-8.68-1.28-13.89-.13-7.2.36-13.23,1.47-18.08ZM684.03,260.45c-1.24,5-3.14,9.13-5.69,12.38-2.55,3.26-5.79,5.7-9.73,7.32-3.94,1.63-8.68,2.5-14.22,2.62-5.24.11-9.86-.56-13.86-2.01-4-1.45-7.31-3.75-9.92-6.9-2.61-3.14-4.57-7.19-5.87-12.13-1.3-4.94-2.03-10.84-2.18-17.7-.15-7.01.37-12.86,1.58-17.55,1.21-4.69,3.09-8.45,5.65-11.28,2.56-2.83,5.77-4.88,9.64-6.16,3.86-1.28,8.34-1.97,13.43-2.09,5.24-.11,9.84.38,13.79,1.49,3.96,1.11,7.27,3.02,9.95,5.74,2.68,2.72,4.82,6.39,6.43,11.02,1.6,4.63,2.48,10.45,2.64,17.46.15,6.86-.4,12.79-1.64,17.78ZM607.54,92.44c-.03-3.6-.03-7.13-.01-10.58,1.84.04,3.7.07,5.58.08,1.88,0,3.81,0,5.81-.04,1.3-.02,2.62-.05,3.97-.07,1.34-.02,2.64-.08,3.91-.18,1.26-.1,2.51-.16,3.73-.18-.01,3.6-.06,7.42-.15,11.44,0,.34-.01.7-.02,1.05.34-.01.68-.02,1.01-.03,2.57-.08,5.13-.15,7.7-.19,2.57-.04,5-.12,7.3-.24.05,2.61.03,5.21-.04,7.82-.07,2.61-.1,5.23-.09,7.88,0,2.64.04,5.35.08,8.1-1.08-.13-2.38-.21-3.91-.22-1.53-.01-3.24,0-5.12.03-1.88.03-3.85.03-5.92-.01-.35,0-.71-.01-1.07-.02,0,1.04.02,2.08.03,3.14.05,5.06.12,10.31.22,15.75.02,1.3.27,2.37.75,3.21.48.84,1.16,1.42,2.04,1.75.89.33,2.02.48,3.4.46,1.92-.03,3.68-.2,5.28-.49,1.6-.3,3.05-.72,4.35-1.28.1,1.3.22,2.81.37,4.54.15,1.72.33,3.5.55,5.34.22,1.84.43,3.67.61,5.51.19,1.84.37,3.62.55,5.34.18,1.72.4,3.27.66,4.65-1.76.49-3.45.94-5.09,1.35-1.64.41-3.3.71-4.99.89-1.68.18-3.6.29-5.74.33-3.76.07-7.1-.24-10.02-.92-2.93-.68-5.36-1.71-7.3-3.09-1.94-1.38-3.5-3.04-4.69-4.98-1.18-1.93-2.05-4.18-2.59-6.74-.54-2.56-.84-5.45-.9-8.67-.04-2.45-.07-5.23-.09-8.33-.02-3.1-.02-6.32,0-9.66.01-2.6,0-5.3-.03-8.1-.33,0-.66,0-.97.01-1.65.03-3.16.06-4.54.08-.03-1.84-.05-3.75-.04-5.75,0-1.99-.01-3.98-.05-5.98-.03-1.99-.09-3.95-.16-5.86-.07-1.91-.12-3.68-.15-5.29,1.81-.03,3.74-.05,5.78-.06,0-.59,0-1.19,0-1.77ZM585.23,203.51c.04,3.43.09,6.96.17,10.58.08,3.62.16,7.49.25,11.62.09,4.12.19,8.57.29,13.35.02.87.04,1.7.06,2.54h.47c.38-.87.77-1.72,1.15-2.58.7-1.56,1.36-3.11,1.98-4.67.62-1.55,1.22-3.07,1.81-4.55,1.91-4.13,3.49-7.96,4.72-11.49,1.23-3.53,2.21-6.5,2.93-8.91l24.16-.53c-.72,2.41-1.57,5.12-2.54,8.15-.97,3.03-2.06,6.12-3.27,9.26-1.2,3.15-2.55,6.13-4.03,8.93-1.48,2.81-3.08,5.29-4.81,7.45-.89,1.11-1.84,2.04-2.85,2.82.77.5,1.51,1.03,2.2,1.65,1.69,1.51,3.19,3.27,4.51,5.28,1.32,2.01,2.54,4.2,3.67,6.57,1.13,2.37,2.19,4.85,3.17,7.45.98,2.6,1.96,5.24,2.95,7.91.98,2.68,2,5.28,3.06,7.8l-22.31.49c-1.23.03-2.2-.16-2.9-.57-.7-.41-1.22-1.19-1.55-2.34-.9-2.22-1.77-4.47-2.63-6.76-.86-2.29-1.78-4.55-2.75-6.76-.97-2.21-1.93-4.33-2.86-6.35-.93-2.02-1.86-3.78-2.77-5.26-.29-.47-.57-.9-.85-1.31h-.39c.08,3.46.15,6.74.21,9.83.08,3.47.17,6.8.28,10,.11,3.2.24,6.49.39,9.88l-24.16.53c-.07-3.39-.13-6.97-.18-10.75-.04-3.77-.11-7.65-.2-11.62-.09-3.97-.18-8.11-.27-12.42-.09-4.31-.19-8.63-.28-12.94-.08-3.77-.16-7.47-.24-11.1-.08-3.62-.16-7.18-.23-10.69-.08-3.51-.17-6.89-.28-10.17-.11-3.27-.2-6.53-.27-9.76l24.16-.53c0,3.24,0,6.57.04,10ZM518.77,111.52c.77-4.04,1.96-7.3,3.57-9.78,1.6-2.48,3.6-4.3,6-5.45,2.4-1.15,5.16-1.76,8.3-1.81,3.22-.06,5.95.36,8.19,1.24,2.24.88,4.14,2.13,5.7,3.75.9.93,1.68,1.98,2.38,3.13l.7-.26c-.02-.17-.03-.34-.05-.51-.18-1.34-.27-2.54-.29-3.62-.01-.61-.04-1.15-.09-1.61-.05-.46-.04-.92.03-1.38l23.45-.41c-.04,2.07-.06,4.45-.05,7.13,0,2.68.02,5.73.04,9.14.02,3.41.07,7.26.14,11.55.05,2.99.12,6.13.22,9.42.1,3.3.21,6.51.34,9.65.13,3.14.22,6.01.27,8.62.08,4.52-.18,8.57-.77,12.14-.59,3.57-1.55,6.7-2.88,9.36-1.33,2.67-3.15,4.86-5.46,6.59-2.31,1.73-5.18,3.06-8.61,4-3.43.94-7.56,1.45-12.39,1.54-4.37.08-8.4-.1-12.08-.54-3.69-.43-6.96-1.01-9.8-1.73-2.85-.72-5.35-1.52-7.52-2.4.36-1.08.74-2.47,1.13-4.16.39-1.69.78-3.52,1.17-5.48.39-1.96.74-3.88,1.05-5.77.31-1.88.53-3.48.66-4.78,2.17,1.27,4.43,2.3,6.78,3.1,2.35.8,4.74,1.35,7.16,1.66s4.78.43,7.08.39c2.37-.04,4.38-.34,6.02-.91,1.64-.56,2.94-1.53,3.92-2.89.97-1.36,1.52-3.07,1.63-5.15.06-1.07.12-2.09.18-3.05.06-.96.12-1.94.18-2.93.02-.32.05-.66.08-.98l-.71-.16c-.03.06-.05.12-.08.18-.74,1.59-1.79,2.96-3.15,4.14s-2.97,2.06-4.84,2.67c-1.87.61-4.03.93-6.48.98-4.06.07-7.46-.44-10.2-1.55-2.74-1.1-4.98-2.86-6.7-5.29-1.73-2.42-3.01-5.54-3.84-9.36-.83-3.82-1.3-8.37-1.39-13.66-.1-5.82.23-10.76,1.01-14.79ZM516.99,221.96l.85.11c.57-1.42,1.21-2.72,1.94-3.89,1.75-2.81,4-4.87,6.75-6.16,2.75-1.29,5.93-1.98,9.55-2.06,2.85-.06,5.4.23,7.65.87,2.25.64,4.12,1.76,5.62,3.35,1.5,1.59,2.7,3.62,3.6,6.11.9,2.49,1.39,5.5,1.47,9.04.08,3.47.14,6.55.2,9.25.06,2.7.09,5.18.1,7.46,0,2.27.04,4.43.08,6.47.04,2.04.09,4.14.14,6.3.1,4.7.23,9.03.4,13,.16,3.97.33,7.91.49,11.84l-24.27.53c-.08-3.77-.14-7.96-.16-12.54-.02-4.58-.09-9.58-.21-14.97-.12-5.39-.24-11.21-.38-17.45-.04-1.85-.27-3.33-.68-4.44-.41-1.11-1.02-1.9-1.84-2.39-.82-.48-1.92-.71-3.31-.68-1.23.03-2.29.22-3.17.59-.88.37-1.64,1-2.27,1.9-.64.9-1.13,2.05-1.49,3.44-.36,1.4-.51,3.17-.46,5.33.11,5.09.21,9.55.29,13.41.08,3.85.17,7.18.28,10,.1,2.81.17,5.26.22,7.34.05,2.08.1,3.97.18,5.66.07,1.7.13,3.39.17,5.08l-24.27.53c.07-3.62.07-7.19,0-10.7-.08-3.51-.14-7.38-.2-11.62-.05-4.24-.14-9.05-.26-14.45-.17-7.78-.34-14.54-.5-20.28-.16-5.74-.38-11.11-.64-16.12l24.15-.53c-.03,2.08-.05,4.03-.05,5.84,0,1.59,0,3.2,0,4.82ZM494.39,96.25c-.11,2.69-.15,5.45-.14,8.28,0,2.1,0,4.28-.03,6.55l.75.04c.05-.21.09-.42.14-.63.86-3.62,2.01-6.57,3.47-8.86,1.46-2.29,3.15-3.92,5.09-4.92,1.94-.99,4.09-1.51,6.47-1.55,1-.02,1.94,0,2.82.07.88.06,1.79.24,2.71.53-.12,2.23-.25,4.53-.4,6.91-.15,2.38-.24,4.82-.28,7.31-.03,2.49-.08,5-.16,7.53-.07,2.53-.05,5.14.08,7.82-.85-.29-1.79-.52-2.83-.7-1.04-.17-1.98-.25-2.82-.24-1.69.03-3.08.3-4.18.82-1.1.52-1.95,1.28-2.55,2.29-.6,1.01-1.05,2.36-1.37,4.05-.32,1.69-.45,3.84-.4,6.45.04,2.38.1,4.88.19,7.53.08,2.64.19,5.31.31,7.99.12,2.68.23,5.32.31,7.93.08,2.61.22,5.1.42,7.47l-25.52.45c.06-5.06.05-10.52-.06-16.38-.1-5.86-.22-12.78-.36-20.75-.13-7.51-.25-14.06-.34-19.66-.1-5.59-.27-10.92-.51-15.97l19.2-.34ZM462.57,267.88c-.07-3.24-.14-6.53-.22-9.88-.07-3.35-.15-6.76-.22-10.23-.07-3.39-.14-6.61-.21-9.65-.07-3.04-.17-6.03-.31-8.95-.14-2.93-.26-5.79-.36-8.61-.1-2.81-.18-5.49-.23-8.03l24.16-.53c-.02,2.62-.02,5.32,0,8.09.02,2.77.07,5.66.13,8.67.07,3.01.13,6.15.21,9.42.07,3.28.15,6.84.23,10.69.09,3.93.16,7.53.24,10.81.07,3.28.14,6.38.2,9.3.06,2.93.14,5.72.24,8.38.1,2.66.21,5.26.34,7.8l-24.15.53c.09-2.85.12-5.73.1-8.62-.03-2.89-.07-5.95-.14-9.19ZM478.73,195.03c1.66.2,2.98.44,3.95.72.97.29,1.77.67,2.4,1.16.63.49,1.02,1.08,1.19,1.77.17.69.26,1.42.28,2.19.02.77-.12,1.56-.41,2.38-.29.82-.89,1.54-1.8,2.18-.91.64-2.29,1.21-4.12,1.71-1.84.5-4.19.79-7.04.85-2.39.05-4.44-.04-6.13-.27-1.7-.23-3.06-.55-4.07-.95-1.01-.4-1.79-.9-2.35-1.51-.55-.6-.93-1.23-1.14-1.88-.21-.65-.32-1.28-.33-1.9-.02-1,.11-1.89.4-2.67.29-.78.93-1.45,1.92-2.01.99-.56,2.39-1.01,4.19-1.36,1.8-.35,4.21-.55,7.21-.62,2.23-.05,4.18.02,5.84.22ZM430.74,97.36c-.01,3.76-.02,7.93-.01,12.53,0,4.6.05,9.62.15,15.06.1,5.44.2,11.38.31,17.82.03,1.76.27,3.2.71,4.3.44,1.1,1.07,1.9,1.88,2.38.81.48,1.87.71,3.17.69,1.07-.02,2.07-.23,2.98-.63.91-.4,1.71-1.03,2.38-1.88.67-.85,1.19-1.98,1.55-3.36.36-1.39.52-3.11.48-5.18-.09-5.21-.17-9.79-.24-13.74-.07-3.95-.15-7.36-.24-10.23-.09-2.87-.13-5.36-.13-7.47,0-2.11-.05-4-.16-5.69-.11-1.68-.17-3.29-.2-4.83l24.14-.42c.06,3.45.08,6.94.07,10.46-.02,3.53.01,7.36.09,11.5.07,4.14.16,8.93.25,14.37.14,7.74.27,14.48.41,20.23.14,5.75.29,11.15.46,16.2l-24.02.42c.04-2.07.1-3.99.19-5.75.08-1.68.1-3.41.08-5.16l-.69-.07c-.61,1.56-1.33,2.96-2.17,4.18-1.83,2.68-4.1,4.67-6.79,5.98-2.7,1.31-5.89,2-9.56,2.06-2.68.05-5.12-.28-7.32-.96-2.2-.69-4.1-1.81-5.69-3.35-1.6-1.54-2.82-3.53-3.67-5.97-.85-2.44-1.3-5.34-1.36-8.71-.06-3.52-.12-6.69-.17-9.48-.05-2.8-.07-5.33-.07-7.59,0-2.26-.02-4.48-.06-6.67-.04-2.18-.08-4.39-.11-6.61-.08-4.6-.15-8.81-.22-12.64-.07-3.83-.21-7.62-.43-11.38l24.02-.42ZM414.48,214.06c3.82-1.36,8.32-2.09,13.48-2.2,4.16-.09,7.75.16,10.77.75,3.02.59,5.56,1.58,7.64,2.96,2.07,1.38,3.73,3.16,4.97,5.33,1.24,2.17,2.15,4.83,2.72,7.98.57,3.15.9,6.8.99,10.96.04,2,.07,3.95.07,5.84,0,1.89-.02,3.61-.06,5.15-.04,1.54-.13,2.82-.26,3.82-1.47-.04-3.07-.07-4.8-.07-1.73,0-3.51.02-5.32.06-1.81.04-3.64.08-5.49.12-1.85.04-3.7.08-5.55.12-2.08.05-4.08.09-6.01.13-1.93.04-3.7.1-5.32.17-.46.02-.9.04-1.33.06.12,1.05.27,2.03.47,2.91.43,1.92,1.1,3.5,2.01,4.75.91,1.25,2.15,2.11,3.7,2.58,1.55.47,3.52.67,5.91.62,1.92-.04,3.76-.12,5.49-.23,1.73-.11,3.35-.32,4.84-.63,1.5-.3,3.03-.68,4.6-1.14,1.57-.46,3.27-.98,5.11-1.56.03,1.31.22,2.87.56,4.67.35,1.8.64,3.63.87,5.47.23,1.84.5,3.65.81,5.42.31,1.77.63,3.3.97,4.6-2.52.9-5.24,1.72-8.16,2.43-2.92.72-5.87,1.28-8.87,1.7-3,.41-6.11.65-9.35.72-4.55.1-8.53-.3-11.94-1.19-3.41-.89-6.35-2.27-8.82-4.14-2.47-1.87-4.53-4.26-6.17-7.15-1.64-2.89-2.86-6.37-3.64-10.44-.78-4.07-1.23-8.72-1.35-13.96-.16-7.24.31-13.3,1.4-18.18,1.09-4.88,2.91-8.83,5.47-11.86,2.55-3.02,5.74-5.21,9.57-6.57ZM363.13,82.33c.11,2.14.17,4.35.17,6.61,0,2.26.03,4.85.08,7.76.04,2.3.04,4.31,0,6.04-.05,1.73-.07,3.47-.08,5.23,0,0,0,.02,0,.03l.48.12c.6-1.43,1.32-2.7,2.16-3.81,1.8-2.37,4.01-4.11,6.63-5.23,2.62-1.12,5.58-1.71,8.88-1.76,2.37-.04,4.64.23,6.8.8,2.15.58,4.05,1.69,5.69,3.35,1.64,1.66,3.02,3.86,4.14,6.6,1.12,2.74,2.01,6.21,2.65,10.42.65,4.21,1.02,9.26,1.13,15.16.13,7.2-.21,13.25-1.01,18.13-.8,4.88-2.01,8.79-3.65,11.73-1.64,2.94-3.69,5.09-6.15,6.43-2.47,1.35-5.27,2.05-8.41,2.1-2.91.05-5.41-.29-7.49-1.02-2.08-.73-3.84-1.7-5.28-2.9-1.44-1.2-2.63-2.52-3.58-3.96-.56-.85-1.03-1.72-1.42-2.6l-.6.1c.11,1.27.19,2.54.21,3.79.02,1,.02,1.97,0,2.93-.02.96.05,1.94.22,2.93l-24.14.42c.09-3.83.09-7.94.02-12.3s-.14-9.16-.19-14.37c-.05-5.21-.13-11-.25-17.36-.08-4.6-.2-8.98-.34-13.16-.15-4.17-.26-8.14-.32-11.89-.07-3.75-.13-7.26-.18-10.52-.06-3.26-.15-6.38-.28-9.37l24.14-.42ZM342.63,215.92c2.59-1.29,5.43-1.97,8.51-2.04,2.93-.06,5.58.34,7.95,1.21,2.37.87,4.44,2.33,6.22,4.37.88,1.01,1.65,2.19,2.31,3.56l.38-.08c-.01-.18-.02-.36-.03-.53-.12-1.77-.21-3.48-.29-5.14-.08-1.66-.13-3.48-.18-5.49-.04-1.69-.07-3.29-.1-4.8-.03-1.5-.07-2.99-.1-4.45-.03-1.46-.14-2.89-.32-4.27l24.39-.53c.07,3.16.08,6.36.04,9.6-.04,3.24.01,6.69.17,10.35.16,3.66.26,7.65.32,11.96.05,4.32.14,9.06.25,14.22.13,6.16.24,11.73.31,16.7.07,4.97.19,9.63.36,13.98.17,4.35.34,8.57.51,12.65l-24.16.53c-.02-1.08-.05-2.23-.08-3.47-.03-1.23-.05-2.47-.08-3.7-.04-1.6-.02-3.24.02-4.9l-.65-.1c-.38,1.24-.85,2.47-1.42,3.71-.85,1.83-1.95,3.45-3.3,4.87-1.36,1.42-3.03,2.57-5.01,3.46-1.99.89-4.4,1.37-7.25,1.43-3.08.07-5.93-.51-8.54-1.72-2.61-1.22-4.79-3.23-6.55-6.04-1.76-2.81-3.19-6.64-4.3-11.47-1.11-4.83-1.74-10.75-1.89-17.77-.16-7.17.31-13.21,1.4-18.13,1.09-4.92,2.56-8.82,4.43-11.72,1.86-2.89,4.09-4.98,6.69-6.27ZM265.85,100.24c-.04,1.99-.07,3.89-.07,5.69,0,1.71-.01,3.43-.02,5.14l.64.09c.54-1.51,1.14-2.87,1.82-4.07,1.52-2.71,3.48-4.74,5.87-6.08,2.39-1.34,5.12-2.04,8.18-2.1,2.6-.04,4.87.32,6.8,1.09,1.93.77,3.58,1.93,4.95,3.48,1.37,1.55,2.45,3.39,3.26,5.52.27.71.48,1.48.68,2.27l.75.11c.71-2.26,1.62-4.17,2.72-5.73,1.83-2.6,3.98-4.46,6.46-5.57,2.47-1.12,5.16-1.7,8.08-1.75,2.6-.05,4.89.32,6.86,1.09,1.97.77,3.65,1.87,5.06,3.3,1.4,1.43,2.47,3.25,3.2,5.46.73,2.21,1.12,4.73,1.17,7.57.06,3.45.12,6.63.17,9.54.05,2.91.08,5.65.09,8.22,0,2.57.03,5.06.07,7.47.04,2.41.09,4.92.13,7.53.07,4.22.16,8.28.27,12.18.11,3.91.27,7.62.48,11.14l-21.72.38c.08-3.91.11-8.13.07-12.65-.04-4.52-.11-9.44-.2-14.77-.09-5.33-.19-11.09-.3-17.3-.05-2.68-.5-4.61-1.37-5.78-.86-1.17-2.21-1.74-4.05-1.71-1,.02-1.93.21-2.81.57-.88.36-1.61.95-2.21,1.76-.6.82-1.06,1.93-1.38,3.36-.32,1.42-.46,3.13-.43,5.12.08,4.75.16,8.95.22,12.59.06,3.64.12,6.9.17,9.77.05,2.87.09,5.46.14,7.76.04,2.3.09,4.39.17,6.26.07,1.88.16,3.62.26,5.23l-21.27.37c-.13-2.91-.18-5.92-.16-9.02.02-3.1.02-6.42,0-9.95-.02-3.52-.07-7.41-.15-11.67-.07-4.25-.16-8.95-.25-14.08-.04-2.53-.48-4.42-1.31-5.67-.83-1.25-2.2-1.86-4.11-1.83-1.07.02-2.01.21-2.81.57-.8.36-1.52.95-2.15,1.76-.64.82-1.14,1.94-1.49,3.36-.36,1.43-.52,3.13-.49,5.13.08,4.45.15,8.49.21,12.13.06,3.64.14,6.92.23,9.83.09,2.91.17,5.54.25,7.87.08,2.34.14,4.48.17,6.44.03,1.95.1,3.73.21,5.34l-21.96.38c-.09-5.36-.15-10.86-.17-16.5-.02-5.63-.1-12.32-.24-20.06-.13-7.74-.29-14.41-.46-20-.17-5.59-.31-10.99-.4-16.21l22.18-.39ZM288.15,261.39c.08,3.85.18,7.18.28,10,.1,2.81.17,5.26.22,7.34.05,2.08.1,3.97.18,5.66.08,1.69.13,3.39.17,5.08l-24.27.53c.08-3.62.07-7.19,0-10.7-.08-3.51-.14-7.38-.2-11.62-.05-4.24-.14-9.05-.26-14.45-.17-7.78-.34-14.54-.5-20.28-.17-5.74-.38-11.11-.64-16.12l24.16-.53c-.03,2.08-.05,4.03-.05,5.84,0,1.59,0,3.2,0,4.82l.85.11c.57-1.42,1.21-2.72,1.94-3.89,1.75-2.81,4-4.87,6.75-6.16,2.75-1.29,5.93-1.98,9.55-2.06,2.85-.06,5.4.23,7.65.87,2.25.64,4.12,1.76,5.62,3.35,1.5,1.59,2.7,3.62,3.6,6.11.9,2.49,1.39,5.5,1.47,9.04.08,3.47.14,6.55.2,9.25.06,2.7.09,5.18.1,7.46,0,2.27.04,4.43.08,6.47.04,2.04.09,4.14.14,6.3.1,4.7.23,9.03.4,13,.16,3.97.33,7.91.49,11.84l-24.27.53c-.08-3.77-.14-7.96-.16-12.54-.02-4.58-.09-9.58-.21-14.97-.12-5.39-.24-11.21-.38-17.45-.04-1.85-.27-3.33-.67-4.44-.41-1.11-1.02-1.9-1.84-2.39-.82-.48-1.92-.71-3.31-.68-1.23.03-2.29.22-3.17.59-.88.37-1.64,1-2.27,1.9-.64.9-1.13,2.05-1.49,3.44-.36,1.4-.51,3.17-.46,5.33.11,5.09.21,9.55.29,13.41ZM233.19,279.72l-.69-.07c-.61,1.57-1.33,2.98-2.16,4.22-1.83,2.7-4.1,4.71-6.81,6.05-2.71,1.33-5.91,2.04-9.61,2.12-2.7.06-5.15-.25-7.36-.94-2.21-.68-4.13-1.8-5.74-3.34-1.61-1.54-2.85-3.54-3.71-5.99-.86-2.45-1.33-5.37-1.41-8.76-.08-3.54-.15-6.72-.21-9.53-.06-2.81-.1-5.35-.11-7.63-.01-2.27-.04-4.51-.09-6.7-.05-2.2-.1-4.41-.15-6.65-.1-4.62-.19-8.86-.28-12.71-.08-3.85-.25-7.66-.48-11.44l24.15-.53c0,3.78.02,7.98.04,12.6.02,4.62.1,9.67.21,15.14.12,5.47.25,11.44.39,17.91.04,1.77.28,3.21.73,4.32.45,1.11,1.08,1.9,1.9,2.39.82.48,1.88.71,3.2.68,1.08-.02,2.08-.24,2.99-.64.92-.4,1.71-1.04,2.39-1.9.67-.86,1.19-1.99,1.54-3.39.35-1.4.51-3.13.46-5.21-.11-5.24-.21-9.84-.3-13.81-.09-3.97-.18-7.4-.28-10.29-.1-2.89-.16-5.39-.16-7.51,0-2.12-.07-4.03-.18-5.72-.11-1.69-.19-3.31-.22-4.85l24.27-.53c.08,3.47.11,6.98.11,10.52,0,3.55.05,7.4.14,11.56.09,4.16.2,8.98.32,14.45.17,7.78.34,14.56.5,20.34.16,5.78.34,11.21.53,16.29l-24.16.53c.03-2.08.09-4.01.16-5.79.07-1.69.09-3.42.06-5.19ZM213.48,128.06c-.02-1.22-.17-2.28-.46-3.15-.28-.88-.76-1.58-1.42-2.1-.66-.52-1.47-.91-2.43-1.17-.96-.25-2.21-.36-3.74-.34-2.07.04-4.38.27-6.94.7-2.56.43-5.06,1.05-7.5,1.86-2.44.81-4.68,1.81-6.73,2.99-.33-1.45-.63-3.13-.89-5.04-.26-1.91-.57-3.94-.91-6.08-.34-2.14-.7-4.14-1.08-6.02-.38-1.87-.69-3.38-.94-4.53,2.82-.97,5.68-1.84,8.58-2.62,2.9-.78,5.9-1.39,8.99-1.82,3.1-.44,6.25-.68,9.47-.74,5.13-.09,9.55.33,13.24,1.26,3.7.93,6.67,2.39,8.93,4.39,2.26,1.99,3.97,4.45,5.13,7.38,1.16,2.93,1.78,6.31,1.84,10.14.06,3.6.1,6.99.12,10.17.02,3.18.01,6.23-.01,9.14-.03,2.91-.01,6.02.05,9.31.04,2.07.13,4.21.29,6.43.15,2.22.31,4.36.46,6.43.15,2.07.32,3.87.5,5.4.18,1.53.43,2.68.75,3.44l-19.2.33c-.92.02-1.71-.05-2.36-.19-.65-.14-1.16-.34-1.5-.61-.35-.26-.61-.77-.77-1.54-.17-.76-.26-1.8-.28-3.1-.03-1.7-.01-3.62.05-5.75h-.43c-.32,1.36-.76,2.6-1.32,3.71-1.44,2.86-3.5,4.99-6.16,6.37-2.66,1.39-5.87,2.11-9.62,2.18-2.76.05-5.18-.22-7.26-.79-2.08-.58-3.84-1.68-5.29-3.3-1.45-1.62-2.56-3.81-3.33-6.55-.78-2.75-1.2-6.26-1.28-10.56-.06-3.68.38-6.87,1.33-9.57.95-2.7,2.46-4.93,4.54-6.69,2.08-1.76,4.68-3.11,7.81-4.05,3.13-.93,6.91-1.44,11.36-1.52,1.53-.03,2.91,0,4.14.1,1.23.09,2.34.23,3.34.4.37.07.72.16,1.08.25-.05-1.62-.09-3.15-.12-4.58ZM178.55,219.33c1.94-1.01,4.11-1.53,6.5-1.59,1-.02,1.95,0,2.83.05.89.06,1.8.23,2.73.52-.11,2.24-.23,4.55-.37,6.95-.14,2.39-.22,4.84-.24,7.35-.02,2.51-.06,5.03-.12,7.58-.06,2.55-.02,5.17.11,7.86-.85-.29-1.8-.52-2.85-.69-1.04-.17-1.99-.25-2.84-.23-1.7.04-3.1.32-4.2.84-1.11.53-1.96,1.3-2.55,2.31-.6,1.02-1.05,2.38-1.36,4.08-.31,1.7-.44,3.86-.38,6.48.05,2.39.13,4.91.22,7.57.1,2.66.21,5.33.35,8.03.14,2.7.25,5.35.35,7.97.1,2.62.25,5.12.45,7.51l-25.66.56c.04-5.09,0-10.58-.13-16.47-.13-5.89-.28-12.85-.46-20.86-.17-7.55-.31-14.14-.43-19.76-.12-5.62-.32-10.98-.58-16.06l19.3-.42c-.1,2.7-.13,5.48-.11,8.33.02,2.11.02,4.31,0,6.58l.75.04c.04-.21.09-.43.13-.63.85-3.64,2-6.61,3.45-8.92,1.45-2.3,3.15-3.96,5.09-4.97ZM131.42,89.13c.04,2.3.07,4.94.08,7.93.01,2.99.03,6.11.05,9.37.02,3.26.06,6.48.11,9.66.03,1.63.06,3.19.08,4.69.83,0,1.67.01,2.53.03,1.92.04,3.91.05,5.98.01,1.91-.03,3.83-.1,5.75-.21.87-.05,1.71-.09,2.51-.12-.04-1.54-.08-3.14-.13-4.8-.09-3.18-.19-6.38-.28-9.6-.1-3.22-.19-6.32-.28-9.31-.09-2.99-.16-5.63-.2-7.93l25.4-.44c-.13,5.91-.15,12.29-.07,19.15.08,6.86.2,14.85.36,23.97.11,6.05.22,11.57.35,16.55.12,4.98.24,9.62.36,13.91.11,4.29.28,8.5.51,12.64l-25.4.44c-.04-2.45-.07-5.15-.08-8.1-.01-2.95-.03-6.04-.05-9.26-.02-3.22-.04-6.36-.05-9.43,0-1.6-.02-3.14-.04-4.63-.81,0-1.64.02-2.51.07-1.92.11-3.83.18-5.75.22-2.07.04-4.08.03-6.04-.01-.85-.02-1.67,0-2.47.02.03,1.53.05,3.11.08,4.74.05,3.07.13,6.17.22,9.31.09,3.14.18,6.21.28,9.19.09,2.99.16,5.71.2,8.16l-25.06.44c0-4.14-.01-8.35-.05-12.65-.04-4.29-.1-8.93-.19-13.91-.09-4.98-.18-10.5-.29-16.55-.16-9.12-.3-17.11-.42-23.97-.12-6.86-.31-13.24-.56-19.13l25.06-.44ZM79.25,232.42c.97-4.8,2.47-8.92,4.47-12.35,2.01-3.44,4.55-6.23,7.62-8.38,3.07-2.15,6.66-3.75,10.76-4.8,4.1-1.05,8.65-1.63,13.66-1.74,3.77-.08,7.28,0,10.53.23,3.24.24,6.27.58,9.1,1.02,2.82.44,5.55,1.02,8.19,1.73-.69,3.64-1.36,7.35-2.01,11.14-.65,3.79-1.2,7.58-1.66,11.37-1.32-.43-2.72-.79-4.19-1.06-1.47-.28-2.96-.55-4.47-.83-1.51-.27-2.98-.47-4.41-.6-1.43-.12-2.82-.19-4.17-.2-1.35,0-2.56,0-3.64.02-3.16.07-5.87.49-8.12,1.28-2.26.78-4.1,2-5.53,3.65-1.43,1.65-2.5,3.85-3.21,6.6-.71,2.75-1.02,6.13-.94,10.14.07,3.31.35,6.22.83,8.71.48,2.5,1.12,4.66,1.93,6.49.81,1.83,1.85,3.35,3.11,4.56,1.26,1.21,2.66,2.08,4.22,2.63,1.55.54,3.29.84,5.22.87,1.23-.03,2.46-.13,3.69-.31.52-.08,1.04-.17,1.55-.27-.05-1.56-.08-3.15-.1-4.79-.02-2.8-.07-5.58-.13-8.35-.31.02-.61.03-.92.05-1.23.07-2.47.11-3.7.14-1.23.03-2.31.09-3.23.19.04-1.46.07-2.95.08-4.45,0-1.5,0-2.99-.04-4.45-.03-1.31-.08-2.7-.15-4.16-.07-1.46-.16-2.93-.27-4.39,2.39.03,4.84.01,7.34-.04,2.5-.05,4.91-.11,7.22-.16,2.47-.05,4.91-.13,7.34-.22,2.43-.09,4.8-.16,7.11-.21.14,2.77.23,5.97.27,9.59.04,3.62.11,7.55.2,11.79.09,4.08.24,8.34.45,12.77.21,4.43.48,8.91.81,13.45-1.91.74-3.86,1.45-5.85,2.15-1.99.7-4.08,1.29-6.26,1.76-2.19.47-4.53.83-7.03,1.08-2.5.25-5.29.4-8.37.47-4.93.11-9.41-.33-13.44-1.33-4.03-.99-7.55-2.53-10.56-4.63-3.01-2.09-5.62-4.91-7.82-8.44-2.2-3.54-3.83-7.87-4.91-13.02-1.08-5.14-1.69-11.1-1.84-17.88-.14-6.39.28-11.99,1.25-16.79ZM79.4,325.97l-.32-14.52,929.53-20.28.32,14.52-929.53,20.28Z"/>
  <path d="M208.65,141.48c-1.3.02-2.38.14-3.21.34-.84.21-1.56.64-2.16,1.3-.6.66-1.03,1.53-1.28,2.61-.25,1.08-.36,2.42-.33,4.03.03,1.46.16,2.7.41,3.73.25,1.03.57,1.87.96,2.51.39.65.92,1.13,1.58,1.47.66.33,1.45.49,2.37.48,1.15-.02,2.14-.29,2.98-.8.83-.51,1.57-1.31,2.2-2.4.63-1.08,1.07-2.43,1.31-4.05.24-1.61.34-3.57.3-5.87-.02-.95-.03-2.02-.03-3.17-.52-.06-1.07-.11-1.64-.13-1.23-.05-2.38-.07-3.45-.05Z"/>
</svg>