<svg xmlns="http://www.w3.org/2000/svg" xmlns:xlink="http://www.w3.org/1999/xlink" width="180.868" height="45" viewBox="0 0 180.868 45">
  <defs>
    <clipPath id="clip-path">
      <rect id="Rechteck_72" data-name="Rechteck 72" width="180.868" height="45" transform="translate(0 0)" fill="none"/>
    </clipPath>
  </defs>
  <g id="Gruppe_75" data-name="Gruppe 75" transform="translate(0.27 -0.001)">
    <g id="Gruppe_74" data-name="Gruppe 74" transform="translate(-0.27 0.001)" clip-path="url(#clip-path)">
      <path id="Pfad_100" data-name="Pfad 100" d="M13.559,1.075c-.048,2.483-.072,5.258-.072,9.128s.024,6.5.072,9.128H9.4c.024-1.9.048-4.917.072-7.108H6.022c0,2.191.024,5.185.073,7.108H1.94c.073-2.629.073-5.258.073-9.128s0-6.645-.073-9.128H6.095C6.046,2.9,6.022,6.016,6.022,8.256c.556.024,1.135.024,1.715.024.6,0,1.184,0,1.739-.024C9.452,6.016,9.452,2.9,9.4,1.075Z" transform="translate(-1.288 -0.807)"/>
      <path id="Pfad_101" data-name="Pfad 101" d="M61.737,19.332c-.048-.706-.193-2.142-.41-3.944H57.752c-.218,1.729-.387,3.165-.435,3.944H53.21c.918-4.552,2.8-15.993,3.165-18.257h6.57c.411,2.313,2.295,13.656,3.285,18.257Zm-.8-7.108c-.266-1.947-.531-3.968-.8-5.72-.217-1.144-.387-2.361-.507-3.262h-.145c-.121.9-.314,2.118-.531,3.286-.242,1.753-.532,3.749-.8,5.671.532.024,1.015.024,1.4.024Z" transform="translate(-39.78 -0.807)"/>
      <path id="Pfad_102" data-name="Pfad 102" d="M124.861,1.075c-.048,2.386-.073,5.112-.073,9.1,0,3.871.024,6.524.073,9.153h-3.937c.073-2.848.121-4.844.121-7.838,0-1.485.1-3.31.169-5.014l-.1-.024c-.266,1.68-.58,3.383-.821,4.455l-2.029,8.422h-1.691l-2.053-8.544c-.266-1.12-.58-2.8-.846-4.357l-.072.024c.048,1.753.145,3.408.169,5.039,0,3.018.048,5.014.1,7.838h-3.478c.049-2.629.073-5.282.073-9.153,0-3.992-.024-6.718-.048-9.1h5.169c.362,1.606.99,4.576,1.691,7.449.169.852.338,2.093.507,3.237h.1c.193-1.169.362-2.361.531-3.213.652-2.872,1.353-5.842,1.691-7.473Z" transform="translate(-82.711 -0.807)"/>
      <path id="Pfad_103" data-name="Pfad 103" d="M185.552,10.179a3.16,3.16,0,0,1,1.159.243c1.3.56,1.764,1.923,1.764,4.041,0,3.554-1.28,4.868-4.614,4.868h-6.788c.1-2.532.1-5.258.1-9.128s0-6.67-.1-9.128h6.667c3.044,0,4.614,1.071,4.614,4.8,0,2.215-.411,3.189-1.5,3.8a3.618,3.618,0,0,1-1.3.365Zm-2.826-6.11c-.507,0-1.039.024-1.642.049V8.791c.58.024,1.111.024,1.594.024,1.207-.024,1.715-.73,1.715-2.531,0-1.85-.483-2.215-1.667-2.215m1.788,9.639c0-1.826-.531-2.434-1.788-2.434-.483,0-1.039.024-1.642.049,0,1.558,0,3.31.024,4.747.628.049,1.184.049,1.643.049,1.28,0,1.763-.463,1.763-2.41" transform="translate(-132.774 -0.807)"/>
      <path id="Pfad_104" data-name="Pfad 104" d="M240.762,1.075c-.048,1.655-.073,3.31-.073,5.745,0,1.777.024,4.576.024,6.864,0,3.822-1.449,5.915-5.725,5.915-4.251,0-5.725-2.093-5.725-5.915,0-2.288.024-5.087.024-6.864,0-2.434-.048-4.089-.072-5.745h4.179c-.048,3.164-.073,8.982-.073,12.22,0,1.631.508,2.337,1.764,2.337,1.184,0,1.667-.706,1.667-2.337,0-3.237-.048-9.079-.073-12.22Z" transform="translate(-171.922 -0.807)"/>
      <path id="Pfad_105" data-name="Pfad 105" d="M292.188,12.077c1.764.268,2.415.974,2.875,3.36.29,1.363.556,3.018.749,3.895h-3.72c-.58,0-.676-.268-.942-1.509-.483-4.089-.7-4.649-1.691-4.649-.507,0-.8,0-1.4.024.024,2.483.073,4.625.193,6.134h-4.179c.024-2.629.073-5.233.073-9.128,0-3.87-.024-6.5-.073-9.128h6.184c3.189,0,4.976,1.339,4.976,5.453,0,3.505-.821,5.014-3.044,5.428Zm-.894-4.8c0-2.483-.6-2.921-1.86-2.9-.29-.024-.894,0-1.425.024,0,1.947,0,3.919.024,5.769.387,0,.966,0,1.618.024,1.135,0,1.643-.852,1.643-2.921" transform="translate(-213.106 -0.807)"/>
      <path id="Pfad_106" data-name="Pfad 106" d="M339.9,11.661c.024-.317.024-1.071.024-1.46,0-.609,0-1.169-.024-1.558.918.024,1.86.024,2.56.024.87,0,2.029,0,3.189-.049.29,7.254-.556,10.223-5.531,10.223-4.275,0-6.039-2.751-6.039-9.591C334.058,2.459,335.918.1,340.218.1c4.155,0,5.531,2.093,5.531,5.575a12.018,12.018,0,0,1-.048,1.29c-.507-.024-1.232-.049-1.981-.049-.773,0-1.473.024-1.981.049.024-.365.024-.706.024-.974,0-1.85-.556-2.459-1.57-2.459-1.4,0-2.053,1.022-2.053,5.745s.555,6.012,2.126,6.012c1.232,0,1.643-.828,1.667-3.651Z" transform="translate(-250.653 -0.074)"/>
      <path id="Pfad_107" data-name="Pfad 107" d="M411.832,1.075V5.359c-.894-.024-1.788-.049-2.609-.049,0,5.72.024,12.682.072,14.045-.58-.049-1.522-.049-2.174-.049s-1.546,0-2.15.049c.072-1.339.1-8.3.1-14.045-.845,0-1.739.024-2.657.049.024-.584.024-1.485.024-2.191,0-.755,0-1.558-.024-2.093Z" transform="translate(-301.953 -0.807)"/>
      <path id="Pfad_108" data-name="Pfad 108" d="M455.226,1.075c-.024.438-.024,1.217-.024,1.826,0,.657,0,1.534.024,2-1.957-.024-3.889-.049-5.435-.049V8.3c1.86,0,3.7,0,5.266-.049,0,.779-.024,2.58,0,3.457-1.546-.049-3.406-.073-5.266-.073v3.627c1.57,0,3.575-.024,5.435-.049-.024.511-.024,1.387-.024,2.118,0,.633,0,1.485.024,2h-9.493c.072-2.434.072-5.233.072-9.128,0-3.87,0-6.84-.072-9.128Z" transform="translate(-334.478 -0.807)"/>
      <path id="Pfad_109" data-name="Pfad 109" d="M493.478,13.292c0,1.655.387,2.191,1.643,2.191,1.208,0,1.594-.511,1.594-1.582,0-1.363-.459-2.337-2.391-3.043-3.478-1.29-4.445-3.018-4.445-6.037,0-3.165,1.691-4.82,5.314-4.82,3.986,0,5.29,1.509,5.29,4.747,0,.511-.024,1.047-.048,1.655-.483-.024-1.232-.049-1.908-.049-.6,0-1.16,0-1.522.024.024-.463.024-.876.024-1.315,0-1.193-.387-1.777-1.643-1.777-1.111,0-1.522.536-1.522,1.509-.024,1.193.29,2.118,2.391,2.945,3.02,1.193,4.348,2.848,4.348,6.037,0,3.262-1.5,5.014-5.29,5.014-4.131,0-5.483-1.7-5.483-4.82,0-.657.024-1.168.073-1.728.507.049,1.232.1,2,.1a14.959,14.959,0,0,0,1.57-.049Z" transform="translate(-367.586 -0.001)"/>
      <path id="Pfad_110" data-name="Pfad 110" d="M545.966,1.075V5.359c-.894-.024-1.788-.049-2.609-.049,0,5.72.024,12.682.073,14.045-.58-.049-1.522-.049-2.174-.049s-1.546,0-2.15.049c.073-1.339.1-8.3.1-14.045-.845,0-1.739.024-2.657.049.024-.584.024-1.485.024-2.191,0-.755,0-1.558-.024-2.093Z" transform="translate(-402.658 -0.807)"/>
      <path id="Pfad_111" data-name="Pfad 111" d="M589.36,1.075c-.024.438-.024,1.217-.024,1.826,0,.657,0,1.534.024,2-1.957-.024-3.889-.049-5.435-.049V8.3c1.86,0,3.7,0,5.266-.049,0,.779-.024,2.58,0,3.457-1.546-.049-3.406-.073-5.266-.073v3.627c1.57,0,3.575-.024,5.435-.049-.024.511-.024,1.387-.024,2.118,0,.633,0,1.485.024,2h-9.493c.073-2.434.073-5.233.073-9.128,0-3.87,0-6.84-.073-9.128Z" transform="translate(-435.183 -0.807)"/>
      <path id="Pfad_112" data-name="Pfad 112" d="M632.028,1.075V5.359c-.894-.024-1.788-.049-2.609-.049,0,5.72.024,12.682.072,14.045-.58-.049-1.522-.049-2.174-.049s-1.546,0-2.15.049c.072-1.339.1-8.3.1-14.045-.845,0-1.739.024-2.657.049.024-.584.024-1.485.024-2.191,0-.755,0-1.558-.024-2.093Z" transform="translate(-467.271 -0.807)"/>
      <path id="Pfad_113" data-name="Pfad 113" d="M5.822,116.821c.024-.317.024-1.071.024-1.46,0-.609,0-1.169-.024-1.558.918.024,1.86.024,2.56.024.87,0,2.029,0,3.189-.049.29,7.254-.556,10.223-5.531,10.223C1.764,124,0,121.251,0,114.411c-.024-6.791,1.836-9.153,6.136-9.153,4.155,0,5.531,2.093,5.531,5.575a12.009,12.009,0,0,1-.048,1.29c-.507-.024-1.232-.049-1.981-.049-.773,0-1.473.024-1.981.049.024-.365.024-.706.024-.974,0-1.85-.556-2.459-1.57-2.459-1.4,0-2.053,1.022-2.053,5.745s.556,6.012,2.126,6.012c1.232,0,1.643-.828,1.667-3.651Z" transform="translate(0.169 -79.026)"/>
      <path id="Pfad_114" data-name="Pfad 114" d="M62.877,117.237c1.763.268,2.415.974,2.875,3.36.29,1.363.556,3.018.749,3.895H62.78c-.58,0-.676-.268-.942-1.509-.483-4.089-.7-4.649-1.691-4.649-.507,0-.8,0-1.4.024.024,2.483.073,4.625.193,6.134H54.761c.024-2.629.073-5.233.073-9.128,0-3.87-.024-6.5-.073-9.128h6.184c3.189,0,4.976,1.339,4.976,5.453,0,3.505-.821,5.014-3.044,5.428Zm-.894-4.8c0-2.483-.6-2.921-1.86-2.9-.29-.024-.894,0-1.425.024,0,1.947,0,3.919.024,5.769.387,0,.966,0,1.618.024,1.135,0,1.643-.852,1.643-2.921" transform="translate(-40.945 -79.759)"/>
      <path id="Pfad_115" data-name="Pfad 115" d="M118.354,106.235c-.048,1.655-.073,3.31-.073,5.745,0,1.777.024,4.576.024,6.864,0,3.822-1.449,5.915-5.725,5.915-4.251,0-5.725-2.093-5.725-5.915,0-2.288.024-5.087.024-6.864,0-2.434-.048-4.089-.073-5.745h4.179c-.048,3.164-.073,8.982-.073,12.22,0,1.631.508,2.337,1.764,2.337,1.184,0,1.667-.706,1.667-2.337,0-3.237-.048-9.079-.073-12.22Z" transform="translate(-80.021 -79.759)"/>
      <path id="Pfad_116" data-name="Pfad 116" d="M173.209,106.235c-.024,1.46-.073,5.234-.073,9.1,0,4.065,0,6.816.048,9.153h-4.2c-.507-1.655-1.715-4.99-2.826-7.789a45.193,45.193,0,0,1-1.159-4.82h-.048c.121,1.947.193,3.676.218,5.233.024,3.8.048,6.353.072,7.376h-3.575c0-2.41.024-5.233.024-9.128,0-3.87,0-6.767-.024-9.128h4.662c.314,1.241,1.691,4.868,2.73,8.13a31.554,31.554,0,0,1,.966,4.016l.024-.024q-.181-2.483-.217-4.674c0-2.532-.072-5.769-.145-7.449Z" transform="translate(-121.204 -79.759)"/>
      <path id="Pfad_117" data-name="Pfad 117" d="M222.05,106.235c4.227,0,6.16,1.461,6.16,8.715,0,7.619-1.715,9.542-6.232,9.542h-5.363c.048-2.532.073-5.233.073-9.1s-.024-6.816-.073-9.153Zm2.126,8.934c0-4.868-.7-5.379-2.343-5.379-.387,0-.749,0-1.111.024-.049,1.655-.049,3.7-.049,5.6,0,2.386,0,4.016.024,5.258.362.024.7.024,1.087.024,1.715,0,2.391-.584,2.391-5.526" transform="translate(-162.461 -79.759)"/>
      <path id="Pfad_118" data-name="Pfad 118" d="M279.316,106.235c-.024.438-.024,1.217-.024,1.826,0,.657,0,1.534.024,2-1.957-.024-3.889-.049-5.435-.049v3.456c1.86,0,3.7,0,5.266-.049,0,.779-.024,2.58,0,3.457-1.546-.049-3.406-.073-5.266-.073v3.627c1.57,0,3.575-.024,5.435-.049-.024.511-.024,1.387-.024,2.118,0,.633,0,1.485.024,2h-9.493c.073-2.434.073-5.233.073-9.128,0-3.87,0-6.84-.073-9.128Z" transform="translate(-202.409 -79.759)"/>
      <path id="Pfad_119" data-name="Pfad 119" d="M315.665,124.492c.048-2.483.048-5.258.048-9.128,0-3.895,0-6.67-.048-9.128h4.2c-.048,2.434-.048,5.209-.048,9.1,0,3.871,0,6.645.048,9.153Z" transform="translate(-236.826 -79.759)"/>
      <path id="Pfad_120" data-name="Pfad 120" d="M352.8,106.235c-.024,1.46-.073,5.234-.073,9.1,0,4.065,0,6.816.048,9.153h-4.2c-.507-1.655-1.715-4.99-2.826-7.789a45.2,45.2,0,0,1-1.159-4.82h-.048c.121,1.947.193,3.676.218,5.233.024,3.8.048,6.353.072,7.376h-3.575c0-2.41.024-5.233.024-9.128,0-3.87,0-6.767-.024-9.128h4.662c.314,1.241,1.691,4.868,2.73,8.13a31.554,31.554,0,0,1,.966,4.016l.024-.024q-.181-2.483-.217-4.674c0-2.532-.073-5.769-.145-7.449Z" transform="translate(-256.035 -79.759)"/>
      <path id="Pfad_121" data-name="Pfad 121" d="M408.088,106.235c-1.039,2.41-2.633,7.035-4.2,9.226a7.016,7.016,0,0,1,1.787,2.726c1.353,2.945,2.078,5.379,2.488,6.3H404.1a.786.786,0,0,1-.894-.633,49.79,49.79,0,0,0-2.706-6.889h-.193c0,2.775.024,5.428.073,7.522H396.2c.049-2.507.073-5.233.073-9.128s-.024-6.67-.073-9.128h4.179c-.048,2.264-.073,5.453-.073,8.374h.1c.459-.828.894-1.7,1.3-2.6.918-2.459,1.522-4.455,1.884-5.769Z" transform="translate(-297.292 -79.759)"/>
      <path id="Pfad_122" data-name="Pfad 122" d="M450.071,123.953c-4.034,0-6.088-2.678-6.088-9.761,0-6.986,2.271-9.031,6.088-9.031s6.159,2.045,6.159,9.031c0,7.083-2.126,9.761-6.159,9.761m2-9.688c0-4.357-.7-5.428-1.981-5.428s-2,1.047-2,5.428c0,4.528.7,5.769,2,5.769s1.981-1.266,1.981-5.769" transform="translate(-333.164 -78.953)"/>
      <path id="Pfad_123" data-name="Pfad 123" d="M514.57,106.235c-.048,2.386-.073,5.112-.073,9.1,0,3.871.024,6.524.073,9.153h-3.938c.073-2.848.121-4.844.121-7.838,0-1.485.1-3.31.169-5.014l-.1-.024c-.266,1.679-.58,3.383-.821,4.455l-2.029,8.422h-1.691l-2.053-8.544c-.266-1.12-.58-2.8-.846-4.357l-.073.024c.048,1.753.145,3.408.169,5.039,0,3.018.048,5.014.1,7.838H500.1c.049-2.629.073-5.282.073-9.153,0-3.992-.024-6.718-.048-9.1h5.169c.362,1.606.99,4.576,1.691,7.449.169.852.338,2.093.508,3.237h.1c.193-1.169.362-2.361.531-3.213.652-2.872,1.353-5.842,1.691-7.473Z" transform="translate(-375.296 -79.759)"/>
      <path id="Pfad_124" data-name="Pfad 124" d="M581.347,106.235c-.048,2.386-.073,5.112-.073,9.1,0,3.871.024,6.524.073,9.153H577.41c.073-2.848.121-4.844.121-7.838,0-1.485.1-3.31.169-5.014l-.1-.024c-.266,1.679-.58,3.383-.821,4.455l-2.029,8.422h-1.691l-2.053-8.544c-.266-1.12-.58-2.8-.846-4.357l-.073.024c.048,1.753.145,3.408.169,5.039,0,3.018.048,5.014.1,7.838h-3.478c.049-2.629.072-5.282.072-9.153,0-3.992-.024-6.718-.048-9.1h5.169c.362,1.606.99,4.576,1.691,7.449.169.852.338,2.093.508,3.237h.1c.194-1.169.362-2.361.531-3.213.652-2.872,1.353-5.842,1.691-7.473Z" transform="translate(-425.431 -79.759)"/>
      <path id="Pfad_125" data-name="Pfad 125" d="M643.051,106.235c-.024.438-.024,1.217-.024,1.826,0,.657,0,1.534.024,2-1.957-.024-3.889-.049-5.435-.049v3.456c1.86,0,3.7,0,5.266-.049,0,.779-.024,2.58,0,3.457-1.546-.049-3.406-.073-5.266-.073v3.627c1.57,0,3.575-.024,5.435-.049-.024.511-.024,1.387-.024,2.118,0,.633,0,1.485.024,2h-9.493c.073-2.434.073-5.233.073-9.128,0-3.87,0-6.84-.073-9.128Z" transform="translate(-475.493 -79.759)"/>
      <path id="Pfad_126" data-name="Pfad 126" d="M690.946,106.235c-.024,1.46-.072,5.234-.072,9.1,0,4.065,0,6.816.048,9.153h-4.2c-.507-1.655-1.715-4.99-2.826-7.789a45.2,45.2,0,0,1-1.159-4.82h-.048c.121,1.947.193,3.676.217,5.233.024,3.8.048,6.353.072,7.376H679.4c0-2.41.024-5.233.024-9.128,0-3.87,0-6.767-.024-9.128h4.662c.314,1.241,1.691,4.868,2.73,8.13a31.559,31.559,0,0,1,.966,4.016l.024-.024q-.181-2.483-.217-4.674c0-2.532-.072-5.769-.145-7.449Z" transform="translate(-509.91 -79.759)"/>
    </g>
  </g>
</svg>
