<svg viewBox="0 -16 589 154" fill="none" xmlns="http://www.w3.org/2000/svg">
<g clip-path="url(#clip0_129_4)">
<path d="M35.81 10.75H49.725C49.56 16.415 49.505 22.63 49.505 31.375C49.505 40.12 49.56 46.06 49.725 52H35.81C35.92 48.04 35.975 42.045 36.03 37.26C34.05 37.205 31.85 37.205 29.65 37.205C27.45 37.205 25.25 37.205 23.27 37.26C23.27 42.045 23.325 47.985 23.49 52H9.575C9.795 46.06 9.795 40.12 9.795 31.375C9.795 22.63 9.795 16.415 9.575 10.75H23.49C23.325 14.6 23.27 20.815 23.27 25.765C25.25 25.82 27.45 25.875 29.65 25.875C31.85 25.875 34.05 25.82 36.03 25.765C35.975 20.815 35.92 14.6 35.81 10.75ZM70.7634 44.41C74.1184 44.41 76.2084 42.265 76.2084 38.03C74.7784 37.865 73.2384 37.81 71.6434 37.81C68.2334 37.81 66.7484 38.8 66.7484 41.11C66.7484 43.475 67.7934 44.41 70.7634 44.41ZM76.2634 33.52V30.77C76.2634 28.02 75.0534 26.59 71.9184 26.59C68.6184 26.59 67.0784 27.965 67.2984 31.54C65.9784 31.43 64.0534 31.43 62.0734 31.43C59.7084 31.43 57.2884 31.43 55.8034 31.65C55.3634 22.355 59.9834 17.13 72.1934 17.13C84.0734 17.13 88.8034 21.805 88.8034 30C88.8034 34.62 88.6384 37.865 88.6384 42.045C88.6384 45.84 88.9134 50.515 89.4084 52H79.0684C76.8134 52 76.4284 51.78 76.4284 49.195C76.4284 48.37 76.4834 47.325 76.5384 46.28H76.2084C74.8334 50.515 71.1484 52.495 65.4834 52.495C58.4984 52.495 54.7584 50.185 54.7584 43.2C54.7584 36.05 59.4884 33.19 69.7184 33.19C72.1934 33.19 74.5034 33.245 76.2634 33.52ZM147.653 52H135.718C135.883 46.885 135.883 40.395 135.883 32.255C135.883 29.12 134.673 27.745 132.088 27.745C129.393 27.745 127.193 29.285 127.193 34.015C127.193 43.695 127.138 48.15 127.358 52H115.533C115.698 46.995 115.753 41.33 115.753 32.2C115.753 29.285 114.653 27.745 111.958 27.745C109.208 27.745 107.008 29.285 107.008 34.015C107.008 43.31 107.008 48.48 107.118 52H95.0725C95.1825 47.05 95.1825 42.155 95.1825 34.95C95.1825 27.58 95.1825 22.685 95.0725 17.735H107.338C107.283 19.825 107.228 21.365 107.118 23.345L107.448 23.455C109.428 19.165 112.563 17.24 117.293 17.24C122.408 17.24 125.763 19.66 126.753 23.785H127.138C129.118 18.945 133.078 17.24 137.698 17.24C143.968 17.24 147.598 20.76 147.598 27.085C147.598 32.86 147.433 36.655 147.433 41.11C147.433 45.015 147.487 48.755 147.653 52ZM166.434 33.63V41.66C167.864 42.375 169.514 42.87 171.659 42.87C175.674 42.87 177.379 40.725 177.379 34.51C177.379 28.405 175.674 26.7 172.154 26.7C169.019 26.7 166.434 28.35 166.434 33.63ZM166.599 22.795L166.874 22.905C168.964 19 172.869 17.185 177.929 17.185C185.959 17.185 190.249 21.42 190.249 34.675C190.249 47.765 185.849 52.55 177.929 52.55C171.714 52.55 168.579 49.965 166.984 47.16L166.654 47.215C166.654 47.875 166.654 48.48 166.654 49.085C166.654 50.13 166.709 51.01 166.764 52H153.564C153.674 46.225 153.729 39.955 153.729 31.21C153.729 21.86 153.674 14.765 153.619 9.43H166.819C166.764 11.85 166.764 14.105 166.764 17.35C166.709 19.495 166.654 20.98 166.599 22.795ZM217.851 17.735H230.996C230.886 22.63 230.886 27.03 230.886 34.785C230.886 42.045 230.886 47.215 230.996 52H217.906C217.961 49.855 217.961 48.26 218.071 46.335L217.741 46.28C215.761 50.625 212.021 52.55 206.301 52.55C199.536 52.55 195.136 49.305 195.136 41.55C195.136 35.775 195.246 32.805 195.246 29.065C195.246 24.83 195.246 21.31 195.081 17.735H208.281C208.116 22.63 208.116 29.34 208.116 37.59C208.116 41.055 209.326 42.43 212.351 42.43C215.486 42.43 217.961 40.56 217.961 35.72C217.961 24.775 217.906 21.2 217.851 17.735ZM247.805 25.105H248.245C249.785 19.495 253.14 17.35 257.65 17.35C259.025 17.35 260.29 17.515 261.5 17.845C261.17 21.75 260.84 26.865 260.785 31.375C259.575 30.99 258.2 30.77 256.77 30.77C252.37 30.825 250.83 32.585 250.83 38.745C250.83 43.09 250.885 48.26 251.105 52H237.245C237.355 47.215 237.41 42.045 237.41 34.675C237.41 27.47 237.41 22.575 237.245 17.735H248.08C247.97 20.1 247.86 22.41 247.805 25.105ZM280.82 53.595C288.025 53.595 289.895 52.77 289.895 51.23C289.895 50.295 289.4 49.855 287.2 49.855C283.24 49.855 277.96 50.405 274.33 50.405C273.725 50.405 273.175 50.405 272.68 50.35C272.405 50.68 272.24 51.01 272.24 51.34C272.24 52.99 273.615 53.595 280.82 53.595ZM280.38 25.16C276.585 25.16 274.935 26.7 274.935 29.23C274.935 31.87 276.53 33.135 280.38 33.135C284.285 33.135 285.88 31.87 285.88 29.23C285.88 26.7 284.23 25.16 280.38 25.16ZM292.04 25.325V25.655C295.945 26.645 297.43 28.02 297.43 31.21C297.43 37.04 293.085 40.12 280.215 40.12C278.345 40.12 276.64 40.01 275.1 39.845C274.77 40.505 274.605 41.11 274.605 41.715C274.605 42.65 275.32 43.145 276.86 43.145C282.25 43.145 286.76 42.43 290.335 42.43C297.155 42.43 299.96 44.85 299.96 50.515C299.96 57.335 295.945 60.25 280.545 60.25C264.595 60.25 262.34 58.215 262.34 54.805C262.34 52.22 264.32 50.79 268.28 50.075V49.8C265.09 48.975 264.045 47.325 264.045 45.29C264.045 42.21 266.74 40.23 270.7 39.185V39.02C265.53 37.425 263.44 34.18 263.44 29.395C263.44 21.585 268.555 17.68 280.215 17.68C281.48 17.68 291.93 17.79 299.63 17.79C299.52 18.945 299.52 24.17 299.575 25.71C297.925 25.71 295.01 25.545 292.04 25.325ZM316.419 17.735L319.939 17.79C319.994 15.425 319.994 13.17 319.994 11.245C321.974 11.355 324.174 11.355 326.319 11.355C328.464 11.355 330.719 11.355 332.699 11.245C332.644 13.335 332.534 15.535 332.479 17.845C336.384 17.845 340.234 17.79 343.369 17.735C343.259 21.145 343.094 25.16 343.149 28.625C340.949 28.57 336.769 28.46 332.314 28.405C332.259 31.155 332.259 34.07 332.259 37.205C332.259 39.68 333.359 40.615 336.439 40.615C339.024 40.615 341.224 40.23 342.929 39.57C343.094 43.035 343.699 47.82 344.139 51.175C340.894 52 338.199 52.44 334.129 52.44C322.964 52.44 319.719 47.435 319.719 39.845C319.719 36.71 319.774 32.585 319.829 28.24L316.474 28.185C316.474 25.05 316.529 20.65 316.419 17.735ZM364.66 24.94C361.305 24.94 359.545 26.26 359.105 32.145C362.295 32.2 365.87 32.2 369.445 32.145C369.5 31.705 369.5 31.21 369.5 30.66C369.5 26.48 368.18 24.94 364.66 24.94ZM374.89 40.56C377.2 40.56 379.235 40.505 380.94 40.395C381.215 48.37 378.465 52.715 364.495 52.715C352.615 52.715 346.675 47.49 346.675 34.95C346.675 21.75 353.055 17.02 364.88 17.02C377.42 17.02 381.05 22.025 381.05 31.045C381.05 33.85 380.94 36.05 380.775 37.535C377.365 37.425 372.25 37.425 367.685 37.425C364.33 37.425 361.25 37.425 359.05 37.48C359.325 42.87 360.975 44.575 364.825 44.575C368.345 44.575 369.39 43.2 369.445 40.395C370.765 40.505 372.69 40.56 374.89 40.56ZM407.134 28.845V28.24C407.134 26.205 406.034 25.215 402.349 25.215C398.829 25.215 397.784 26.04 397.784 27.47C397.784 29.01 398.719 30.165 405.594 30.99C415.659 32.42 418.739 35.28 418.739 41.99C418.739 49.085 414.229 52.715 402.019 52.715C388.764 52.715 385.189 49.14 385.189 42.43C385.189 41.825 385.244 41.11 385.299 40.45C386.839 40.56 388.929 40.725 391.734 40.725C393.439 40.725 395.089 40.67 396.244 40.56C396.244 40.835 396.189 41.055 396.189 41.275C396.189 43.365 397.454 44.41 401.469 44.41C404.934 44.41 406.034 43.64 406.034 41.99C406.034 40.175 404.604 39.24 398.334 38.525C387.774 37.26 385.189 33.74 385.189 27.525C385.189 20.155 390.194 17.13 401.854 17.13C414.174 17.13 418.244 20.265 418.244 27.03C418.244 27.635 418.189 28.295 418.134 29.01C416.539 28.845 413.899 28.735 411.589 28.735C409.774 28.735 408.124 28.79 407.134 28.845ZM421.37 17.735L424.89 17.79C424.945 15.425 424.945 13.17 424.945 11.245C426.925 11.355 429.125 11.355 431.27 11.355C433.415 11.355 435.67 11.355 437.65 11.245C437.595 13.335 437.485 15.535 437.43 17.845C441.335 17.845 445.185 17.79 448.32 17.735C448.21 21.145 448.045 25.16 448.1 28.625C445.9 28.57 441.72 28.46 437.265 28.405C437.21 31.155 437.21 34.07 437.21 37.205C437.21 39.68 438.31 40.615 441.39 40.615C443.975 40.615 446.175 40.23 447.88 39.57C448.045 43.035 448.65 47.82 449.09 51.175C445.845 52 443.15 52.44 439.08 52.44C427.915 52.44 424.67 47.435 424.67 39.845C424.67 36.71 424.725 32.585 424.78 28.24L421.425 28.185C421.425 25.05 421.48 20.65 421.37 17.735ZM469.611 24.94C466.256 24.94 464.496 26.26 464.056 32.145C467.246 32.2 470.821 32.2 474.396 32.145C474.451 31.705 474.451 31.21 474.451 30.66C474.451 26.48 473.131 24.94 469.611 24.94ZM479.841 40.56C482.151 40.56 484.186 40.505 485.891 40.395C486.166 48.37 483.416 52.715 469.446 52.715C457.566 52.715 451.626 47.49 451.626 34.95C451.626 21.75 458.006 17.02 469.831 17.02C482.371 17.02 486.001 22.025 486.001 31.045C486.001 33.85 485.891 36.05 485.726 37.535C482.316 37.425 477.201 37.425 472.636 37.425C469.281 37.425 466.201 37.425 464.001 37.48C464.276 42.87 465.926 44.575 469.776 44.575C473.296 44.575 474.341 43.2 474.396 40.395C475.716 40.505 477.641 40.56 479.841 40.56ZM489.261 17.735L492.781 17.79C492.836 15.425 492.836 13.17 492.836 11.245C494.816 11.355 497.016 11.355 499.161 11.355C501.306 11.355 503.561 11.355 505.541 11.245C505.486 13.335 505.376 15.535 505.321 17.845C509.226 17.845 513.076 17.79 516.211 17.735C516.101 21.145 515.936 25.16 515.991 28.625C513.791 28.57 509.611 28.46 505.156 28.405C505.101 31.155 505.101 34.07 505.101 37.205C505.101 39.68 506.201 40.615 509.281 40.615C511.866 40.615 514.066 40.23 515.771 39.57C515.936 43.035 516.541 47.82 516.981 51.175C513.736 52 511.041 52.44 506.971 52.44C495.806 52.44 492.561 47.435 492.561 39.845C492.561 36.71 492.616 32.585 492.671 28.24L489.316 28.185C489.316 25.05 489.371 20.65 489.261 17.735ZM48.13 88.01H48.24C49.175 103.795 46.26 111.715 28.935 111.715C14.525 111.715 7.87 104.235 7.87 89.935C7.87 75.69 14.635 69.035 29.1 69.035C43.565 69.035 48.46 75.03 48.46 82.4C48.46 83.17 48.46 83.885 48.405 84.71C46.59 84.655 44.06 84.6 41.585 84.6C39.055 84.6 36.635 84.6 34.985 84.71C34.985 84.27 35.04 83.775 35.04 83.39C35.04 80.035 33.005 78.55 29.045 78.55C23.875 78.55 21.675 81.3 21.675 90.1C21.675 98.405 23.655 101.925 29.43 101.925C33.555 101.925 35.26 100.22 35.59 95.82C32.95 95.82 30.09 95.875 27.89 95.93C27.945 95.105 27.945 93.125 27.945 92.245C27.945 90.54 27.945 89.11 27.89 88.01C31.41 88.065 34.93 88.065 37.57 88.065C40.485 88.065 44.28 88.12 48.13 88.01ZM65.0807 84.105H65.5207C67.0607 78.495 70.4157 76.35 74.9257 76.35C76.3007 76.35 77.5657 76.515 78.7757 76.845C78.4457 80.75 78.1157 85.865 78.0607 90.375C76.8507 89.99 75.4757 89.77 74.0457 89.77C69.6457 89.825 68.1057 91.585 68.1057 97.745C68.1057 102.09 68.1607 107.26 68.3807 111H54.5207C54.6307 106.215 54.6857 101.045 54.6857 93.675C54.6857 86.47 54.6857 81.575 54.5207 76.735H65.3557C65.2457 79.1 65.1357 81.41 65.0807 84.105ZM105.327 76.735H118.472C118.362 81.63 118.362 86.03 118.362 93.785C118.362 101.045 118.362 106.215 118.472 111H105.382C105.437 108.855 105.437 107.26 105.547 105.335L105.217 105.28C103.237 109.625 99.4966 111.55 93.7766 111.55C87.0116 111.55 82.6116 108.305 82.6116 100.55C82.6116 94.775 82.7216 91.805 82.7216 88.065C82.7216 83.83 82.7216 80.31 82.5566 76.735H95.7566C95.5916 81.63 95.5916 88.34 95.5916 96.59C95.5916 100.055 96.8016 101.43 99.8266 101.43C102.962 101.43 105.437 99.56 105.437 94.72C105.437 83.775 105.382 80.2 105.327 76.735ZM160.636 111H147.436C147.546 106.215 147.601 99.725 147.601 91.695C147.601 88.12 146.446 86.69 143.311 86.69C140.176 86.69 137.701 88.45 137.701 93.4C137.701 104.015 137.756 107.59 137.811 111H124.721C124.831 106.105 124.886 101.705 124.886 93.95C124.886 86.635 124.831 81.465 124.721 76.735H137.811C137.756 78.88 137.756 80.475 137.646 82.4L137.976 82.51C140.011 78.11 143.861 76.24 149.361 76.24C156.456 76.24 160.526 79.43 160.526 87.625C160.526 93.125 160.416 95.93 160.416 99.505C160.416 103.795 160.471 107.37 160.636 111ZM188.893 95.105V86.415C187.463 85.755 185.703 85.37 183.613 85.37C179.708 85.37 177.728 87.35 177.728 93.785C177.728 99.89 179.708 101.925 182.953 101.925C186.363 101.925 188.893 99.835 188.893 95.105ZM188.618 68.43H201.818C201.653 74.425 201.708 80.42 201.708 90.54C201.708 99.285 201.653 105.17 201.818 111.055H188.673C188.673 109.845 188.728 108.69 188.728 107.37C188.728 106.545 188.728 105.665 188.783 104.785L188.398 104.73C186.968 108.25 183.888 111.495 177.728 111.495C169.918 111.495 165.078 106.6 165.078 93.95C165.078 81.19 170.908 76.185 178.443 76.185C183.228 76.185 186.638 77.78 188.618 81.19L188.783 81.135C188.673 79.21 188.673 77.615 188.673 75.525C188.673 72.885 188.728 70.685 188.618 68.43ZM224.635 83.94C221.28 83.94 219.52 85.26 219.08 91.145C222.27 91.2 225.845 91.2 229.42 91.145C229.475 90.705 229.475 90.21 229.475 89.66C229.475 85.48 228.155 83.94 224.635 83.94ZM234.865 99.56C237.175 99.56 239.21 99.505 240.915 99.395C241.19 107.37 238.44 111.715 224.47 111.715C212.59 111.715 206.65 106.49 206.65 93.95C206.65 80.75 213.03 76.02 224.855 76.02C237.395 76.02 241.025 81.025 241.025 90.045C241.025 92.85 240.915 95.05 240.75 96.535C237.34 96.425 232.225 96.425 227.66 96.425C224.305 96.425 221.225 96.425 219.025 96.48C219.3 101.87 220.95 103.575 224.8 103.575C228.32 103.575 229.365 102.2 229.42 99.395C230.74 99.505 232.665 99.56 234.865 99.56ZM260.51 71.29C260.51 72.94 259.575 74.535 253.085 74.535C246.485 74.535 245.55 72.94 245.55 71.29C245.55 69.42 246.65 68.265 253.085 68.265C259.465 68.265 260.51 69.42 260.51 71.29ZM259.575 111H246.485C246.65 105.72 246.65 99.89 246.65 93.235C246.65 86.965 246.595 81.96 246.485 76.735H259.575C259.41 82.015 259.41 86.91 259.41 93.95C259.41 101.43 259.41 105.885 259.575 111ZM301.788 111H288.588C288.698 106.215 288.753 99.725 288.753 91.695C288.753 88.12 287.598 86.69 284.463 86.69C281.328 86.69 278.853 88.45 278.853 93.4C278.853 104.015 278.908 107.59 278.963 111H265.873C265.983 106.105 266.038 101.705 266.038 93.95C266.038 86.635 265.983 81.465 265.873 76.735H278.963C278.908 78.88 278.908 80.475 278.798 82.4L279.128 82.51C281.163 78.11 285.013 76.24 290.513 76.24C297.608 76.24 301.678 79.43 301.678 87.625C301.678 93.125 301.568 95.93 301.568 99.505C301.568 103.795 301.623 107.37 301.788 111ZM330.045 76.735H343.795C341.045 81.63 336.81 90.375 331.97 93.785C337.305 97.305 340.11 104.895 344.125 111H331.42C329.825 111 329.165 110.67 328.615 109.57C326.36 105.39 323.5 100.33 320.97 97.415H320.64C320.64 102.42 320.64 106.49 320.75 111H307.605C307.77 104.565 307.715 97.03 307.715 88.945C307.715 81.41 307.77 74.92 307.605 68.43H320.805C320.585 74.92 320.64 81.025 320.64 90.32V91.86H321.025L324.435 86.635C327.185 82.51 328.945 79.1 330.045 76.735ZM368.299 93.4C368.299 87.625 366.099 85.7 362.359 85.7C358.674 85.7 356.419 87.515 356.419 93.4C356.419 99.285 358.619 101.54 362.359 101.54C366.209 101.54 368.299 99.23 368.299 93.4ZM381.059 93.18C381.059 105.39 374.734 111.715 362.359 111.715C349.984 111.715 343.879 105.39 343.879 93.18C343.879 80.915 350.644 76.02 362.359 76.02C374.074 76.02 381.059 80.915 381.059 93.18ZM438.39 111H426.455C426.62 105.885 426.62 99.395 426.62 91.255C426.62 88.12 425.41 86.745 422.825 86.745C420.13 86.745 417.93 88.285 417.93 93.015C417.93 102.695 417.875 107.15 418.095 111H406.27C406.435 105.995 406.49 100.33 406.49 91.2C406.49 88.285 405.39 86.745 402.695 86.745C399.945 86.745 397.745 88.285 397.745 93.015C397.745 102.31 397.745 107.48 397.855 111H385.81C385.92 106.05 385.92 101.155 385.92 93.95C385.92 86.58 385.92 81.685 385.81 76.735H398.075C398.02 78.825 397.965 80.365 397.855 82.345L398.185 82.455C400.165 78.165 403.3 76.24 408.03 76.24C413.145 76.24 416.5 78.66 417.49 82.785H417.875C419.855 77.945 423.815 76.24 428.435 76.24C434.705 76.24 438.335 79.76 438.335 86.085C438.335 91.86 438.17 95.655 438.17 100.11C438.17 104.015 438.225 107.755 438.39 111ZM496.881 111H484.946C485.111 105.885 485.111 99.395 485.111 91.255C485.111 88.12 483.901 86.745 481.316 86.745C478.621 86.745 476.421 88.285 476.421 93.015C476.421 102.695 476.366 107.15 476.586 111H464.761C464.926 105.995 464.981 100.33 464.981 91.2C464.981 88.285 463.881 86.745 461.186 86.745C458.436 86.745 456.236 88.285 456.236 93.015C456.236 102.31 456.236 107.48 456.346 111H444.301C444.411 106.05 444.411 101.155 444.411 93.95C444.411 86.58 444.411 81.685 444.301 76.735H456.566C456.511 78.825 456.456 80.365 456.346 82.345L456.676 82.455C458.656 78.165 461.791 76.24 466.521 76.24C471.636 76.24 474.991 78.66 475.981 82.785H476.366C478.346 77.945 482.306 76.24 486.926 76.24C493.196 76.24 496.826 79.76 496.826 86.085C496.826 91.86 496.661 95.655 496.661 100.11C496.661 104.015 496.716 107.755 496.881 111ZM519.347 83.94C515.992 83.94 514.232 85.26 513.792 91.145C516.982 91.2 520.557 91.2 524.132 91.145C524.187 90.705 524.187 90.21 524.187 89.66C524.187 85.48 522.867 83.94 519.347 83.94ZM529.577 99.56C531.887 99.56 533.922 99.505 535.627 99.395C535.902 107.37 533.152 111.715 519.182 111.715C507.302 111.715 501.362 106.49 501.362 93.95C501.362 80.75 507.742 76.02 519.567 76.02C532.107 76.02 535.737 81.025 535.737 90.045C535.737 92.85 535.627 95.05 535.462 96.535C532.052 96.425 526.937 96.425 522.372 96.425C519.017 96.425 515.937 96.425 513.737 96.48C514.012 101.87 515.662 103.575 519.512 103.575C523.032 103.575 524.077 102.2 524.132 99.395C525.452 99.505 527.377 99.56 529.577 99.56ZM577.057 111H563.857C563.967 106.215 564.022 99.725 564.022 91.695C564.022 88.12 562.867 86.69 559.732 86.69C556.597 86.69 554.122 88.45 554.122 93.4C554.122 104.015 554.177 107.59 554.232 111H541.142C541.252 106.105 541.307 101.705 541.307 93.95C541.307 86.635 541.252 81.465 541.142 76.735H554.232C554.177 78.88 554.177 80.475 554.067 82.4L554.397 82.51C556.432 78.11 560.282 76.24 565.782 76.24C572.877 76.24 576.947 79.43 576.947 87.625C576.947 93.125 576.837 95.93 576.837 99.505C576.837 103.795 576.892 107.37 577.057 111Z" fill="black"/>
<rect x="6" y="123" width="574" height="12" fill="black"/>
</g>
<defs>
<clipPath id="clip0_129_4">
<rect width="589" height="148" fill="white"/>
</clipPath>
</defs>
</svg>
