<svg width="196" height="196" viewBox="0 0 196 196" fill="none" xmlns="http://www.w3.org/2000/svg">
<rect width="196" height="196" fill="#F8C7CE"/>
<path d="M97.4995 186C145.824 186 184.999 146.825 184.999 98.5001C184.999 50.1754 145.824 11.0005 97.4995 11.0005C49.1749 11.0005 10 50.1754 10 98.5001C10 146.825 49.1749 186 97.4995 186Z" fill="#FFFF55"/>
<path d="M113.756 53.2807H131.704C132.436 53.2833 133.149 53.0516 133.74 52.6195C134.331 52.1874 134.768 51.5776 134.988 50.8793L140.5 33.8232L146.076 50.8793C146.296 51.5776 146.733 52.1874 147.324 52.6195C147.915 53.0516 148.628 53.2833 149.36 53.2807H167.217L152.735 63.7599C152.304 64.101 151.953 64.5329 151.707 65.0251C151.462 65.5172 151.328 66.0574 151.316 66.6072C151.332 66.9681 151.393 67.3256 151.498 67.6715L156.992 84.7275L142.51 74.1573C141.914 73.7395 141.201 73.5228 140.473 73.5387C139.742 73.5241 139.026 73.7405 138.426 74.1573L123.972 84.7275L129.484 67.6715C129.586 67.2943 129.644 66.9067 129.657 66.5162C129.651 65.982 129.519 65.4567 129.273 64.9827C129.026 64.5087 128.672 64.0992 128.238 63.7872L113.756 53.2807ZM52.382 74.1573L37.8912 84.7275L43.4037 67.6715C43.5056 67.2943 43.5636 66.9067 43.5765 66.5162C43.5702 65.982 43.4385 65.4567 43.192 64.9827C42.9456 64.5087 42.5912 64.0992 42.1575 63.7872L27.6758 53.2807H45.6232C46.3556 53.2848 47.0699 53.0536 47.661 52.6213C48.2522 52.189 48.689 51.5784 48.9071 50.8793L54.4196 33.8232L60.014 50.8793C60.2334 51.5776 60.6705 52.1874 61.2613 52.6195C61.8522 53.0516 62.5658 53.2833 63.2978 53.2807H81.1543L66.6817 63.7599C66.2477 64.0992 65.8945 64.5306 65.6475 65.023C65.4006 65.5154 65.266 66.0565 65.2536 66.6072C65.2698 66.9681 65.3309 67.3256 65.4355 67.6715L70.9389 84.7275L56.4663 74.1573C55.86 73.7536 55.1479 73.5383 54.4196 73.5383C53.6912 73.5383 52.9792 73.7536 52.3729 74.1573H52.382Z" fill="#FFD200"/>
<path d="M150.806 42.8838C151.87 43.9572 153.025 45.1124 154.09 46.2586H151.87L150.806 42.8838ZM113.756 53.2811H131.703C132.435 53.2837 133.149 53.052 133.739 52.6199C134.33 52.1878 134.767 51.578 134.987 50.8796L140.499 33.8236L146.076 50.8796C146.295 51.578 146.732 52.1878 147.323 52.6199C147.914 53.052 148.627 53.2837 149.359 53.2811H167.216L152.734 63.7603C152.303 64.1013 151.952 64.5333 151.707 65.0255C151.461 65.5176 151.328 66.0578 151.315 66.6075C151.331 66.9685 151.392 67.326 151.497 67.6718L156.991 84.7278L142.51 74.1577C141.914 73.7399 141.2 73.5232 140.472 73.5391C139.742 73.5244 139.025 73.7409 138.425 74.1577L123.971 84.7278L129.483 67.6718C129.585 67.2947 129.643 66.907 129.656 66.5166C129.65 65.9823 129.518 65.4571 129.272 64.9831C129.025 64.5091 128.671 64.0996 128.237 63.7876L113.756 53.2811ZM84.2191 94.3247C84.2142 95.0149 84.3467 95.6991 84.6089 96.3376C84.8711 96.9761 85.2577 97.5561 85.7461 98.0437C86.2346 98.5313 86.8152 98.9169 87.4542 99.178C88.0931 99.439 88.7776 99.5703 89.4678 99.5643C90.8516 99.5455 92.1734 98.9874 93.1519 98.0088C94.1305 97.0303 94.6886 95.7085 94.7074 94.3247C94.7013 93.9499 94.7704 93.5776 94.9108 93.23C95.0511 92.8824 95.2598 92.5665 95.5245 92.301C95.7891 92.0355 96.1043 91.8258 96.4515 91.6844C96.7987 91.5429 97.1707 91.4725 97.5455 91.4775C97.9249 91.4715 98.3018 91.5404 98.6546 91.6803C99.0073 91.8203 99.329 92.0285 99.6011 92.293C99.8733 92.5575 100.09 92.8731 100.24 93.2218C100.39 93.5704 100.47 93.9452 100.475 94.3247C100.531 95.6777 101.108 96.9566 102.085 97.8941C103.063 98.8315 104.365 99.3549 105.719 99.3549C107.073 99.3549 108.375 98.8315 109.352 97.8941C110.329 96.9566 110.907 95.6777 110.963 94.3247C110.963 90.7782 109.554 87.377 107.046 84.8693C104.539 82.3616 101.137 80.9528 97.591 80.9528C94.0445 80.9528 90.6433 82.3616 88.1356 84.8693C85.6279 87.377 84.2191 90.7782 84.2191 94.3247ZM48.9063 112.618C48.9063 132.876 65.7895 155.08 97.5 155.08C129.211 155.08 146.076 132.839 146.076 112.618C146.076 108.07 143.674 105.959 140.836 105.959C139.326 105.959 138.107 106.76 135.769 108.443C123.152 117.776 114.274 121.86 97.4818 121.86C80.6896 121.86 71.8114 117.776 59.1945 108.443C56.884 106.76 55.6469 105.959 54.1368 105.959C51.3078 105.959 48.9063 108.088 48.9063 112.618ZM40.9196 46.2131L44.1125 43.0202L43.0482 46.2131H40.9196ZM27.675 53.2811H45.6225C46.3548 53.2851 47.0691 53.054 47.6603 52.6217C48.2514 52.1894 48.6882 51.5787 48.9063 50.8796L54.4188 33.8236L60.0132 50.8796C60.2326 51.578 60.6697 52.1878 61.2606 52.6199C61.8514 53.052 62.5651 53.2837 63.2971 53.2811H81.1535L66.681 63.7603C66.247 64.0996 65.8937 64.531 65.6468 65.0234C65.3998 65.5157 65.2652 66.0568 65.2528 66.6075C65.269 66.9685 65.3301 67.326 65.4347 67.6718L70.9381 84.7278L56.4656 74.1577C55.8593 73.754 55.1472 73.5387 54.4188 73.5387C53.6905 73.5387 52.9784 73.754 52.3721 74.1577L37.8904 84.7278L43.4029 67.6718C43.5048 67.2947 43.5628 66.907 43.5758 66.5166C43.5695 65.9823 43.4378 65.4571 43.1913 64.9831C42.9448 64.5091 42.5904 64.0996 42.1567 63.7876L27.675 53.2811ZM10.0005 98.5C10.0005 121.706 19.2191 143.962 35.6285 160.372C52.0378 176.781 74.2937 186 97.5 186C120.706 186 142.962 176.781 159.372 160.372C175.781 143.962 185 121.706 185 98.5C185.046 83.9032 181.377 69.5347 174.338 56.7469L180.024 52.5716C180.493 52.2591 180.878 51.8359 181.144 51.3393C181.411 50.8426 181.551 50.288 181.552 49.7244C181.528 48.7969 181.143 47.9154 180.479 47.268C179.814 46.6205 178.923 46.2583 177.995 46.2586H167.68C161.431 37.9124 153.764 30.7291 145.029 25.0364L143.874 21.4796C143.633 20.777 143.178 20.1676 142.572 19.7369C141.967 19.3062 141.242 19.0759 140.499 19.0781C139.915 19.0734 139.339 19.218 138.827 19.4982C138.314 19.7784 137.882 20.1849 137.57 20.6791C125.173 14.3179 111.439 11 97.5046 11C83.5703 11 69.8364 14.3179 57.4389 20.6791C57.1051 20.1853 56.6552 19.7811 56.1286 19.5019C55.602 19.2228 55.0148 19.0772 54.4188 19.0781C53.6872 19.077 52.9742 19.3092 52.3836 19.7411C51.7931 20.173 51.3556 20.782 51.135 21.4796L49.9797 25.0364C41.242 30.7289 33.5723 37.9121 27.3203 46.2586H16.9047C16.4429 46.2621 15.9864 46.3572 15.5615 46.5383C15.1367 46.7194 14.752 46.983 14.4297 47.3138C14.1074 47.6446 13.8539 48.036 13.6838 48.4653C13.5137 48.8947 13.4305 49.3536 13.4389 49.8153C13.4474 50.3492 13.58 50.8737 13.8263 51.3473C14.0726 51.821 14.4259 52.2308 14.858 52.5443L20.6343 56.7196C13.6117 69.5223 9.95286 83.8978 10.0005 98.5ZM77.6059 97.3629C78.5244 97.3605 79.4045 96.9946 80.0539 96.3452C80.7034 95.6957 81.0693 94.8156 81.0717 93.8971C80.9968 93.2009 80.8474 92.5147 80.626 91.8504L72.8939 67.9538L93.9524 52.5716C94.4175 52.2565 94.7984 51.8322 95.0616 51.3358C95.3249 50.8395 95.4625 50.2862 95.4624 49.7244C95.4387 48.7969 95.0535 47.9154 94.389 47.268C93.7246 46.6205 92.8334 46.2583 91.9057 46.2586H65.7895L60.8137 30.7945C72.0702 24.6682 84.6844 21.4653 97.5 21.4796C110.305 21.4798 122.91 24.6553 134.186 30.7217L129.129 46.2586H103.013C102.551 46.2621 102.094 46.3572 101.669 46.5383C101.244 46.7194 100.86 46.983 100.537 47.3138C100.215 47.6446 99.9616 48.036 99.7916 48.4653C99.6215 48.8947 99.5383 49.3536 99.5468 49.8153C99.5531 50.3496 99.6848 50.8748 99.9312 51.3488C100.178 51.8228 100.532 52.2323 100.966 52.5443L122.106 67.9083L114.292 91.905C114.071 92.4912 113.921 93.1021 113.847 93.7243C113.843 94.1883 113.933 94.6483 114.111 95.0765C114.29 95.5048 114.553 95.8925 114.885 96.2163C115.217 96.5401 115.612 96.7933 116.045 96.9607C116.477 97.128 116.94 97.2061 117.403 97.1901C118.13 97.2016 118.843 96.9853 119.441 96.5715L140.499 81.2894L161.64 96.5715C162.234 97.0104 162.948 97.2578 163.686 97.2811C164.604 97.2787 165.483 96.9124 166.131 96.2627C166.779 95.613 167.143 94.7329 167.143 93.8153C167.073 93.1192 166.926 92.4328 166.706 91.7686L158.974 67.872L165.815 62.8962C171.579 73.8529 174.568 86.056 174.52 98.4363C174.52 118.863 166.406 138.454 151.962 152.898C137.518 167.342 117.927 175.457 97.5 175.457C77.073 175.457 57.4825 167.342 43.0384 152.898C28.5943 138.454 20.4797 118.863 20.4797 98.4363C20.4519 86.0584 23.4398 73.86 29.185 62.8962L36.0075 67.9356L28.2117 91.905C27.9901 92.4912 27.8404 93.1021 27.766 93.7243C27.762 94.1883 27.852 94.6483 28.0305 95.0765C28.209 95.5048 28.4724 95.8925 28.8047 96.2163C29.137 96.5401 29.5314 96.7933 29.9641 96.9607C30.3969 97.128 30.859 97.2061 31.3227 97.1901C32.0499 97.2016 32.7624 96.9853 33.3604 96.5715L54.4188 81.2894L75.5592 96.5715C76.1437 97.0397 76.8585 97.316 77.6059 97.3629Z" fill="black"/>
</svg>
