<?xml version="1.0" encoding="utf-8"?>
<!-- Generator: Adobe Illustrator 25.1.0, SVG Export Plug-In . SVG Version: 6.00 Build 0)  -->
<svg version="1.1" id="Ebene_1" xmlns="http://www.w3.org/2000/svg" xmlns:xlink="http://www.w3.org/1999/xlink" x="0px" y="0px"
	 viewBox="0 0 500 500" style="enable-background:new 0 0 500 500;" xml:space="preserve">
<style type="text/css">
	.st0{fill:#FFFFFF;}
	.st1{fill:#FF4664;}
	.st2{fill:#46B4B4;}
	.st3{fill:#785FFF;}
	.st4{fill:none;stroke:#785FFF;stroke-width:25;stroke-miterlimit:10;}
	.st5{fill:none;stroke:#785FFF;stroke-width:26.1746;stroke-miterlimit:10;}
</style>
<g>
	<path class="st0" d="M410.63,250c0-8.62,0-17.24,0.01-25.86c0.01-20.05,0.02-40.11-0.02-60.15c-0.06-41.8-32.83-74.56-74.61-74.6
		c-57.07-0.04-114.94-0.04-172,0c-41.81,0.02-74.59,32.78-74.62,74.6c-0.02,51.16-0.04,111.61,0,172.01
		c0.03,41.8,32.8,74.57,74.6,74.61c28.54,0.03,57.27,0.04,86.01,0.04c28.74,0,57.47-0.01,86.01-0.04
		c41.77-0.03,74.54-32.8,74.61-74.59c0.04-20.05,0.03-40.11,0.02-60.16C410.63,267.23,410.63,258.61,410.63,250z M385.63,275.86
		c0.01,20.03,0.02,40.07-0.02,60.11c-0.02,13.58-5.1,26.13-14.31,35.34c-9.2,9.21-21.75,14.28-35.32,14.29
		c-57.06,0.05-114.92,0.05-171.98,0c-13.57-0.01-26.12-5.09-35.33-14.3c-9.21-9.21-14.29-21.75-14.3-35.32
		c-0.04-60.39-0.02-120.83,0-171.98c0.01-13.56,5.09-26.1,14.31-35.32c9.22-9.21,21.76-14.29,35.33-14.29
		c28.53-0.02,57.26-0.03,85.98-0.03c28.73,0,57.46,0.01,85.98,0.03c28.25,0.02,49.58,21.36,49.62,49.64
		c0.04,20.03,0.03,40.07,0.02,60.1c0,8.62-0.01,17.25-0.01,25.87S385.63,267.24,385.63,275.86z"/>
	<path class="st0" d="M250.63,158.73c-24.56-0.11-47.63,9.4-64.98,26.67c-17.31,17.23-26.86,40.17-26.91,64.6
		c-0.04,24.04,9.41,46.85,26.62,64.22c17.23,17.39,39.91,26.99,63.87,27.04c0.07,0,0.13,0,0.2,0c24.47,0,47.48-9.43,64.81-26.56
		c17.4-17.2,27-40.12,27.05-64.54v0c0.04-24.18-9.41-47.05-26.6-64.4C297.47,168.4,274.72,158.8,250.63,158.73z M296.65,296.93
		c-12.62,12.47-29.38,19.34-47.23,19.34c-0.05,0-0.1,0-0.14,0c-35.59-0.08-65.6-30.4-65.54-66.22c0.03-17.75,6.97-34.41,19.54-46.92
		c12.57-12.51,29.28-19.4,47.07-19.4c0.07,0,0.14,0,0.21,0c17.4,0.05,33.87,7.02,46.36,19.63c12.51,12.63,19.38,29.23,19.36,46.76
		C316.24,267.83,309.27,284.45,296.65,296.93z"/>
	<path class="st0" d="M342.25,140.75c-10.95-0.01-20.02,9.05-20.01,20.01c0.01,10.76,9.08,19.82,19.85,19.84
		c10.97,0.01,20.01-9.02,19.99-19.99C362.08,149.82,353.04,140.77,342.25,140.75z"/>
</g>
</svg>
