<?xml version="1.0" encoding="utf-8"?>
<!-- Generator: Adobe Illustrator 25.4.1, SVG Export Plug-In . SVG Version: 6.00 Build 0)  -->
<svg version="1.1" id="Ebene_1" xmlns="http://www.w3.org/2000/svg" xmlns:xlink="http://www.w3.org/1999/xlink" x="0px" y="0px"
	 viewBox="0 0 500 500" style="enable-background:new 0 0 500 500;" xml:space="preserve">
<style type="text/css">
	.st0{fill:#FFFFFF;}
	.st1{fill:#FF4664;}
	.st2{fill:#46B4B4;}
	.st3{fill:#785FFF;}
	.st4{fill:none;stroke:#785FFF;stroke-width:25;stroke-miterlimit:10;}
	.st5{fill:none;stroke:#785FFF;stroke-width:26.1746;stroke-miterlimit:10;}
</style>
<path class="st0" d="M250.05,402.72c-12.92,0-127.18-0.25-158.83-8.88c-21.39-5.79-38.29-22.69-44.08-44.1l-0.06-0.22
	c-13.9-55.38-9.98-140.81-0.45-196.75l0.1-0.59l0.16-0.58c5.79-21.41,22.69-38.31,44.1-44.1c31.62-8.62,145.86-9.11,158.78-9.13
	c12.95,0,127.2,0.25,158.86,8.88c21.39,5.79,38.29,22.69,44.08,44.1l0.07,0.25c13.64,54.89,10.54,140.7,0.43,197.09l-0.24,1.06
	c-5.79,21.41-22.69,38.31-44.1,44.11C377.23,402.47,262.98,402.72,250.05,402.72z M71.3,343.32c3.51,12.82,13.64,22.92,26.47,26.4
	c24.09,6.57,118.09,8.01,152.28,8.01c34.19,0,128.19-1.44,152.25-8c12.73-3.44,22.79-13.39,26.39-26.02
	c9.55-53.73,12.56-134.63-0.15-185.95c-3.51-12.81-13.64-22.92-26.47-26.39c-24.09-6.57-118.09-8.01-152.28-8.01
	c-34.17,0.07-128.18,1.69-152.25,8.26c-12.71,3.44-22.76,13.36-26.38,25.97C58.9,230.18,61.94,305.87,71.3,343.32z M197.65,332.09
	v-163.1l140.79,81.55L197.65,332.09z M222.65,212.36v76.36l65.91-38.18L222.65,212.36z"/>
</svg>
