<?xml version="1.0" encoding="utf-8"?>
<!-- Generator: Adobe Illustrator 25.1.0, SVG Export Plug-In . SVG Version: 6.00 Build 0)  -->
<svg version="1.1" id="Ebene_1" xmlns="http://www.w3.org/2000/svg" xmlns:xlink="http://www.w3.org/1999/xlink" x="0px" y="0px"
	 viewBox="0 0 500 500" style="enable-background:new 0 0 500 500;" xml:space="preserve">
<style type="text/css">
	.st0{fill:#FFFFFF;}
	.st1{fill:#FF4664;}
	.st2{fill:#46B4B4;}
	.st3{fill:#785FFF;}
	.st4{fill:none;stroke:#785FFF;stroke-width:25;stroke-miterlimit:10;}
	.st5{fill:none;stroke:#785FFF;stroke-width:26.1746;stroke-miterlimit:10;}
</style>
<path class="st0" d="M291.54,155.99c2.79-3.34,9.38-4.04,14.42-4.04h44.22V73.46h-12.5c-2.44,0-6.84-0.26-11.93-0.56
	c-8.99-0.53-21.28-1.26-34.31-1.28c-23.95-1.46-47.49,6.81-64.63,22.74c-15.87,14.74-24.7,34.62-24.87,55.97l0.1,43h-52.21v84h52.24
	v151.21h86.55V277.33h50.75l10.64-84h-61.39v-24.39C288.62,162.66,289.6,158.3,291.54,155.99z M321.64,218.33l-4.31,34h-53.71
	v151.21h-36.55V252.33h-52.24v-34h52.27l-0.16-67.86c0.13-14.38,6.13-27.81,16.89-37.8c12.23-11.36,29.14-17.22,46.4-16.08
	l0.82,0.03c12.44,0,24.45,0.71,33.23,1.23c0.31,0.02,0.61,0.04,0.91,0.05v29.03h-19.22c-34.99,0-42.34,22.84-42.34,42v49.39H321.64z
	"/>
</svg>
