<?xml version="1.0" encoding="utf-8"?>
<!-- Generator: Adobe Illustrator 27.7.0, SVG Export Plug-In . SVG Version: 6.00 Build 0)  -->
<svg version="1.1" id="Ebene_1" xmlns="http://www.w3.org/2000/svg" xmlns:xlink="http://www.w3.org/1999/xlink" x="0px" y="0px"
	 viewBox="0 0 60 60" style="enable-background:new 0 0 60 60;" xml:space="preserve">
<path id="iconmonstr-instagram-14" d="M37.1,15.8c-1.8-0.1-2.4-0.1-7.1-0.1s-5.2,0-7.1,0.1c-4.7,0.2-7,2.5-7.2,7.2
	c-0.1,1.8-0.1,2.4-0.1,7.1s0,5.2,0.1,7.1c0.2,4.7,2.4,7,7.2,7.2c1.8,0.1,2.4,0.1,7.1,0.1s5.2,0,7.1-0.1c4.7-0.2,7-2.5,7.2-7.2
	c0.1-1.8,0.1-2.4,0.1-7.1s0-5.2-0.1-7.1C44,18.2,41.8,16,37.1,15.8z M30,39c-5,0-9-4-9-9s4-9,9-9c5,0,9,4,9,9C39,35,35,39,30,39z
	 M39.3,22.8c-1.2,0-2.1-0.9-2.1-2.1s0.9-2.1,2.1-2.1c1.2,0,2.1,0.9,2.1,2.1l0,0C41.4,21.8,40.5,22.8,39.3,22.8z M35.8,30
	c0,3.2-2.6,5.8-5.8,5.8s-5.8-2.6-5.8-5.8s2.6-5.8,5.8-5.8c0,0,0,0,0,0C33.2,24.2,35.8,26.8,35.8,30C35.8,30,35.8,30,35.8,30z M30,0
	C13.4,0,0,13.4,0,30s13.4,30,30,30s30-13.4,30-30S46.6,0,30,0z M47.4,37.2c-0.3,6.4-3.8,9.9-10.2,10.2c-1.9,0.1-2.5,0.1-7.2,0.1
	s-5.3,0-7.2-0.1c-6.4-0.3-9.9-3.8-10.2-10.2c-0.1-1.9-0.1-2.5-0.1-7.2s0-5.3,0.1-7.2c0.3-6.4,3.8-9.9,10.2-10.2
	c1.9-0.1,2.5-0.1,7.2-0.1s5.3,0,7.2,0.1c6.4,0.3,9.9,3.8,10.2,10.2c0.1,1.9,0.1,2.5,0.1,7.2S47.5,35.3,47.4,37.2L47.4,37.2z"/>
</svg>
