<svg width="850" height="850" viewBox="0 0 850 850" fill="none" xmlns="http://www.w3.org/2000/svg">
<path d="M581.071 287.869C577.823 286.191 574.662 284.351 571.599 282.358C562.691 276.47 554.524 269.533 547.273 261.696C529.131 240.944 522.356 219.891 519.86 205.151H519.96C517.875 192.916 518.737 185 518.868 185H436.238V504.428C436.238 508.717 436.238 512.955 436.057 517.144C436.057 517.665 436.007 518.146 435.977 518.707C435.977 518.938 435.977 519.178 435.927 519.419C435.927 519.479 435.927 519.539 435.927 519.599C435.056 531.06 431.381 542.131 425.225 551.839C419.07 561.547 410.622 569.594 400.626 575.272C390.207 581.198 378.424 584.306 366.437 584.29C327.939 584.29 296.737 552.907 296.737 514.148C296.737 475.389 327.939 444.006 366.437 444.006C373.725 443.999 380.967 445.145 387.896 447.402L387.997 363.292C366.962 360.575 345.592 362.247 325.236 368.2C304.88 374.154 285.978 384.26 269.725 397.882C255.483 410.253 243.509 425.014 234.343 441.501C230.855 447.513 217.695 471.672 216.101 510.881C215.099 533.136 221.784 556.193 224.972 565.723V565.923C226.976 571.534 234.744 590.683 247.403 606.826C257.611 619.775 269.671 631.15 283.196 640.584V640.384L283.396 640.584C323.398 667.76 367.75 665.976 367.75 665.976C375.428 665.665 401.147 665.976 430.354 652.138C462.749 636.797 481.191 613.94 481.191 613.94C492.973 600.284 502.341 584.72 508.895 567.917C516.372 548.267 518.868 524.699 518.868 515.28V345.816C519.87 346.418 533.221 355.245 533.221 355.245C533.221 355.245 552.455 367.57 582.464 375.597C603.993 381.308 633 382.511 633 382.511V300.504C622.837 301.607 602.199 298.4 581.071 287.869Z" fill="white"/>
</svg>
