<svg width="1002" height="1021" viewBox="0 0 1002 1021" fill="none" xmlns="http://www.w3.org/2000/svg">
<path fill-rule="evenodd" clip-rule="evenodd" d="M500.963 1020C777.637 1020 1001.93 791.665 1001.93 510C1001.93 228.335 777.637 0 500.963 0C224.289 0 0 228.335 0 510C0 791.665 224.289 1020 500.963 1020ZM685.934 320.184C689.777 322.732 693.743 325.081 697.817 327.225C724.323 340.679 750.214 344.775 762.965 343.367V448.132C762.965 448.132 726.574 446.596 699.565 439.299C661.917 429.046 637.787 413.3 637.787 413.3C637.787 413.3 621.037 402.022 619.78 401.254V617.748C619.78 629.781 616.649 659.89 607.269 684.993C599.047 706.459 587.294 726.342 572.513 743.789C572.513 743.789 549.376 772.988 508.736 792.587C474.861 808.93 444.727 809.826 432.758 810.181C431.78 810.21 430.923 810.236 430.196 810.266C430.196 810.266 374.554 812.544 324.37 777.827L324.119 777.571V777.827C307.152 765.774 292.022 751.243 279.215 734.7C263.334 714.077 253.589 689.614 251.074 682.446V682.19C247.075 670.016 238.688 640.56 239.946 612.129C241.945 562.037 258.455 531.174 262.831 523.493C274.33 502.431 289.351 483.574 307.219 467.769C327.61 450.367 351.322 437.456 376.86 429.85C402.398 422.244 429.207 420.109 455.596 423.58L455.471 531.033C446.778 528.149 437.691 526.685 428.549 526.693C380.251 526.693 341.107 566.787 341.107 616.302C341.107 665.817 380.251 705.91 428.549 705.91C443.586 705.93 458.37 701.959 471.44 694.389C483.981 687.135 494.579 676.855 502.301 664.453C510.024 652.051 514.634 637.907 515.727 623.266V623.035C515.79 622.728 515.79 622.421 515.79 622.126C515.802 621.893 515.817 621.67 515.832 621.453C515.862 621.004 515.891 620.578 515.891 620.129C516.117 614.778 516.117 609.363 516.117 603.885V195.808H619.78C619.617 195.808 618.535 205.921 621.151 221.551H621.025C624.156 240.382 632.656 267.277 655.416 293.788C664.512 303.801 674.758 312.663 685.934 320.184Z" fill="black"/>
</svg>
