<?xml version="1.0" encoding="utf-8"?>
<!-- Generator: Adobe Illustrator 25.1.0, SVG Export Plug-In . SVG Version: 6.00 Build 0)  -->
<svg version="1.1" id="Ebene_1" xmlns="http://www.w3.org/2000/svg" xmlns:xlink="http://www.w3.org/1999/xlink" x="0px" y="0px"
	 viewBox="0 0 500 500" style="enable-background:new 0 0 500 500;" xml:space="preserve">
<style type="text/css">
	.st0{fill:#FFFFFF;}
	.st1{fill:#FF4664;}
	.st2{fill:#46B4B4;}
	.st3{fill:#785FFF;}
	.st4{fill:none;stroke:#785FFF;stroke-width:25;stroke-miterlimit:10;}
	.st5{fill:none;stroke:#785FFF;stroke-width:26.1746;stroke-miterlimit:10;}
</style>
<path class="st0" d="M415.28,114.01c-14.92,4.23-33.31,5.73-42.22,6.23c-15.39-14.72-36.11-22.95-57.74-22.77
	c-22.33,0.33-43.33,9.1-59.14,24.7c-15.75,15.54-24.66,36.19-25.1,58.17c-0.05,0.71-0.09,1.43-0.11,2.14
	c-48.47-6.19-92.84-30.77-123.47-68.84L94.02,96.87l-7.89,20.01c-1.22,3.11-29.78,76.74-10.86,132.4
	c14.77,43.44,50.7,67.61,75.46,79.59c-14.11,6.1-34.89,11.84-70.68,16.91l-28.85,4.09l22.85,18.09
	c1.78,1.41,44.41,34.57,109.27,34.57c57.29,0,111.33-21.69,152.15-61.07c41.06-39.61,63.96-92.58,64.48-149.12
	c0.01-1.27,0.01-2.54,0-3.81v-3.66c14.39-13.05,25.75-33.5,30.92-56.05l4.72-20.58L415.28,114.01z M379.94,169.03l-4.99,3.75v15.82
	l0,0.13c0.01,1.11,0.01,2.24,0,3.37c-0.46,49.8-20.65,96.45-56.84,131.37c-36.14,34.86-84.01,54.06-134.79,54.06
	c-26.01,0-48.05-6.27-64.22-13c24.09-5.1,47.03-12.87,67.61-27.65l21.41-15.37l-25.44-6.86c-0.65-0.17-64.91-18.08-83.74-73.43
	c-10.6-31.19-2.61-71.51,4.02-95.24c37.45,37.62,88.08,60.22,141.97,62.78l18.55,0.88l-6.16-17.52c-1.15-3.25-1.58-6.68-1.29-10.17
	l0.04-0.84c0.24-15.54,6.51-30.16,17.67-41.17c11.2-11.05,26.1-17.26,41.87-17.5c16.51-0.13,32.19,6.74,43.11,18.87l3.83,4.26
	l5.73-0.13c0.85-0.02,15.09-0.37,31.57-2.8C394.69,153.79,387.7,163.2,379.94,169.03z"/>
</svg>
