<?xml version="1.0" encoding="utf-8"?>
<!-- Generator: Adobe Illustrator 27.7.0, SVG Export Plug-In . SVG Version: 6.00 Build 0)  -->
<svg version="1.1" id="Ebene_1" xmlns="http://www.w3.org/2000/svg" xmlns:xlink="http://www.w3.org/1999/xlink" x="0px" y="0px"
	 viewBox="0 0 60 60" style="enable-background:new 0 0 60 60;" xml:space="preserve">
<path id="iconmonstr-twitter-4" d="M30,0C13.4,0,0,13.4,0,30s13.4,30,30,30s30-13.4,30-30S46.6,0,30,0z M45.2,24.1
	c0.5,10.1-7.1,21.4-20.4,21.4c-3.9,0-7.7-1.1-11-3.2c3.8,0.5,7.6-0.6,10.6-3c-3.1-0.1-5.8-2.1-6.7-5c1.1,0.2,2.2,0.2,3.2-0.1
	c-3.4-0.7-5.8-3.7-5.8-7.1c1,0.6,2.1,0.9,3.3,0.9c-3.2-2.1-4.1-6.3-2.2-9.6c3.6,4.5,9,7.2,14.8,7.5c-0.9-3.9,1.5-7.7,5.4-8.6
	c2.5-0.6,5.1,0.2,6.9,2.1c1.6-0.3,3.2-0.9,4.6-1.7c-0.5,1.7-1.7,3.1-3.2,4c1.4-0.2,2.8-0.6,4.1-1.1C47.8,21.8,46.6,23.1,45.2,24.1z"
	/>
</svg>
