<svg width="1020" height="1020" viewBox="0 0 1020 1020" fill="none" xmlns="http://www.w3.org/2000/svg">
<path fill-rule="evenodd" clip-rule="evenodd" d="M510 1020C791.665 1020 1020 791.665 1020 510C1020 228.335 791.665 0 510 0C228.335 0 0 228.335 0 510C0 791.665 228.335 1020 510 1020ZM509.823 725C491.615 725 330.582 724.648 285.976 712.483C255.83 704.322 232.012 680.5 223.852 650.321L223.767 650.011C204.177 571.95 209.702 451.531 223.133 372.68L223.274 371.848L223.499 371.031C231.659 340.852 255.478 317.031 285.652 308.869C330.216 296.719 491.22 296.028 509.429 296C527.68 296 688.699 296.352 733.319 308.517C763.465 316.678 787.283 340.5 795.443 370.679L795.542 371.031C814.765 448.402 810.396 569.356 796.148 648.841L795.809 650.336C787.649 680.514 763.831 704.336 733.657 712.511C689.065 724.648 528.046 725 509.823 725ZM637.416 509.592L438.993 394.643V624.542L637.416 509.592Z" fill="black"/>
</svg>
