<svg viewBox="0 0 600 600" xmlns="http://www.w3.org/2000/svg">
<g clip-path="url(#clip0_412_266)">
<path d="M300.014 599.968C465.69 599.968 599.998 465.66 599.998 299.984C599.998 134.307 465.69 0 300.014 0C134.338 0 0.0302734 134.307 0.0302734 299.984C0.0302734 465.66 134.338 599.968 300.014 599.968Z" fill="#FFFF55"/>
<path d="M271.667 249.711C276.088 237.512 278.357 224.638 278.372 211.663C278.262 208.754 278.739 205.852 279.776 203.132C280.813 200.411 282.389 197.928 284.408 195.831C286.427 193.733 288.849 192.065 291.528 190.925C294.207 189.786 297.089 189.198 300 189.198C302.911 189.198 305.793 189.786 308.472 190.925C311.151 192.065 313.573 193.733 315.592 195.831C317.611 197.928 319.186 200.411 320.224 203.132C321.261 205.852 321.738 208.754 321.628 211.663C321.616 224.549 323.886 237.336 328.333 249.43C320.131 243.376 310.21 240.098 300.015 240.074C289.76 240.059 279.789 243.448 271.667 249.711ZM260.409 395.913C260.409 413.877 287.198 419.054 319.663 419.054C337.907 419.054 357.711 415.935 374.177 407.484C387.556 401.246 406.767 388.772 406.767 375.206C406.656 370.471 404.723 365.962 401.372 362.616C398.02 359.27 393.507 357.345 388.773 357.242C386.386 357.26 384.027 357.752 381.832 358.689C379.637 359.626 377.65 360.989 375.986 362.7C361.36 377.326 341.681 383.408 319.85 383.408C301.887 383.408 283.019 377.638 278.434 377.638C267.114 377.638 260.409 385.216 260.409 395.913ZM113.832 112.677C163.283 63.5177 230.178 35.9248 299.906 35.9248C369.635 35.9248 436.53 63.5177 485.981 112.677C471.662 105.057 455.855 100.648 439.659 99.754C423.463 98.8605 407.267 101.505 392.197 107.503C377.126 113.501 363.542 122.709 352.39 134.487C341.237 146.264 332.783 160.33 327.616 175.705C319.67 169.598 309.928 166.287 299.906 166.287C289.884 166.287 280.143 169.598 272.197 175.705C267.027 160.343 258.576 146.289 247.43 134.521C236.284 122.752 222.71 113.55 207.651 107.553C192.592 101.556 176.409 98.9083 160.224 99.7931C144.039 100.678 128.241 105.074 113.925 112.677H113.832ZM0.000556917 299.984C0.000340282 344.416 9.86926 388.293 28.8944 428.446C47.9195 468.599 75.6257 504.025 110.012 532.165C144.397 560.304 184.604 580.455 227.727 591.161C270.85 601.867 315.813 602.861 359.367 594.071C402.921 585.281 443.979 566.926 479.575 540.334C515.17 513.741 544.415 479.574 565.196 440.301C585.976 401.028 597.774 357.629 599.737 313.24C601.701 268.851 593.78 224.581 576.547 183.626H582.036C583.645 183.709 585.255 183.463 586.766 182.904C588.278 182.345 589.66 181.484 590.828 180.374C591.997 179.264 592.927 177.928 593.563 176.447C594.199 174.966 594.526 173.372 594.526 171.76C594.526 170.148 594.199 168.554 593.563 167.073C592.927 165.592 591.997 164.256 590.828 163.146C589.66 162.036 588.278 161.175 586.766 160.616C585.255 160.057 583.645 159.811 582.036 159.893H565.257C539.769 111.636 501.599 71.2459 454.858 43.0731C408.116 14.9003 354.575 0.012207 300 0.012207C245.425 0.012207 191.884 14.9003 145.142 43.0731C98.401 71.2459 60.2309 111.636 34.7424 159.893H17.9952C16.3857 159.811 14.7762 160.057 13.2647 160.616C11.7532 161.175 10.3712 162.036 9.20276 163.146C8.03435 164.256 7.10397 165.592 6.46821 167.073C5.83245 168.554 5.50459 170.148 5.50459 171.76C5.50459 173.372 5.83245 174.966 6.46821 176.447C7.10397 177.928 8.03435 179.264 9.20276 180.374C10.3712 181.484 11.7532 182.345 13.2647 182.904C14.7762 183.463 16.3857 183.709 17.9952 183.626H23.4529C7.89937 220.443 -0.0767709 260.016 0.000556917 299.984V299.984ZM166.287 323.717C183.33 323.722 200.148 319.83 215.456 312.338C230.764 304.846 244.156 293.953 254.608 280.492C254.374 282.207 254.28 283.939 254.327 285.669C254.306 288.034 254.757 290.379 255.652 292.568C256.548 294.757 257.87 296.745 259.542 298.417C261.214 300.09 263.203 301.412 265.392 302.307C267.581 303.203 269.926 303.653 272.291 303.632C277.035 303.568 281.566 301.655 284.921 298.3C288.276 294.945 290.19 290.413 290.254 285.669C290.237 284.382 290.478 283.106 290.963 281.914C291.448 280.722 292.166 279.639 293.076 278.729C293.986 277.819 295.068 277.101 296.26 276.616C297.452 276.132 298.729 275.891 300.015 275.908C301.316 275.887 302.609 276.123 303.818 276.603C305.027 277.083 306.13 277.797 307.063 278.703C307.996 279.61 308.741 280.692 309.255 281.888C309.768 283.083 310.041 284.368 310.058 285.669C310.058 290.433 311.95 295.002 315.319 298.371C318.688 301.74 323.257 303.632 328.021 303.632C332.785 303.632 337.354 301.74 340.723 298.371C344.092 295.002 345.985 290.433 345.985 285.669C346.036 284.134 345.932 282.598 345.673 281.084C360.106 299.356 379.87 312.68 402.221 319.207C424.572 325.735 448.401 325.141 470.399 317.509C492.397 309.877 511.473 295.585 524.979 276.617C538.485 257.65 545.75 234.948 545.766 211.663C545.766 208.544 545.766 205.426 545.485 202.307C557.781 233.44 564.129 266.604 564.197 300.077C564.577 334.993 558.027 369.637 544.928 402.005C531.829 434.373 512.44 463.821 487.884 488.646C463.328 513.47 434.092 533.178 401.868 546.628C369.645 560.078 335.074 567.004 300.156 567.004C265.238 567.004 230.667 560.078 198.443 546.628C166.22 533.178 136.984 513.47 112.428 488.646C87.8715 463.821 68.4828 434.373 55.3836 402.005C42.2845 369.637 35.7352 334.993 36.1146 300.077C36.1832 266.604 42.5302 233.44 54.8266 202.307C54.5459 205.426 54.5459 208.7 54.5459 211.663C54.6032 241.31 66.3845 269.731 87.3188 290.723C108.253 311.716 136.641 323.577 166.287 323.717V323.717Z" fill="#000000"/>
</g>
<defs>
<clipPath id="clip0_412_266">
<rect width="600" height="600" fill="white"/>
</clipPath>
</defs>
</svg>
