<svg viewBox="0 0 600 435" xmlns="http://www.w3.org/2000/svg">
<g clip-path="url(#clip0_425_220)">
<path d="M564.156 35.9121H35.9434V399.241H564.156V35.9121Z" fill="white"/>
<path d="M397.946 221.388L564.157 57.185V374.289L397.946 221.388ZM65.1841 35.9108H534.407L299.881 268.599L65.1841 35.9108ZM61.542 399.206L227.412 246.644L284.597 303.149C290.554 308.799 294.23 311.148 299.881 311.148C305.531 311.148 309.173 308.799 315.164 303.149L372.349 246.644L538.22 399.206H61.542ZM35.9449 373.949V57.3892L201.815 221.286L35.9449 373.949ZM19.9807 435.219H582.062C586.789 435.123 591.296 433.202 594.64 429.859C597.984 426.515 599.904 422.008 600 417.28V17.9384C599.904 13.2108 597.984 8.70352 594.64 5.35994C591.296 2.01636 586.789 0.0957113 582.062 0H18.0065C13.267 0.0783176 8.74256 1.9913 5.38447 5.3367C2.02637 8.6821 0.0962694 13.1993 0 17.9384V414.83C0 426.811 6.80773 435.117 19.9807 435.117V435.219Z" fill="#000000"/>
</g>
<defs>
<clipPath id="clip0_425_220">
<rect width="600" height="435" fill="white"/>
</clipPath>
</defs>
</svg>
