<svg viewBox="0 0 361 419" fill="none" xmlns="http://www.w3.org/2000/svg">
<path d="M151.645 248.234V142.972H207.116V248.234H151.645ZM151.645 386.225V280.963H207.116V386.225H151.645ZM179.834 127.516H179.159C173.769 127.487 168.41 126.703 163.237 125.188C147.78 138.596 131.416 145.649 114.819 145.649C78.6687 145.649 66.4014 115.714 66.4014 72.2775C66.4014 51.6068 69.3576 31.3552 74.1296 20.2284C76.5096 14.3419 80.6433 9.33038 85.9695 5.87398C91.2957 2.41758 97.5564 0.683754 103.902 0.907832C125.061 0.907832 148.13 17.2023 164.424 35.2193C169.177 33.5676 174.174 32.7256 179.205 32.7286C184.946 32.6136 190.655 33.6177 196.012 35.6848C213.982 16.3643 236.027 0 256.045 0C262.343 0.00246841 268.51 1.79911 273.824 5.17956C279.138 8.56001 283.379 13.3844 286.05 19.0878C291.94 32.2863 294.454 55.9132 294.454 73.6509C294.454 115.714 281.954 145.021 246.036 145.021C229.439 145.021 213.075 138.037 197.385 124.35C191.796 126.534 185.834 127.61 179.834 127.516Z" fill="white"/>
<path d="M280.09 115.015L283.488 105.937H309.094L317.264 115.015H280.09ZM233.93 248.234H333.722V141.854H233.93V248.234ZM233.93 392.346H321.221V275.05H233.93V392.346ZM45.0305 115.015L53.8994 105.937H81.8327L86.1624 115.015H45.0305ZM26.8506 248.234H125.06V141.854H26.8506V248.234ZM39.3508 392.393H125.06V275.05H39.3508V392.393Z" fill="#FFD200"/>
<path d="M288.492 115.015C289.4 112.059 290.308 109.103 291.215 105.937H309.116L317.286 115.015H288.492ZM233.929 248.234V143.88C237.908 144.606 241.942 144.987 245.987 145.021C252.266 145.092 258.505 144.019 264.399 141.855H333.721V248.234H233.929ZM233.929 392.347V275.05H321.22V392.394L233.929 392.347ZM216.005 53.1897C233.929 33.6364 247.57 26.9324 254.623 26.9324C265.982 26.9324 267.588 48.9764 267.588 71.7188C267.588 105.146 259.86 118.274 246.219 118.274C234.837 118.274 225.758 113.27 216.889 105.774C220.446 97.7189 222.156 88.9702 221.894 80.1687C222.2 70.8264 220.176 61.5548 216.005 53.1897ZM151.665 248.234V142.972H207.136V248.234H151.665ZM151.665 386.225V280.963H207.136V386.225H151.665ZM93.2146 72.5103C93.2146 45.9038 96.6364 27.7238 103.224 27.7238C112.535 27.7238 125.966 34.102 143.239 52.5147C138.792 61.1478 136.598 70.764 136.86 80.4713C136.637 89.8054 138.581 99.0642 142.54 107.52C134.137 114.34 125.059 118.88 115.049 118.88C96.4036 118.88 93.2146 99.3263 93.2146 72.5103ZM45.0296 115.015L53.8984 105.937H69.7972C70.4955 109.103 71.4033 112.059 72.3111 115.015H45.0296ZM39.3498 392.394V275.05H125.059V392.394H39.3498ZM26.8496 248.281V141.901H94.9604C101.203 144.592 107.951 145.91 114.747 145.765C118.182 145.798 121.613 145.494 124.989 144.858V248.281H26.8496ZM0.0103721 261.689C-0.0309827 265.107 1.24816 268.408 3.58121 270.906C5.91426 273.404 9.12125 274.905 12.5338 275.097V405.801C12.5828 409.323 14.0178 412.683 16.5276 415.154C19.0375 417.625 22.42 419.006 25.9418 419H334.722C338.246 419.007 341.631 417.625 344.144 415.155C346.658 412.685 348.098 409.325 348.153 405.801V275.05C351.561 274.853 354.762 273.349 357.091 270.852C359.419 268.355 360.695 265.056 360.653 261.642V128.656C360.724 125.774 359.785 122.958 357.999 120.695C357.595 119.993 357.057 119.376 356.416 118.88L325.085 83.6603C323.813 82.2829 322.269 81.1862 320.549 80.4406C318.829 79.695 316.973 79.317 315.098 79.3307H294.404V73.6509C294.404 55.9132 291.89 32.2863 286.001 19.0878C283.33 13.3844 279.089 8.56001 273.775 5.17956C268.461 1.79911 262.294 0.00246841 255.996 0C235.977 0 213.933 16.2944 195.963 35.6848C190.606 33.6177 184.897 32.6136 179.156 32.7286C174.124 32.7256 169.128 33.5675 164.375 35.2193C148.08 17.2721 125.059 0.907832 103.853 0.907832C97.5071 0.683754 91.2464 2.41758 85.9202 5.87398C80.594 9.33038 76.4603 14.3419 74.0803 20.2284C69.4247 31.3552 66.352 51.6068 66.352 72.2775V79.2608H48.2187C46.4288 79.2318 44.6531 79.5818 43.0083 80.2879C41.3634 80.994 39.8865 82.0402 38.6748 83.3577L4.8056 118.205C3.41612 119.369 2.2557 120.782 1.38376 122.371C0.39324 124.504 -0.0774309 126.842 0.0103721 129.192V261.689ZM179.389 59.5213H179.598C181.537 59.35 183.491 59.5664 185.345 60.1579C187.2 60.7494 188.918 61.7041 190.399 62.9664C193.821 66.1555 195.171 72.5103 195.171 81.5886C195.171 89.0841 193.588 94.5311 190.632 97.2778C188.584 99.6056 184.72 100.676 179.715 100.909C177.666 100.909 171.544 100.909 168.355 97.7201C165.166 94.5311 163.7 88.6185 163.7 80.448C163.7 72.2775 165.283 66.3417 168.355 63.1759C171.424 60.5794 175.377 59.2699 179.389 59.5213Z" fill="#000001"/>
</svg>
