<svg viewBox="0 0 213 213" fill="none" xmlns="http://www.w3.org/2000/svg">
<path d="M153.916 39.0668H33.4314C26.7831 39.0668 21.3936 44.4563 21.3936 51.1047V171.589C21.3936 178.237 26.7831 183.627 33.4314 183.627H153.916C160.564 183.627 165.953 178.237 165.953 171.589V51.1047C165.953 44.4563 160.564 39.0668 153.916 39.0668Z" fill="#00BF3A"/>
<path d="M106.154 92.561C106.154 94.1958 106.639 95.7939 107.547 97.1532C108.456 98.5125 109.747 99.5719 111.257 100.198C112.767 100.823 114.429 100.987 116.033 100.668C117.636 100.349 119.109 99.5617 120.265 98.4057C121.421 97.2498 122.208 95.7769 122.527 94.1736C122.846 92.5702 122.682 90.9082 122.057 89.3978C121.431 87.8875 120.372 86.5965 119.012 85.6883C117.653 84.78 116.055 84.2953 114.42 84.2953C112.232 84.3091 110.138 85.1843 108.591 86.7315C107.043 88.2786 106.168 90.373 106.154 92.561V92.561ZM82.6572 107.898C82.7323 105.019 83.9286 102.283 85.9913 100.274C88.0539 98.2643 90.8197 97.1397 93.6994 97.1397C96.5791 97.1397 99.345 98.2643 101.408 100.274C103.47 102.283 104.667 105.019 104.742 107.898C104.742 109.046 104.286 110.146 103.474 110.958C102.662 111.77 101.561 112.226 100.413 112.226C99.2655 112.226 98.1646 111.77 97.3529 110.958C96.5412 110.146 96.0852 109.046 96.0852 107.898C96.0803 107.584 96.0136 107.275 95.8889 106.987C95.7642 106.7 95.5839 106.439 95.3584 106.222C95.1329 106.004 94.8667 105.833 94.5749 105.718C94.2831 105.603 93.9716 105.547 93.6581 105.553C93.3494 105.55 93.0432 105.609 92.7574 105.726C92.4716 105.842 92.2119 106.015 91.9936 106.233C91.7753 106.451 91.6027 106.711 91.486 106.997C91.3692 107.283 91.3106 107.589 91.3137 107.898C91.3 109.042 90.8399 110.136 90.0313 110.946C89.2228 111.756 88.1298 112.218 86.9854 112.233C86.415 112.238 85.8493 112.13 85.3214 111.913C84.7935 111.697 84.314 111.378 83.911 110.974C83.508 110.571 83.1895 110.09 82.9743 109.562C82.759 109.034 82.6512 108.468 82.6572 107.898V107.898ZM71.8066 128.817C71.8005 128.247 71.9083 127.681 72.1236 127.153C72.3389 126.625 72.6574 126.145 73.0604 125.741C73.4634 125.337 73.9429 125.018 74.4708 124.802C74.9987 124.585 75.5644 124.477 76.1348 124.482C76.7018 124.477 77.264 124.587 77.7877 124.805C78.3115 125.022 78.7862 125.342 79.1836 125.747C79.5811 126.151 79.8932 126.632 80.1013 127.159C80.3095 127.687 80.4095 128.251 80.3954 128.817C80.3954 135.197 87.0681 139.893 93.8234 139.893C100.428 139.893 107.251 135.64 107.251 128.885V128.817C107.237 128.251 107.337 127.688 107.545 127.161C107.753 126.634 108.064 126.154 108.461 125.75C108.857 125.345 109.331 125.025 109.854 124.807C110.377 124.589 110.938 124.478 111.505 124.482C112.075 124.477 112.641 124.585 113.17 124.802C113.698 125.018 114.178 125.337 114.582 125.74C114.985 126.144 115.304 126.624 115.52 127.152C115.737 127.681 115.845 128.247 115.84 128.817V128.885C115.84 142.02 103.584 148.482 93.8234 148.482C82.011 148.482 71.8066 140.119 71.8066 128.817ZM64.6905 92.561C64.6905 94.1958 65.1753 95.7939 66.0836 97.1532C66.9918 98.5125 68.2827 99.5719 69.7931 100.198C71.3035 100.823 72.9654 100.987 74.5688 100.668C76.1722 100.349 77.645 99.5617 78.801 98.4057C79.957 97.2498 80.7442 95.7769 81.0631 94.1736C81.3821 92.5702 81.2184 90.9082 80.5928 89.3978C79.9672 87.8875 78.9077 86.5965 77.5484 85.6883C76.1891 84.78 74.5911 84.2953 72.9562 84.2953C70.7719 84.3206 68.6842 85.1996 67.1396 86.7443C65.5949 88.2889 64.7159 90.3767 64.6905 92.561V92.561ZM30.2 171.596V51.0971C30.2 48.0163 30.3502 47.866 33.4311 47.866H153.923C157.004 47.866 157.154 48.0163 157.154 51.0971V171.596C157.154 174.677 157.004 174.827 153.923 174.827H33.4311C30.3502 174.827 30.2 174.677 30.2 171.596ZM33.4311 183.619H153.923C161.257 183.619 165.946 178.923 165.946 171.596V51.0971C165.946 43.7557 161.249 39.0743 153.923 39.0743H33.4311C26.0896 39.0743 21.4082 43.7707 21.4082 51.0971V171.596C21.3932 178.938 26.0896 183.634 33.4311 183.634V183.619Z" fill="black"/>
</svg>
