<svg viewBox="0 0 160 160" fill="none" xmlns="http://www.w3.org/2000/svg">
<path d="M135.928 79.5576C136.085 53.6778 114.242 23.6043 79.9751 23.6043C72.6121 23.6043 65.3211 25.0546 58.5185 27.8723C51.7159 30.69 45.5349 34.82 40.3284 40.0265C35.122 45.233 30.992 51.414 28.1742 58.2165C25.3565 65.0191 23.9062 72.3101 23.9062 79.6732C23.9062 87.0362 25.3565 94.3272 28.1742 101.13C30.992 107.932 35.122 114.113 40.3284 119.32C45.5349 124.526 51.7159 128.656 58.5185 131.474C65.3211 134.292 72.6121 135.742 79.9751 135.742C110.808 135.742 135.796 110.597 135.928 79.5576Z" fill="white"/>
<path d="M114.837 57.8714L135.928 36.8291C137.273 35.5412 138.27 33.9338 138.826 32.1567L140.279 32.718C146.974 35.5413 150.358 37.0685 150.358 38.1169C150.358 39.3304 150.119 41.6666 148.823 45.9427C147.535 49.9712 145.281 54.8087 144.39 55.1307C139.99 56.7404 122.984 57.632 114.837 57.8714ZM100.489 43.8377C100.646 35.3679 102.016 15.052 103.717 13.6817C106.78 11.2629 116.455 8.04342 120.079 8.04342C121.366 8.04342 123.785 13.4423 126.369 19.7327C124.724 20.2576 123.23 21.1691 122.01 22.3908L100.489 43.8377ZM74.3699 80.4327C74.4293 79.2596 74.9519 78.1581 75.8228 77.37C84.0779 69.1149 112.5 40.6925 126.526 26.7413C127.224 26.0132 128.176 25.5816 129.184 25.536C130.173 25.5421 131.121 25.932 131.828 26.6235C132.535 27.315 132.945 28.2541 132.973 29.2426C132.917 30.4147 132.397 31.5163 131.528 32.3053C119.195 44.5641 89.2869 74.4725 80.8172 82.934C80.1197 83.6635 79.1673 84.0953 78.159 84.1392C77.1715 84.1333 76.2248 83.7445 75.5181 83.0548C74.8114 82.365 74.3998 81.428 74.3699 80.4409V80.4327ZM33.1768 79.5494C33.2227 67.1643 38.1788 55.303 46.958 46.5671C55.7373 37.8311 67.623 32.9338 80.0081 32.9492C84.944 32.948 89.8467 33.7568 94.5207 35.3431C94.2813 40.5026 94.1162 45.5795 94.0419 49.2861C89.6537 47.2139 84.861 46.1397 80.0081 46.1409C73.3558 46.1164 66.8461 48.0682 61.3046 51.7488C55.7632 55.4294 51.4397 60.6729 48.8826 66.8142C46.3256 72.9555 45.6501 79.7179 46.9419 86.2437C48.2337 92.7695 51.4346 98.7645 56.1386 103.468C60.8425 108.172 66.8376 111.373 73.3634 112.665C79.8891 113.957 86.6515 113.282 92.7929 110.724C98.9342 108.167 104.178 103.844 107.858 98.3025C111.539 92.761 113.491 86.2513 113.466 79.5989C113.481 74.3568 112.238 69.1877 109.842 64.525C113.466 64.4425 118.626 64.2031 123.876 63.8811C125.695 68.9101 126.623 74.218 126.617 79.5659C126.617 85.7007 125.408 91.7754 123.061 97.4433C120.713 103.111 117.272 108.261 112.934 112.599C108.596 116.937 103.446 120.378 97.7782 122.726C92.1104 125.073 86.0356 126.282 79.9008 126.282C73.766 126.282 67.6913 125.073 62.0235 122.726C56.3556 120.378 51.2057 116.937 46.8678 112.599C42.5298 108.261 39.0887 103.111 36.7411 97.4433C34.3934 91.7754 33.185 85.7007 33.185 79.5659L33.1768 79.5494ZM80.0907 159.517C93.0589 159.513 105.829 156.333 117.285 150.256C128.741 144.18 138.535 135.39 145.812 124.656C153.089 113.922 157.627 101.569 159.029 88.6771C160.432 75.785 158.657 62.7456 153.859 50.6977C155.551 46.2647 156.756 41.3446 156.756 38.1169C156.756 32.718 152.629 31.1083 142.722 26.8321L138.405 25.0572C137.319 22.9528 135.581 21.2559 133.452 20.2197C131.124 14.7053 127.814 6.11172 124.834 3.14812C123.95 2.18227 122.58 1.77777 120.64 1.77777C116.512 1.77777 110.891 3.4288 106.375 5.16238C97.9171 2.24893 89.0364 0.75114 80.0907 0.72937C59.0309 0.72937 38.8336 9.09535 23.9421 23.9869C9.05055 38.8784 0.68457 59.0757 0.68457 80.1355C0.68457 101.195 9.05055 121.393 23.9421 136.284C38.8336 151.176 59.0309 159.542 80.0907 159.542V159.517Z" fill="#FF3801"/>
<path d="M114.837 57.8714L135.929 36.829C137.273 35.5412 138.27 33.9337 138.826 32.1566L140.279 32.718C146.974 35.5412 150.359 37.0684 150.359 38.1168C150.359 39.3304 150.119 41.6665 148.823 45.9427C147.535 49.9712 145.282 54.8087 144.39 55.1307C139.99 56.7404 122.985 57.632 114.837 57.8714ZM100.489 43.8377C100.646 35.3679 102.017 15.052 103.717 13.6817C106.78 11.2629 116.455 8.0434 120.079 8.0434C121.367 8.0434 123.785 13.4422 126.369 19.7327C124.725 20.2576 123.23 21.1691 122.01 22.3908L100.489 43.8377ZM74.3701 80.4327C74.4296 79.2596 74.9521 78.1581 75.823 77.37C84.0782 69.1149 112.501 40.6924 126.526 26.7413C127.225 26.0132 128.176 25.5816 129.184 25.536C130.173 25.5421 131.121 25.932 131.828 26.6235C132.535 27.315 132.945 28.2541 132.973 29.2426C132.917 30.4146 132.397 31.5163 131.529 32.3052C119.195 44.5641 89.2871 74.4724 80.8174 82.934C80.1199 83.6635 79.1676 84.0953 78.1592 84.1392C77.1717 84.1333 76.225 83.7445 75.5183 83.0547C74.8116 82.365 74.4 81.428 74.3701 80.4409V80.4327Z" fill="#B3D9FF"/>
<path d="M114.837 57.8714L135.928 36.8291C137.273 35.5412 138.27 33.9338 138.826 32.1567L140.279 32.718C146.974 35.5413 150.358 37.0685 150.358 38.1169C150.358 39.3304 150.119 41.6666 148.823 45.9427C147.535 49.9712 145.281 54.8087 144.39 55.1307C139.99 56.7404 122.984 57.632 114.837 57.8714ZM100.489 43.8377C100.646 35.3679 102.016 15.052 103.717 13.6817C106.78 11.2629 116.455 8.04342 120.079 8.04342C121.366 8.04342 123.785 13.4423 126.369 19.7327C124.724 20.2576 123.23 21.1691 122.01 22.3908L100.489 43.8377ZM74.3699 80.4327C74.4293 79.2596 74.9519 78.1581 75.8228 77.37C84.0779 69.1149 112.5 40.6925 126.526 26.7413C127.224 26.0132 128.176 25.5816 129.184 25.536C130.173 25.5421 131.121 25.932 131.828 26.6235C132.535 27.315 132.945 28.2541 132.973 29.2426C132.917 30.4147 132.397 31.5163 131.528 32.3053C119.195 44.5641 89.2869 74.4725 80.8172 82.934C80.1197 83.6635 79.1673 84.0953 78.159 84.1392C77.1715 84.1333 76.2248 83.7445 75.5181 83.0548C74.8114 82.365 74.3998 81.428 74.3699 80.4409V80.4327ZM55.5812 79.6072C55.5943 73.1601 58.1669 66.982 62.7334 62.4309C67.3 57.8799 73.4867 55.3283 79.9338 55.3371C82.568 55.3071 85.1866 55.7431 87.6689 56.6249L79.6862 64.525C76.7021 64.5641 73.7962 65.4853 71.3345 67.1725C68.8728 68.8597 66.9653 71.2375 65.8522 74.0065C64.7391 76.7756 64.4702 79.8121 65.0793 82.7336C65.6883 85.6552 67.1482 88.3313 69.275 90.4249C71.4019 92.5185 74.1006 93.936 77.0314 94.499C79.9622 95.062 82.9941 94.7453 85.7452 93.5887C88.4964 92.4322 90.8439 90.4875 92.4921 87.9995C94.1403 85.5115 95.0156 82.5915 95.0077 79.6072C95.0235 78.9869 94.9959 78.3662 94.9252 77.7498L102.355 70.3201C103.592 73.2533 104.221 76.4072 104.204 79.5907C104.263 82.8204 103.679 86.0297 102.484 89.0309C101.289 92.0321 99.5081 94.7651 97.2451 97.0702C94.9821 99.3754 92.2823 101.206 89.3036 102.456C86.3249 103.706 83.127 104.35 79.8967 104.35C76.6664 104.35 73.4685 103.706 70.4898 102.456C67.5111 101.206 64.8113 99.3754 62.5483 97.0702C60.2853 94.7651 58.5043 92.0321 57.3095 89.0309C56.1147 86.0297 55.5299 82.8204 55.5895 79.5907L55.5812 79.6072ZM33.1768 79.5246C33.2227 67.1395 38.1788 55.2782 46.958 46.5423C55.7373 37.8064 67.623 32.909 80.0081 32.9244C84.9454 32.9312 89.8481 33.7483 94.5207 35.3431C94.2813 40.5026 94.1162 45.5795 94.0419 49.2861C89.6537 47.2139 84.861 46.1397 80.0081 46.1409C73.3558 46.1164 66.846 48.0682 61.3046 51.7488C55.7632 55.4294 51.4397 60.6729 48.8826 66.8142C46.3256 72.9555 45.6501 79.7179 46.9419 86.2437C48.2337 92.7695 51.4346 98.7645 56.1386 103.468C60.8425 108.172 66.8376 111.373 73.3633 112.665C79.8891 113.957 86.6515 113.282 92.7929 110.724C98.9342 108.167 104.178 103.844 107.858 98.3025C111.539 92.761 113.491 86.2513 113.466 79.5989C113.481 74.3568 112.238 69.1877 109.842 64.525C113.466 64.4425 118.626 64.2031 123.876 63.8811C125.695 68.9101 126.623 74.218 126.617 79.5659C126.617 85.7007 125.408 91.7754 123.061 97.4433C120.713 103.111 117.272 108.261 112.934 112.599C108.596 116.937 103.446 120.378 97.7782 122.726C92.1104 125.073 86.0356 126.282 79.9008 126.282C73.766 126.282 67.6913 125.073 62.0235 122.726C56.3556 120.378 51.2057 116.937 46.8678 112.599C42.5298 108.261 39.0887 103.111 36.7411 97.4433C34.3934 91.7754 33.185 85.7007 33.185 79.5659L33.1768 79.5246ZM10.1945 80.086C10.2232 69.4541 12.6715 58.9683 17.3539 49.423C22.0363 39.8777 28.8299 31.5234 37.22 24.9932C45.6101 18.463 55.3765 13.9282 65.7791 11.7324C76.1818 9.53656 86.9478 9.73737 97.2614 12.3196C96.5684 14.4963 96.109 16.7406 95.891 19.0145C95.6516 20.8636 95.4122 23.1421 95.1646 25.7011C90.2347 24.3001 85.1333 23.5944 80.0081 23.6043C68.9076 23.5749 58.0481 26.8412 48.8056 32.9894C39.5631 39.1375 32.3535 47.8908 28.0904 58.1402C23.8273 68.3895 22.7025 79.6737 24.8585 90.5629C27.0145 101.452 32.3543 111.456 40.2013 119.308C48.0483 127.16 58.0493 132.505 68.9373 134.668C79.8252 136.83 91.1101 135.712 101.362 131.455C111.614 127.198 120.371 119.994 126.525 110.755C132.679 101.516 135.951 90.6582 135.928 79.5576C135.937 74.0071 135.102 68.4874 133.452 63.1877C135.788 62.9483 137.885 62.7915 139.495 62.5438C143.622 61.9825 145.868 61.4211 147.238 60.769C150.022 70.386 150.708 80.4891 149.249 90.3942C147.789 100.299 144.219 109.775 138.78 118.181C133.34 126.586 126.159 133.725 117.721 139.114C109.283 144.503 99.7853 148.017 89.8716 149.416C79.958 150.816 69.8592 150.07 60.259 147.228C50.6587 144.386 41.7811 139.515 34.2269 132.944C26.6727 126.373 20.6183 118.256 16.4735 109.143C12.3287 100.029 10.1902 90.131 10.2027 80.119L10.1945 80.086ZM80.0907 159.492C93.0558 159.486 105.822 156.307 117.276 150.231C128.729 144.156 138.521 135.369 145.798 124.638C153.074 113.907 157.612 101.558 159.017 88.6698C160.423 75.7811 158.651 62.7443 153.859 50.6977C155.551 46.2647 156.756 41.3446 156.756 38.1169C156.756 32.718 152.629 31.1083 142.722 26.8321C141.195 26.1882 139.66 25.6269 138.372 25.0572C137.286 22.9528 135.548 21.2559 133.419 20.2197C131.124 14.7053 127.814 6.11172 124.834 3.14812C123.95 2.18227 122.58 1.77777 120.64 1.77777C116.512 1.77777 110.891 3.4288 106.375 5.16238C97.9171 2.24893 89.0363 0.75114 80.0907 0.72937C59.0309 0.72937 38.8336 9.09535 23.9421 23.9869C9.05055 38.8784 0.68457 59.0757 0.68457 80.1355C0.68457 101.195 9.05055 121.393 23.9421 136.284C38.8336 151.176 59.0309 159.542 80.0907 159.542V159.492Z" fill="black"/>
</svg>
