<svg viewBox="0 0 512 512" fill="none" xmlns="http://www.w3.org/2000/svg">
<path d="M255.999 512.025C248.733 512.025 244.049 507.074 233.138 497.706C229.252 494.592 219.618 486.023 207.162 474.339C144.247 415.789 78.511 342.042 39.2555 270.557C16.6337 229.758 0 185.046 0 141.4C0 57.6989 63.687 0 141.054 0C163.51 0.00512386 185.642 5.35966 205.617 15.6202C225.592 25.8808 242.835 40.7522 255.919 59.003C269.012 40.7549 286.261 25.8859 306.239 15.6259C326.218 5.36588 348.352 0.00957305 370.811 0C449.029 0 511.865 58.5505 511.865 141.4C511.865 184.541 495.737 228.214 472.609 270.557C434.046 341.509 368.283 415.336 304.942 474.393C292.487 486.076 282.852 494.646 278.701 498.345C268.481 506.542 263.291 512.025 255.999 512.025Z" fill="#F8C7CE"/>
<path d="M293.447 184.807C293.447 179.306 295.078 173.929 298.134 169.356C301.19 164.782 305.534 161.217 310.616 159.112C315.698 157.007 321.29 156.457 326.685 157.53C332.08 158.603 337.035 161.252 340.925 165.141C344.814 169.031 347.463 173.986 348.536 179.381C349.609 184.776 349.058 190.368 346.953 195.45C344.848 200.532 341.284 204.875 336.71 207.931C332.137 210.987 326.759 212.618 321.259 212.618C317.6 212.643 313.972 211.941 310.587 210.552C307.201 209.163 304.125 207.115 301.538 204.528C298.951 201.94 296.903 198.865 295.514 195.479C294.125 192.094 293.423 188.466 293.447 184.807ZM219.115 233.138C219.373 223.558 223.359 214.457 230.226 207.772C237.093 201.087 246.298 197.347 255.882 197.347C265.465 197.347 274.67 201.087 281.537 207.772C288.404 214.457 292.391 223.558 292.649 233.138C292.649 237.239 291.02 241.172 288.12 244.071C285.22 246.971 281.287 248.6 277.186 248.6C273.085 248.6 269.152 246.971 266.253 244.071C263.353 241.172 261.724 237.239 261.724 233.138C261.71 231.624 261.102 230.177 260.032 229.107C258.962 228.037 257.515 227.43 256.002 227.416C255.234 227.398 254.47 227.532 253.755 227.811C253.039 228.089 252.386 228.506 251.832 229.038C251.278 229.569 250.834 230.205 250.527 230.909C250.219 231.613 250.054 232.37 250.04 233.138C250.04 237.239 248.411 241.172 245.511 244.071C242.611 246.971 238.678 248.6 234.577 248.6C230.476 248.6 226.543 246.971 223.644 244.071C220.744 241.172 219.115 237.239 219.115 233.138ZM184.517 283.704C184.517 279.603 186.146 275.67 189.046 272.77C191.945 269.87 195.878 268.241 199.979 268.241C204.08 268.241 208.013 269.87 210.913 272.77C213.813 275.67 215.442 279.603 215.442 283.704C215.442 303.185 235.19 317.211 255.975 317.211C277.266 317.211 296.268 303.185 296.268 283.704C296.268 279.603 297.898 275.67 300.797 272.77C303.697 269.87 307.63 268.241 311.731 268.241C315.832 268.241 319.765 269.87 322.665 272.77C325.565 275.67 327.194 279.603 327.194 283.704C327.194 320.085 295.763 347.897 255.975 347.897C217.278 347.764 184.543 320.032 184.543 283.571L184.517 283.704ZM162.693 184.94C162.667 179.434 164.276 174.044 167.316 169.453C170.355 164.862 174.69 161.276 179.769 159.151C184.849 157.025 190.445 156.456 195.849 157.514C201.252 158.572 206.22 161.21 210.123 165.094C214.026 168.978 216.688 173.933 217.772 179.332C218.856 184.73 218.313 190.329 216.212 195.419C214.111 200.509 210.546 204.86 205.97 207.922C201.393 210.984 196.011 212.618 190.505 212.618C186.854 212.618 183.239 211.899 179.866 210.501C176.493 209.103 173.429 207.054 170.849 204.471C168.268 201.888 166.222 198.822 164.827 195.448C163.433 192.074 162.716 188.458 162.72 184.807L162.693 184.94ZM30.8215 141.4C30.8215 173.869 42.2389 211.58 64.5946 252.885C101.242 320.99 162.587 389.601 223.4 447.805C237.425 460.819 248.869 470.693 256.135 476.921C263.427 470.693 274.764 460.952 288.896 447.805C347.527 392.209 411.4 320.032 447.568 252.885C469.924 211.58 481.341 173.869 481.341 141.4C481.341 74.5987 431.44 30.4197 370.894 30.4197C328.312 30.4197 289.801 55.623 270.826 93.8406C266.94 101.638 261.99 105.258 256.002 105.258C250.014 105.258 244.85 101.638 240.432 92.2703C231.164 73.8313 216.993 58.3033 199.475 47.392C181.958 36.4808 161.773 30.6083 141.136 30.4197C81.0952 30.4197 30.8215 74.3326 30.8215 141.4ZM256.135 512.025C248.869 512.025 244.185 507.074 233.273 497.706C229.388 494.592 219.754 486.023 207.298 474.339C144.383 415.789 78.6467 342.042 39.3912 270.557C16.7694 229.758 0.135742 185.046 0.135742 141.4C0.135742 57.6989 63.8228 0 141.189 0C163.646 0.00512386 185.777 5.35966 205.752 15.6202C225.728 25.8808 242.971 40.7522 256.055 59.003C269.148 40.7549 286.397 25.8859 306.375 15.6259C326.354 5.36588 348.488 0.00957305 370.947 0C449.165 0 512.001 58.5505 512.001 141.4C512.001 184.541 495.873 228.214 472.745 270.557C434.049 341.509 368.286 415.336 304.945 474.393C292.489 486.076 282.855 494.646 278.703 498.345C268.484 506.542 263.294 512.025 256.002 512.025H256.135Z" fill="black"/>
</svg>
