<svg viewBox="0 0 328 376" fill="none" xmlns="http://www.w3.org/2000/svg">
<path d="M302.8 55.6516H313.293C316.239 55.6516 302.8 42.2126 302.8 45.1584V55.6516ZM302.8 360.772C302.8 363.697 316.239 350.258 313.293 350.258H302.8V360.772ZM14.6663 350.258C11.742 350.258 25.1811 363.697 25.1811 360.772V350.258H14.6663ZM14.6663 55.6731H302.8V350.258H25.2026V45.1584C25.2026 42.2126 11.7635 55.6516 14.6663 55.6516V55.6731Z" fill="white"/>
<path d="M187.933 76.0368V19.9583C187.856 18.9728 187.993 17.9822 188.335 17.0547C188.677 16.1273 189.216 15.285 189.915 14.586C190.614 13.887 191.456 13.3479 192.384 13.0058C193.311 12.6637 194.302 12.5267 195.287 12.6044C197.206 12.6439 199.031 13.4382 200.367 14.8149C201.704 16.1916 202.444 18.0397 202.426 19.9583V75.8648C202.455 77.7866 201.719 79.6411 200.38 81.0202C199.041 82.3993 197.209 83.1901 195.287 83.2186C193.365 83.2472 191.511 82.5111 190.132 81.1723C188.753 79.8335 187.962 78.0017 187.933 76.0798V76.0368ZM125.576 76.0368V19.9583C125.495 18.9719 125.629 17.9797 125.97 17.0505C126.311 16.1214 126.85 15.2776 127.55 14.5777C128.249 13.8779 129.093 13.3389 130.022 12.9981C130.951 12.6573 131.944 12.523 132.93 12.6044C134.85 12.6383 136.679 13.4309 138.016 14.8088C139.354 16.1867 140.092 18.038 140.069 19.9583V75.8648C140.135 76.8461 140.001 77.8307 139.674 78.7584C139.347 79.6862 138.835 80.5377 138.169 81.2612C137.503 81.9846 136.696 82.5649 135.798 82.9665C134.9 83.3682 133.93 83.5829 132.947 83.5975C131.963 83.6121 130.987 83.4263 130.078 83.0515C129.168 82.6767 128.345 82.1207 127.657 81.4174C126.97 80.714 126.432 79.8781 126.078 78.9604C125.724 78.0428 125.561 77.0627 125.598 76.0798L125.576 76.0368ZM63.2189 76.0368V19.9583C63.1412 18.9728 63.2782 17.9822 63.6203 17.0547C63.9624 16.1273 64.5015 15.285 65.2005 14.586C65.8995 13.887 66.7417 13.3479 67.6692 13.0058C68.5967 12.6637 69.5873 12.5267 70.5727 12.6044C72.4928 12.6383 74.3214 13.4309 75.6591 14.8088C76.9967 16.1867 77.7346 18.038 77.7116 19.9583V75.8648C77.7257 76.8164 77.5523 77.7615 77.2011 78.646C76.85 79.5306 76.3281 80.3374 75.6652 81.0202C75.0023 81.7031 74.2114 82.2487 73.3376 82.6259C72.4639 83.0031 71.5243 83.2045 70.5727 83.2186C69.6211 83.2328 68.6761 83.0593 67.7915 82.7082C66.9069 82.3571 66.1002 81.8352 65.4173 81.1723C64.7344 80.5094 64.1888 79.7185 63.8116 78.8447C63.4344 77.9709 63.233 77.0314 63.2189 76.0798V76.0368ZM250.291 76.0368V19.9583C250.213 18.9728 250.35 17.9822 250.692 17.0547C251.034 16.1273 251.573 15.285 252.272 14.586C252.971 13.887 253.814 13.3479 254.741 13.0058C255.669 12.6637 256.659 12.5267 257.645 12.6044C259.565 12.6383 261.393 13.4309 262.731 14.8088C264.069 16.1867 264.806 18.038 264.783 19.9583V75.8648C264.812 77.7866 264.076 79.6411 262.737 81.0202C261.398 82.3993 259.566 83.1901 257.645 83.2186C255.723 83.2472 253.868 82.5111 252.489 81.1723C251.11 79.8335 250.319 78.0017 250.291 76.0798V76.0368Z" fill="#FFD200"/>
<path d="M250.29 76.0362V19.9577C250.212 18.9722 250.349 17.9816 250.691 17.0541C251.033 16.1267 251.572 15.2844 252.271 14.5854C252.97 13.8864 253.813 13.3473 254.74 13.0052C255.667 12.6631 256.658 12.5261 257.644 12.6038C259.564 12.6378 261.392 13.4303 262.73 14.8082C264.067 16.1861 264.805 18.0374 264.782 19.9577V75.8642C264.811 77.7861 264.075 79.6405 262.736 81.0196C261.397 82.3988 259.565 83.1895 257.644 83.2181C255.722 83.2466 253.867 82.5105 252.488 81.1717C251.109 79.8329 250.318 78.0011 250.29 76.0792V76.0362ZM187.932 76.0362V19.9577C187.855 18.9722 187.992 17.9816 188.334 17.0541C188.676 16.1267 189.215 15.2844 189.914 14.5854C190.613 13.8864 191.455 13.3473 192.383 13.0052C193.31 12.6631 194.301 12.5261 195.286 12.6038C197.204 12.6434 199.03 13.4376 200.366 14.8143C201.703 16.191 202.442 18.0391 202.425 19.9577V75.8642C202.454 77.7861 201.717 79.6405 200.379 81.0196C199.04 82.3988 197.208 83.1895 195.286 83.2181C193.364 83.2466 191.51 82.5105 190.131 81.1717C188.752 79.8329 187.961 78.0011 187.932 76.0792V76.0362ZM125.575 76.0362V19.9577C125.494 18.9713 125.628 17.9791 125.969 17.0499C126.31 16.1208 126.849 15.277 127.548 14.5772C128.248 13.8773 129.092 13.3383 130.021 12.9975C130.95 12.6568 131.943 12.5224 132.929 12.6038C134.849 12.6378 136.678 13.4303 138.015 14.8082C139.353 16.1861 140.091 18.0374 140.068 19.9577V75.8642C140.134 76.8456 140 77.8301 139.673 78.7578C139.346 79.6856 138.834 80.5371 138.168 81.2606C137.501 81.9841 136.695 82.5643 135.797 82.966C134.899 83.3676 133.929 83.5823 132.945 83.5969C131.962 83.6115 130.986 83.4257 130.077 83.0509C129.167 82.6761 128.344 82.1201 127.656 81.4168C126.969 80.7135 126.431 79.8775 126.077 78.9599C125.723 78.0422 125.56 77.0621 125.597 76.0792L125.575 76.0362ZM63.2178 76.0362V19.9577C63.1401 18.9722 63.2771 17.9816 63.6192 17.0541C63.9613 16.1267 64.5004 15.2844 65.1994 14.5854C65.8984 13.8864 66.7407 13.3473 67.6681 13.0052C68.5956 12.6631 69.5862 12.5261 70.5717 12.6038C72.4917 12.6378 74.3204 13.4303 75.658 14.8082C76.9956 16.1861 77.7335 18.0374 77.7105 19.9577V75.8642C77.7246 76.8158 77.5512 77.7609 77.2 78.6454C76.8489 79.53 76.327 80.3368 75.6641 81.0196C75.0012 81.7025 74.2103 82.2481 73.3365 82.6253C72.4628 83.0025 71.5233 83.2039 70.5717 83.2181C69.62 83.2322 68.675 83.0587 67.7904 82.7076C66.9058 82.3565 66.0991 81.8346 65.4162 81.1717C64.7333 80.5088 64.1877 79.7179 63.8105 78.8441C63.4333 77.9703 63.2319 77.0308 63.2178 76.0792V76.0362ZM0.000398368 360.773C-0.0138748 362.703 0.355531 364.618 1.08718 366.405C1.81883 368.191 2.89814 369.815 4.26246 371.181C5.62677 372.548 7.2489 373.629 9.03468 374.364C10.8205 375.098 12.7343 375.47 14.6651 375.459H313.292C315.226 375.473 317.143 375.103 318.932 374.37C320.722 373.638 322.348 372.557 323.716 371.19C325.084 369.824 326.168 368.2 326.903 366.411C327.638 364.623 328.011 362.706 328 360.773V45.1586C328.011 43.224 327.639 41.3063 326.903 39.5167C326.168 37.7272 325.085 36.1013 323.717 34.7332C322.349 33.3652 320.723 32.2823 318.934 31.5472C317.144 30.8121 315.227 30.4395 313.292 30.4509H278.221V21.0113C278.221 14.9261 274.243 0.00333635 257.859 0.00333635C252.402 -0.0947215 247.128 1.97214 243.191 5.75185C239.255 9.53157 236.975 14.7165 236.851 20.1727V31.2895H215.864V21.0113C215.864 14.9261 211.865 0.00333635 195.501 0.00333635C190.045 -0.0947215 184.771 1.97214 180.834 5.75185C176.897 9.53157 174.617 14.7165 174.493 20.1727V31.2895H153.485V21.0113C153.485 14.9261 149.507 0.00333635 133.122 0.00333635C127.668 -0.0946615 122.397 1.97287 118.463 5.75317C114.53 9.53348 112.255 14.7185 112.136 20.1727V31.2895H91.1281V21.0113C91.1281 14.9261 87.1286 0.00333635 70.7652 0.00333635C65.3085 -0.0947215 60.035 1.97214 56.0981 5.75185C52.1613 9.53157 49.8814 14.7165 49.7572 20.1727V30.4509H14.6651C12.7333 30.4423 10.819 30.8172 9.03306 31.5538C7.24717 32.2904 5.62522 33.3742 4.2612 34.7422C2.89718 36.1102 1.81821 37.7353 1.08682 39.5234C0.355427 41.3114 -0.0138464 43.2268 0.000398368 45.1586V360.773ZM233.281 79.0896C233.281 82.2607 233.906 85.4007 235.119 88.3304C236.333 91.2601 238.111 93.922 240.354 96.1643C242.596 98.4066 245.258 100.185 248.188 101.399C251.117 102.612 254.257 103.237 257.428 103.237C260.6 103.237 263.74 102.612 266.669 101.399C269.599 100.185 272.261 98.4066 274.503 96.1643C276.746 93.922 278.524 91.2601 279.738 88.3304C280.951 85.4007 281.576 82.2607 281.576 79.0896C281.562 74.7249 280.406 70.4398 278.221 66.6611V55.6518H302.799V350.236H25.2013V55.6518H49.7572V66.7901C47.3903 70.4846 46.1501 74.7881 46.1878 79.1756C46.1878 85.5799 48.7319 91.7218 53.2604 96.2503C57.7889 100.779 63.9309 103.323 70.3351 103.323C76.7394 103.323 82.8814 100.779 87.4099 96.2503C91.9384 91.7218 94.4825 85.5799 94.4825 79.1756C94.4841 74.7817 93.3271 70.4651 91.1281 66.6611V56.0819H112.136V66.8332C109.759 70.5229 108.518 74.8296 108.567 79.2186C108.567 85.6229 111.111 91.7648 115.639 96.2933C120.168 100.822 126.31 103.366 132.714 103.366C139.118 103.366 145.26 100.822 149.789 96.2933C154.317 91.7648 156.861 85.6229 156.861 79.2186C156.864 74.8082 155.699 70.4756 153.485 66.6611V56.0819H174.493V66.8332C172.126 70.5276 170.886 74.8311 170.924 79.2186C170.924 85.6229 173.468 91.7648 177.996 96.2933C182.525 100.822 188.667 103.366 195.071 103.366C201.475 103.366 207.617 100.822 212.146 96.2933C216.674 91.7648 219.219 85.6229 219.219 79.2186C219.218 74.8115 218.061 70.4816 215.864 66.6611V56.0819H236.851V66.8332C234.492 70.5153 233.252 74.8028 233.281 79.1756V79.0896Z" fill="#000001"/>
</svg>
