<svg viewBox="0 0 73 73" fill="none" xmlns="http://www.w3.org/2000/svg">
<path fill-rule="evenodd" clip-rule="evenodd" d="M36.5 73C56.6584 73 73 56.6584 73 36.5C73 16.3416 56.6584 0 36.5 0C16.3416 0 0 16.3416 0 36.5C0 56.6584 16.3416 73 36.5 73ZM50.8522 26.8635C51.2058 26.4392 51.1484 25.8086 50.7242 25.455C50.2999 25.1015 49.6693 25.1588 49.3158 25.5831L32.8889 45.2953L23.3866 35.7929C22.996 35.4023 22.3629 35.4023 21.9723 35.7929C21.5818 36.1834 21.5818 36.8165 21.9723 37.2071L32.249 47.4838C32.4477 47.6824 32.7208 47.7884 33.0015 47.7756C33.2821 47.7629 33.5445 47.6327 33.7244 47.4168L50.8522 26.8635Z" fill="#F8C7CE"/>
</svg>
