<svg id="Layer_1" data-name="Layer 1" xmlns="http://www.w3.org/2000/svg" viewBox="0 0 68.1 143.63"><title>hand_1</title><polygon points="24.28 154.82 68.1 65.04 0 59.41 24.28 154.82" style="fill:#fff56e"/><path d="M39.73,98.66c.65-15.13,1.77-46,12.08-71.41,0,0-3.6.94-7,6.3-3.18,5-4.74,13-4.74,13A194.3,194.3,0,0,1,43,22.38s-3.37,1.56-5.74,7.43c-2.3,5.67-2.36,13.74-2.36,13.74S28.52,42.12,24.55,47c-3.69,4.52-2.18,12,1,17.18l-11.23,4s-.5,24.49,2.31,46.46" style="fill:none;stroke:#1d1d1b;stroke-width:1.6px"/></svg>