<svg id="Layer_1" data-name="Layer 1" xmlns="http://www.w3.org/2000/svg" viewBox="0 0 57.47 143.87"><title>hand_6</title><path d="M55,147.1l-2.9-112C21.31,35.94-.85,58,0,91.69c.91,34.89,24.19,56.21,55,55.41" style="fill:#fff56e"/><path d="M20.28,57c.09-6.87.42-13,.42-13l7.77.53a14.3,14.3,0,0,1-.78-9.06,11.68,11.68,0,0,1,4.92-6.88s-3.35-9.58-3-14.2c.32-4.43,2.59-6.2,2.59-6.2l4.51,18.37s-2-11.24-.83-16.13C37,5.82,39.73,4.32,39.73,4.32l1.52,21.46S41.36,12,43.45,7c2-4.75,5.15-5.86,5.15-5.86l-2.32,24.9s1.43-11.7,4.15-16.35C53,5.27,56.31,4.59,56.31,4.59A302,302,0,0,0,45.81,68.7" style="fill:none;stroke:#1d1d1b;stroke-width:1.6px"/></svg>