<svg id="Layer_1" data-name="Layer 1" xmlns="http://www.w3.org/2000/svg" viewBox="0 0 52.22 143.52"><title>hand_4</title><polygon points="26.37 40.23 0 170.83 23.53 175.69 52.22 45.57 26.37 40.23" style="fill:#fff56e"/><path d="M16.64,77.5c1.49-15.07,4.74-45.76-1.87-72.4,0,0,3.43,1.44,6,7.22,2.43,5.43,2.86,13.54,2.86,13.54a194.41,194.41,0,0,0,.5-24.35s3.12,2,4.64,8.18c1.47,5.94.4,13.93.4,13.93s6.53-.51,9.78,4.88c3,5,.45,12.19-3.44,16.86l10.56,5.57s-3,24.31-8.85,45.67" style="fill:none;stroke:#1d1d1b;stroke-width:1.6px"/></svg>