<svg id="Layer_1" data-name="Layer 1" xmlns="http://www.w3.org/2000/svg" viewBox="0 0 66.35 144.19"><title>hand_5</title><polygon points="8.86 154.51 66.35 72.81 0 56.46 8.86 154.51" style="fill:#fff56e"/><path d="M40.56,69.88c1.82-6.63,3.17-12.58,3.17-12.58l-7.61-1.63a14.28,14.28,0,0,0,3.25-8.49,11.61,11.61,0,0,0-2.83-8s5.87-8.28,6.82-12.82c.91-4.35-.77-6.67-.77-6.67L33.18,36.13s5-10.24,5.25-15.27c.2-4.81-2-7-2-7L29,34.05s3.7-13.27,3.06-18.62c-.61-5.12-3.33-7-3.33-7L24.11,33S26,21.3,24.63,16.09c-1.28-5-4.23-6.55-4.23-6.55a302.32,302.32,0,0,1-7.59,64.52" style="fill:none;stroke:#1d1d1b;stroke-width:1.6px"/></svg>