<svg id="Layer_1" data-name="Layer 1" xmlns="http://www.w3.org/2000/svg" viewBox="0 0 76.29 143.58"><title>hand_3</title><path d="M41.79,53.21S72.31,77,67.51,106c-4.63,28-38.37,40.78-38.37,40.78S-4.19,122.88.44,94.88c4.8-29,41.35-41.67,41.35-41.67" style="fill:#fff56e"/><path d="M28.68,55.92c2-6,4-11.24,4-11.24l6.66,2.63a13.12,13.12,0,0,1,1.84-8.16,10.66,10.66,0,0,1,6.23-4.66s-.27-9.34,1.31-13.3c1.51-3.79,4-4.71,4-4.71L51.53,33.84s1.36-10.41,3.76-14.37c2.3-3.79,5.12-4.34,5.12-4.34L55.77,34.36s3.93-12,7.14-15.82c3.08-3.61,6.15-3.7,6.15-3.7L60.09,36s4.52-9.87,8.2-13.18C71.82,19.68,74.87,20,74.87,20A278,278,0,0,0,47.8,73.27" style="fill:none;stroke:#1d1d1b;stroke-width:1.6px"/></svg>