<svg id="Layer_1" data-name="Layer 1" xmlns="http://www.w3.org/2000/svg" viewBox="0 0 407 193"><defs><style>.cls-1{fill:#ff4664;}.cls-2{fill:none;stroke:#1d1d1b;stroke-width:1.6px;}</style></defs><title>crowd2_red</title><polygon class="cls-1" points="151.78 182.2 195.6 92.42 127.51 86.79 151.78 182.2"/><polygon class="cls-1" points="346 192.12 403.48 110.41 337.13 94.06 346 192.12"/><path class="cls-1" d="M246.62,95.94s30.52,23.76,25.72,52.77c-4.63,28-38.37,40.78-38.37,40.78s-33.33-23.88-28.7-51.87c4.8-29,41.35-41.68,41.35-41.68"/><path class="cls-1" d="M95.74,168.56,34,75.09c-25.74,17-32.85,47.46-14.3,75.56,19.22,29.13,50.26,34.9,76,17.91"/><path class="cls-2" d="M18.59,110.52c-3.56-5.87-6.5-11.22-6.5-11.22L19,95.64a14.35,14.35,0,0,1-5.46-7.27A11.68,11.68,0,0,1,14,79.93S6.12,73.57,4,69.47c-2.07-3.93-1.08-6.63-1.08-6.63L16.43,76S8.77,67.57,7.19,62.8c-1.52-4.57,0-7.29,0-7.29l12.65,17.4s-7.21-11.75-8.06-17.07c-.82-5.09,1.27-7.7,1.27-7.7L24.27,70.5s-5-10.69-5.13-16.07C19,49.27,21.42,47,21.42,47a301.66,301.66,0,0,0,25,60"/><path class="cls-2" d="M377.7,107.48c1.81-6.63,3.17-12.57,3.17-12.57l-7.62-1.63a14.37,14.37,0,0,0,3.26-8.5,11.65,11.65,0,0,0-2.83-8s5.86-8.29,6.82-12.82c.91-4.35-.78-6.68-.78-6.68l-9.41,16.42s5-10.25,5.25-15.27c.21-4.82-2-7-2-7l-7.38,20.2s3.7-13.28,3.06-18.62c-.61-5.13-3.33-7.06-3.33-7.06l-4.65,24.58s1.86-11.65.52-16.86c-1.28-5-4.23-6.56-4.23-6.56a302.75,302.75,0,0,1-7.6,64.52"/><path class="cls-2" d="M233.51,98.65c2-6,4-11.24,4-11.24L244.15,90A13.2,13.2,0,0,1,246,81.88a10.72,10.72,0,0,1,6.23-4.66s-.27-9.34,1.31-13.29,4-4.72,4-4.72l-1.16,17.36s1.37-10.41,3.76-14.37c2.3-3.79,5.12-4.34,5.12-4.34L260.6,77.1s3.93-12.06,7.14-15.82,6.15-3.71,6.15-3.71l-9,21.19s4.51-9.87,8.19-13.18c3.53-3.17,6.58-2.86,6.58-2.86A277.6,277.6,0,0,0,252.64,116"/><path class="cls-2" d="M167.24,126c.65-15.13,1.76-46,12.07-71.41,0,0-3.6.94-7,6.3-3.17,5-4.74,13-4.74,13a195.61,195.61,0,0,1,2.94-24.17s-3.38,1.56-5.75,7.44c-2.29,5.67-2.36,13.73-2.36,13.73s-6.4-1.43-10.37,3.45c-3.68,4.52-2.17,12,1,17.18l-11.24,4s-.49,24.49,2.31,46.46"/></svg>