<svg id="Layer_1" data-name="Layer 1" xmlns="http://www.w3.org/2000/svg" viewBox="0 0 407 193"><defs><style>.cls-1{fill:#ff4664;}.cls-2{fill:none;stroke:#1d1d1b;stroke-width:1.6px;}</style></defs><title>crowd1_red</title><polygon class="cls-1" points="290.19 44.55 288.84 183.9 313.97 184.25 317.79 44.94 290.19 44.55"/><polygon class="cls-1" points="199.91 57.69 173.54 188.29 197.07 193.15 225.76 63.03 199.91 57.69"/><path class="cls-2" d="M314.86,127.47s3.8-17.21,6.3-39.22,2.49-46.63,2.49-46.63l-14.71-5.38s1.7-6.37-2.41-11-10.41-3-10.41-3,.27-6.47-2-11.37c-2.14-4.69-5.32-5.71-5.32-5.71s4.55,33,6.41,65.75,1.35,68.89,1.35,68.89"/><polygon class="cls-1" points="67.55 50.53 88.99 188.23 113.84 184.47 94.85 46.4 67.55 50.53"/><path class="cls-2" d="M81.92,127.07s-6.44-16.42-12.31-37.78-9.7-45.68-9.7-45.68L73.61,36s-2.67-6,.67-11.25S84.1,20.2,84.1,20.2s-1.27-6.35.17-11.53c1.39-5,4.37-6.47,4.37-6.47s.63,33.33,3.87,66,9.35,68.27,9.35,68.27"/><path class="cls-2" d="M190.18,95c1.49-15.07,4.75-45.76-1.87-72.4,0,0,3.43,1.44,6,7.22,2.43,5.44,2.86,13.54,2.86,13.54a194.3,194.3,0,0,0,.5-24.34s3.12,2,4.64,8.17c1.47,5.94.4,13.93.4,13.93s6.54-.51,9.78,4.88c3,5,.46,12.19-3.43,16.86l10.55,5.57s-3,24.32-8.85,45.67"/></svg>