<svg id="Layer_1" data-name="Layer 1" xmlns="http://www.w3.org/2000/svg" viewBox="0 0 100.08 105.53"><title>flowers</title><path d="M83.07,69.32A266,266,0,0,1,70.29,41.77s-1.91,1.2-5.21,3.56a17.5,17.5,0,0,0,2.15-7c.53-7.39-4.8-13.79-4.8-13.79A24.59,24.59,0,0,0,58,30.25a15.35,15.35,0,0,0-1-2.45c-3.32-6.62-11.18-9.4-11.18-9.4s-2.47,8,.86,14.58C49,37.5,53.39,40.22,56,41.5a23.15,23.15,0,0,0,3.33,8.12c-.69.52-1.41,1.08-2.15,1.66a9.56,9.56,0,0,0-.64-2.21c-1.84-4.35-6.73-6.44-6.73-6.44a15.28,15.28,0,0,0-.71,6.94,11.64,11.64,0,0,0-3.53-3.82c2.45-2.47-.13-10.53-6-18.72l-6.8,5.09a46.47,46.47,0,0,0-5.1-10.61L16.35,29a45.47,45.47,0,0,0,8.15,9.1L20.25,48.23c8.27,3.25,15.82,4.05,18.72,2.15a12.57,12.57,0,0,0,2,3.41,15.57,15.57,0,0,0,7.48,4.64c-1.88,1.62-3.58,3.16-5.08,4.54-1.5-2.19-5-6.6-10.27-8.24C26,52.52,18.56,56.24,18.56,56.24s4,7.3,11.07,9.51a19.59,19.59,0,0,0,11-.2c-2.65,2.55-4.18,4.17-4.18,4.17A513.15,513.15,0,0,0,89.24,92.34c2.6,3.69,6.85,11.32,6.85,11.32l3.09-7.8A292.52,292.52,0,0,1,83.07,69.32ZM15.3,45.3s-3.23,3-7.14,2.9-7-3.2-7-3.2,3.23-3,7.14-2.89S15.3,45.3,15.3,45.3ZM56.76,15.17s-3.44-2.74-4-6.61,2.09-7.42,2.09-7.42,3.43,2.74,4,6.61S56.76,15.17,56.76,15.17Z" style="fill:none;stroke:#1d1d1b;stroke-width:1.6px"/></svg>