<?xml version="1.0" encoding="UTF-8"?>
<svg width="35px" height="35px" viewBox="0 0 35 35" version="1.1" xmlns="http://www.w3.org/2000/svg" xmlns:xlink="http://www.w3.org/1999/xlink">
    <title>Group</title>
    <g id="Page-1" stroke="none" stroke-width="1" fill="none" fill-rule="evenodd">
        <g id="BGE_Mobile_iPhone-SE_Modal_6-Copy" transform="translate(-68.000000, -395.000000)">
            <g id="Group-12" transform="translate(55.000000, 307.000000)">
                <g id="Group-9-Copy" transform="translate(0.000000, 75.000000)">
                    <g id="Group" transform="translate(15.000000, 15.000000)">
                        <path d="M30.9982609,15.4993962 C30.9982609,12.499513 31.0014814,9.50124015 30.9966507,6.50135702 C30.9918199,2.84288441 28.1561565,0.00563585129 24.4976516,0.00241536484 C18.4994426,-0.000805121612 12.5012337,-0.000805121612 6.50302469,0.00241536484 C2.84613003,0.00402560806 0.00563590105,2.84449466 0.00241538617,6.50135702 C-0.000805128722,12.499513 -0.000805128722,18.497669 0.00241538617,24.4958251 C0.00563590105,28.1542977 2.84290952,30.9931565 6.50141443,30.996377 C12.4996234,31.0012077 18.4994426,31.0012077 24.4976516,30.996377 C28.1561565,30.9931565 30.9918199,28.1542977 30.9966507,24.4974353 C31.0030917,21.4975522 30.9982609,18.4992793 30.9982609,15.4993962 Z" id="Stroke-1" stroke="#FFFFFF" stroke-width="3"></path>
                        <path d="M24,15.5157836 C23.9916825,20.213727 20.1535682,24.0099443 15.4186207,24 C10.8215197,23.9900166 6.99170947,20.1257132 7,15.5041592 C7.00831749,10.79127 10.8397885,6.98674959 15.5631105,7 C20.1934275,7.01331979 24.0082905,10.8643381 24,15.5157836 Z" id="Stroke-3" stroke="#FFFFFF" stroke-width="3"></path>
                        <path d="M28,5.99304751 C28.0015436,7.09463005 27.0942802,8.00154303 25.992272,8 C24.9103566,7.99845303 24.0015476,7.08999506 24,6.00849748 C23.9984564,4.90845994 24.908811,3.99845697 26.0092736,4 C27.091189,4.00309196 27.9984524,4.91000493 28,5.99304751" id="Fill-5" fill="#FFFFFF"></path>
                    </g>
                </g>
            </g>
        </g>
    </g>
</svg>