<?xml version="1.0" encoding="utf-8"?>
<!-- Generator: Adobe Illustrator 25.1.0, SVG Export Plug-In . SVG Version: 6.00 Build 0)  -->
<svg version="1.1" id="Ebene_1" xmlns="http://www.w3.org/2000/svg" xmlns:xlink="http://www.w3.org/1999/xlink" x="0px" y="0px"
	 viewBox="0 0 500 500" style="enable-background:new 0 0 500 500;" xml:space="preserve">
<style type="text/css">
	.st0{fill:#FFFFFF;}
	.st1{fill:#FF4664;}
	.st2{fill:#46B4B4;}
	.st3{fill:#785FFF;}
	.st4{fill:none;stroke:#785FFF;stroke-width:25;stroke-miterlimit:10;}
	.st5{fill:none;stroke:#785FFF;stroke-width:26.1746;stroke-miterlimit:10;}
</style>
<g>
	<path class="st0" d="M380.07,119.92C345.33,85.18,299.14,66.05,250,66.05c-48.43,0-95.83,19.63-130.07,53.87
		C85.18,154.66,66.05,200.86,66.05,250c0,29.42,6.73,57.51,20,83.52l5.59,10.94l-17.35,84.18l82.48-19.55l11.35,5.65
		c25.57,12.74,53.12,19.2,81.88,19.2c49.13,0,95.32-19.14,130.07-53.88c34.24-34.24,53.88-81.66,53.88-130.08
		C433.95,200.87,414.82,154.68,380.07,119.92z M362.39,362.39c-30.02,30.02-69.94,46.56-112.39,46.56
		c-24.86,0-48.65-5.58-70.73-16.58l-19.45-9.69l-53.12,12.59l11.21-54.37l-9.59-18.76C96.86,299.7,91.05,275.43,91.05,250
		c0-42.46,16.54-82.38,46.56-112.4c29.58-29.58,70.55-46.55,112.39-46.55c42.46,0,82.38,16.53,112.39,46.54
		c30.03,30.04,46.56,69.95,46.56,112.39C408.95,291.83,391.98,332.8,362.39,362.39z"/>
	<path class="st0" d="M372.1,294.37c-3.03-8.01-9.49-13.98-17.76-16.41l-42.13-13.86l-0.5-0.15c-9.56-2.71-19.84-0.04-26.84,6.96
		l-9.67,9.68c-0.57,0.57-1.47,0.76-2.21,0.47c-16.18-6.43-47.82-33.45-56.44-48.19c-0.29-0.5-0.23-1.14,0.19-1.66l8.42-10.72
		c6.22-7.89,7.53-18.46,3.4-27.6l-19.5-39.95c-3.53-7.68-10.3-13.17-18.6-15.09c-8.45-1.95-17.1,0.1-23.74,5.62
		c-1.43,1.19-34.99,29.34-37.58,54.29c-3.75,36.43,15.77,74.55,58.03,113.3c25.03,22.95,49.98,38.65,74.15,46.66
		c12.52,4.15,24.69,6.23,36.36,6.23c7.35,0,14.51-0.82,21.44-2.47c9.09-2.16,19.18-8.5,30-18.85c7.67-7.33,15.48-16.62,20.4-24.23
		C374.19,311.17,375.13,302.41,372.1,294.37z M348.52,304.84c-8.45,13.09-25.66,30.06-35.18,32.32c-5.23,1.24-10.49,1.81-15.74,1.81
		c-36.95,0-73.56-28.03-93.53-46.33c-36.11-33.11-52.95-64.17-50.06-92.3c0.76-7.29,12.47-24.15,28.7-37.64
		c0.53-0.44,1.08-0.56,1.53-0.56c0.23,0,0.44,0.03,0.59,0.07c0.5,0.12,1.17,0.42,1.52,1.2l19.46,39.87c0.22,0.57,0.11,1.23-0.3,1.76
		l-8.42,10.72c-6.81,8.62-7.65,20.3-2.13,29.74c11.42,19.53,47.41,50.31,68.77,58.8c10.04,4,21.47,1.64,29.14-6.03l9.67-9.68
		c0.56-0.56,1.41-0.79,2.2-0.62l41.99,13.81l0.51,0.16c0.9,0.25,1.29,0.83,1.45,1.27C349.03,304.05,348.65,304.65,348.52,304.84z"/>
</g>
</svg>
